<svg width="510" height="477" viewBox="0 0 510 477" fill="none" xmlns="http://www.w3.org/2000/svg">
<g opacity="0.1" clip-path="url(#clip0)">
<path d="M0.129999 27.45L36.65 6.37L73.17 27.45" stroke="#1D71B8" stroke-width="0.58" stroke-miterlimit="10"/>
<path d="M73.17 -15V27.17L36.65 48.25L0.129999 27.17V-15" stroke="#1D71B8" stroke-width="0.58" stroke-miterlimit="10"/>
<path d="M72.93 27.45L109.44 6.37L145.96 27.45" stroke="#1D71B8" stroke-width="0.58" stroke-miterlimit="10"/>
<path d="M145.96 -15V27.17L109.44 48.25L72.93 27.17V-15" stroke="#1D71B8" stroke-width="0.58" stroke-miterlimit="10"/>
<path d="M145.72 27.45L182.24 6.37L218.75 27.45" stroke="#1D71B8" stroke-width="0.58" stroke-miterlimit="10"/>
<path d="M218.75 -15V27.17L182.24 48.25L145.72 27.17V-15" stroke="#1D71B8" stroke-width="0.58" stroke-miterlimit="10"/>
<path d="M218.51 27.45L255.03 6.37L291.55 27.45" stroke="#1D71B8" stroke-width="0.58" stroke-miterlimit="10"/>
<path d="M291.55 -15V27.17L255.03 48.25L218.51 27.17V-15" stroke="#1D71B8" stroke-width="0.58" stroke-miterlimit="10"/>
<path d="M291.31 27.45L327.83 6.37L364.34 27.45" stroke="#1D71B8" stroke-width="0.58" stroke-miterlimit="10"/>
<path d="M364.34 -15V27.17L327.83 48.25L291.31 27.17V-15" stroke="#1D71B8" stroke-width="0.58" stroke-miterlimit="10"/>
<path d="M364.1 27.45L400.62 6.37L437.14 27.45" stroke="#1D71B8" stroke-width="0.58" stroke-miterlimit="10"/>
<path d="M437.14 -15V27.17L400.62 48.25L364.1 27.17V-15" stroke="#1D71B8" stroke-width="0.58" stroke-miterlimit="10"/>
<path d="M436.9 27.45L473.41 6.37L509.93 27.45" stroke="#1D71B8" stroke-width="0.58" stroke-miterlimit="10"/>
<path d="M509.93 -15V27.17L473.41 48.25L436.9 27.17V-15" stroke="#1D71B8" stroke-width="0.58" stroke-miterlimit="10"/>
<path d="M36.71 90.78L73.22 69.7L109.74 90.78" stroke="#1D71B8" stroke-width="0.58" stroke-miterlimit="10"/>
<path d="M109.74 48.33V90.5L73.22 111.58L36.71 90.5V48.33" stroke="#1D71B8" stroke-width="0.58" stroke-miterlimit="10"/>
<path d="M109.5 90.78L146.02 69.7L182.54 90.78" stroke="#1D71B8" stroke-width="0.58" stroke-miterlimit="10"/>
<path d="M182.54 48.33V90.5L146.02 111.58L109.5 90.5V48.33" stroke="#1D71B8" stroke-width="0.58" stroke-miterlimit="10"/>
<path d="M182.29 90.78L218.81 69.7L255.33 90.78" stroke="#1D71B8" stroke-width="0.58" stroke-miterlimit="10"/>
<path d="M255.33 48.33V90.5L218.81 111.58L182.29 90.5V48.33" stroke="#1D71B8" stroke-width="0.58" stroke-miterlimit="10"/>
<path d="M255.09 90.78L291.61 69.7L328.12 90.78" stroke="#1D71B8" stroke-width="0.58" stroke-miterlimit="10"/>
<path d="M328.12 48.33V90.5L291.61 111.58L255.09 90.5V48.33" stroke="#1D71B8" stroke-width="0.58" stroke-miterlimit="10"/>
<path d="M327.88 90.78L364.4 69.7L400.92 90.78" stroke="#1D71B8" stroke-width="0.58" stroke-miterlimit="10"/>
<path d="M400.92 48.33V90.5L364.4 111.58L327.88 90.5V48.33" stroke="#1D71B8" stroke-width="0.58" stroke-miterlimit="10"/>
<path d="M400.68 90.78L437.19 69.7L473.71 90.78" stroke="#1D71B8" stroke-width="0.58" stroke-miterlimit="10"/>
<path d="M473.71 48.33V90.5L437.19 111.58L400.68 90.5V48.33" stroke="#1D71B8" stroke-width="0.58" stroke-miterlimit="10"/>
<path d="M473.47 90.78L509.99 69.7" stroke="#1D71B8" stroke-width="0.58" stroke-miterlimit="10"/>
<path d="M509.99 111.58L473.47 90.5V48.33" stroke="#1D71B8" stroke-width="0.58" stroke-miterlimit="10"/>
<path d="M0.639999 69.7L37.16 90.78" stroke="#1D71B8" stroke-width="0.58" stroke-miterlimit="10"/>
<path d="M37.16 90.5L0.639999 111.58" stroke="#1D71B8" stroke-width="0.58" stroke-miterlimit="10"/>
<path d="M0.129999 154.02L36.65 132.94L73.17 154.02" stroke="#1D71B8" stroke-width="0.58" stroke-miterlimit="10"/>
<path d="M73.17 111.57V153.74L36.65 174.82L0.129999 153.74V111.57" stroke="#1D71B8" stroke-width="0.58" stroke-miterlimit="10"/>
<path d="M72.93 154.02L109.44 132.94L145.96 154.02" stroke="#1D71B8" stroke-width="0.58" stroke-miterlimit="10"/>
<path d="M145.96 111.57V153.74L109.44 174.82L72.93 153.74V111.57" stroke="#1D71B8" stroke-width="0.58" stroke-miterlimit="10"/>
<path d="M145.72 154.02L182.24 132.94L218.75 154.02" stroke="#1D71B8" stroke-width="0.58" stroke-miterlimit="10"/>
<path d="M218.75 111.57V153.74L182.24 174.82L145.72 153.74V111.57" stroke="#1D71B8" stroke-width="0.58" stroke-miterlimit="10"/>
<path d="M218.51 154.02L255.03 132.94L291.55 154.02" stroke="#1D71B8" stroke-width="0.58" stroke-miterlimit="10"/>
<path d="M291.55 111.57V153.74L255.03 174.82L218.51 153.74V111.57" stroke="#1D71B8" stroke-width="0.58" stroke-miterlimit="10"/>
<path d="M291.31 154.02L327.83 132.94L364.34 154.02" stroke="#1D71B8" stroke-width="0.58" stroke-miterlimit="10"/>
<path d="M364.34 111.57V153.74L327.83 174.82L291.31 153.74V111.57" stroke="#1D71B8" stroke-width="0.58" stroke-miterlimit="10"/>
<path d="M364.1 154.02L400.62 132.94L437.14 154.02" stroke="#1D71B8" stroke-width="0.58" stroke-miterlimit="10"/>
<path d="M437.14 111.57V153.74L400.62 174.82L364.1 153.74V111.57" stroke="#1D71B8" stroke-width="0.58" stroke-miterlimit="10"/>
<path d="M436.9 154.02L473.41 132.94L509.93 154.02" stroke="#1D71B8" stroke-width="0.58" stroke-miterlimit="10"/>
<path d="M509.93 111.57V153.74L473.41 174.82L436.9 153.74V111.57" stroke="#1D71B8" stroke-width="0.58" stroke-miterlimit="10"/>
<path d="M36.71 217.35L73.22 196.27L109.74 217.35" stroke="#1D71B8" stroke-width="0.58" stroke-miterlimit="10"/>
<path d="M109.74 174.9V217.06L73.22 238.15L36.71 217.06V174.9" stroke="#1D71B8" stroke-width="0.58" stroke-miterlimit="10"/>
<path d="M109.5 217.35L146.02 196.27L182.54 217.35" stroke="#1D71B8" stroke-width="0.58" stroke-miterlimit="10"/>
<path d="M182.54 174.9V217.06L146.02 238.15L109.5 217.06V174.9" stroke="#1D71B8" stroke-width="0.58" stroke-miterlimit="10"/>
<path d="M182.29 217.35L218.81 196.27L255.33 217.35" stroke="#1D71B8" stroke-width="0.58" stroke-miterlimit="10"/>
<path d="M255.33 174.9V217.06L218.81 238.15L182.29 217.06V174.9" stroke="#1D71B8" stroke-width="0.58" stroke-miterlimit="10"/>
<path d="M255.09 217.35L291.61 196.27L328.12 217.35" stroke="#1D71B8" stroke-width="0.58" stroke-miterlimit="10"/>
<path d="M328.12 174.9V217.06L291.61 238.15L255.09 217.06V174.9" stroke="#1D71B8" stroke-width="0.58" stroke-miterlimit="10"/>
<path d="M327.88 217.35L364.4 196.27L400.92 217.35" stroke="#1D71B8" stroke-width="0.58" stroke-miterlimit="10"/>
<path d="M400.92 174.9V217.06L364.4 238.15L327.88 217.06V174.9" stroke="#1D71B8" stroke-width="0.58" stroke-miterlimit="10"/>
<path d="M400.68 217.35L437.19 196.27L473.71 217.35" stroke="#1D71B8" stroke-width="0.58" stroke-miterlimit="10"/>
<path d="M473.71 174.9V217.06L437.19 238.15L400.68 217.06V174.9" stroke="#1D71B8" stroke-width="0.58" stroke-miterlimit="10"/>
<path d="M473.47 217.35L509.99 196.27" stroke="#1D71B8" stroke-width="0.58" stroke-miterlimit="10"/>
<path d="M509.99 238.15L473.47 217.07V174.9" stroke="#1D71B8" stroke-width="0.58" stroke-miterlimit="10"/>
<path d="M0.639999 196.27L37.16 217.35" stroke="#1D71B8" stroke-width="0.58" stroke-miterlimit="10"/>
<path d="M37.16 217.07L0.639999 238.15" stroke="#1D71B8" stroke-width="0.58" stroke-miterlimit="10"/>
<path d="M0.51 280.3L37.03 259.22L73.55 280.3" stroke="#1D71B8" stroke-width="0.58" stroke-miterlimit="10"/>
<path d="M73.55 237.85V280.01L37.03 301.1L0.51 280.01V237.85" stroke="#1D71B8" stroke-width="0.58" stroke-miterlimit="10"/>
<path d="M73.31 280.3L109.82 259.22L146.34 280.3" stroke="#1D71B8" stroke-width="0.58" stroke-miterlimit="10"/>
<path d="M146.34 237.85V280.01L109.82 301.1L73.31 280.01V237.85" stroke="#1D71B8" stroke-width="0.58" stroke-miterlimit="10"/>
<path d="M146.1 280.3L182.62 259.22L219.13 280.3" stroke="#1D71B8" stroke-width="0.58" stroke-miterlimit="10"/>
<path d="M219.13 237.85V280.01L182.62 301.1L146.1 280.01V237.85" stroke="#1D71B8" stroke-width="0.58" stroke-miterlimit="10"/>
<path d="M218.89 280.3L255.41 259.22L291.93 280.3" stroke="#1D71B8" stroke-width="0.58" stroke-miterlimit="10"/>
<path d="M291.93 237.85V280.01L255.41 301.1L218.89 280.01V237.85" stroke="#1D71B8" stroke-width="0.58" stroke-miterlimit="10"/>
<path d="M291.69 280.3L328.2 259.22L364.72 280.3" stroke="#1D71B8" stroke-width="0.58" stroke-miterlimit="10"/>
<path d="M364.72 237.85V280.01L328.2 301.1L291.69 280.01V237.85" stroke="#1D71B8" stroke-width="0.58" stroke-miterlimit="10"/>
<path d="M364.48 280.3L401 259.22L437.52 280.3" stroke="#1D71B8" stroke-width="0.58" stroke-miterlimit="10"/>
<path d="M437.52 237.85V280.01L401 301.1L364.48 280.01V237.85" stroke="#1D71B8" stroke-width="0.58" stroke-miterlimit="10"/>
<path d="M437.28 280.3L473.79 259.22L510.31 280.3" stroke="#1D71B8" stroke-width="0.58" stroke-miterlimit="10"/>
<path d="M510.31 237.85V280.01L473.79 301.1L437.28 280.01V237.85" stroke="#1D71B8" stroke-width="0.58" stroke-miterlimit="10"/>
<path d="M37.09 343.63L73.6 322.55L110.12 343.63" stroke="#1D71B8" stroke-width="0.58" stroke-miterlimit="10"/>
<path d="M110.12 301.18V343.34L73.6 364.43L37.09 343.34V301.18" stroke="#1D71B8" stroke-width="0.58" stroke-miterlimit="10"/>
<path d="M109.88 343.63L146.4 322.55L182.91 343.63" stroke="#1D71B8" stroke-width="0.58" stroke-miterlimit="10"/>
<path d="M182.92 301.18V343.34L146.4 364.43L109.88 343.34V301.18" stroke="#1D71B8" stroke-width="0.58" stroke-miterlimit="10"/>
<path d="M182.68 343.63L219.19 322.55L255.71 343.63" stroke="#1D71B8" stroke-width="0.58" stroke-miterlimit="10"/>
<path d="M255.71 301.18V343.34L219.19 364.43L182.68 343.34V301.18" stroke="#1D71B8" stroke-width="0.58" stroke-miterlimit="10"/>
<path d="M255.47 343.63L291.99 322.55L328.5 343.63" stroke="#1D71B8" stroke-width="0.58" stroke-miterlimit="10"/>
<path d="M328.5 301.18V343.34L291.99 364.43L255.47 343.34V301.18" stroke="#1D71B8" stroke-width="0.58" stroke-miterlimit="10"/>
<path d="M328.26 343.63L364.78 322.55L401.3 343.63" stroke="#1D71B8" stroke-width="0.58" stroke-miterlimit="10"/>
<path d="M401.3 301.18V343.34L364.78 364.43L328.26 343.34V301.18" stroke="#1D71B8" stroke-width="0.58" stroke-miterlimit="10"/>
<path d="M401.06 343.63L437.57 322.55L474.09 343.63" stroke="#1D71B8" stroke-width="0.58" stroke-miterlimit="10"/>
<path d="M474.09 301.18V343.34L437.57 364.43L401.06 343.34V301.18" stroke="#1D71B8" stroke-width="0.58" stroke-miterlimit="10"/>
<path d="M473.85 343.63L510.37 322.55" stroke="#1D71B8" stroke-width="0.58" stroke-miterlimit="10"/>
<path d="M510.37 364.43L473.85 343.34V301.18" stroke="#1D71B8" stroke-width="0.58" stroke-miterlimit="10"/>
<path d="M1.02 322.55L37.54 343.63" stroke="#1D71B8" stroke-width="0.58" stroke-miterlimit="10"/>
<path d="M37.54 343.34L1.02 364.43" stroke="#1D71B8" stroke-width="0.58" stroke-miterlimit="10"/>
<path d="M0.51 406.87L37.03 385.79L73.55 406.87" stroke="#1D71B8" stroke-width="0.58" stroke-miterlimit="10"/>
<path d="M73.55 364.41V406.58L37.03 427.67L0.51 406.58V364.41" stroke="#1D71B8" stroke-width="0.58" stroke-miterlimit="10"/>
<path d="M73.31 406.87L109.82 385.79L146.34 406.87" stroke="#1D71B8" stroke-width="0.58" stroke-miterlimit="10"/>
<path d="M146.34 364.41V406.58L109.82 427.67L73.31 406.58V364.41" stroke="#1D71B8" stroke-width="0.58" stroke-miterlimit="10"/>
<path d="M146.1 406.87L182.62 385.79L219.13 406.87" stroke="#1D71B8" stroke-width="0.58" stroke-miterlimit="10"/>
<path d="M219.13 364.41V406.58L182.62 427.67L146.1 406.58V364.41" stroke="#1D71B8" stroke-width="0.58" stroke-miterlimit="10"/>
<path d="M218.89 406.87L255.41 385.79L291.93 406.87" stroke="#1D71B8" stroke-width="0.58" stroke-miterlimit="10"/>
<path d="M291.93 364.41V406.58L255.41 427.67L218.89 406.58V364.41" stroke="#1D71B8" stroke-width="0.58" stroke-miterlimit="10"/>
<path d="M291.69 406.87L328.2 385.79L364.72 406.87" stroke="#1D71B8" stroke-width="0.58" stroke-miterlimit="10"/>
<path d="M364.72 364.41V406.58L328.2 427.67L291.69 406.58V364.41" stroke="#1D71B8" stroke-width="0.58" stroke-miterlimit="10"/>
<path d="M364.48 406.87L401 385.79L437.52 406.87" stroke="#1D71B8" stroke-width="0.58" stroke-miterlimit="10"/>
<path d="M437.52 364.41V406.58L401 427.67L364.48 406.58V364.41" stroke="#1D71B8" stroke-width="0.58" stroke-miterlimit="10"/>
<path d="M437.28 406.87L473.79 385.79L510.31 406.87" stroke="#1D71B8" stroke-width="0.58" stroke-miterlimit="10"/>
<path d="M510.31 364.41V406.58L473.79 427.67L437.28 406.58V364.41" stroke="#1D71B8" stroke-width="0.58" stroke-miterlimit="10"/>
<path d="M37.09 470.2L73.6 449.12L110.12 470.2" stroke="#1D71B8" stroke-width="0.58" stroke-miterlimit="10"/>
<path d="M110.12 427.75V469.91L73.6 491L37.09 469.91V427.75" stroke="#1D71B8" stroke-width="0.58" stroke-miterlimit="10"/>
<path d="M109.88 470.2L146.4 449.12L182.91 470.2" stroke="#1D71B8" stroke-width="0.58" stroke-miterlimit="10"/>
<path d="M182.92 427.75V469.91L146.4 491L109.88 469.91V427.75" stroke="#1D71B8" stroke-width="0.58" stroke-miterlimit="10"/>
<path d="M182.68 470.2L219.19 449.12L255.71 470.2" stroke="#1D71B8" stroke-width="0.58" stroke-miterlimit="10"/>
<path d="M255.71 427.75V469.91L219.19 491L182.68 469.91V427.75" stroke="#1D71B8" stroke-width="0.58" stroke-miterlimit="10"/>
<path d="M255.47 470.2L291.99 449.12L328.5 470.2" stroke="#1D71B8" stroke-width="0.58" stroke-miterlimit="10"/>
<path d="M328.5 427.75V469.91L291.99 491L255.47 469.91V427.75" stroke="#1D71B8" stroke-width="0.58" stroke-miterlimit="10"/>
<path d="M328.26 470.2L364.78 449.12L401.3 470.2" stroke="#1D71B8" stroke-width="0.58" stroke-miterlimit="10"/>
<path d="M401.3 427.75V469.91L364.78 491L328.26 469.91V427.75" stroke="#1D71B8" stroke-width="0.58" stroke-miterlimit="10"/>
<path d="M401.06 470.2L437.57 449.12L474.09 470.2" stroke="#1D71B8" stroke-width="0.58" stroke-miterlimit="10"/>
<path d="M474.09 427.75V469.91L437.57 491L401.06 469.91V427.75" stroke="#1D71B8" stroke-width="0.58" stroke-miterlimit="10"/>
<path d="M473.85 470.2L510.37 449.12" stroke="#1D71B8" stroke-width="0.58" stroke-miterlimit="10"/>
<path d="M510.37 491L473.85 469.91V427.74" stroke="#1D71B8" stroke-width="0.58" stroke-miterlimit="10"/>
<path d="M1.02 449.11L37.54 470.2" stroke="#1D71B8" stroke-width="0.58" stroke-miterlimit="10"/>
<path d="M37.54 469.91L1.02 490.99" stroke="#1D71B8" stroke-width="0.58" stroke-miterlimit="10"/>
</g>
<defs>
<clipPath id="clip0">
<rect width="510" height="477" fill="white"/>
</clipPath>
</defs>
</svg>
