<?xml version="1.0" standalone="no"?>
<!DOCTYPE svg PUBLIC "-//W3C//DTD SVG 1.1//EN" "http://www.w3.org/Graphics/SVG/1.1/DTD/svg11.dtd" >
<svg xmlns="http://www.w3.org/2000/svg" xmlns:xlink="http://www.w3.org/1999/xlink" version="1.1">
<metadata></metadata>
<defs>
<font id="mazzardh_extrabold" horiz-adv-x="1212" >
<font-face units-per-em="2048" ascent="1546" descent="-502" />
<missing-glyph horiz-adv-x="477" />
<glyph unicode="&#xfb01;" horiz-adv-x="1226" d="M14 768v297h144v106q0 156 121 261q123 104 303 104h145v-328h-111q-43 0 -71.5 -25.5t-28.5 -60.5v-57h211v-297h-211v-768h-358v768h-144zM766 1335q0 92 62.5 154.5t154.5 62.5q94 0 155.5 -62.5t61.5 -154.5t-61.5 -153.5t-155.5 -61.5q-92 0 -154.5 61.5 t-62.5 153.5zM805 0v1065h358v-1065h-358z" />
<glyph unicode="&#xfb02;" horiz-adv-x="1226" d="M14 768v297h144v106q0 156 121 261q123 104 303 104h145v-328h-111q-43 0 -71.5 -25.5t-28.5 -60.5v-57h211v-297h-211v-768h-358v768h-144zM805 0v1536h358v-1536h-358z" />
<glyph unicode="&#xfb03;" horiz-adv-x="1878" d="M14 768v297h144v106q0 156 121 261q123 104 303 104h145v-328h-111q-43 0 -71.5 -25.5t-28.5 -60.5v-57h293v106q0 156 121 261q123 104 303 104h145v-328h-110q-43 0 -72 -25.5t-29 -60.5v-57h648v-1065h-359v768h-289v-768h-358v768h-293v-768h-358v768h-144z M1419 1335q0 92 62.5 154.5t152.5 62.5q94 0 155.5 -62.5t61.5 -154.5t-61 -153.5t-156 -61.5q-90 0 -152.5 61.5t-62.5 153.5z" />
<glyph unicode="&#xfb04;" horiz-adv-x="1878" d="M14 768v297h144v106q0 156 121 261q123 104 303 104h145v-328h-111q-43 0 -71.5 -25.5t-28.5 -60.5v-57h293v106q0 156 121 261q123 104 303 104h145v-328h-110q-43 0 -72 -25.5t-29 -60.5v-57h211v-297h-211v-768h-358v768h-293v-768h-358v768h-144zM1456 0v1536h359 v-1536h-359z" />
<glyph horiz-adv-x="0" />
<glyph horiz-adv-x="0" />
<glyph unicode="&#xd;" horiz-adv-x="512" />
<glyph unicode=" "  horiz-adv-x="477" />
<glyph unicode="&#x09;" horiz-adv-x="477" />
<glyph unicode="&#xa0;" horiz-adv-x="477" />
<glyph unicode="!" horiz-adv-x="522" d="M72 166q0 80 53 134t135 54t135.5 -54t53.5 -134q0 -82 -53.5 -136.5t-135.5 -54.5t-135 54.5t-53 136.5zM74 1434h375l-43 -955h-289z" />
<glyph unicode="&#x22;" horiz-adv-x="854" d="M88 1434h299l-27 -557h-243zM467 1434h299l-29 -557h-243z" />
<glyph unicode="#" horiz-adv-x="1435" d="M27 584h290l50 266h-248v260h293l57 324h264l-57 -324h223l57 324h265l-58 -324h246v-260h-291l-47 -266h246v-260h-291l-57 -324h-267l58 324h-221l-58 -324h-266l57 324h-243zM584 584h221l49 266h-223z" />
<glyph unicode="$" horiz-adv-x="1218" d="M39 360l381 78q12 -53 71.5 -89t141.5 -36q70 0 117 26t47 66.5t-64 73.5q-76 39 -184 68q-152 49 -256 106q-100 59 -150.5 142.5t-58.5 212.5q0 178 107.5 296.5t291.5 147.5v219h226v-225q152 -29 259 -120t138 -218l-371 -74q-8 53 -79.5 76t-137 2.5t-61.5 -74.5 q0 -37 63 -75q51 -23 103 -37l137 -41q154 -47 270 -131q141 -102 141 -312q0 -184 -116.5 -307t-315.5 -151v-222h-225v222q-182 29 -307 129q-127 102 -168 247z" />
<glyph unicode="%" horiz-adv-x="1841" d="M47 1065q0 168 111 281q112 112 276 112q168 0 275 -112q111 -113 110 -281q0 -168 -110 -283q-106 -111 -275 -110q-164 0 -276 112q-111 113 -111 281zM293 158l1079 1276l193 -158l-1080 -1276zM319 1065q0 -49 33 -82t82 -33q47 0 81 33t34 82q0 47 -34 81t-81 34 q-49 0 -82 -34t-33 -81zM1022 369q0 168 110.5 280.5t274.5 112.5q166 0 276.5 -112.5t110.5 -280.5t-110.5 -281t-276.5 -113q-164 0 -274.5 113t-110.5 281zM1292 369q0 -47 34 -81t81 -34q49 0 82 34t33 81q0 49 -33 81.5t-82 32.5q-47 0 -81 -32.5t-34 -81.5z" />
<glyph unicode="&#x26;" horiz-adv-x="1458" d="M53 432q0 219 238 371q-90 150 -90 280q0 162 110 269q113 106 283 106q176 0 289 -110q117 -111 116 -275q0 -209 -233 -358l182 -191q53 111 53 242h334q0 -279 -149 -490l266 -276h-434l-64 68q-164 -93 -352 -93q-238 0 -393.5 131.5t-155.5 325.5zM403 428 q0 -57 58.5 -96t144.5 -39q60 0 115 18l-225 238l-4 4q-88 -61 -89 -125zM520 1065q0 -41 43 -115q119 63 119 121q2 41 -40 59.5t-84 0t-38 -65.5z" />
<glyph unicode="'" horiz-adv-x="475" d="M88 1434h299l-27 -557h-243z" />
<glyph unicode="(" horiz-adv-x="677" d="M82 995q27 160 70 281q87 237 153 323l29 39h323l-30 -45q-18 -29 -68 -129q-102 -211 -151 -483q-61 -338 -2 -680q27 -158 69 -281q88 -242 154 -335l28 -43h-323q-20 27 -31 41q-23 35 -67 120q-100 199 -152 482q-63 354 -2 710z" />
<glyph unicode=")" horiz-adv-x="677" d="M20 -358l31 45q23 33 66 129q102 207 151 483q61 342 2 680q-25 154 -69 281q-86 239 -152 335l-29 43h324q20 -27 31 -41q27 -39 65 -120q51 -98 86 -201q39 -115 66 -279q63 -352 2 -712q-27 -158 -70 -283q-90 -242 -151 -321l-29 -39h-324z" />
<glyph unicode="*" horiz-adv-x="937" d="M88 993l219 74l-219 74l127 219l174 -154l-47 228h254l-45 -228l172 154l127 -219l-219 -74l219 -74l-127 -219l-172 154l45 -228h-254l47 228l-174 -154z" />
<glyph unicode="+" horiz-adv-x="1228" d="M102 532v314h357v354h313v-354h354v-314h-354v-354h-313v354h-357z" />
<glyph unicode="," horiz-adv-x="477" d="M43 166q0 74 52 125t130 51q86 0 144.5 -66.5t58.5 -164.5q0 -123 -88 -228q-33 -39 -80 -80q-45 -39 -96 -71l-96 100q121 102 120 150q-61 10 -103 62t-42 122z" />
<glyph unicode="-" horiz-adv-x="819" d="M102 377v313h615v-313h-615z" />
<glyph unicode="." horiz-adv-x="462" d="M43 166q0 80 54.5 134t133.5 54q82 0 135.5 -54t53.5 -134q0 -82 -53.5 -136.5t-135.5 -54.5q-80 0 -134 54.5t-54 136.5z" />
<glyph unicode="/" horiz-adv-x="1220" d="M0 -358l932 1996h289l-932 -1996h-289z" />
<glyph unicode="0" horiz-adv-x="1245" d="M53 500v436q0 223 162 372.5t408 149.5q244 0 405 -149q164 -152 164 -373v-436q0 -223 -164 -375q-162 -150 -405 -150q-246 0 -408 150t-162 375zM414 494q0 -74 60.5 -124.5t148.5 -50.5q90 0 150.5 50.5t60.5 124.5v446q0 74 -60.5 124t-150.5 50q-88 0 -148.5 -50 t-60.5 -124v-446z" />
<glyph unicode="1" horiz-adv-x="937" d="M57 1227l453 207h260v-1434h-360v1020l-217 -98z" />
<glyph unicode="2" horiz-adv-x="1185" d="M29 1100q80 168 225 263t328 95q219 0 374 -133q154 -133 154 -317q0 -229 -317 -510l-166 -154h491v-344h-1042v266l504 469q155 147 155 260q0 49 -45 84t-108 35q-72 0 -129.5 -46t-90.5 -128z" />
<glyph unicode="3" horiz-adv-x="1206" d="M31 342l338 117q10 -61 67.5 -100.5t141.5 -39.5q88 0 144 39t56 98.5t-56 97.5t-138 38h-111v280h70q82 0 138 35t56 88q0 51 -49 85t-129 34q-150 0 -194 -100l-320 123q68 145 211 233t324 88q229 0 378 -131q154 -129 154 -326q0 -160 -131 -253q172 -111 172 -302 q0 -203 -162 -337q-164 -133 -401 -134q-209 0 -359 101q-152 102 -200 266z" />
<glyph unicode="4" horiz-adv-x="1292" d="M47 252v344l705 838h344v-840h155v-342h-155v-252h-359v252h-690zM475 594h262v311z" />
<glyph unicode="5" horiz-adv-x="1228" d="M37 391l360 96q25 -78 81.5 -123t131.5 -45q82 0 136.5 46.5t54.5 111.5q0 74 -66.5 122t-167.5 48h-415l77 787h813v-328h-518l-14 -131h133q229 0 379 -144q152 -145 152 -352q0 -217 -160 -360q-158 -143 -402 -144q-205 0 -362 115q-154 113 -213 301z" />
<glyph unicode="6" horiz-adv-x="1214" d="M57 453v493q0 221 162 365q162 147 406 147q178 0 319 -81t207 -222l-324 -154q-57 113 -200 113q-90 0 -149.5 -47t-59.5 -115v-80q90 61 227 62q217 0 373 -139q154 -139 153 -342q0 -205 -159 -342q-156 -135 -396 -136q-242 0 -399 138q-160 137 -160 340zM432 454.5 q0 -57.5 52.5 -96.5t131.5 -39q78 0 129.5 38t51.5 96q0 59 -51.5 98t-129.5 39q-80 0 -132 -39t-52 -96.5z" />
<glyph unicode="7" horiz-adv-x="1116" d="M31 1106v328h1056v-349l-514 -1085h-399l522 1106h-665z" />
<glyph unicode="8" horiz-adv-x="1224" d="M53 418q0 197 174 325q-147 121 -147 295q0 178 151 299q156 121 383 121q229 0 379 -123q152 -121 152 -299q0 -172 -146 -293q174 -131 175 -329q0 -188 -160 -314q-158 -125 -400 -125q-240 0 -401 127q-160 125 -160 316zM426 451q0 -55 53 -93.5t135 -38.5 q80 0 132.5 37t52.5 90q0 55 -52.5 91t-132.5 36q-82 0 -135 -34.5t-53 -87.5zM455 1010q0 -45 46 -76t113.5 -31t111.5 31t44 76q0 43 -44 73.5t-111.5 30.5t-113.5 -30.5t-46 -73.5z" />
<glyph unicode="9" horiz-adv-x="1224" d="M47 274l320 150q59 -104 208 -105q102 0 167 46.5t65 115.5v68q-78 -59 -219 -60q-215 0 -371 140q-154 141 -154 348q0 203 158 342t393 139q238 0 396 -139q160 -139 159 -344v-490q0 -217 -168 -364q-170 -145 -417 -146q-182 0 -326.5 81t-210.5 218zM438 974.5 q0 -61.5 50 -101t128 -39.5q76 0 127.5 39.5t51.5 99.5q0 61 -51.5 101t-129.5 40q-76 0 -126 -39t-50 -100.5z" />
<glyph unicode=":" horiz-adv-x="462" d="M43 166q0 80 54.5 134t133.5 54q82 0 135.5 -54t53.5 -134q0 -82 -53.5 -136.5t-135.5 -54.5q-80 0 -134 54.5t-54 136.5zM43 901q0 80 54.5 134.5t133.5 54.5q82 0 135.5 -54.5t53.5 -134.5q0 -82 -53.5 -136t-135.5 -54q-80 0 -134 54t-54 136z" />
<glyph unicode=";" horiz-adv-x="462" d="M43 901q0 80 54.5 134.5t133.5 54.5q82 0 135.5 -54.5t53.5 -134.5q0 -82 -53.5 -136t-135.5 -54q-80 0 -134 54t-54 136zM51 166q0 74 52.5 125t127.5 51q86 0 144.5 -66.5t58.5 -164.5q0 -203 -262 -379l-96 100q117 100 121 150q-61 10 -103.5 62t-42.5 122z" />
<glyph unicode="&#x3c;" horiz-adv-x="1228" d="M82 573v287l1024 481v-346l-592 -278l592 -275v-344z" />
<glyph unicode="=" horiz-adv-x="1228" d="M102 324v315h1024v-315h-1024zM102 797v313h1024v-313h-1024z" />
<glyph unicode="&#x3e;" horiz-adv-x="1228" d="M123 98v344l592 275l-592 278v346l1024 -481v-287z" />
<glyph unicode="?" horiz-adv-x="1255" d="M39 1087q53 168 203 269q152 102 358 102q242 0 404 -137q164 -139 163 -346q0 -102 -44 -185t-109.5 -129.5t-116.5 -70t-90 -31.5l-23 -4l-16 -76h-297l-41 273q31 2 131 30q70 23 115 43q55 25 94 66t39 84q0 59 -58.5 99t-146.5 40q-74 0 -130 -35t-75 -90zM412 162 q0 88 57 147.5t145 59.5t146.5 -59.5t58.5 -147.5q0 -86 -58.5 -144.5t-146.5 -58.5t-145 58.5t-57 144.5z" />
<glyph unicode="@" horiz-adv-x="1953" d="M43 532q0 395 266 660q266 266 666 266q391 0 663 -256q270 -256 271 -608q0 -227 -117 -369q-119 -139 -303 -137q-190 2 -305 141q-115 -141 -293 -141q-166 0 -281 127q-111 129 -110.5 317.5t110.5 315.5q115 129 281 129q119 0 213 -68v47h285v-499q0 -47 30.5 -80 t73.5 -33q63 2 104 67.5t41 174.5q0 244 -192.5 422t-471 178t-470.5 -189q-188 -188 -189 -465q0 -281 186.5 -467t467.5 -186q133 0 237 47l62 -250q-141 -70 -318 -69q-385 0 -645 266q-262 268 -262 659zM799 532.5q0 -69.5 44 -116.5t107 -47q66 0 110 47t44 116.5 t-44 116.5t-110 47q-63 0 -107 -47t-44 -116.5z" />
<glyph unicode="A" horiz-adv-x="1511" d="M6 0l596 1434h309l594 -1434h-391l-84 213h-547l-86 -213h-391zM614 543h285l-141 356z" />
<glyph unicode="B" horiz-adv-x="1370" d="M74 0v1434h710q203 0 342 -117q137 -117 138 -293q0 -164 -123 -279q174 -119 174 -325q0 -182 -141 -301q-138 -119 -349 -119h-751zM449 344h370q45 0 76 33t31 80t-31 79.5t-76 32.5h-370v-225zM449 885h329q35 0 61.5 22.5t32.5 59.5q2 4 2 20q0 45 -27.5 74 t-68.5 29h-329v-205z" />
<glyph unicode="C" horiz-adv-x="1542" d="M53 716.5q0 317.5 217 528.5q219 213 541 213q231 0 420 -115q184 -113 274 -307l-364 -133q-45 92 -132 144.5t-198 52.5q-156 0 -262 -111q-104 -109 -105 -270q0 -164 105 -275q108 -108 259 -108h3q111 0 198 52t132 144l364 -135q-90 -195 -274 -307 q-186 -115 -420 -115q-322 0 -541 213q-217 211 -217 528.5z" />
<glyph unicode="D" horiz-adv-x="1482" d="M74 0v1434h598q322 0 540 -207q217 -205 218 -511q0 -304 -218 -509q-218 -207 -540 -207h-598zM449 344h223q156 0 260 107q106 106 106 266q0 158 -106 264q-104 109 -260 109h-223v-746z" />
<glyph unicode="E" d="M74 0v1434h1083v-344h-708v-195h587v-344h-587v-207h718v-344h-1093z" />
<glyph unicode="F" horiz-adv-x="1198" d="M74 0v1434h1083v-344h-708v-203h587v-344h-587v-543h-375z" />
<glyph unicode="G" horiz-adv-x="1613" d="M53 717q0 319 221 530q219 211 547 211q231 0 418 -112q190 -115 281 -310l-365 -133q-47 92 -136 144.5t-198 52.5q-162 0 -270 -111q-107 -110 -107 -272q0 -161 104 -271q105 -110 261 -110q100 0 187 50t130 136h-370v301h796q8 -47 9 -84q0 -330 -215 -546 q-211 -217 -539 -218q-317 0 -535 211q-219 214 -219 531z" />
<glyph unicode="H" horiz-adv-x="1435" d="M74 0v1434h375v-539h538v539h375v-1434h-375v551h-538v-551h-375z" />
<glyph unicode="I" horiz-adv-x="522" d="M74 0v1434h375v-1434h-375z" />
<glyph unicode="J" horiz-adv-x="1189" d="M10 233l309 203q66 -117 207 -117q100 0 168 66t68 162v887h360v-891q0 -244 -172 -406q-170 -162 -432 -162q-160 0 -294 70t-214 188z" />
<glyph unicode="K" horiz-adv-x="1376" d="M74 0v1434h375v-519l407 519h473l-549 -699l590 -735h-473l-448 559v-559h-375z" />
<glyph unicode="L" horiz-adv-x="1148" d="M74 0v1434h375v-1090h663v-344h-1038z" />
<glyph unicode="M" horiz-adv-x="1779" d="M74 0v1434h366l451 -797l448 797h367v-1434h-367v743l-325 -600h-248l-326 598v-741h-366z" />
<glyph unicode="N" horiz-adv-x="1452" d="M74 0v1434h334l610 -793v793h360v-1434h-334l-610 791v-791h-360z" />
<glyph unicode="O" horiz-adv-x="1622" d="M53 716.5q0 317.5 217 528.5q219 213 541 213t541 -213q217 -211 217 -528.5t-217 -528.5q-219 -213 -541 -213t-541 213q-217 211 -217 528.5zM444 719q0 -164 105 -275q108 -108 259 -108h3q158 0 262 110q107 110 107 275q0 163 -107 268q-106 111 -262 111t-262 -111 q-105 -108 -105 -270z" />
<glyph unicode="P" horiz-adv-x="1312" d="M74 0v1434h659q233 0 385 -144q154 -141 154 -354q0 -215 -156 -358q-152 -143 -383 -144h-284v-434h-375zM449 778h284q63 0 106.5 45t43.5 113q0 66 -43.5 110t-106.5 44h-284v-312z" />
<glyph unicode="Q" horiz-adv-x="1622" d="M53 716.5q0 317.5 217 528.5q219 213 541 213t541 -213q217 -211 217 -528q0 -242 -135 -430l141 -142l-240 -239l-157 157q-162 -88 -367 -88q-322 0 -541 213q-217 211 -217 528.5zM444 719q0 -164 105 -275q108 -108 259 -108h3q35 0 86 10l-170 170l238 240l186 -187 q29 74 29 150q0 164 -107 270q-106 111 -262 111t-262 -111q-105 -108 -105 -270z" />
<glyph unicode="R" horiz-adv-x="1372" d="M74 0v1434h680q233 0 385 -144q153 -140 153 -351q0 -136 -65.5 -247.5t-177.5 -179.5l292 -512h-415l-248 434h-229v-434h-375zM449 778h305q63 0 106 45t43 113q0 66 -43 110t-106 44h-305v-312z" />
<glyph unicode="S" horiz-adv-x="1218" d="M39 360l381 78q12 -53 71.5 -89t141.5 -36q70 0 117 26t47 66.5t-64 73.5q-76 39 -184 68q-152 49 -256 106q-100 59 -150.5 142.5t-58.5 212.5q0 201 137 325.5t359 124.5q197 0 342 -98q147 -98 184 -252l-371 -74q-7 53 -79 76q-38 12 -74 12q-32 0 -64 -10 q-62 -19 -61 -68v-6q0 -37 63 -75q51 -23 103 -37l137 -41q154 -47 270 -131q141 -102 141 -312q0 -215 -149 -340q-152 -127 -391 -127q-221 0 -383 106.5t-209 278.5z" />
<glyph unicode="T" horiz-adv-x="1263" d="M37 1090v344h1190v-344h-408v-1090h-375v1090h-407z" />
<glyph unicode="U" horiz-adv-x="1423" d="M68 586v848h374v-846q0 -117 76 -193t195 -76q115 0 190 76q78 78 78 193v846h375v-848q0 -258 -185 -434q-186 -176 -458 -177q-274 0 -461 177q-184 176 -184 434z" />
<glyph unicode="V" horiz-adv-x="1490" d="M6 1434h391l351 -893l346 893h391l-584 -1434h-309z" />
<glyph unicode="W" horiz-adv-x="2045" d="M6 1434h383l244 -824l235 824h310l239 -824l240 824h383l-475 -1434h-310l-231 776l-231 -776h-312z" />
<glyph unicode="X" horiz-adv-x="1482" d="M6 0l514 731l-493 703h446l268 -385l271 385h444l-491 -703l512 -731h-445l-291 414l-288 -414h-447z" />
<glyph unicode="Y" horiz-adv-x="1454" d="M6 1434h430l285 -488l299 488h428l-539 -830v-604h-374v592z" />
<glyph unicode="Z" horiz-adv-x="1275" d="M61 0v289l629 801h-622v344h1144v-287l-632 -803h639v-344h-1158z" />
<glyph unicode="[" horiz-adv-x="727" d="M88 -358v1996h619v-303h-295v-1390h295v-303h-619z" />
<glyph unicode="\" horiz-adv-x="1220" d="M0 1638h289l932 -1996h-289z" />
<glyph unicode="]" horiz-adv-x="727" d="M20 -55h295v1390h-295v303h619v-1996h-619v303z" />
<glyph unicode="^" horiz-adv-x="1228" d="M102 696l369 738h289l366 -732h-354l-156 320l-161 -326h-353z" />
<glyph unicode="_" horiz-adv-x="477" d="M0 -102h477v-299h-477v299z" />
<glyph unicode="`" horiz-adv-x="729" d="M68 1647l147 256l447 -285l-107 -176z" />
<glyph unicode="a" d="M37 532.5q0 235.5 139 397.5q141 160 350 160q143 0 265 -84v59h358v-1065h-358v59q-121 -84 -265 -84q-209 0 -350 160q-139 162 -139 397.5zM412 535q0 -86 54 -146.5t132 -60.5t133 59.5t55 147.5q0 86 -55 144t-133 58t-132 -58t-54 -144z" />
<glyph unicode="b" d="M63 0v1536h359v-530q121 84 264 84q211 0 348 -160q142 -161 142 -399q0 -236 -142 -396q-137 -160 -348 -160q-143 0 -264 84v-59h-359zM426 535q0 -88 55.5 -147.5t133 -59.5t133 59t55.5 148q0 86 -55.5 144t-133 58t-133 -58t-55.5 -144z" />
<glyph unicode="c" horiz-adv-x="1177" d="M37 532.5q0 237.5 164 397.5t409 160q197 0 342 -107q150 -104 209 -276l-360 -107q-23 63 -74 100t-117 37q-84 0 -141 -58t-57 -142q0 -88 57 -148.5t141 -60.5q66 0 117 36.5t74 100.5l360 -107q-57 -170 -209 -278q-147 -104 -342 -105q-246 0 -409.5 160 t-163.5 397.5z" />
<glyph unicode="d" d="M37 532.5q0 235.5 139 397.5q141 160 350 160q143 0 265 -84v530h358v-1536h-358v59q-121 -84 -265 -84q-209 0 -350 160q-139 162 -139 397.5zM412 535q0 -86 54 -146.5t132 -60.5t133 59.5t55 147.5q0 86 -55 144t-133 58t-132 -58t-54 -144z" />
<glyph unicode="e" horiz-adv-x="1206" d="M37 532q0 236 164 396q162 162 405.5 162t405.5 -162q164 -160 164 -396q-1 -71 -15 -126h-739q55 -139 207 -140q106 0 172 78l344 -63q-70 -141 -209 -223.5t-313 -82.5q-250 0 -420 160q-166 164 -166 397zM422 664h389q-23 61 -76 98t-121 37q-63 0 -116 -37t-76 -98 z" />
<glyph unicode="f" horiz-adv-x="741" d="M14 768v297h144v106q0 156 121 261q123 104 303 104h145v-328h-111q-43 0 -71.5 -25.5t-28.5 -60.5v-57h211v-297h-211v-768h-358v768h-144z" />
<glyph unicode="g" d="M37 532.5q0 235.5 139 397.5q141 160 350 160q143 0 265 -84v59h358v-1049q0 -211 -157.5 -356t-389.5 -145q-190 0 -338 98q-145 96 -194 248l350 71q23 -39 72 -63.5t104 -24.5q82 0 138.5 47.5t56.5 118.5v49q-122 -84 -265 -84q-209 0 -350 160q-139 162 -139 397.5z M412 530q0 -84 54 -143t132 -59t133 59t55 143q0 88 -54 147.5t-134 59.5q-78 0 -132 -59.5t-54 -147.5z" />
<glyph unicode="h" horiz-adv-x="1148" d="M63 0v1536h359v-557q106 111 266 111q168 0 281 -117q117 -117 116 -287v-686h-358v598q0 70 -43 116t-108.5 46t-109.5 -46t-44 -116v-598h-359z" />
<glyph unicode="i" horiz-adv-x="485" d="M27 1335q0 92 62.5 154.5t152.5 62.5q94 0 155.5 -62.5t61.5 -154.5t-61.5 -153.5t-155.5 -61.5q-90 0 -152.5 61.5t-62.5 153.5zM63 0v1065h359v-1065h-359z" />
<glyph unicode="j" horiz-adv-x="493" d="M-102 -119h73q45 0 74 21.5t29 56.5v1106h358v-1157q0 -156 -125 -262.5t-307 -106.5h-102v342zM37 1335q0 92 61 154q63 63 155.5 63t154.5 -63q61 -61 61 -153.5t-61.5 -154t-153.5 -61.5q-90 1 -156 62q-61 61 -61 153z" />
<glyph unicode="k" horiz-adv-x="1122" d="M63 0v1536h359v-840l246 369h417l-340 -514l371 -551h-424l-270 406v-406h-359z" />
<glyph unicode="l" horiz-adv-x="485" d="M63 0v1536h359v-1536h-359z" />
<glyph unicode="m" horiz-adv-x="1746" d="M63 0v1065h359v-82q102 104 252 104q199 0 311 -153q99 153 300 153h3q164 0 279 -114q117 -113 116 -281v-692h-358v604q0 66 -39 111t-96 45t-97 -45t-40 -111v-604h-359v604q0 66 -39 111t-96 45t-97 -45t-40 -111v-604h-359z" />
<glyph unicode="n" horiz-adv-x="1142" d="M63 0v1065h359v-86q102 111 264 111q166 0 279 -117q115 -119 114 -287v-686h-358v598q0 70 -42 116t-106 46q-66 0 -108.5 -46t-42.5 -116v-598h-359z" />
<glyph unicode="o" horiz-adv-x="1222" d="M37 532q0 236 164 396q162 162 409.5 162t409.5 -162q166 -160 166 -396q0 -233 -166 -397q-164 -160 -409.5 -160t-409.5 160q-164 164 -164 397zM412 532.5q0 -83.5 58 -144t140 -60.5q84 0 142.5 60.5t58.5 144t-58.5 144t-142.5 60.5q-82 0 -140 -60.5t-58 -144z" />
<glyph unicode="p" d="M63 -461v1526h359v-59q121 84 264 84q211 0 348 -160q142 -161 142 -399q0 -237 -142 -396q-137 -160 -348 -160q-143 0 -264 84v-520h-359zM426 530q0 -84 55.5 -143t133 -59t133 59t55.5 143q0 88 -54.5 147.5t-134 59.5t-134 -59.5t-54.5 -147.5z" />
<glyph unicode="q" d="M37 532.5q0 235.5 139 397.5q141 160 350 160q143 0 265 -84v59h358v-1526h-358v520q-121 -84 -265 -84q-209 0 -350 160q-139 162 -139 397.5zM412 530q0 -84 54 -143t132 -59t133 59t55 143q0 88 -54 147.5t-134 59.5q-78 0 -132 -59.5t-54 -147.5z" />
<glyph unicode="r" horiz-adv-x="739" d="M63 0v1065h359v-90q102 115 264 115q27 0 35 -3v-368q-47 35 -113 35q-80 0 -133 -54.5t-53 -136.5v-563h-359z" />
<glyph unicode="s" horiz-adv-x="991" d="M31 301l323 45q25 -88 154 -88q108 0 108 52q0 40 -96 65l-170 43q-162 39 -232.5 113.5t-70.5 205.5q0 178 119 265.5t330 87.5q197 0 312.5 -78t133.5 -219l-324 -52q-20 74 -131 74q-94 0 -94 -45q0 -33 74 -55l162 -49q178 -55 253.5 -133t75.5 -203 q0 -170 -119.5 -262.5t-336.5 -92.5q-209 0 -329 84t-142 242z" />
<glyph unicode="t" horiz-adv-x="768" d="M14 754v311h140v203h358v-203h217v-311h-217v-330q0 -41 28.5 -68.5t73.5 -27.5h117v-328h-194q-162 0 -272.5 98.5t-110.5 243.5v412h-140z" />
<glyph unicode="u" horiz-adv-x="1142" d="M63 379v686h359v-596q0 -72 43 -118t106.5 -46t106.5 47t43 117v596h358v-1065h-358v86q-102 -111 -264 -111q-166 0 -279 117q-115 119 -115 287z" />
<glyph unicode="v" horiz-adv-x="1185" d="M6 1065h369l219 -619l217 619h369l-412 -1065h-350z" />
<glyph unicode="w" horiz-adv-x="1587" d="M6 1065h361l129 -504l131 504h334l131 -504l129 504h360l-326 -1065h-329l-131 477l-133 -477h-330z" />
<glyph unicode="x" horiz-adv-x="1198" d="M6 0l377 549l-352 516h418l149 -240l152 240h417l-352 -516l377 -549h-418l-176 276l-174 -276h-418z" />
<glyph unicode="y" horiz-adv-x="1144" d="M6 1065h369l194 -590l201 590h369l-426 -1149q-78 -199 -211 -288t-348 -89h-33v342h33q186 0 247 113z" />
<glyph unicode="z" horiz-adv-x="991" d="M51 0v236l385 503h-375v326h869v-236l-381 -503h391v-326h-889z" />
<glyph unicode="{" horiz-adv-x="765" d="M20 496v286q8 2 64 27q119 63 119 145v287q0 168 114.5 282.5t286.5 114.5h141v-297h-106q-49 0 -81 -32.5t-32 -79.5v-281q0 -123 -62.5 -202.5t-174.5 -104.5q113 -27 175 -106.5t62 -202.5v-281q0 -47 32 -79.5t81 -32.5h106v-297h-141q-172 0 -286.5 114.5 t-114.5 282.5v287q0 47 -43 90t-94 63z" />
<glyph unicode="|" horiz-adv-x="438" d="M88 -358v1996h262v-1996h-262z" />
<glyph unicode="}" horiz-adv-x="765" d="M20 -61h109q47 0 80 32.5t33 79.5v281q0 123 61.5 202.5t173.5 106.5q-113 25 -174 104.5t-61 202.5v281q0 47 -33 79.5t-80 32.5h-109v297h142q172 0 287 -114q117 -115 116 -283v-287q0 -47 42 -91t93 -64l45 -17v-286q-20 -4 -63 -27q-117 -63 -117 -143v-287 q0 -170 -116 -283q-115 -115 -287 -114h-142v297z" />
<glyph unicode="~" horiz-adv-x="1228" d="M102 520q4 176 101 295q98 119 243 119q80 0 186.5 -60.5t123.5 -60.5q35 0 59.5 29.5t24.5 75.5h286q-4 -178 -100 -297q-99 -119 -244 -119q-59 0 -124.5 30.5t-114.5 61.5t-70 31q-35 0 -59.5 -30t-24.5 -75h-287z" />
<glyph unicode="&#xa1;" horiz-adv-x="522" d="M72 901q0 80 53 134.5t135 54.5t135.5 -54.5t53.5 -134.5q0 -82 -53.5 -136t-135.5 -54t-135 54t-53 136zM74 -369l43 969h289l43 -969h-375z" />
<glyph unicode="&#xa2;" horiz-adv-x="1177" d="M37 717q0 209 129 360q131 154 332 187v217h227v-217q154 -29 270.5 -129.5t165.5 -243.5l-360 -107q-23 63 -74 100.5t-117 37.5q-84 0 -141 -58.5t-57 -142.5q0 -88 57 -148.5t141 -60.5q66 0 117 37t74 100l360 -106q-49 -143 -165.5 -243.5t-270.5 -129.5v-217h-227 v217q-201 33 -332 186q-129 152 -129 361z" />
<glyph unicode="&#xa3;" horiz-adv-x="1308" d="M55 0v344h150v238h-117v219h117v168q0 207 149 348q150 141 363 141q184 0 340 -108q154 -109 203 -269l-361 -98q-18 55 -68.5 93t-109.5 38q-63 0 -109.5 -43t-46.5 -102v-168h363v-219h-363v-238h631v-344h-1141z" />
<glyph unicode="&#xa4;" horiz-adv-x="1144" d="M88 422l137 135q-35 80 -35 160q0 82 35 162l-137 137l184 184l138 -137q74 33 159 33q88 0 162 -33l141 137l185 -184l-142 -139q76 -160 0 -320l140 -137l-185 -184l-137 137q-80 -35 -164 -35t-159 35l-138 -135zM453 717q0 -49 33.5 -84t82.5 -35q51 0 85 35t34 84 q0 51 -33.5 85t-85.5 34q-49 0 -82.5 -34t-33.5 -85z" />
<glyph unicode="&#xa5;" horiz-adv-x="1454" d="M6 1434h430l285 -488l299 488h428l-510 -787h209v-219h-238v-66h238v-219h-238v-143h-374v143h-238v219h238v66h-238v219h205z" />
<glyph unicode="&#xa6;" horiz-adv-x="438" d="M88 -358v831h262v-831h-262zM88 807v831h262v-831h-262z" />
<glyph unicode="&#xa7;" horiz-adv-x="976" d="M31 -51l321 78q8 -51 46 -85t94 -34q53 0 87.5 28.5t34.5 73.5q0 59 -59 88l-252 113q-117 51 -181.5 146.5t-64.5 215.5q0 131 78 234q-78 102 -78 237q0 176 123 295q121 119 312 119q160 0 277.5 -89t152.5 -232l-320 -86q-6 45 -36.5 73.5t-76.5 28.5 q-43 0 -71.5 -28.5t-28.5 -71.5q0 -61 49 -84l246 -101q186 -70 244.5 -257t-62.5 -351q80 -98 80 -237q0 -180 -131 -299q-127 -119 -328 -119q-174 0 -301 96t-155 248zM377 586q0 -68 47 -90l168 -76q23 23 22 61q0 76 -63 103l-154 69q-20 -20 -20 -67z" />
<glyph unicode="&#xa8;" horiz-adv-x="915" d="M68 1606q0 72 49 122t122.5 50t123 -50.5t49.5 -121.5q0 -74 -49.5 -123t-123 -49t-122.5 49t-49 123zM504 1606q0 72 49 122t121 50q76 0 125 -49.5t49 -123t-49 -122.5t-125 -49q-72 0 -121 49t-49 123z" />
<glyph unicode="&#xa9;" horiz-adv-x="1581" d="M55 717q0 305 215.5 520t520.5 215q303 0 518 -217q217 -215 217 -518q0 -305 -215 -520t-520.5 -215t-520.5 215t-215 520zM184 717q0 -250 178.5 -428t428 -178t428 178t178.5 428t-178.5 428t-428 178t-428 -178t-178.5 -428zM373 717q0 176 123 295q127 121 307 121 q133 0 238.5 -63.5t156.5 -174.5l-213 -76q-55 106 -182 107q-86 0 -144.5 -59.5t-58.5 -147.5t58.5 -148.5t144.5 -60.5q127 0 182 104l213 -75q-51 -111 -156.5 -174.5t-238.5 -63.5q-182 0 -307 119q-123 121 -123 297z" />
<glyph unicode="&#xaa;" horiz-adv-x="837" d="M18.5 1061q-0.5 162 96.5 274q94 111 237 111q102 0 180 -60v48h269v-746h-269v47q-78 -59 -180 -59q-143 0 -237 110q-96 113 -96.5 275zM299 1063q0 -51 33 -90q35 -37 82 -37t80 37q35 39 35 90t-35 86q-33 37 -80 37t-82 -37q-33 -35 -33 -86z" />
<glyph unicode="&#xab;" horiz-adv-x="1204" d="M41 532l420 418l198 -196l-221 -222l221 -219l-198 -198zM535 532l419 418l199 -196l-221 -222l221 -219l-199 -198z" />
<glyph unicode="&#xac;" horiz-adv-x="1228" d="M102 561v313h1024v-581h-299v268h-725z" />
<glyph unicode="&#xad;" horiz-adv-x="819" d="M102 377v313h615v-313h-615z" />
<glyph unicode="&#xae;" horiz-adv-x="1581" d="M55 717q0 305 215.5 520t520.5 215q303 0 518 -217q217 -215 217 -518q0 -305 -215 -520t-520.5 -215t-520.5 215t-215 520zM184 717q0 -250 178.5 -428t428 -178t428 178t178.5 428t-178.5 428t-428 178t-428 -178t-178.5 -428zM455 311v811h385q133 0 221 -82t88 -204 q0 -156 -135 -238l162 -287h-244l-135 240h-123v-240h-219zM674 752h166q35 0 59.5 24.5t24.5 59.5q0 37 -23.5 61.5t-60.5 24.5h-166v-170z" />
<glyph unicode="&#xaf;" horiz-adv-x="780" d="M68 1493v246h645v-246h-645z" />
<glyph unicode="&#xb0;" horiz-adv-x="866" d="M47 1167.5q0 167.5 111 280.5q112 113 276 113q168 0 275 -113q111 -113 110 -281q0 -168 -110 -282q-106 -111 -275 -111q-164 0 -276 113q-111 113 -111 280.5zM319 1167q0 -49 33 -81.5t82 -32.5q47 0 81 32.5t34 81.5q0 47 -34 81t-81 34q-49 0 -82 -34t-33 -81z" />
<glyph unicode="&#xb1;" horiz-adv-x="1228" d="M102 53v314h1024v-314h-1024zM102 696v314h357v354h313v-354h354v-314h-354v-264h-313v264h-357z" />
<glyph unicode="&#xb2;" horiz-adv-x="653" d="M12 1348q43 92 125 145t185 53q125 0 206 -73q86 -74 86 -177q0 -125 -176 -278l-78 -70h258v-200h-579v155l274 252q82 74 82 135q0 23 -22.5 39.5t-50.5 16.5q-78 0 -115 -93z" />
<glyph unicode="&#xb3;" horiz-adv-x="665" d="M16 946l197 68q-2 -45 52 -63.5t107.5 -1t47.5 56.5q0 31 -26.5 49t-69.5 18h-62v154h37q43 0 70.5 16t27.5 45q0 25 -23.5 41.5t-64.5 16.5q-76 0 -100 -52l-186 62q37 86 118.5 138t184.5 52q123 0 206 -73q84 -72 84 -183q0 -84 -71 -131q94 -51 94 -158 q0 -113 -88 -188.5t-221 -75.5q-115 0 -200 57.5t-114 151.5z" />
<glyph unicode="&#xb4;" horiz-adv-x="729" d="M68 1618l446 285l148 -256l-488 -205z" />
<glyph unicode="&#xb5;" horiz-adv-x="1142" d="M63 -461v1526h359v-596q0 -72 43 -118t106.5 -46t106.5 47t43 117v596h358v-1065h-358v86q-102 -111 -264 -111q-47 0 -78 9v-445h-316z" />
<glyph unicode="&#xb6;" horiz-adv-x="1466" d="M57 987q0 190 127 318q129 129 322 129h915v-254h-190v-1538h-260v1538h-205v-1538h-260v899q-190 0 -322 127q-127 131 -127 319z" />
<glyph unicode="&#xb7;" horiz-adv-x="462" d="M43 717q0 80 54.5 134t133.5 54q82 0 135.5 -54t53.5 -134q0 -82 -53.5 -135.5t-135.5 -53.5q-80 0 -134 53.5t-54 135.5z" />
<glyph unicode="&#xb8;" horiz-adv-x="649" d="M68 -395l28 145q53 -47 140 -47q49 0 83.5 16.5t34.5 42.5q0 25 -39 41.5t-86 22.5l-41 4l43 170h228l-17 -72q6 -2 15.5 -4t33 -15t42 -30.5t34 -50.5t15.5 -74q0 -98 -80 -163.5t-197 -65.5q-121 0 -211 61z" />
<glyph unicode="&#xb9;" horiz-adv-x="509" d="M25 1423l251 113h152v-788h-209v552l-119 -53z" />
<glyph unicode="&#xba;" horiz-adv-x="845" d="M18 1061q0 162 117 272q115 113 289 113t287 -113q117 -111 116 -272q0 -160 -116 -275q-113 -111 -287 -110q-172 -1 -289 110q-117 115 -117 275zM299 1061q0 -49 37 -87t88 -38q49 0 86 38t37 87t-37 87t-86 38q-51 0 -88 -38t-37 -87z" />
<glyph unicode="&#xbb;" horiz-adv-x="1204" d="M53 313l219 219l-219 222l197 196l420 -418l-420 -417zM545 313l221 219l-221 222l198 196l420 -418l-420 -417z" />
<glyph unicode="&#xbc;" horiz-adv-x="1701" d="M25 1321l251 113h152v-789h-209v553l-119 -53zM154 0l1005 1434h291l-1008 -1434h-288zM1020 135v201l379 452h200v-452h82v-201h-82v-135h-208v135h-371zM1268 336h123v143z" />
<glyph unicode="&#xbd;" horiz-adv-x="1755" d="M25 1321l251 113h152v-789h-209v553l-119 -53zM154 0l1005 1434h291l-1008 -1434h-288zM1114 600q43 92 126 145.5t183 53.5q125 0 207 -74q86 -74 86 -176q0 -125 -176 -279l-76 -69h256v-201h-579v156l276 252q80 74 80 135q0 23 -21.5 39t-52.5 16q-75 0 -114 -92z " />
<glyph unicode="&#xbe;" horiz-adv-x="1826" d="M16 844l197 67q-2 -45 52 -63.5t107.5 -1t47.5 56.5q0 31 -26.5 49.5t-69.5 18.5h-62v153h37q43 0 70.5 16.5t27.5 45.5q0 25 -23.5 41t-64.5 16q-76 0 -100 -51l-186 61q37 86 118.5 138.5t184.5 52.5q123 0 206 -74q84 -72 84 -182q0 -84 -71 -131q94 -51 94 -158 q0 -113 -88 -188.5t-221 -75.5q-115 0 -200 57.5t-114 151.5zM274 0l1006 1434h291l-1006 -1434h-291zM1143 135v201l381 452h200v-452h80v-201h-80v-135h-211v135h-370zM1393 336h120v143z" />
<glyph unicode="&#xbf;" horiz-adv-x="1249" d="M80 74q0 94 38 174t97 125q113 86 211 110l39 9l16 90h297l39 -285q-37 -4 -131 -33q-68 -18 -115 -43q-53 -25 -92 -65.5t-39 -83.5q0 -57 58.5 -97.5t144.5 -40.5q76 0 132 35t73 90l362 -98q-53 -168 -204 -268q-152 -102 -357 -103q-246 0 -407.5 137.5t-161.5 346.5 zM428 887q0 86 58.5 144.5t146.5 58.5t146.5 -58.5t58.5 -144.5q0 -88 -58.5 -147.5t-146.5 -59.5t-146.5 59.5t-58.5 147.5z" />
<glyph unicode="&#xc0;" horiz-adv-x="1511" d="M6 0l596 1434h309l594 -1434h-391l-84 213h-547l-86 -213h-391zM373 1735l147 256l447 -285l-107 -176zM614 543h285l-141 356z" />
<glyph unicode="&#xc1;" horiz-adv-x="1511" d="M6 0l596 1434h309l594 -1434h-391l-84 213h-547l-86 -213h-391zM541 1706l446 285l148 -256l-488 -205zM614 543h285l-141 356z" />
<glyph unicode="&#xc2;" horiz-adv-x="1511" d="M6 0l596 1434h309l594 -1434h-391l-84 213h-547l-86 -213h-391zM356 1688l394 284h14l391 -284l-113 -172l-286 161l-285 -164zM614 543h285l-141 356z" />
<glyph unicode="&#xc3;" horiz-adv-x="1511" d="M6 0l596 1434h309l594 -1434h-391l-84 213h-547l-86 -213h-391zM379 1567q0 115 76 198q76 86 186 86q68 0 131 -45q63 -43 84 -43q25 0 44.5 22.5t19.5 53.5h213q0 -121 -76 -203t-183 -82q-68 0 -133 43q-63 45 -84 45q-27 0 -46 -21t-19 -54h-213zM614 543h285 l-141 356z" />
<glyph unicode="&#xc4;" horiz-adv-x="1511" d="M6 0l596 1434h309l594 -1434h-391l-84 213h-547l-86 -213h-391zM367 1693.5q0 73.5 49 123t122.5 49.5t123 -49.5t49.5 -123t-49.5 -122.5t-123 -49t-122.5 49t-49 122.5zM614 543h285l-141 356zM803 1693.5q0 73.5 49 123t121 49.5q74 0 124 -49.5t50 -123t-50 -122.5 t-124 -49q-72 0 -121 49t-49 122.5z" />
<glyph unicode="&#xc5;" horiz-adv-x="1511" d="M6 0l596 1434h309l594 -1434h-391l-84 213h-547l-86 -213h-391zM498 1780q0 106 75.5 182t182 76t182.5 -76t76 -182.5t-76 -182t-182 -75.5q-109 0 -185 73q-74 76 -73 185zM614 543h285l-141 356zM696.5 1779.5q0.5 -26.5 16.5 -44.5q16 -16 42.5 -16.5t43.5 16.5 q18 18 18 44.5t-18 43.5q-16 16 -43 16t-43.5 -16.5t-16 -43z" />
<glyph unicode="&#xc6;" horiz-adv-x="2093" d="M6 0l832 1434h1194v-344h-648v-195h525v-344h-525v-207h658v-344h-1032v213h-467l-119 -213h-418zM727 543h283v504z" />
<glyph unicode="&#xc7;" horiz-adv-x="1542" d="M53 717q0 317 217 528q219 213 541 213q231 0 420 -115q184 -113 274 -307l-364 -133q-45 92 -132 144.5t-198 52.5q-156 0 -262 -111q-104 -109 -105 -270q0 -164 105 -275q109 -109 262 -108q111 0 198 52t132 144l364 -135q-76 -162 -224 -271.5t-337 -139.5l-12 -58 q10 0 37.5 -11t63.5 -54t36 -109q0 -100 -79 -164.5t-197 -64.5q-57 0 -118 19.5t-89 41.5l-29 19l29 145q53 -47 139 -47q49 0 84 16.5t35 42.5q0 25 -38 41.5t-85 22.5l-43 4l39 152q-293 35 -477 237q-187 205 -187 498z" />
<glyph unicode="&#xc8;" d="M74 0v1434h1083v-344h-708v-195h587v-344h-587v-207h718v-344h-1093zM227 1735l148 256l446 -285l-106 -176z" />
<glyph unicode="&#xc9;" d="M74 0v1434h1083v-344h-708v-195h587v-344h-587v-207h718v-344h-1093zM393 1706l447 285l147 -256l-485 -205z" />
<glyph unicode="&#xca;" d="M74 0v1434h1083v-344h-708v-195h587v-344h-587v-207h718v-344h-1093zM211 1688l393 284h12l394 -284l-113 -172l-287 161l-284 -164z" />
<glyph unicode="&#xcb;" d="M74 0v1434h1083v-344h-708v-195h587v-344h-587v-207h718v-344h-1093zM221 1693.5q0 73.5 49 123t121 49.5q76 0 124 -49.5t48 -123t-48 -122.5t-124 -49q-72 0 -121 49t-49 122.5zM657 1693.5q0 73.5 49 123t121 49.5q74 0 123 -49.5t49 -123t-49 -122.5t-123 -49 q-72 0 -121 49t-49 122.5z" />
<glyph unicode="&#xcc;" horiz-adv-x="522" d="M-121 1735l148 256l446 -285l-106 -176zM74 0v1434h375v-1434h-375z" />
<glyph unicode="&#xcd;" horiz-adv-x="522" d="M45 1706l447 285l147 -256l-485 -205zM74 0v1434h375v-1434h-375z" />
<glyph unicode="&#xce;" horiz-adv-x="522" d="M-137 1688l393 284h12l394 -284l-113 -172l-287 161l-287 -164zM74 0v1434h375v-1434h-375z" />
<glyph unicode="&#xcf;" horiz-adv-x="522" d="M-129 1693.5q0 73.5 50 123t122 49.5q76 0 124 -49.5t48 -123t-48 -122.5t-124 -49q-72 0 -122 49t-50 122.5zM74 0v1434h375v-1434h-375zM309 1693.5q0 73.5 49 123t121 49.5q74 0 123 -49.5t49 -123t-49 -122.5t-123 -49q-72 0 -121 49t-49 122.5z" />
<glyph unicode="&#xd0;" horiz-adv-x="1552" d="M14 569v295h129v570h598q319 0 539 -207q217 -205 217 -510t-217 -510q-219 -207 -539 -207h-598v569h-129zM518 344h223q156 0 260 107q106 106 107 266q0 158 -107 264q-104 109 -260 109h-223v-226h303v-295h-303v-225z" />
<glyph unicode="&#xd1;" horiz-adv-x="1452" d="M74 0v1434h334l610 -793v793h360v-1434h-334l-610 791v-791h-360zM350 1567q0 115 76 198q78 86 186 86q68 0 131 -45q63 -43 84 -43q25 0 44.5 22.5t19.5 53.5h213q0 -121 -76 -203t-182 -82q-72 0 -135 43q-63 45 -82 45q-29 0 -47.5 -21t-18.5 -54h-213z" />
<glyph unicode="&#xd2;" horiz-adv-x="1622" d="M53 716.5q0 317.5 217 528.5q219 213 541 213t541 -213q217 -211 217 -528.5t-217 -528.5q-219 -213 -541 -213t-541 213q-217 211 -217 528.5zM428 1735l147 256l447 -285l-107 -176zM444 719q0 -164 105 -275q109 -109 262 -108q158 0 262 110q106 109 106.5 273 t-106.5 270q-106 111 -262 111t-262 -111q-105 -108 -105 -270z" />
<glyph unicode="&#xd3;" horiz-adv-x="1622" d="M53 716.5q0 317.5 217 528.5q219 213 541 213t541 -213q217 -211 217 -528.5t-217 -528.5q-219 -213 -541 -213t-541 213q-217 211 -217 528.5zM444 719q0 -164 105 -275q109 -109 262 -108q158 0 262 110q106 109 106.5 273t-106.5 270q-106 111 -262 111t-262 -111 q-105 -108 -105 -270zM596 1706l446 285l148 -256l-488 -205z" />
<glyph unicode="&#xd4;" horiz-adv-x="1622" d="M53 716.5q0 317.5 217 528.5q219 213 541 213t541 -213q217 -211 217 -528.5t-217 -528.5q-219 -213 -541 -213t-541 213q-217 211 -217 528.5zM412 1688l393 284h14l391 -284l-112 -172l-287 161l-285 -164zM444 719q0 -164 105 -275q109 -109 262 -108q158 0 262 110 q106 109 106.5 273t-106.5 270q-106 111 -262 111t-262 -111q-105 -108 -105 -270z" />
<glyph unicode="&#xd5;" horiz-adv-x="1622" d="M53 716.5q0 317.5 217 528.5q219 213 541 213t541 -213q217 -211 217 -528.5t-217 -528.5q-219 -213 -541 -213t-541 213q-217 211 -217 528.5zM434 1567q0 115 76 198q78 86 186 86q68 0 131 -45q63 -43 84 -43q25 0 44.5 22.5t19.5 53.5h213q0 -121 -76 -203t-182 -82 q-70 0 -135 43q-63 45 -82 45q-27 0 -46.5 -21t-19.5 -54h-213zM444 719q0 -164 105 -275q109 -109 262 -108q158 0 262 110q106 109 106.5 273t-106.5 270q-106 111 -262 111t-262 -111q-105 -108 -105 -270z" />
<glyph unicode="&#xd6;" horiz-adv-x="1622" d="M53 716.5q0 317.5 217 528.5q219 213 541 213t541 -213q217 -211 217 -528.5t-217 -528.5q-219 -213 -541 -213t-541 213q-217 211 -217 528.5zM422 1693.5q0 73.5 49 123t121 49.5q76 0 124 -49.5t48 -123t-48 -122.5t-124 -49q-72 0 -121 49t-49 122.5zM444 719 q0 -164 105 -275q109 -109 262 -108q158 0 262 110q106 109 106.5 273t-106.5 270q-106 111 -262 111t-262 -111q-105 -108 -105 -270zM858 1693.5q0 73.5 49 123t121 49.5q74 0 123 -49.5t49 -123t-49 -122.5t-123 -49q-72 0 -121 49t-49 122.5z" />
<glyph unicode="&#xd7;" horiz-adv-x="1228" d="M92 422l297 295l-297 295l223 223l299 -295l299 299l224 -223l-299 -297l299 -297l-224 -223l-299 297l-299 -297z" />
<glyph unicode="&#xd8;" horiz-adv-x="1622" d="M53 717q0 317 217 528q219 213 541 213q188 0 360 -84l60 84l133 -94l-57 -80q125 -104 193.5 -251.5t68.5 -315.5q0 -317 -217 -529q-219 -213 -541 -213q-195 0 -358 84l-60 -84l-133 93l57 82q-125 100 -194.5 248.5t-69.5 318.5zM444 719q1 -154 93 -258l421 608 q-68 31 -147 31q-156 0 -262 -111q-104 -109 -105 -270zM666 365q70 -29 145 -29q158 0 262 110q106 109 107 273q0 145 -90 254z" />
<glyph unicode="&#xd9;" horiz-adv-x="1423" d="M68 586v848h374v-846q0 -117 76 -193t195 -76q115 0 190 76q78 78 78 193v846h375v-848q0 -258 -185 -434q-186 -176 -458 -177q-274 0 -461 177q-184 176 -184 434zM328 1735l147 256l447 -285l-107 -176z" />
<glyph unicode="&#xda;" horiz-adv-x="1423" d="M68 586v848h374v-846q0 -117 76 -193t195 -76q115 0 190 76q78 78 78 193v846h375v-848q0 -258 -185 -434q-186 -176 -458 -177q-274 0 -461 177q-184 176 -184 434zM496 1706l446 285l148 -256l-488 -205z" />
<glyph unicode="&#xdb;" horiz-adv-x="1423" d="M68 586v848h374v-846q0 -117 76 -193t195 -76q115 0 190 76q78 78 78 193v846h375v-848q0 -258 -185 -434q-186 -176 -458 -177q-274 0 -461 177q-184 176 -184 434zM313 1688l392 284h14l393 -284l-115 -172l-284 161l-287 -164z" />
<glyph unicode="&#xdc;" horiz-adv-x="1423" d="M68 586v848h374v-846q0 -117 76 -193t195 -76q115 0 190 76q78 78 78 193v846h375v-848q0 -258 -185 -434q-186 -176 -458 -177q-274 0 -461 177q-184 176 -184 434zM322 1693.5q0 73.5 49 123t122.5 49.5t123 -49.5t49.5 -123t-49.5 -122.5t-123 -49t-122.5 49 t-49 122.5zM758 1693.5q0 73.5 49 123t123 49.5t123 -49.5t49 -123t-49 -122.5t-123 -49t-123 49t-49 122.5z" />
<glyph unicode="&#xdd;" horiz-adv-x="1454" d="M6 1434h430l285 -488l299 488h428l-539 -830v-604h-374v592zM512 1706l446 285l148 -256l-488 -205z" />
<glyph unicode="&#xde;" horiz-adv-x="1312" d="M74 0v1434h375v-217h284q231 0 383 -144q156 -143 156 -356t-156 -357q-152 -143 -383 -143h-284v-217h-375zM449 561h284q63 0 106.5 45t43.5 110.5t-43.5 110.5t-106.5 45h-284v-311z" />
<glyph unicode="&#xdf;" horiz-adv-x="1216" d="M63 0v1149q0 176 140 293q141 117 350 117q201 0 332 -107q133 -104 133 -264q0 -96 -98 -242q-63 -86 -2 -160q23 -27 79 -75.5t82 -75.5q104 -104 105 -283q0 -199 -146.5 -285.5t-476.5 -86.5v346q152 0 207 15t55 52q0 29 -30.5 57.5t-73.5 57.5t-86 65.5t-74 100 t-31 145.5q0 78 33 146.5t64.5 113.5t31.5 64q0 31 -29.5 51t-72.5 20q-57 0 -95 -35.5t-38 -88.5v-1090h-359z" />
<glyph unicode="&#xe0;" d="M37 532.5q0 235.5 139 397.5q141 160 350 160q143 0 265 -84v59h358v-1065h-358v59q-122 -84 -265 -84q-209 0 -350 160q-139 162 -139 397.5zM238 1386l147 256l446 -284l-106 -176zM412 535q0 -86 54 -146.5t132 -60.5t133 59.5t55 147.5q0 86 -55 144t-133 58 t-132 -58t-54 -144z" />
<glyph unicode="&#xe1;" d="M37 532.5q0 235.5 139 397.5q141 160 350 160q143 0 265 -84v59h358v-1065h-358v59q-122 -84 -265 -84q-209 0 -350 160q-139 162 -139 397.5zM406 1358l446 284l147 -256l-487 -204zM412 535q0 -86 54 -146.5t132 -60.5t133 59.5t55 147.5q0 86 -55 144t-133 58 t-132 -58t-54 -144z" />
<glyph unicode="&#xe2;" d="M37 532.5q0 235.5 139 397.5q141 160 350 160q143 0 265 -84v59h358v-1065h-358v59q-122 -84 -265 -84q-209 0 -350 160q-139 162 -139 397.5zM223 1339l391 285h15l393 -285l-115 -172l-284 162l-287 -164zM412 535q0 -86 54 -146.5t132 -60.5t133 59.5t55 147.5 q0 86 -55 144t-133 58t-132 -58t-54 -144z" />
<glyph unicode="&#xe3;" d="M37 532.5q0 235.5 139 397.5q141 160 350 160q143 0 265 -84v59h358v-1065h-358v59q-122 -84 -265 -84q-209 0 -350 160q-139 162 -139 397.5zM244 1219q0 115 75 198q78 86 187 86q68 0 131 -45q63 -43 84 -43q25 0 44 22.5t19 53.5h213q0 -121 -75.5 -203t-182.5 -82 q-68 0 -133 43q-63 45 -84 45q-27 0 -45 -21t-18 -54h-215zM412 535q0 -86 54 -146.5t132 -60.5t133 59.5t55 147.5q0 86 -55 144t-133 58t-132 -58t-54 -144z" />
<glyph unicode="&#xe4;" d="M37 532.5q0 235.5 139 397.5q141 160 350 160q143 0 265 -84v59h358v-1065h-358v59q-122 -84 -265 -84q-209 0 -350 160q-139 162 -139 397.5zM231 1345.5q0 73.5 49.5 123t123 49.5t122.5 -49.5t49 -123t-49 -122.5t-122.5 -49t-123 49t-49.5 122.5zM412 535 q0 -86 54 -146.5t132 -60.5t133 59.5t55 147.5q0 86 -55 144t-133 58t-132 -58t-54 -144zM668 1345.5q0 73.5 49 123t121 49.5q76 0 125 -49.5t49 -123t-49.5 -122.5t-124.5 -49q-72 0 -121 49t-49 122.5z" />
<glyph unicode="&#xe5;" d="M37 532.5q0 235.5 139 397.5q141 160 350 160q143 0 265 -84v59h358v-1065h-358v59q-122 -84 -265 -84q-209 0 -350 160q-139 162 -139 397.5zM365 1432q0 106 75.5 182t182.5 76q104 0 180 -76q78 -78 78 -182.5t-78 -182.5q-76 -76 -180.5 -75.5t-182.5 73.5 q-75 76 -75 185zM412 535q0 -86 54 -146.5t132 -60.5t133 59.5t55 147.5q0 86 -55 144t-133 58t-132 -58t-54 -144zM561.5 1432q-0.5 -27 16.5 -46q18 -16 44.5 -16t43.5 16q25 29 13.5 62t-41 41.5t-60.5 -14.5q-16 -16 -16.5 -43z" />
<glyph unicode="&#xe6;" horiz-adv-x="1959" d="M37 532.5q0 235.5 139 397.5q139 160 344 160q154 0 271 -93v68h358v-55q125 78 268 77q217 0 364.5 -159.5t147.5 -395.5q0 -76 -14 -126h-739q23 -63 79 -101.5t129 -38.5q104 0 170 78l347 -65q-63 -139 -188.5 -221.5t-280.5 -82.5q-158 0 -283 82v-57h-358v68 q-117 -93 -271 -93q-205 0 -344 160q-139 162 -139 397.5zM412 535q0 -86 54 -146.5t132 -60.5t133 59.5t55 147.5q0 86 -55 144t-133 58t-132 -58t-54 -144zM1176 664h391q-23 61 -76 98t-121 37q-66 0 -117.5 -37t-76.5 -98z" />
<glyph unicode="&#xe7;" horiz-adv-x="1177" d="M37 532q0 238 164 398t409 160q197 0 342 -107q150 -104 209 -276l-360 -107q-23 63 -74 100t-117 37q-84 0 -141 -58t-57 -142q0 -88 57 -148.5t141 -60.5q66 0 117 36.5t74 100.5l360 -107q-47 -139 -158.5 -237t-259.5 -131l-16 -62q6 -2 15.5 -4t33 -15t42 -30.5 t33.5 -50.5t15 -74q0 -100 -78.5 -164.5t-197.5 -64.5t-209 61l-27 19l29 145q53 -47 139 -47q49 0 84 16.5t35 42.5q0 25 -39 41.5t-86 22.5l-41 4l37 154q-211 35 -342 184q-133 156 -133 364z" />
<glyph unicode="&#xe8;" horiz-adv-x="1206" d="M37 532q0 236 164 396q162 162 405.5 162t405.5 -162q164 -160 164 -396q-1 -71 -15 -126h-739q55 -139 207 -140q106 0 172 78l344 -63q-70 -141 -209 -223.5t-313 -82.5q-250 0 -420 160q-166 164 -166 397zM229 1386l148 256l446 -284l-106 -176zM422 664h389 q-23 61 -76 98t-121 37q-63 0 -116 -37t-76 -98z" />
<glyph unicode="&#xe9;" horiz-adv-x="1206" d="M37 532q0 236 164 396q162 162 405.5 162t405.5 -162q164 -160 164 -396q-1 -71 -15 -126h-739q55 -139 207 -140q106 0 172 78l344 -63q-70 -141 -209 -223.5t-313 -82.5q-250 0 -420 160q-166 164 -166 397zM397 1358l447 284l147 -256l-487 -204zM422 664h389 q-23 61 -76 98t-121 37q-63 0 -116 -37t-76 -98z" />
<glyph unicode="&#xea;" horiz-adv-x="1206" d="M37 532q0 236 164 396q162 162 405.5 162t405.5 -162q164 -160 164 -396q-1 -71 -15 -126h-739q55 -139 207 -140q106 0 172 78l344 -63q-70 -141 -209 -223.5t-313 -82.5q-250 0 -420 160q-166 164 -166 397zM213 1339l393 285h15l391 -285l-113 -172l-287 162 l-284 -164zM422 664h389q-23 61 -76 98t-121 37q-63 0 -116 -37t-76 -98z" />
<glyph unicode="&#xeb;" horiz-adv-x="1206" d="M37 532q0 236 164 396q162 162 405.5 162t405.5 -162q164 -160 164 -396q-1 -71 -15 -126h-739q55 -139 207 -140q106 0 172 78l344 -63q-70 -141 -209 -223.5t-313 -82.5q-250 0 -420 160q-166 164 -166 397zM223 1345.5q0 73.5 49 123t121 49.5q76 0 124 -49.5t48 -123 t-48 -122.5t-124 -49q-72 0 -121 49t-49 122.5zM422 664h389q-23 61 -76 98t-121 37q-63 0 -116 -37t-76 -98zM659 1345.5q0 73.5 49 123t121 49.5q74 0 123 -49.5t49 -123t-49 -122.5t-123 -49q-72 0 -121 49t-49 122.5z" />
<glyph unicode="&#xec;" horiz-adv-x="485" d="M-88 1386l147 256l447 -284l-109 -176zM63 0v1065h359v-1065h-359z" />
<glyph unicode="&#xed;" horiz-adv-x="485" d="M-25 1358l447 284l147 -256l-487 -204zM63 0v1065h359v-1065h-359z" />
<glyph unicode="&#xee;" horiz-adv-x="499" d="M-106 1339l350 285h14l350 -285l-135 -157l-223 147l-223 -147zM70 0v1065h358v-1065h-358z" />
<glyph unicode="&#xef;" horiz-adv-x="514" d="M-78 1345.5q0 69.5 45 117.5t111 48q68 0 114 -48t46 -117q0 -72 -45.5 -118t-114.5 -46q-66 0 -111 47t-45 116.5zM78 0v1065h358v-1065h-358zM276 1345.5q0 69.5 46 116.5q45 49 112.5 49t112.5 -49q45 -47 45 -116.5t-45 -116.5t-112.5 -47t-113 47t-45.5 116.5z" />
<glyph unicode="&#xf0;" horiz-adv-x="1222" d="M37 532q0 236 164 396q161 162 409 162q78 0 150 -19q-72 113 -211 158l-74 -119l-133 82l43 70q-57 8 -156 8v291q166 0 322 -29l74 119l135 -84l-51 -82q244 -94 359.5 -323.5t117.5 -624.5q0 -242 -166 -402t-410 -160q-246 0 -409 160q-164 164 -164 397zM412 532.5 q0 -83.5 58 -144t140 -60.5q84 0 142.5 60.5t58.5 144t-58.5 144t-142.5 60.5q-82 0 -140 -60.5t-58 -144z" />
<glyph unicode="&#xf1;" horiz-adv-x="1142" d="M63 0v1065h359v-86q102 111 264 111q166 0 279 -117q115 -119 114 -287v-686h-358v598q0 70 -42 116t-106 46q-66 0 -108.5 -46t-42.5 -116v-598h-359zM205 1219q0 111 78 198q78 86 184 86q68 0 131 -45q63 -43 84 -43q25 0 44 22.5t19 53.5h213q0 -121 -75 -203 q-74 -82 -183 -82q-70 0 -133 43q-63 45 -84 45q-27 0 -45 -21t-18 -54h-215z" />
<glyph unicode="&#xf2;" horiz-adv-x="1222" d="M37 532q0 236 164 396q162 162 409.5 162t409.5 -162q166 -160 166 -396q0 -233 -166 -397q-164 -160 -409.5 -160t-409.5 160q-164 164 -164 397zM227 1386l148 256l446 -284l-106 -176zM412 532.5q0 -83.5 58 -144t140 -60.5q84 0 142.5 60.5t58.5 144t-58.5 144 t-142.5 60.5q-82 0 -140 -60.5t-58 -144z" />
<glyph unicode="&#xf3;" horiz-adv-x="1222" d="M37 532q0 236 164 396q162 162 409.5 162t409.5 -162q166 -160 166 -396q0 -233 -166 -397q-164 -160 -409.5 -160t-409.5 160q-164 164 -164 397zM395 1358l447 284l147 -256l-487 -204zM412 532.5q0 -83.5 58 -144t140 -60.5q84 0 142.5 60.5t58.5 144t-58.5 144 t-142.5 60.5q-82 0 -140 -60.5t-58 -144z" />
<glyph unicode="&#xf4;" horiz-adv-x="1222" d="M37 532q0 236 164 396q162 162 409.5 162t409.5 -162q166 -160 166 -396q0 -233 -166 -397q-164 -160 -409.5 -160t-409.5 160q-164 164 -164 397zM213 1339l391 285h14l394 -285l-115 -172l-285 162l-286 -164zM412 532.5q0 -83.5 58 -144t140 -60.5q84 0 142.5 60.5 t58.5 144t-58.5 144t-142.5 60.5q-82 0 -140 -60.5t-58 -144z" />
<glyph unicode="&#xf5;" horiz-adv-x="1222" d="M37 532q0 236 164 396q162 162 409.5 162t409.5 -162q166 -160 166 -396q0 -233 -166 -397q-164 -160 -409.5 -160t-409.5 160q-164 164 -164 397zM233 1219q0 115 76 198q76 86 187 86q68 0 131 -45q66 -43 84 -43q25 0 44 22.5t19 53.5h213q0 -121 -75.5 -203 t-182.5 -82q-70 0 -133 43q-63 45 -84 45q-27 0 -46.5 -21t-19.5 -54h-213zM412 532.5q0 -83.5 58 -144t140 -60.5q84 0 142.5 60.5t58.5 144t-58.5 144t-142.5 60.5q-82 0 -140 -60.5t-58 -144z" />
<glyph unicode="&#xf6;" horiz-adv-x="1222" d="M37 532q0 236 164 396q162 162 409.5 162t409.5 -162q166 -160 166 -396q0 -233 -166 -397q-164 -160 -409.5 -160t-409.5 160q-164 164 -164 397zM221 1345.5q0 73.5 49 123t123 49.5t123 -49.5t49 -123t-49 -122.5t-123 -49t-123 49t-49 122.5zM412 532.5 q0 -83.5 58 -144t140 -60.5q84 0 142.5 60.5t58.5 144t-58.5 144t-142.5 60.5q-82 0 -140 -60.5t-58 -144zM657 1345.5q0 73.5 49 123t121 49.5q76 0 125 -49.5t49 -123t-49 -122.5t-125 -49q-72 0 -121 49t-49 122.5z" />
<glyph unicode="&#xf7;" horiz-adv-x="1228" d="M102 561v313h1024v-313h-1024zM410 272q0 86 58 145.5t146 59.5t146.5 -59.5t58.5 -145.5q0 -88 -58.5 -146t-146.5 -58t-146 58t-58 146zM410 1161q0 88 58 146.5t146 58.5t146.5 -58.5t58.5 -146.5q0 -86 -58.5 -144.5t-146.5 -58.5t-146 58.5t-58 144.5z" />
<glyph unicode="&#xf8;" horiz-adv-x="1222" d="M37 532q0 236 164 396q161 162 409 162q150 0 267 -62l43 62l106 -76l-39 -58q199 -162 199 -424q0 -233 -166 -397q-164 -160 -410 -160q-150 0 -266 62l-41 -62l-108 78l38 56q-197 160 -196 423zM412 532q-1 -65 34 -118l222 315q-23 8 -58 8q-82 0 -140 -60.5 t-58 -144.5zM553 336q23 -8 57 -8q84 0 142.5 60.5t58.5 143.5q0 70 -37 119z" />
<glyph unicode="&#xf9;" horiz-adv-x="1142" d="M63 379v686h359v-596q0 -72 43 -118t106.5 -46t106.5 47t43 117v596h358v-1065h-358v86q-102 -111 -264 -111q-166 0 -279 117q-115 119 -115 287zM188 1386l148 256l446 -284l-106 -176z" />
<glyph unicode="&#xfa;" horiz-adv-x="1142" d="M63 379v686h359v-596q0 -72 43 -118t106.5 -46t106.5 47t43 117v596h358v-1065h-358v86q-102 -111 -264 -111q-166 0 -279 117q-115 119 -115 287zM356 1358l447 284l147 -256l-487 -204z" />
<glyph unicode="&#xfb;" horiz-adv-x="1142" d="M63 379v686h359v-596q0 -72 43 -118t106.5 -46t106.5 47t43 117v596h358v-1065h-358v86q-102 -111 -264 -111q-166 0 -279 117q-115 119 -115 287zM174 1339l391 285h15l393 -285l-115 -172l-285 162l-286 -164z" />
<glyph unicode="&#xfc;" horiz-adv-x="1142" d="M63 379v686h359v-596q0 -72 43 -118t106.5 -46t106.5 47t43 117v596h358v-1065h-358v86q-102 -111 -264 -111q-166 0 -279 117q-115 119 -115 287zM182 1345.5q0 73.5 49.5 123t123 49.5t122.5 -49.5t49 -123t-49 -122.5t-122.5 -49t-123 49t-49.5 122.5zM618 1345.5 q0 73.5 49.5 123t123 49.5t123 -49.5t49.5 -123t-49.5 -122.5t-123 -49t-123 49t-49.5 122.5z" />
<glyph unicode="&#xfd;" horiz-adv-x="1144" d="M6 1065h369l194 -590l201 590h369l-426 -1149q-78 -199 -211 -288t-348 -89h-33v342h33q186 0 247 113zM356 1358l447 284l147 -256l-487 -204z" />
<glyph unicode="&#xfe;" d="M63 -461v1997h359v-530q121 84 264 84q211 0 348 -160q141 -160 141.5 -397.5t-141.5 -397.5q-137 -160 -348 -160q-143 0 -264 84v-520h-359zM426 530q0 -84 55.5 -143t133 -59t133 59t55.5 143q0 88 -54.5 147.5t-134 59.5t-134 -59.5t-54.5 -147.5z" />
<glyph unicode="&#xff;" horiz-adv-x="1144" d="M6 1065h369l194 -590l201 590h369l-426 -1149q-78 -199 -211 -288t-348 -89h-33v342h33q186 0 247 113zM182 1345.5q0 73.5 49.5 123t123 49.5t122.5 -49.5t49 -123t-49 -122.5t-122.5 -49t-123 49t-49.5 122.5zM618 1345.5q0 73.5 49.5 123t123 49.5t123 -49.5 t49.5 -123t-49.5 -122.5t-123 -49t-123 49t-49.5 122.5z" />
<glyph unicode="&#x152;" horiz-adv-x="2334" d="M53 716.5q0 317.5 217 528.5q219 213 541 213q217 0 393 -102v78h1069v-344h-696v-195h573v-344h-573v-207h707v-344h-1080v78q-176 -103 -393 -103q-322 0 -541 213q-217 211 -217 528.5zM444 719q0 -164 105 -275q109 -109 262 -108q158 0 262 110q106 109 106.5 273 t-106.5 270q-106 111 -262 111t-262 -111q-105 -108 -105 -270z" />
<glyph unicode="&#x153;" horiz-adv-x="1980" d="M37 532q0 236 164 396q161 162 409 162q225 0 389 -142q164 141 387 142q240 0 402 -162q162 -160 162 -396q0 -72 -15 -126h-739q23 -63 79 -101.5t130 -38.5q104 0 170 78l346 -63q-68 -141 -206 -223.5t-312 -82.5q-240 0 -402 144q-158 -143 -391 -144 q-246 0 -409 160q-164 164 -164 397zM412 532.5q0 -83.5 58 -144t140 -60.5q84 0 142.5 60.5t58.5 144t-58.5 144t-142.5 60.5q-82 0 -140 -60.5t-58 -144zM1196 664h391q-23 61 -76 98t-120 37q-66 0 -118 -37t-77 -98z" />
<glyph unicode="&#x178;" horiz-adv-x="1454" d="M6 1434h430l285 -488l299 488h428l-539 -830v-604h-374v592zM338 1693.5q0 73.5 49 123t123 49.5t123 -49.5t49 -123t-49 -122.5t-123 -49t-123 49t-49 122.5zM774 1693.5q0 73.5 49 123t121 49.5q76 0 125 -49.5t49 -123t-49 -122.5t-125 -49q-72 0 -121 49t-49 122.5z " />
<glyph unicode="&#x2c6;" horiz-adv-x="933" d="M68 1599l393 285h14l391 -285l-112 -172l-287 162l-285 -164z" />
<glyph unicode="&#x2dc;" horiz-adv-x="888" d="M68 1479q0 111 77 198q76 86 185 86q68 0 131 -45q63 -43 84 -43q25 0 44 22.5t19 53.5h213q0 -121 -75.5 -203t-182.5 -82q-68 0 -133 43q-63 45 -84 45q-27 0 -46 -21t-19 -54h-213z" />
<glyph unicode="&#x2000;" horiz-adv-x="1019" />
<glyph unicode="&#x2001;" horiz-adv-x="2038" />
<glyph unicode="&#x2002;" horiz-adv-x="1019" />
<glyph unicode="&#x2003;" horiz-adv-x="2038" />
<glyph unicode="&#x2004;" horiz-adv-x="679" />
<glyph unicode="&#x2005;" horiz-adv-x="509" />
<glyph unicode="&#x2006;" horiz-adv-x="339" />
<glyph unicode="&#x2007;" horiz-adv-x="339" />
<glyph unicode="&#x2008;" horiz-adv-x="254" />
<glyph unicode="&#x2009;" horiz-adv-x="407" />
<glyph unicode="&#x200a;" horiz-adv-x="113" />
<glyph unicode="&#x2010;" horiz-adv-x="819" d="M102 377v313h615v-313h-615z" />
<glyph unicode="&#x2011;" horiz-adv-x="819" d="M102 377v313h615v-313h-615z" />
<glyph unicode="&#x2012;" horiz-adv-x="819" d="M102 377v313h615v-313h-615z" />
<glyph unicode="&#x2013;" horiz-adv-x="1228" d="M102 377v313h1024v-313h-1024z" />
<glyph unicode="&#x2014;" horiz-adv-x="2048" d="M102 377v313h1844v-313h-1844z" />
<glyph unicode="&#x2018;" horiz-adv-x="485" d="M51 1188q0 147 119 262q90 86 139 115l4 2l97 -101q-117 -100 -121 -149q61 -10 103 -62.5t42 -121.5q0 -76 -52 -126.5t-130 -50.5q-86 0 -143.5 67t-57.5 165z" />
<glyph unicode="&#x2019;" horiz-adv-x="485" d="M51 1382q0 76 52.5 127.5t127.5 51.5q90 0 146.5 -67t56.5 -167q0 -203 -262 -379l-96 101q117 100 121 149q-61 12 -103.5 64.5t-42.5 119.5z" />
<glyph unicode="&#x201a;" horiz-adv-x="485" d="M51 166q0 74 52.5 125t127.5 51q86 0 144.5 -66.5t58.5 -164.5q0 -203 -262 -379l-96 100q117 100 121 150q-61 10 -103.5 62t-42.5 122z" />
<glyph unicode="&#x201c;" horiz-adv-x="909" d="M51 1188q0 147 119 262q90 86 139 115l4 2l97 -101q-117 -100 -121 -149q61 -10 103 -62.5t42 -121.5q0 -76 -52 -126.5t-130 -50.5q-86 0 -143.5 67t-57.5 165zM475 1188q0 147 119 262q90 86 139 115l4 2l97 -101q-117 -100 -121 -149q63 -10 104 -62.5t41 -121.5 q0 -76 -51 -126.5t-129 -50.5q-90 0 -146.5 66t-56.5 166z" />
<glyph unicode="&#x201d;" horiz-adv-x="909" d="M51 1382q0 76 52.5 127.5t127.5 51.5q90 0 146.5 -67t56.5 -167q0 -203 -262 -379l-96 101q117 100 121 149q-61 12 -103.5 64.5t-42.5 119.5zM475 1382q0 76 52.5 127.5t129.5 51.5q86 0 143.5 -68t57.5 -166q0 -147 -119 -262q-90 -86 -139 -115l-4 -2l-96 101 q117 100 121 149q-61 12 -103.5 64.5t-42.5 119.5z" />
<glyph unicode="&#x201e;" horiz-adv-x="909" d="M51 166q0 74 52.5 125t127.5 51q86 0 144.5 -66.5t58.5 -164.5q0 -203 -262 -379l-96 100q117 100 121 150q-61 10 -103.5 62t-42.5 122zM475 166q0 74 52.5 125t129.5 51q86 0 143.5 -66.5t57.5 -164.5q0 -147 -119 -263q-90 -86 -139 -114l-4 -2l-96 100 q117 100 121 150q-61 10 -103.5 62t-42.5 122z" />
<glyph unicode="&#x2022;" horiz-adv-x="784" d="M43 532.5q0 147.5 98 249.5q100 100 250 100.5t248 -100.5q100 -100 100 -250q0 -152 -100 -251q-98 -98 -247.5 -98.5t-250.5 100.5q-98 102 -98 249.5z" />
<glyph unicode="&#x2026;" horiz-adv-x="1388" d="M43 166q0 80 54.5 134t133.5 54q82 0 135.5 -54t53.5 -134q0 -82 -53.5 -136.5t-135.5 -54.5q-80 0 -134 54.5t-54 136.5zM506 166q0 80 54 134t134 54q82 0 135.5 -54t53.5 -134q0 -82 -53.5 -136.5t-135.5 -54.5q-80 0 -134 54.5t-54 136.5zM969 166q0 80 54 134 t134 54q82 0 135.5 -54t53.5 -134q0 -82 -53.5 -136.5t-135.5 -54.5q-80 0 -134 54.5t-54 136.5z" />
<glyph unicode="&#x202f;" horiz-adv-x="407" />
<glyph unicode="&#x2039;" horiz-adv-x="712" d="M41 532l420 418l198 -196l-221 -222l221 -219l-198 -198z" />
<glyph unicode="&#x203a;" horiz-adv-x="712" d="M53 313l219 219l-219 222l197 196l420 -418l-420 -417z" />
<glyph unicode="&#x205f;" horiz-adv-x="509" />
<glyph unicode="&#x20ac;" horiz-adv-x="1644" d="M27 453v221h131q-2 10 -2 43q0 37 2 47h-131v219h176q84 215 272 344q188 131 438 131q231 0 418 -115q188 -115 277 -307l-365 -133q-49 92 -135 144.5t-195 52.5q-160 0 -268 -117h336v-219h-432q-4 -45 0 -90h432v-221h-336q109 -117 268 -117q109 0 195 52t135 144 l365 -135q-88 -193 -277 -307q-186 -115 -418 -115q-248 0 -440 131q-190 133 -270 347h-176z" />
<glyph unicode="&#x2122;" horiz-adv-x="1513" d="M12 1260v174h594v-174h-203v-543h-188v543h-203zM666 717v717h186l223 -396l223 396h185v-717h-185v370l-161 -299h-125l-160 297v-368h-186z" />
<glyph unicode="&#x25fc;" horiz-adv-x="1064" d="M0 0v1065h1065v-1065h-1065z" />
</font>
</defs>
</svg>
