<?xml version="1.0" standalone="no"?>
<!DOCTYPE svg PUBLIC "-//W3C//DTD SVG 1.1//EN" "http://www.w3.org/Graphics/SVG/1.1/DTD/svg11.dtd" >
<svg xmlns="http://www.w3.org/2000/svg" xmlns:xlink="http://www.w3.org/1999/xlink" version="1.1">
<metadata></metadata>
<defs>
<font id="mazzardh_extralight" horiz-adv-x="1370" >
<font-face units-per-em="2048" ascent="1546" descent="-502" />
<missing-glyph horiz-adv-x="598" />
<glyph unicode="&#xfb01;" horiz-adv-x="1153" d="M53 989v76h197v184q0 119 74 203t182 84h137v-80h-133q-76 0 -127 -61.5t-51 -151.5v-178h313v-76h-313v-989h-82v989h-197zM854 1331q0 31 19.5 51.5t52.5 20.5q31 0 52 -20.5t21 -51.5q0 -33 -21.5 -53.5t-51.5 -20.5q-33 0 -52.5 20.5t-19.5 53.5zM885 0v1065h82 v-1065h-82z" />
<glyph unicode="&#xfb02;" horiz-adv-x="1153" d="M53 989v76h197v184q0 119 74 203t182 84h137v-80h-133q-76 0 -127 -61.5t-51 -151.5v-178h313v-76h-313v-989h-82v989h-197zM885 0v1536h82v-1536h-82z" />
<glyph unicode="&#xfb03;" horiz-adv-x="1789" d="M53 989v76h197v184q0 119 74 203t182 84h137v-80h-133q-76 0 -127 -61.5t-51 -151.5v-178h555v184q0 119 74 203t182 84h139v-80h-135q-76 0 -127 -61.5t-51 -151.5v-178h635v-1065h-82v989h-553v-989h-82v989h-555v-989h-82v989h-197zM1491 1331q-4 43 34 61.5t75.5 0 t35.5 -61.5q0 -45 -35.5 -63.5t-72.5 0t-37 63.5z" />
<glyph unicode="&#xfb04;" horiz-adv-x="1789" d="M53 989v76h197v184q0 119 74 203t182 84h137v-80h-133q-76 0 -127 -61.5t-51 -151.5v-178h555v184q0 119 74 203t182 84h139v-80h-135q-76 0 -127 -61.5t-51 -151.5v-178h313v-76h-313v-989h-82v989h-555v-989h-82v989h-197zM1522 0v1536h82v-1536h-82z" />
<glyph horiz-adv-x="0" />
<glyph horiz-adv-x="0" />
<glyph unicode="&#xd;" horiz-adv-x="512" />
<glyph unicode=" "  horiz-adv-x="598" />
<glyph unicode="&#x09;" horiz-adv-x="598" />
<glyph unicode="&#xa0;" horiz-adv-x="598" />
<glyph unicode="!" horiz-adv-x="495" d="M166 66q-2 49 40 70.5t84 0t38 -70.5q0 -33 -22.5 -56.5t-57.5 -23.5t-58.5 22.5t-23.5 57.5zM205 1434h86l-6 -1033h-74z" />
<glyph unicode="&#x22;" horiz-adv-x="700" d="M168 1434h80l-8 -437h-64zM453 1434h79l-8 -437h-63z" />
<glyph unicode="#" horiz-adv-x="1460" d="M57 506h363l74 422h-349v73h363l76 433h73l-75 -433h399l76 433h76l-76 -433h346v-73h-361l-73 -422h348v-74h-363l-75 -432h-74l76 432h-400l-75 -432h-76l76 432h-347zM494 506h399l76 422h-400z" />
<glyph unicode="$" horiz-adv-x="1280" d="M131 328l86 22q23 -125 139 -203q121 -78 289 -77q180 0 299 88t119 229q0 135 -127 207q-88 49 -285 96q-162 35 -266 80q-102 43 -155.5 112.5t-61.5 182.5q0 162 121 266q123 109 315 117v235h70v-235q172 -8 295 -100q123 -90 149 -222l-86 -22q-20 113 -128.5 186.5 t-262.5 73.5q-164 0 -276 -84q-111 -84 -111 -211q0 -104 82 -172q25 -20 94 -53q78 -33 238 -70q158 -33 268 -82q201 -86 213 -301q0 -168 -133 -282q-131 -113 -338 -123v-236h-70v236q-188 10 -317 102q-131 96 -160 240z" />
<glyph unicode="%" horiz-adv-x="1656" d="M94 1114q0 141 96.5 237.5t237.5 96.5q143 0 239.5 -96.5t96.5 -237.5q0 -145 -96 -242q-94 -94 -240 -94q-141 0 -237.5 96.5t-96.5 239.5zM170 1114.5q0 -110.5 73.5 -184.5t184.5 -74q109 0 184 72q74 74 74 184.5t-74 183.5q-74 76 -184.5 76t-184 -73.5t-73.5 -184z M225 41l1161 1393l52 -43l-1164 -1391zM895 319.5q0 145.5 94 239.5q96 96 240 96q141 0 237.5 -96t96.5 -239.5t-97 -239.5q-94 -94 -237 -94q-146 0 -240 94t-94 239.5zM971 319q0 -111 73.5 -184.5t184 -73.5t184.5 74t74 184.5t-74 185.5t-184.5 75t-184 -74t-73.5 -187 z" />
<glyph unicode="&#x26;" horiz-adv-x="1409" d="M131 399q0 133 80 225.5t246 184.5q-156 195 -156 356q0 127 86 205t223 78q139 0 235.5 -84t96.5 -207q0 -100 -74 -182q-27 -33 -84 -72q-41 -29 -92 -59l-108 -58q37 -41 86 -90l362 -368q92 152 92 352h82q0 -236 -114 -412l264 -268h-117l-197 199 q-176 -213 -446 -213q-203 0 -334 118.5t-131 294.5zM215 395q0 -137 109 -233q106 -94 272 -94q236 0 389 190l-369 373q-68 68 -106 114q-154 -84 -224.5 -162.5t-70.5 -187.5zM385 1159q0 -129 145 -311q98 51 127 67q49 29 97 64q106 76 106 178q0 88 -70.5 148.5 t-175.5 60.5q-100 0 -164.5 -57.5t-64.5 -149.5z" />
<glyph unicode="'" horiz-adv-x="415" d="M168 1434h80l-8 -437h-64z" />
<glyph unicode="(" horiz-adv-x="577" d="M162 987q64 323 244 610l32 41h86q-27 -33 -35 -45q-16 -20 -75 -127q-53 -96 -97 -204q-43 -117 -75 -279q-33 -164 -33 -342q0 -338 110 -625q104 -244 173 -331l32 -43h-86l-32 43q-18 23 -74 125q-117 209 -168 481q-66 350 -2 696z" />
<glyph unicode=")" horiz-adv-x="577" d="M53 -358l33 45q27 33 76 127q55 96 96 204q41 102 76 276.5t35 346.5q0 356 -113 623q-90 227 -170 333l-33 41h86l33 -43q18 -23 74 -125q117 -209 168 -481q66 -348 0 -696q-31 -174 -76 -283q-88 -223 -166 -327l-33 -41h-86z" />
<glyph unicode="*" horiz-adv-x="962" d="M168 961l260 135l-260 133l41 69l246 -157l-15 293h80l-12 -293l246 157l41 -69l-260 -133l260 -135l-41 -70l-246 158l12 -293h-80l15 293l-246 -158z" />
<glyph unicode="+" horiz-adv-x="1228" d="M156 723v78h419v420h78v-420h420v-78h-420v-420h-78v420h-419z" />
<glyph unicode="," horiz-adv-x="417" d="M123 -197l24 25q20 16 42 64.5t18 93.5q-47 0 -67.5 41t0 80.5t69.5 35.5q39 0 63.5 -32t24.5 -91q0 -90 -48 -155.5t-89 -85.5l-8 -6z" />
<glyph unicode="-" horiz-adv-x="819" d="M156 494v77h508v-77h-508z" />
<glyph unicode="." horiz-adv-x="419" d="M129 66q-4 49 38 70.5t84 0t40 -70.5q0 -35 -23.5 -57.5t-58.5 -22.5q-33 0 -56.5 23.5t-23.5 56.5z" />
<glyph unicode="/" horiz-adv-x="1011" d="M0 -358l932 1996h80l-930 -1996h-82z" />
<glyph unicode="0" horiz-adv-x="1366" d="M158 485v463q0 213 149.5 356.5t374.5 143.5t375 -143q152 -145 151 -357v-463q0 -211 -151 -356q-150 -143 -375 -143t-374.5 143t-149.5 356zM240 483q0 -176 127 -297q125 -119 315 -118.5t315 118.5q129 121 129 297v467q0 176 -129 295q-127 121 -315 121t-315 -121 t-127 -295v-467z" />
<glyph unicode="1" horiz-adv-x="847" d="M117 1204l403 230h53v-1434h-84v1319l-333 -189z" />
<glyph unicode="2" horiz-adv-x="1200" d="M115 1128q57 147 180 233.5t280 86.5q193 0 328 -123t135 -295q0 -88 -47 -178q-47 -92 -96 -143q-43 -47 -147 -150l-496 -477h815v-82h-950v57l561 553l47 45l51 50l43 47q20 20 45 51q53 74 64 106q24 56 24 119q0 139 -110 238q-109 100 -267 100q-129 0 -231 -74.5 t-151 -199.5z" />
<glyph unicode="3" horiz-adv-x="1212" d="M125 231l80 33q47 -92 148.5 -144t234.5 -52q172 0 291 90q117 88 116 223q0 133 -112 221q-115 90 -283 90h-106v80h81q166 0 277 86q113 86 113 213q0 125 -109 209q-106 86 -266 86q-129 0 -226.5 -55.5t-142.5 -153.5l-74 37q53 117 171 185.5t272 68.5 q195 0 328 -108.5t133 -266.5q0 -111 -73 -202t-196 -134q137 -41 218 -138t81 -220q0 -166 -141 -281q-139 -113 -352 -112q-160 0 -284 66.5t-179 178.5z" />
<glyph unicode="4" horiz-adv-x="1359" d="M104 319v82l854 1033h74v-1031h234v-84h-234v-319h-84v319h-844zM211 403h737v895z" />
<glyph unicode="5" horiz-adv-x="1239" d="M121 254l80 29q55 -100 159.5 -157.5t231.5 -57.5q184 0 305 106q125 106 125 266t-125 266.5t-309 106.5h-367l64 621h716v-80h-645l-47 -461h281q223 0 368 -131q150 -130 150 -320q0 -195 -150 -325q-145 -131 -366 -131q-158 0 -284 72.5t-187 195.5z" />
<glyph unicode="6" horiz-adv-x="1280" d="M158 444v504q0 213 149.5 356.5t374.5 143.5q141 0 257.5 -60.5t186.5 -166.5l-75 -41q-57 88 -154.5 137t-216.5 49q-186 0 -313 -121t-127 -295v-278q57 106 169.5 168.5t254.5 62.5q213 0 358 -133t145 -326q0 -195 -145 -327q-143 -131 -358 -131q-217 0 -361 131 q-145 133 -145 327zM244 444.5q0 -159.5 120.5 -268t299.5 -108.5q176 0 296.5 108.5t120.5 268t-120.5 268t-296.5 108.5q-178 0 -299 -108.5t-121 -268z" />
<glyph unicode="7" horiz-adv-x="1075" d="M57 1354v80h893v-82l-512 -1352h-90l514 1354h-805z" />
<glyph unicode="8" horiz-adv-x="1263" d="M131 383q0 127 83 225.5t224 141.5q-119 43 -189.5 133t-70.5 200q0 156 129 260q131 104 326 105q193 0 321 -105q131 -104 131 -260q0 -111 -70.5 -200.5t-189.5 -132.5q139 -43 223.5 -142.5t84.5 -224.5q0 -170 -144 -283q-145 -114 -356 -114q-215 0 -358.5 112.5 t-143.5 284.5zM217 389q0 -137 119 -229t297 -92q174 0 295 92q119 92 119 229q0 139 -119 227q-121 92 -295 93q-178 0 -297 -93q-119 -88 -119 -227zM264.5 1077q-0.5 -123 104.5 -207q106 -82 264 -82t260 82q106 82 106 207q0 123 -106 205q-106 84 -260 84 q-158 0 -264 -82q-104 -84 -104.5 -207z" />
<glyph unicode="9" horiz-adv-x="1249" d="M117 970.5q0 200.5 145 340.5q143 137 359 137q213 0 358 -133t145 -328v-504q0 -211 -151 -356q-150 -141 -375 -141q-141 0 -258.5 61.5t-187.5 167.5l73 41q61 -88 159.5 -138t215.5 -50q190 0 315 118q127 121 127 297v275q-57 -123 -169.5 -193.5t-251.5 -70.5 q-215 0 -359 137q-145 139 -145 339.5zM203 971q0 -168 121 -283q119 -113 297 -113t297 113q121 115 120 283q0 166 -120.5 280.5t-297 114.5t-297 -114.5t-120.5 -280.5z" />
<glyph unicode=":" horiz-adv-x="419" d="M129 66q-4 49 38 70.5t84 0t40 -70.5q0 -35 -23.5 -57.5t-58.5 -22.5q-33 0 -56.5 23.5t-23.5 56.5zM129 999.5q0 34.5 22.5 57t57.5 22.5t57 -22q25 -23 25 -57.5t-25 -59.5q-23 -23 -57 -23t-57 23q-23 25 -23 59.5z" />
<glyph unicode=";" horiz-adv-x="419" d="M123 -197l24 25q20 16 42 64.5t18 93.5q-47 0 -67.5 41t0 80.5t69.5 35.5q39 0 63.5 -32t24.5 -91q0 -90 -48 -155.5t-89 -85.5l-8 -6zM129 999.5q0 34.5 22.5 57t57.5 22.5t57 -22q25 -23 25 -57.5t-25 -59.5q-23 -23 -57 -23t-57 23q-23 25 -23 59.5z" />
<glyph unicode="&#x3c;" horiz-adv-x="1228" d="M135 684v66l918 430v-86l-807 -377l807 -377v-84z" />
<glyph unicode="=" horiz-adv-x="1228" d="M156 442v78h917v-78h-917zM156 913v78h917v-78h-917z" />
<glyph unicode="&#x3e;" horiz-adv-x="1228" d="M176 256v84l807 377l-807 377v86l918 -430v-66z" />
<glyph unicode="?" horiz-adv-x="1060" d="M57 1169q45 125 166 202t277 77q195 0 325 -113q135 -111 136 -268q0 -162 -140 -287q-119 -102 -213 -141l-41 -18l-4 -220h-71l-7 269q51 18 136 65q63 37 118 80q57 47 97.5 114.5t40.5 135.5q0 123 -111 213q-106 88 -264 88q-129 0 -228.5 -61.5t-134.5 -161.5z M446 67.5q0 34.5 23 57t57.5 22.5t57.5 -22q25 -23 24.5 -57.5t-24.5 -59.5q-23 -23 -57.5 -23t-57.5 23q-23 25 -23 59.5z" />
<glyph unicode="@" horiz-adv-x="2058" d="M113 532q0 389 262 652q264 264 653 264q391 0 653 -260q264 -258 265 -635q0 -211 -86 -346q-84 -133 -226 -133q-98 0 -168.5 63.5t-79.5 157.5q-57 -102 -158.5 -161.5t-223.5 -59.5q-190 0 -316 131q-127 133 -127 327.5t127 327.5q125 131 316 131q123 0 223 -58.5 t157 -160.5v207h72v-660q0 -74 52.5 -125t125.5 -51q109 0 174.5 112t65.5 292q0 350 -244 590q-242 240 -602 239q-360 0 -602 -241.5t-242 -602.5q0 -360 240 -602q242 -242 594 -241q225 0 412 112l30 -61q-195 -123 -442 -123q-383 0 -645 262q-260 260 -260 653z M635 532.5q0 -167.5 106 -276.5q107 -111 268.5 -111t268.5 111q106 109 106 276.5t-106 276.5q-106 111 -268 111t-269 -111q-106 -109 -106 -276.5z" />
<glyph unicode="A" horiz-adv-x="1464" d="M53 0l647 1434h64l647 -1434h-92l-170 377h-834l-170 -377h-92zM352 459h760l-381 846z" />
<glyph unicode="B" horiz-adv-x="1435" d="M205 0v1434h663q158 0 266.5 -102.5t108.5 -254.5q0 -104 -54 -188t-147 -127q125 -37 202 -138.5t77 -230.5q0 -168 -119 -280q-115 -113 -293 -113h-704zM291 82h618q137 0 232 90q92 88 92 225q0 135 -92 226q-95 90 -232 90h-618v-631zM291 795h577q119 0 203 79 q84 80 84 199t-84 199t-203 80h-577v-557z" />
<glyph unicode="C" horiz-adv-x="1613" d="M131 717q0 313 209 522t522 209q201 0 365 -90t258 -250l-80 -33q-86 135 -228.5 212t-314.5 77q-274 0 -459 -186q-184 -184 -184 -461q0 -274 184 -463q184 -184 459 -184q172 0 314.5 76.5t228.5 211.5l80 -32q-94 -160 -258 -250t-365 -90q-313 0 -522 209 q-209 211 -209 522z" />
<glyph unicode="D" horiz-adv-x="1617" d="M205 0v1434h551q309 0 520 -207q211 -205 211 -510t-211 -510q-211 -207 -520 -207h-551zM291 82h465q272 0 458 182q184 180 185 453q0 250 -164 430q-162 180 -414 203q-27 0 -35 2h-30h-465v-1270z" />
<glyph unicode="E" horiz-adv-x="1308" d="M205 0v1434h1005v-82h-919v-584h823v-82h-823v-604h930v-82h-1016z" />
<glyph unicode="F" horiz-adv-x="1296" d="M205 0v1434h1005v-82h-919v-568h823v-82h-823v-702h-86z" />
<glyph unicode="G" horiz-adv-x="1714" d="M131 717q0 313 213 522t530 209q203 0 370 -90t261 -250l-80 -33q-86 135 -230 212t-321 77q-283 0 -468 -186q-186 -184 -187 -461q0 -274 182 -463q182 -184 451 -184q254 0 434 163q178 160 201 414h-705v82h801q0 -319 -207 -532q-205 -211 -522 -211 q-307 0 -516 209q-207 213 -207 522z" />
<glyph unicode="H" horiz-adv-x="1593" d="M205 0v1434h86v-666h1012v666h86v-1434h-86v686h-1012v-686h-86z" />
<glyph unicode="I" horiz-adv-x="495" d="M205 0v1434h86v-1434h-86z" />
<glyph unicode="J" horiz-adv-x="1249" d="M80 223l72 45q57 -94 155.5 -147t216.5 -53q188 0 314 125q127 127 127 313v928h84v-928q0 -219 -152 -371q-149 -149 -370 -149h-3q-141 0 -257.5 63.5t-186.5 173.5z" />
<glyph unicode="K" horiz-adv-x="1288" d="M205 0v1434h86v-1434h-86zM406 729l675 705h113l-676 -705l717 -729h-113z" />
<glyph unicode="L" horiz-adv-x="1200" d="M205 0v1434h86v-1352h833v-82h-919z" />
<glyph unicode="M" horiz-adv-x="1873" d="M205 0v1434h86l645 -1119l647 1119h86v-1434h-86v1270l-618 -1073h-56l-618 1071v-1268h-86z" />
<glyph unicode="N" horiz-adv-x="1595" d="M205 0v1434h71l1031 -1280v1280h84v-1434h-72l-1030 1282v-1282h-84z" />
<glyph unicode="O" horiz-adv-x="1724" d="M131 717q0 313 209 522t522 209q311 0 520 -209q211 -209 211 -522q0 -311 -211 -522q-209 -209 -520 -209q-313 0 -522 209q-209 211 -209 522zM219 717q0 -274 184 -463q184 -184 459 -184t459 184q184 188 184 463q0 276 -184 461q-184 186 -459 186t-459 -186 q-184 -184 -184 -461z" />
<glyph unicode="P" horiz-adv-x="1357" d="M205 0v1434h612q184 0 309 -121q125 -119 125 -299q0 -182 -125 -301q-121 -119 -309 -119h-526v-594h-86zM291 676h526q145 0 246 96q100 98 100 242q0 145 -100 239q-99 99 -246 99h-526v-676z" />
<glyph unicode="Q" horiz-adv-x="1724" d="M131 717q0 313 209 522t522 209q311 0 520 -209q211 -209 211 -522q0 -324 -223 -535l229 -227l-59 -59l-233 233q-193 -143 -445 -143q-313 0 -522 209q-209 211 -209 522zM219 717q0 -274 184 -463q185 -184 459 -184q215 0 383 120l-272 273l57 59l281 -278 q194 187 194 470q0 279 -184 464q-184 186 -458.5 186t-459.5 -186q-184 -184 -184 -461z" />
<glyph unicode="R" horiz-adv-x="1396" d="M205 0v1434h633q184 0 309 -121q125 -119 125 -299q0 -150 -92 -264q-90 -111 -240 -146l381 -604h-100l-375 594h-8h-547v-594h-86zM291 676h547q145 0 245 96q100 98 101 242q0 145 -101 239q-98 99 -245 99h-547v-676z" />
<glyph unicode="S" horiz-adv-x="1280" d="M131 328l86 22q23 -125 139 -203q119 -77 285 -77h4q180 0 299 88t119 229q0 135 -127 207q-88 49 -285 96q-162 35 -266 80q-102 43 -155.5 112.5t-61.5 182.5q0 166 133 274.5t336 108.5q186 0 319 -90q135 -91 162 -232l-86 -22q-20 113 -128.5 186.5t-262.5 73.5 q-164 0 -276 -84q-111 -84 -111 -211q0 -104 82 -172q25 -20 94 -53q78 -33 238 -70q158 -33 268 -82q201 -86 213 -301q0 -180 -143.5 -292.5t-362.5 -112.5q-199 0 -342 96t-170 246z" />
<glyph unicode="T" horiz-adv-x="1413" d="M59 1352v82h1295v-82h-604v-1352h-86v1352h-605z" />
<glyph unicode="U" horiz-adv-x="1552" d="M184 573v861h86v-861q0 -219 143.5 -362t362.5 -143q217 0 361 143q145 145 145 362v861h86v-861q0 -250 -170 -419q-168 -168 -422 -168t-422 168q-170 170 -170 419z" />
<glyph unicode="V" horiz-adv-x="1443" d="M53 1434h92l576 -1303l577 1303h93l-637 -1434h-64z" />
<glyph unicode="W" horiz-adv-x="2103" d="M53 1434h88l445 -1287l434 1287h63l435 -1291l442 1291h90l-502 -1434h-63l-434 1280l-433 -1280h-63z" />
<glyph unicode="X" horiz-adv-x="1341" d="M53 0l565 729l-544 705h104l494 -637l491 637h105l-545 -705l565 -729h-104l-512 664l-514 -664h-105z" />
<glyph unicode="Y" horiz-adv-x="1337" d="M53 1434h101l516 -770l514 770h100l-571 -846v-588h-86v582z" />
<glyph unicode="Z" horiz-adv-x="1323" d="M106 0v66l1004 1286h-999v82h1120v-66l-1004 -1286h1008v-82h-1129z" />
<glyph unicode="[" horiz-adv-x="598" d="M168 -358v1996h377v-73h-299v-1850h299v-73h-377z" />
<glyph unicode="\" horiz-adv-x="1011" d="M0 1638h82l930 -1996h-80z" />
<glyph unicode="]" horiz-adv-x="598" d="M53 -285h299v1850h-299v73h377v-1996h-377v73z" />
<glyph unicode="^" horiz-adv-x="1228" d="M156 895l424 539h67l426 -539h-94l-367 451l-362 -451h-94z" />
<glyph unicode="_" horiz-adv-x="598" d="M0 -102h598v-78h-598v78z" />
<glyph unicode="`" horiz-adv-x="663" d="M147 1649l46 67l323 -223l-33 -47z" />
<glyph unicode="a" d="M264.5 921q151.5 158 376.5 158q147 0 270 -72.5t191 -197.5v256h82v-1065h-82v256q-68 -125 -191 -197.5t-270 -72.5q-227 0 -377 155q-151 157 -151 388q0 234 151.5 392zM197 532.5q0 -200.5 129 -331.5q129 -133 321.5 -133t321.5 133q129 131 129 331.5t-129 331.5 q-129 133 -321.5 133t-321.5 -133q-129 -131 -129 -331.5z" />
<glyph unicode="b" d="M186 0v1536h82v-727q68 125 191 197.5t270 72.5q225 0 376.5 -157.5t151.5 -389.5q0 -233 -151 -391q-149 -155 -374 -155h-3q-147 0 -270 72.5t-191 197.5v-256h-82zM272 532.5q0 -200.5 129 -331.5q129 -133 321.5 -133t321.5 133q129 131 129 331.5t-129 331.5 q-129 133 -321.5 133t-321.5 -133q-129 -131 -129 -331.5z" />
<glyph unicode="c" horiz-adv-x="1245" d="M113 532q0 233 155 390q157 157 388 157h3q160 0 289 -76.5t197 -211.5l-82 -27q-57 109 -163.5 171t-240.5 62q-199 0 -331 -133q-131 -131 -131 -331.5t131 -331.5q133 -133 331 -133q133 0 240 62.5t164 170.5l82 -27q-68 -135 -197 -211.5t-289 -76.5 q-236 0 -391 155.5t-155 390.5z" />
<glyph unicode="d" d="M264.5 921q151.5 158 376.5 158q147 0 270 -72.5t191 -197.5v727h82v-1536h-82v256q-68 -125 -191 -197.5t-270 -72.5q-227 0 -377 155q-151 157 -151 388q0 234 151.5 392zM197 532.5q0 -200.5 129 -331.5q129 -133 321.5 -133t321.5 133q129 131 129 331.5t-129 331.5 q-129 133 -321.5 133t-321.5 -133q-129 -131 -129 -331.5z" />
<glyph unicode="e" horiz-adv-x="1288" d="M266 922q157 157 382 158q1 0 3 -1q229 0 383 -157.5t154 -389.5q0 -14 -2 -18h-989q6 -195 139 -324q133 -127 334 -127q256 0 389 203l80 -28q-74 -119 -198 -185.5t-271 -66.5q-242 0 -400 155q-157 157 -157 388q0 234 153 393zM199 586h903q-14 178 -146 297 q-124 119 -305 119h-2q-182 0 -307 -119q-129 -119 -143 -297z" />
<glyph unicode="f" horiz-adv-x="698" d="M53 989v76h197v184q0 119 74 203t182 84h137v-80h-133q-76 0 -127 -61.5t-51 -151.5v-178h313v-76h-313v-989h-82v989h-197z" />
<glyph unicode="g" d="M264.5 921q151.5 158 376.5 158q147 0 270 -72.5t191 -197.5v256h82v-1002q0 -231 -158 -384.5t-391 -153.5q-139 0 -259 60.5t-190 164.5l80 31q129 -174 367 -174q207 0 338 131q135 129 135 325l-2 199q-68 -129 -189.5 -202.5t-273.5 -73.5q-227 0 -377 155 q-151 157 -151 388q0 234 151.5 392zM197 532.5q0 -200.5 129 -331.5q129 -133 321.5 -133t321.5 133q129 131 129 331.5t-129 331.5q-129 133 -321.5 133t-321.5 -133q-129 -131 -129 -331.5z" />
<glyph unicode="h" horiz-adv-x="1312" d="M186 0v1536h82v-707q37 78 129 156q111 94 308 94q184 0 307 -125q123 -127 123 -311v-643h-82v629q0 158 -105 264q-100 106 -258 106q-176 0 -301 -108q-121 -109 -121 -268v-623h-82z" />
<glyph unicode="i" horiz-adv-x="454" d="M156 1331q0 31 19.5 51.5t51.5 20.5q31 0 51.5 -20.5t20.5 -51.5q0 -33 -20.5 -53.5t-51.5 -20.5q-33 0 -52 20.5t-19 53.5zM186 0v1065h82v-1065h-82z" />
<glyph unicode="j" horiz-adv-x="473" d="M-47 -381h76q76 0 126 61.5t50 151.5v1233h82v-1239q0 -123 -73 -205t-183 -82h-78v80zM174 1331q0 31 19.5 51.5t52.5 20.5q31 0 52 -20.5t21 -51.5q0 -33 -21.5 -53.5t-51.5 -20.5q-33 0 -52.5 20.5t-19.5 53.5z" />
<glyph unicode="k" horiz-adv-x="1013" d="M186 0v1536h82v-1536h-82zM334 551l477 514h104l-475 -514l521 -551h-107z" />
<glyph unicode="l" horiz-adv-x="454" d="M186 0v1536h82v-1536h-82z" />
<glyph unicode="m" horiz-adv-x="2056" d="M186 0v1065h82v-205q45 82 144 150q95 69 257 69h5q127 0 229.5 -69.5t143.5 -182.5q29 63 106 142q110 110 316 110h4q174 0 288 -114q117 -115 117 -285v-680h-82v666q0 141 -96 237t-236 96q-166 0 -280 -98q-111 -94 -111 -242v-659h-82v666q0 141 -96 237t-236 96 q-168 0 -280 -98q-111 -94 -111 -242v-659h-82z" />
<glyph unicode="n" horiz-adv-x="1325" d="M186 0v1065h82v-236q41 80 131 156q111 94 312 94q186 0 311 -125q125 -123 125 -311v-643h-82v629q0 158 -107 264q-104 106 -262 106q-180 0 -305 -108q-123 -109 -123 -268v-623h-82z" />
<glyph unicode="o" horiz-adv-x="1318" d="M113 532q0 233 155 390q157 157 388 157h3q231 0 389 -157.5t158 -389.5q0 -233 -157 -391q-155 -155 -387 -155h-3q-235 0 -390.5 155.5t-155.5 390.5zM197 532.5q0 -200.5 131 -331.5q133 -133 331 -133q197 0 330 133t133 331.5t-133 331.5t-330 133q-198 0 -331 -133 q-131 -131 -131 -331.5z" />
<glyph unicode="p" d="M186 -461v1526h82v-256q68 125 191 197.5t270 72.5q225 0 376.5 -157.5t151.5 -389.5q0 -233 -151 -391q-149 -155 -374 -155h-3q-147 0 -270 72.5t-191 197.5v-717h-82zM272 532.5q0 -200.5 129 -331.5q129 -133 321.5 -133t321.5 133q129 131 129 331.5t-129 331.5 q-129 133 -321.5 133t-321.5 -133q-129 -131 -129 -331.5z" />
<glyph unicode="q" d="M264.5 921q151.5 158 376.5 158q147 0 270 -72.5t191 -197.5v256h82v-1526h-82v717q-68 -125 -191 -197.5t-270 -72.5q-227 0 -377 155q-151 157 -151 388q0 234 151.5 392zM197 532.5q0 -200.5 129 -331.5q129 -133 321.5 -133t321.5 133q129 131 129 331.5t-129 331.5 q-129 133 -321.5 133t-321.5 -133q-129 -131 -129 -331.5z" />
<glyph unicode="r" horiz-adv-x="794" d="M186 0v1065h82v-238q37 78 129 156q113 96 314 96h28v-88q-37 4 -43 4q-180 0 -305 -108q-123 -109 -123 -269v-618h-82z" />
<glyph unicode="s" horiz-adv-x="983" d="M109 227l77 19q16 -82 98.5 -133.5t202.5 -51.5q129 0 213 59.5t84 151.5q0 129 -163 189l-291 110q-190 72 -191 238q0 121 98.5 195.5t254.5 74.5q135 0 229 -59.5t117 -157.5l-78 -20q-16 72 -91 117t-182 45q-115 0 -191.5 -54.5t-76.5 -136.5q0 -121 135 -172 l303 -109q207 -78 207 -258q0 -129 -106 -208q-106 -80 -271 -80q-152 0 -254 65.5t-124 175.5z" />
<glyph unicode="t" horiz-adv-x="745" d="M45 989v76h195v217h82v-217h331v-76h-331v-696q0 -90 51 -151.5t127 -61.5h151v-80h-155q-109 0 -182.5 82t-73.5 205v702h-195z" />
<glyph unicode="u" horiz-adv-x="1325" d="M178 422v643h82v-629q0 -158 105 -264q106 -106 264 -106q184 0 305 106q123 106 123 270v623h82v-1065h-82v236q-41 -80 -131 -156q-111 -94 -312 -94q-188 0 -313 123q-123 125 -123 313z" />
<glyph unicode="v" horiz-adv-x="1101" d="M37 1065h86l428 -950l428 950h86l-481 -1065h-66z" />
<glyph unicode="w" horiz-adv-x="1599" d="M37 1065h84l328 -928l319 928h63l320 -932l328 932h84l-381 -1065h-64l-317 920l-320 -920h-63z" />
<glyph unicode="x" horiz-adv-x="1083" d="M61 0l431 543l-414 522h100l365 -457l364 457h101l-414 -522l428 -543h-100l-379 477l-381 -477h-101z" />
<glyph unicode="y" horiz-adv-x="1060" d="M37 1065h86l403 -936l412 936h86l-571 -1296q-53 -121 -126 -175.5t-182 -54.5h-57v80h57q82 0 138.5 42t97.5 136l102 234z" />
<glyph unicode="z" horiz-adv-x="1064" d="M96 0v70l752 917h-742v78h852v-70l-751 -917h762v-78h-873z" />
<glyph unicode="{" horiz-adv-x="624" d="M37 604v74q20 0 61 14q117 41 117 135v600q0 90 58.5 150.5t144.5 60.5h153v-73h-147q-57 0 -94 -39t-37 -99v-600q0 -76 -43 -124t-113 -62q70 -18 113 -65.5t43 -122.5v-600q0 -59 37 -98.5t94 -39.5h147v-73h-153q-86 0 -144.5 60t-58.5 151v600q0 53 -42 93t-91 48z " />
<glyph unicode="|" horiz-adv-x="409" d="M168 -358v1996h74v-1996h-74z" />
<glyph unicode="}" horiz-adv-x="624" d="M53 -285h148q57 0 94 39t37 99v600q0 76 43 123t112 65q-70 14 -112.5 62.5t-42.5 123.5v600q0 59 -37 98.5t-94 39.5h-148v73h154q88 0 145.5 -60t57.5 -151v-600q0 -53 43 -93t92 -48l43 -8v-74q-14 0 -62 -16q-117 -41 -116 -135v-600q0 -90 -57.5 -150.5 t-145.5 -60.5h-154v73z" />
<glyph unicode="~" horiz-adv-x="1228" d="M156 596q0 109 73.5 181.5t184.5 72.5q123 0 209 -94q94 -94 192 -94q78 0 129 50t51 128h78q0 -109 -76 -183q-73 -73 -186 -73q-119 0 -213 94t-188 94q-78 0 -127.5 -50t-49.5 -126h-77z" />
<glyph unicode="&#xa1;" horiz-adv-x="495" d="M166 999q0 35 23.5 57.5t58.5 22.5t57.5 -23.5t22.5 -56.5q4 -49 -38 -70.5t-84 0t-40 70.5zM205 -369l6 1033h74l6 -1033h-86z" />
<glyph unicode="&#xa2;" horiz-adv-x="1245" d="M113 717q0 221 145 377q141 154 367 170v231h69v-231q147 -8 267 -86t184 -203l-82 -27q-57 109 -163.5 171.5t-240.5 62.5q-199 0 -331 -133q-131 -131 -131 -332t131 -332q133 -133 331 -133q133 0 240 62.5t164 170.5l82 -26q-63 -125 -183 -203t-268 -86v-231h-69 v231q-223 16 -367 168q-145 158 -145 379z" />
<glyph unicode="&#xa3;" horiz-adv-x="1181" d="M78 0v82h196v543h-143v69h143v357q0 170 117 282q121 115 285 115q141 0 262 -84q123 -84 170 -211l-80 -27q-39 104 -139 172q-94 68 -209 68q-131 0 -227 -92q-94 -92 -95 -225v-355h480v-69h-480v-543h729v-82h-1009z" />
<glyph unicode="&#xa4;" horiz-adv-x="1263" d="M168 307l158 158q-88 106 -88 252q0 141 90 254l-158 157l51 52l158 -158q106 88 254 88q145 0 252 -88l159 158l52 -52l-160 -159q90 -102 90 -252q0 -145 -90 -254l158 -160l-52 -51l-157 160q-106 -88 -252 -88q-147 0 -256 90l-158 -158zM311 717q0 -135 90 -230 q95 -90 232 -90t227 90q92 92 92 230q0 139 -92 229q-90 90 -227 90q-139 0 -232 -92q-90 -90 -90 -227z" />
<glyph unicode="&#xa5;" horiz-adv-x="1337" d="M53 1434h101l514 -766l516 766h100l-571 -848v-88h364v-70h-364v-180h364v-70h-364v-178h-86v178h-365v70h365v180h-365v70h365v86z" />
<glyph unicode="&#xa6;" horiz-adv-x="409" d="M168 -358v831h74v-831h-74zM168 807v831h74v-831h-74z" />
<glyph unicode="&#xa7;" horiz-adv-x="972" d="M109 -127l75 29q16 -88 101.5 -144.5t201.5 -56.5q129 0 213 69.5t84 176.5q0 150 -159 223l-295 133q-90 41 -139.5 119t-49.5 176q0 182 150 274q-150 80 -150 256q0 137 99 228q98 92 249 92q133 0 228.5 -62.5t120.5 -160.5l-76 -29q-18 80 -93 129t-180 49 q-117 0 -192.5 -68.5t-75.5 -170.5q0 -72 36 -130.5t93 -82.5l314 -134q94 -41 147 -121.5t53 -179.5q0 -184 -155 -278q156 -86 155 -256q0 -141 -108 -234q-109 -92 -271 -92q-145 0 -249.5 68.5t-126.5 177.5zM221 600q0 -76 37 -136.5t98 -88.5l275 -125q154 74 153 235 q1 166 -163 240l-250 106q-68 -31 -109 -92t-41 -139z" />
<glyph unicode="&#xa8;" horiz-adv-x="849" d="M147 1522.5q0 25.5 19.5 48t52.5 22.5q43 2 60.5 -34.5t0 -73.5t-60.5 -33q-33 0 -52.5 22.5t-19.5 48zM561.5 1521q-0.5 31 18.5 52q20 20 51 20t51 -20.5t20 -51t-20 -51.5q-20 -18 -51 -18t-51 18q-18 20 -18.5 51z" />
<glyph unicode="&#xa9;" horiz-adv-x="1718" d="M131 717q0 301 213 514q213 215 516 215t514 -215q213 -213 213 -514q0 -299 -213 -516q-213 -213 -514 -213q-303 0 -516 213q-213 217 -213 516zM184 716.5q0 -278.5 199 -477t477.5 -198.5t474.5 197q199 199 199 479t-199 477q-197 199 -475 199t-477 -199 t-199 -477.5zM498 717q0 160 106 264q106 106 266 106q104 0 189.5 -47t132.5 -131l-62 -22q-90 139 -260 139q-131 0 -219 -88t-88 -221t88 -221t219 -88q174 0 260 139l62 -25q-109 -178 -322 -178q-160 0 -266 106.5t-106 266.5z" />
<glyph unicode="&#xaa;" horiz-adv-x="950" d="M76 1061q0 164 104 270q104 111 260 111q100 0 183.5 -48t132.5 -132v172h71v-746h-71v172q-49 -84 -132 -132t-184 -48q-156 0 -260 108q-104 111 -104 273zM150 1061q0 -131 86 -221q90 -90 215 -90q127 0 213 90q88 88 88 221t-88 221q-86 90 -213 90q-125 0 -215 -90 q-86 -90 -86 -221z" />
<glyph unicode="&#xab;" horiz-adv-x="1017" d="M94 532l361 361l53 -51l-311 -310l311 -309l-53 -51zM475 532l361 361l51 -51l-309 -310l309 -309l-51 -51z" />
<glyph unicode="&#xac;" horiz-adv-x="1228" d="M156 678v78h917v-398h-76v320h-841z" />
<glyph unicode="&#xad;" horiz-adv-x="819" d="M156 494v77h508v-77h-508z" />
<glyph unicode="&#xae;" horiz-adv-x="1718" d="M131 717q0 301 213 514q213 215 516 215t514 -215q213 -213 213 -514q0 -299 -213 -516q-213 -213 -514 -213q-303 0 -516 213q-213 217 -213 516zM184 716.5q0 -278.5 199 -477t477.5 -198.5t474.5 197q199 199 199 479t-199 477q-197 199 -475 199t-477 -199 t-199 -477.5zM606 352v729h324q98 0 163.5 -62.5t65.5 -156.5q0 -76 -44 -133t-118 -78l185 -299h-72l-180 291h-260v-291h-64zM670 705h260q70 0 116 44t46 113.5t-46 114.5t-116 45h-260v-317z" />
<glyph unicode="&#xaf;" horiz-adv-x="831" d="M147 1497v74h537v-74h-537z" />
<glyph unicode="&#xb0;" horiz-adv-x="757" d="M94 1265.5q0 120.5 82 202.5t203 82q123 0 203 -82q82 -82 82 -202.5t-82 -202.5q-80 -82 -203 -82q-121 0 -203 82t-82 202.5zM170 1266q0 -90 59 -150q63 -59 150 -59q88 0 147 59q61 59 61.5 149.5t-61.5 149.5q-59 59 -147 60q-87 -1 -150 -60q-59 -59 -59 -149z" />
<glyph unicode="&#xb1;" horiz-adv-x="1228" d="M156 184v78h917v-78h-917zM156 834v77h419v420h78v-420h420v-77h-420v-375h-78v375h-419z" />
<glyph unicode="&#xb2;" horiz-adv-x="659" d="M57 1366q35 82 103.5 130t154.5 48q106 0 185 -67q76 -68 75 -164q0 -63 -36.5 -120.5t-124.5 -141.5l-252 -242h428v-61h-529v45l306 297q16 14 29.5 28.5t25.5 26.5l16 16q72 72 72 150q0 70 -57.5 121t-137.5 51q-66 0 -119 -40t-79 -106z" />
<glyph unicode="&#xb3;" horiz-adv-x="667" d="M63 883l62 22q53 -102 199 -102q90 0 150.5 45t60.5 115q0 68 -58.5 113.5t-146.5 45.5h-60v56h45q84 0 142.5 43.5t58.5 109.5q0 63 -55 107.5t-137 44.5q-139 0 -193 -109l-55 25q31 68 97.5 106.5t152.5 38.5q109 0 183.5 -60.5t74.5 -150.5q0 -59 -38 -108t-104 -72 q74 -23 116 -74t42 -118q0 -94 -79 -158t-197 -64q-90 0 -160 39t-101 105z" />
<glyph unicode="&#xb4;" horiz-adv-x="663" d="M147 1493l324 223l45 -67l-336 -203z" />
<glyph unicode="&#xb5;" horiz-adv-x="1325" d="M178 -461v1526h82v-629q0 -158 105 -264q106 -106 264 -106q184 0 305 106q123 106 123 270v623h82v-1065h-82v236q-41 -80 -131 -156q-111 -94 -312 -94q-229 0 -354 174v-621h-82z" />
<glyph unicode="&#xb6;" horiz-adv-x="1388" d="M129 1028q0 174 115 289q117 117 291 117h761v-70h-237v-1722h-74v1722h-377v-1722h-73v981q-174 0 -291 116q-115 119 -115 289z" />
<glyph unicode="&#xb7;" horiz-adv-x="419" d="M129 717q0 53 49 74.5t88 -17.5q41 -39 18.5 -88t-75.5 -49q-33 0 -56.5 23.5t-23.5 56.5z" />
<glyph unicode="&#xb8;" horiz-adv-x="495" d="M70 -344l28 49q57 -74 152 -74q55 0 93 29t38 68q0 35 -38 62.5t-85 33.5l-43 4l41 172h72l-31 -129q6 0 16.5 -3t37 -13.5t47 -24.5t37 -41t16.5 -61q0 -66 -54.5 -112t-136.5 -46q-104 0 -170 65z" />
<glyph unicode="&#xb9;" horiz-adv-x="468" d="M59 1411l226 125h43v-788h-64v706l-178 -98z" />
<glyph unicode="&#xba;" horiz-adv-x="917" d="M75.5 1061q0.5 164 108.5 272q113 109 275 109q164 0 274 -111q111 -106 111 -270q0 -162 -111 -273q-113 -109 -274.5 -109t-274.5 109q-109 109 -108.5 273zM147.5 1061q-0.5 -133 90.5 -223q88 -88 223 -88q129 0 219 90t90 221t-90 221t-221 90q-133 0 -223 -90 q-88 -88 -88.5 -221z" />
<glyph unicode="&#xbb;" horiz-adv-x="1017" d="M131 223l309 309l-309 310l51 51l363 -361l-363 -360zM512 223l309 309l-309 310l51 51l361 -361l-361 -360z" />
<glyph unicode="&#xbc;" horiz-adv-x="1552" d="M59 1309l226 125h43v-789h-64v707l-178 -99zM186 0l1008 1434h84l-1010 -1434h-82zM860 170v63l461 555h57v-555h125v-63h-125v-170h-63v170h-455zM938 233h377v457z" />
<glyph unicode="&#xbd;" horiz-adv-x="1599" d="M59 1309l226 125h43v-789h-64v707l-178 -99zM186 0l1008 1434h84l-1010 -1434h-82zM997 618q35 82 104.5 130.5t155.5 48.5q106 0 182.5 -67.5t76.5 -164.5q0 -63 -37 -120.5t-125 -141.5l-250 -242h428v-61h-528v45l303 297q104 100 125 145q20 35 20 76q0 70 -57.5 121 t-137.5 51q-68 0 -121 -39t-79 -106z" />
<glyph unicode="&#xbe;" horiz-adv-x="1763" d="M63 780l62 23q53 -102 199 -103q90 0 150.5 45.5t60.5 114.5q0 68 -58.5 114t-146.5 46h-60v55h45q84 0 142.5 44t58.5 110q0 63 -55 107t-137 44q-139 0 -193 -108l-55 24q31 68 97.5 107t152.5 39q109 0 183.5 -60.5t74.5 -150.5q0 -59 -38 -108.5t-104 -71.5 q74 -23 116 -74t42 -119q0 -94 -78.5 -157.5t-197.5 -63.5q-90 0 -160 39t-101 104zM379 0l1010 1434h84l-1010 -1434h-84zM1071 170v63l461 555h57v-555h125v-63h-125v-170h-63v170h-455zM1149 233h377v457z" />
<glyph unicode="&#xbf;" horiz-adv-x="1056" d="M96 -2q0 164 140 285q117 104 213 143l40 18l5 220h71l8 -269q-51 -18 -137 -67q-66 -35 -119 -80q-57 -47 -97 -113.5t-40 -134.5q0 -123 109 -213q109 -88 268 -88q129 0 227.5 61.5t135.5 161.5l79 -26q-43 -125 -163.5 -202t-278.5 -77q-195 0 -328 113 q-133 111 -133 268zM451 997.5q0 34.5 22 57.5q23 25 57.5 25t57.5 -25q23 -23 22.5 -57.5t-23 -57t-57 -22.5t-57 22.5t-22.5 57z" />
<glyph unicode="&#xc0;" horiz-adv-x="1464" d="M53 0l647 1434h64l647 -1434h-92l-170 377h-834l-170 -377h-92zM352 459h760l-381 846zM449 1784l45 67l323 -223l-33 -47z" />
<glyph unicode="&#xc1;" horiz-adv-x="1464" d="M53 0l647 1434h64l647 -1434h-92l-170 377h-834l-170 -377h-92zM352 459h760l-381 846zM655 1628l324 223l45 -67l-336 -203z" />
<glyph unicode="&#xc2;" horiz-adv-x="1464" d="M53 0l647 1434h64l647 -1434h-92l-170 377h-834l-170 -377h-92zM352 459h760l-381 846zM428 1626l299 240h10l297 -240l-37 -45l-266 193l-264 -193z" />
<glyph unicode="&#xc3;" horiz-adv-x="1464" d="M53 0l647 1434h64l647 -1434h-92l-170 377h-834l-170 -377h-92zM352 459h760l-381 846zM440 1589q0 74 51.5 126t124.5 52q61 0 125 -59t105 -59q43 0 73.5 31.5t30.5 80.5h72q0 -80 -50 -130t-124 -50q-63 0 -127 59q-59 59 -102.5 59.5t-75 -32.5t-31.5 -78h-72z" />
<glyph unicode="&#xc4;" horiz-adv-x="1464" d="M53 0l647 1434h64l647 -1434h-92l-170 377h-834l-170 -377h-92zM352 459h760l-381 846zM453 1657q0 31 20.5 51.5t51 20.5t51 -20.5t20.5 -51.5t-21 -51q-20 -18 -51 -18t-51 18q-20 20 -20 51zM876.5 1620q-18.5 37 0 74t61.5 35q43 2 61.5 -35t1 -74t-62.5 -33 q-43 -4 -61.5 33z" />
<glyph unicode="&#xc5;" horiz-adv-x="1464" d="M53 0l647 1434h64l647 -1434h-92l-170 377h-834l-170 -377h-92zM352 459h760l-381 846zM537 1747q0 82 56 138.5t138 56.5t139.5 -56.5t57.5 -138.5q0 -80 -57.5 -137.5t-139.5 -57.5t-138 57.5t-56 137.5zM604 1747q0 -53 37 -92q37 -37 90 -37t90 37q39 39 39 92 t-39 90q-37 39 -90 39t-90 -39q-37 -37 -37 -90z" />
<glyph unicode="&#xc6;" horiz-adv-x="2023" d="M53 0l951 1434h921v-82h-792v-584h696v-82h-696v-604h802v-82h-888v377h-644l-249 -377h-101zM457 459h590v891z" />
<glyph unicode="&#xc7;" horiz-adv-x="1613" d="M131 717q0 313 209 522t522 209q201 0 365 -90t258 -250l-80 -33q-86 135 -228.5 212t-314.5 77q-274 0 -459 -186q-184 -184 -184 -461q0 -274 184 -463q184 -184 459 -184q172 0 314.5 76.5t228.5 211.5l80 -32q-88 -147 -239.5 -237.5t-336.5 -100.5l-26 -117 q6 0 16 -3t38 -13.5t48.5 -24.5t36.5 -41t16 -61q0 -66 -55 -112t-137 -46q-47 0 -95.5 20.5t-70.5 44.5l-23 21l29 49q55 -74 152 -74q55 0 93 29t38 68q0 35 -39 62.5t-86 33.5l-41 4l37 158q-303 8 -506 217t-203 514z" />
<glyph unicode="&#xc8;" horiz-adv-x="1308" d="M205 0v1434h1005v-82h-919v-584h823v-82h-823v-604h930v-82h-1016zM403 1784l46 67l323 -223l-33 -47z" />
<glyph unicode="&#xc9;" horiz-adv-x="1308" d="M205 0v1434h1005v-82h-919v-584h823v-82h-823v-604h930v-82h-1016zM610 1628l324 223l45 -67l-336 -203z" />
<glyph unicode="&#xca;" horiz-adv-x="1308" d="M205 0v1434h1005v-82h-919v-584h823v-82h-823v-604h930v-82h-1016zM383 1626l299 240h10l297 -240l-37 -45l-266 193l-264 -193z" />
<glyph unicode="&#xcb;" horiz-adv-x="1308" d="M205 0v1434h1005v-82h-919v-584h823v-82h-823v-604h930v-82h-1016zM408 1657q0 31 20.5 51.5t51 20.5t51 -20.5t20.5 -51.5t-21 -51q-20 -18 -51 -18t-51 18q-20 20 -20 51zM831.5 1620q-18.5 37 0 74t61.5 35q43 2 61.5 -35t1 -74t-62.5 -33q-43 -4 -61.5 33z" />
<glyph unicode="&#xcc;" horiz-adv-x="495" d="M-35 1784l45 67l324 -223l-35 -47zM205 0v1434h86v-1434h-86z" />
<glyph unicode="&#xcd;" horiz-adv-x="495" d="M172 1628l322 223l47 -67l-336 -203zM205 0v1434h86v-1434h-86z" />
<glyph unicode="&#xce;" horiz-adv-x="495" d="M-55 1626l297 240h10l299 -240l-39 -45l-264 193l-266 -193zM205 0v1434h86v-1434h-86z" />
<glyph unicode="&#xcf;" horiz-adv-x="495" d="M-31 1657.5q0 25.5 19.5 48.5t52.5 23q43 2 60.5 -35t0 -74t-60.5 -33q-33 0 -52.5 22.5t-19.5 48zM205 0v1434h86v-1434h-86zM383 1657q0 31 18 51q20 20 51 20.5t51.5 -20t20.5 -51.5t-20 -51q-20 -18 -51.5 -18t-51.5 18q-18 20 -18 51z" />
<glyph unicode="&#xd0;" horiz-adv-x="1626" d="M20 678v78h193v678h551q309 0 520 -207q211 -205 211 -510t-211 -510q-211 -207 -520 -207h-551v678h-193zM299 82h465q272 0 459 182q184 180 184 453q0 270 -184 452q-186 182 -459 183h-465v-596h471v-78h-471v-596z" />
<glyph unicode="&#xd1;" horiz-adv-x="1595" d="M205 0v1434h71l1031 -1280v1280h84v-1434h-72l-1030 1282v-1282h-84zM506 1589q0 74 51 126t125 52q61 0 124.5 -59t104.5 -59q43 0 74 31.5t31 80.5h71q0 -80 -49 -130t-123 -50q-66 0 -129 59q-59 59 -100 60q-45 0 -76.5 -33t-31.5 -78h-72z" />
<glyph unicode="&#xd2;" horiz-adv-x="1724" d="M131 717q0 313 209 522t522 209q311 0 520 -209q211 -209 211 -522q0 -311 -211 -522q-209 -209 -520 -209q-313 0 -522 209q-209 211 -209 522zM219 717q0 -274 184 -463q184 -184 459 -184t459 184q184 188 184 463q0 276 -184 461q-184 186 -459 186t-459 -186 q-184 -184 -184 -461zM580 1784l45 67l323 -223l-35 -47z" />
<glyph unicode="&#xd3;" horiz-adv-x="1724" d="M131 717q0 313 209 522t522 209q311 0 520 -209q211 -209 211 -522q0 -311 -211 -522q-209 -209 -520 -209q-313 0 -522 209q-209 211 -209 522zM219 717q0 -274 184 -463q184 -184 459 -184t459 184q184 188 184 463q0 276 -184 461q-184 186 -459 186t-459 -186 q-184 -184 -184 -461zM786 1628l322 223l47 -67l-336 -203z" />
<glyph unicode="&#xd4;" horiz-adv-x="1724" d="M131 717q0 313 209 522t522 209q311 0 520 -209q211 -209 211 -522q0 -311 -211 -522q-209 -209 -520 -209q-313 0 -522 209q-209 211 -209 522zM219 717q0 -274 184 -463q184 -184 459 -184t459 184q184 188 184 463q0 276 -184 461q-184 186 -459 186t-459 -186 q-184 -184 -184 -461zM559 1626l297 240h10l299 -240l-39 -45l-264 193l-266 -193z" />
<glyph unicode="&#xd5;" horiz-adv-x="1724" d="M131 717q0 313 209 522t522 209q311 0 520 -209q211 -209 211 -522q0 -311 -211 -522q-209 -209 -520 -209q-313 0 -522 209q-209 211 -209 522zM219 717q0 -274 184 -463q184 -184 459 -184t459 184q184 188 184 463q0 276 -184 461q-184 186 -459 186t-459 -186 q-184 -184 -184 -461zM569 1589q0 74 52.5 126t126.5 52q55 0 123.5 -59t105.5 -59q43 0 73.5 31.5t30.5 80.5h72q0 -80 -50 -130t-124 -50q-63 0 -127 59q-59 59 -102 60q-45 0 -77 -33t-32 -78h-72z" />
<glyph unicode="&#xd6;" horiz-adv-x="1724" d="M131 717q0 313 209 522t522 209q311 0 520 -209q211 -209 211 -522q0 -311 -211 -522q-209 -209 -520 -209q-313 0 -522 209q-209 211 -209 522zM219 717q0 -274 184 -463q184 -184 459 -184t459 184q184 188 184 463q0 276 -184 461q-184 186 -459 186t-459 -186 q-184 -184 -184 -461zM584 1657.5q0 25.5 19 48.5t52 23q43 2 60.5 -35t0 -74t-60.5 -33q-33 0 -52 22.5t-19 48zM997.5 1657q-0.5 31 18.5 51q20 20 51 20.5t51.5 -20t20.5 -51.5t-21 -51q-20 -18 -51 -18t-51 18q-18 20 -18.5 51z" />
<glyph unicode="&#xd7;" horiz-adv-x="1228" d="M227 385l332 332l-332 332l56 55l331 -332l332 332l55 -55l-331 -332l331 -332l-55 -55l-332 332l-331 -332z" />
<glyph unicode="&#xd8;" horiz-adv-x="1724" d="M131 717q0 313 209 522t522 209q217 0 393 -107l76 107l62 -43l-76 -107q131 -104 203.5 -253.5t72.5 -327.5q0 -311 -211 -522q-209 -209 -520 -209q-215 0 -389 106l-76 -106l-59 41l76 106q-135 100 -209 253t-74 331zM219 717q0 -158 63.5 -291t180.5 -221l743 1065 q-156 94 -344 94q-274 0 -459 -186q-184 -184 -184 -461zM522 162q158 -92 340 -92q274 0 459 184q184 188 184 463q0 154 -63 287t-176 221z" />
<glyph unicode="&#xd9;" horiz-adv-x="1552" d="M184 573v861h86v-861q0 -219 143.5 -362t362.5 -143q217 0 361 143q145 145 145 362v861h86v-861q0 -250 -170 -419q-168 -168 -422 -168t-422 168q-170 170 -170 419zM494 1784l45 67l323 -223l-35 -47z" />
<glyph unicode="&#xda;" horiz-adv-x="1552" d="M184 573v861h86v-861q0 -219 143.5 -362t362.5 -143q217 0 361 143q145 145 145 362v861h86v-861q0 -250 -170 -419q-168 -168 -422 -168t-422 168q-170 170 -170 419zM700 1628l322 223l47 -67l-336 -203z" />
<glyph unicode="&#xdb;" horiz-adv-x="1552" d="M184 573v861h86v-861q0 -219 143.5 -362t362.5 -143q217 0 361 143q145 145 145 362v861h86v-861q0 -250 -170 -419q-168 -168 -422 -168t-422 168q-170 170 -170 419zM473 1626l297 240h10l299 -240l-39 -45l-264 193l-266 -193z" />
<glyph unicode="&#xdc;" horiz-adv-x="1552" d="M184 573v861h86v-861q0 -219 143.5 -362t362.5 -143q217 0 361 143q145 145 145 362v861h86v-861q0 -250 -170 -419q-168 -168 -422 -168t-422 168q-170 170 -170 419zM498 1657.5q0 25.5 19 48.5t52 23q43 2 60.5 -35t0 -74t-60.5 -33q-33 0 -52 22.5t-19 48z M911.5 1657q-0.5 31 18.5 51q20 20 51 20.5t51.5 -20t20.5 -51.5t-21 -51q-20 -18 -51 -18t-51 18q-18 20 -18.5 51z" />
<glyph unicode="&#xdd;" horiz-adv-x="1337" d="M53 1434h101l516 -770l514 770h100l-571 -846v-588h-86v582zM594 1628l321 223l48 -67l-336 -203z" />
<glyph unicode="&#xde;" horiz-adv-x="1357" d="M205 0v1434h86v-297h526q184 0 309 -121q125 -119 125 -299q0 -182 -125 -301q-121 -119 -309 -119h-526v-297h-86zM291 379h526q145 0 246 96q100 98 100 242q0 145 -100 239q-99 99 -246 99h-526v-676z" />
<glyph unicode="&#xdf;" horiz-adv-x="1167" d="M186 0v1212q0 147 95 242q96 96 241.5 96t239.5 -94t94 -217q0 -121 -98 -199q-96 -80 -96 -153q0 -84 143 -172q53 -31 90 -57.5t81 -72.5t66.5 -106.5t22.5 -136.5q0 -172 -119 -263t-344 -91v82q379 0 379 272q0 166 -143 258q-10 6 -57.5 36t-64 41t-51 38.5t-48 49 t-26.5 53.5t-13 65q0 102 96 182q98 82 98 176q0 88 -70 157.5t-176 69.5q-111 0 -184.5 -75.5t-73.5 -188.5v-1204h-82z" />
<glyph unicode="&#xe0;" d="M113 532q0 231 151.5 389t376.5 158q147 0 270 -72.5t191 -197.5v256h82v-1065h-82v256q-68 -125 -191 -197.5t-270 -72.5q-227 0 -377 155q-152 158 -151 391zM197 532.5q0 -200.5 129 -331.5q129 -133 321.5 -133t321.5 133q129 131 129 331.5t-129 331.5 q-129 133 -321.5 133t-321.5 -133q-129 -131 -129 -331.5zM401 1452l45 68l324 -224l-33 -47z" />
<glyph unicode="&#xe1;" d="M113 532q0 231 151.5 389t376.5 158q147 0 270 -72.5t191 -197.5v256h82v-1065h-82v256q-68 -125 -191 -197.5t-270 -72.5q-227 0 -377 155q-152 158 -151 391zM197 532.5q0 -200.5 129 -331.5q129 -133 321.5 -133t321.5 133q129 131 129 331.5t-129 331.5 q-129 133 -321.5 133t-321.5 -133q-129 -131 -129 -331.5zM608 1296l324 224l45 -68l-334 -203z" />
<glyph unicode="&#xe2;" d="M113 532q0 231 151.5 389t376.5 158q147 0 270 -72.5t191 -197.5v256h82v-1065h-82v256q-68 -125 -191 -197.5t-270 -72.5q-227 0 -377 155q-152 158 -151 391zM197 532.5q0 -200.5 129 -331.5q129 -133 321.5 -133t321.5 133q129 131 129 331.5t-129 331.5 q-129 133 -321.5 133t-321.5 -133q-129 -131 -129 -331.5zM381 1294l299 240h10l297 -240l-37 -45l-266 193l-264 -193z" />
<glyph unicode="&#xe3;" d="M113 532q0 231 151.5 389t376.5 158q147 0 270 -72.5t191 -197.5v256h82v-1065h-82v256q-68 -125 -191 -197.5t-270 -72.5q-227 0 -377 155q-152 158 -151 391zM197 532.5q0 -200.5 129 -331.5q129 -133 321.5 -133t321.5 133q129 131 129 331.5t-129 331.5 q-129 133 -321.5 133t-321.5 -133q-129 -131 -129 -331.5zM393 1257q0 74 51.5 126.5t124.5 52.5q61 0 125 -59.5t105 -59.5q43 0 73.5 31.5t30.5 81.5h72q0 -80 -49 -130.5t-123 -50.5q-66 0 -129 60q-59 59 -101 59q-45 0 -76.5 -33t-31.5 -78h-72z" />
<glyph unicode="&#xe4;" d="M113 532q0 231 151.5 389t376.5 158q147 0 270 -72.5t191 -197.5v256h82v-1065h-82v256q-68 -125 -191 -197.5t-270 -72.5q-227 0 -377 155q-152 158 -151 391zM197 532.5q0 -200.5 129 -331.5q129 -133 321.5 -133t321.5 133q129 131 129 331.5t-129 331.5 q-129 133 -321.5 133t-321.5 -133q-129 -131 -129 -331.5zM408 1325q0 31 18 51q20 20 51 20.5t51.5 -20t20.5 -51.5t-21 -51q-20 -18 -51 -18t-51 18q-18 20 -18 51zM819.5 1325q-0.5 31 20 51.5t51.5 20.5t51.5 -20.5t20.5 -51.5t-21 -51q-20 -18 -51 -18t-51 18 q-20 20 -20.5 51z" />
<glyph unicode="&#xe5;" d="M113 532q0 231 151.5 389t376.5 158q147 0 270 -72.5t191 -197.5v256h82v-1065h-82v256q-68 -125 -191 -197.5t-270 -72.5q-227 0 -377 155q-152 158 -151 391zM197 532.5q0 -200.5 129 -331.5q129 -133 321.5 -133t321.5 133q129 131 129 331.5t-129 331.5 q-129 133 -321.5 133t-321.5 -133q-129 -131 -129 -331.5zM489 1415q0 82 57.5 138.5t139.5 56.5q80 0 137.5 -56.5t57.5 -138.5q0 -80 -57.5 -137t-137.5 -57q-82 0 -139.5 57t-57.5 137zM557 1415q0 -53 37 -92q39 -37 92 -37t90 37q37 39 37 92t-37 90q-37 39 -90 39 t-92 -39q-37 -37 -37 -90z" />
<glyph unicode="&#xe6;" horiz-adv-x="2277" d="M113 532q0 231 151.5 389t376.5 158q147 0 270 -72.5t191 -197.5v256h82v-258q68 127 190.5 199.5t272.5 72.5q225 0 376 -157q154 -158 154 -390q0 -14 -2 -18h-989q6 -195 139 -324q133 -127 334 -127q258 0 389 203l80 -28q-74 -117 -196 -184.5t-269 -67.5 q-158 0 -284 72.5t-195 201.5v-260h-82v256q-68 -125 -191 -197.5t-270 -72.5q-227 0 -377 155q-152 158 -151 391zM197 532.5q0 -200.5 129 -331.5q129 -133 321.5 -133t321.5 133q129 131 129 331.5t-129 331.5q-129 133 -321.5 133t-321.5 -133q-129 -131 -129 -331.5z M1188 586h903q-14 178 -145 297q-125 119 -307.5 118.5t-307.5 -118.5q-129 -119 -143 -297z" />
<glyph unicode="&#xe7;" horiz-adv-x="1245" d="M113 532q0 233 155 390q158 158 391 157q160 0 289 -76.5t197 -211.5l-82 -27q-57 109 -163.5 171t-240.5 62q-199 0 -331 -133q-131 -131 -131 -331.5t131 -331.5q133 -133 331 -133q133 0 240 62.5t164 170.5l82 -27q-61 -123 -176 -198.5t-260 -87.5l-29 -117 q6 0 16.5 -3t38 -13.5t48 -24.5t37 -41t16.5 -61q0 -66 -55.5 -112t-137.5 -46q-102 0 -168 65l-20 21l28 49q55 -74 152 -74q55 0 93 29t38 68q0 35 -38 62.5t-85 33.5l-43 4l37 158q-227 10 -375 164q-150 156 -149 382z" />
<glyph unicode="&#xe8;" horiz-adv-x="1288" d="M113 532q0 231 153 390q158 158 385 157q229 0 383 -157.5t154 -389.5q0 -14 -2 -18h-989q6 -195 139 -324q133 -127 334 -127q256 0 389 203l80 -28q-74 -119 -198 -185.5t-271 -66.5q-242 0 -400 155q-158 158 -157 391zM199 586h903q-14 178 -146 297 q-125 119 -307 118.5t-307 -118.5q-129 -119 -143 -297zM375 1452l45 68l323 -224l-32 -47z" />
<glyph unicode="&#xe9;" horiz-adv-x="1288" d="M113 532q0 231 153 390q158 158 385 157q229 0 383 -157.5t154 -389.5q0 -14 -2 -18h-989q6 -195 139 -324q133 -127 334 -127q256 0 389 203l80 -28q-74 -119 -198 -185.5t-271 -66.5q-242 0 -400 155q-158 158 -157 391zM199 586h903q-14 178 -146 297 q-125 119 -307 118.5t-307 -118.5q-129 -119 -143 -297zM582 1296l323 224l45 -68l-334 -203z" />
<glyph unicode="&#xea;" horiz-adv-x="1288" d="M113 532q0 231 153 390q158 158 385 157q229 0 383 -157.5t154 -389.5q0 -14 -2 -18h-989q6 -195 139 -324q133 -127 334 -127q256 0 389 203l80 -28q-74 -119 -198 -185.5t-271 -66.5q-242 0 -400 155q-158 158 -157 391zM199 586h903q-14 178 -146 297 q-125 119 -307 118.5t-307 -118.5q-129 -119 -143 -297zM354 1294l299 240h11l297 -240l-37 -45l-267 193l-264 -193z" />
<glyph unicode="&#xeb;" horiz-adv-x="1288" d="M113 532q0 231 153 390q158 158 385 157q229 0 383 -157.5t154 -389.5q0 -14 -2 -18h-989q6 -195 139 -324q133 -127 334 -127q256 0 389 203l80 -28q-74 -119 -198 -185.5t-271 -66.5q-242 0 -400 155q-158 158 -157 391zM199 586h903q-14 178 -146 297 q-125 119 -307 118.5t-307 -118.5q-129 -119 -143 -297zM381 1325q0 31 18 51q20 20 51 20.5t51.5 -20t20.5 -51.5t-20 -51q-20 -18 -51.5 -18t-51.5 18q-18 20 -18 51zM793 1325q0 31 20.5 51.5t51 20.5t51 -20.5t20.5 -51.5t-21 -51q-20 -18 -51 -18t-51 18q-20 20 -20 51 z" />
<glyph unicode="&#xec;" horiz-adv-x="454" d="M-49 1452l45 68l323 -224l-34 -47zM186 0v1065h82v-1065h-82z" />
<glyph unicode="&#xed;" horiz-adv-x="454" d="M145 1296l324 224l45 -68l-336 -203zM186 0v1065h82v-1065h-82z" />
<glyph unicode="&#xee;" horiz-adv-x="454" d="M-76 1294l299 240h8l299 -240l-38 -45l-265 195l-266 -195zM186 0v1065h82v-1065h-82z" />
<glyph unicode="&#xef;" horiz-adv-x="454" d="M-45 1326q0 26 19.5 48.5t52.5 22.5q43 2 60 -35t0 -74t-60 -33q-33 0 -52.5 22.5t-19.5 48.5zM186 0v1065h82v-1065h-82zM356.5 1325q-0.5 31 18.5 51q20 20 51 20.5t51.5 -20t20.5 -51.5t-21 -51q-20 -18 -51 -18t-51 18q-18 20 -18.5 51z" />
<glyph unicode="&#xf0;" horiz-adv-x="1318" d="M113 532q0 233 155 390q158 158 391 157q133 0 247 -54t188 -151q-94 438 -473 549l-121 -196l-62 37l111 178q-121 27 -285 26v82q184 0 330 -34l106 174l62 -37l-96 -158q541 -172 540 -963q0 -233 -157 -391q-156 -156 -390 -155q-236 0 -391 155.5t-155 390.5z M197 532.5q0 -200.5 131 -331.5q133 -133 331 -133q197 0 330 133t133 331.5t-133 331.5t-330 133q-198 0 -331 -133q-131 -131 -131 -331.5z" />
<glyph unicode="&#xf1;" horiz-adv-x="1325" d="M186 0v1065h82v-236q41 80 131 156q111 94 312 94q186 0 311 -125q125 -123 125 -311v-643h-82v629q0 158 -107 264q-104 106 -262 106q-180 0 -305 -108q-123 -109 -123 -268v-623h-82zM377 1257q0 74 52 126.5t126 52.5q53 0 123 -59.5t106 -59.5q43 0 74 31.5t31 81.5 h72q0 -80 -50.5 -130.5t-124.5 -50.5q-63 0 -127 60q-59 59 -102 59q-45 0 -76.5 -33t-31.5 -78h-72z" />
<glyph unicode="&#xf2;" horiz-adv-x="1318" d="M113 532q0 233 155 390q158 158 391 157q231 0 389 -157.5t158 -389.5q0 -233 -157 -391q-156 -156 -390 -155q-235 0 -390.5 155.5t-155.5 390.5zM197 532.5q0 -200.5 131 -331.5q133 -133 331 -133q197 0 330 133t133 331.5t-133 331.5t-330 133q-198 0 -331 -133 q-131 -131 -131 -331.5zM377 1452l45 68l323 -224l-34 -47z" />
<glyph unicode="&#xf3;" horiz-adv-x="1318" d="M113 532q0 233 155 390q158 158 391 157q231 0 389 -157.5t158 -389.5q0 -233 -157 -391q-156 -156 -390 -155q-235 0 -390.5 155.5t-155.5 390.5zM197 532.5q0 -200.5 131 -331.5q133 -133 331 -133q197 0 330 133t133 331.5t-133 331.5t-330 133q-198 0 -331 -133 q-131 -131 -131 -331.5zM584 1296l321 224l47 -68l-336 -203z" />
<glyph unicode="&#xf4;" horiz-adv-x="1318" d="M113 532q0 233 155 390q158 158 391 157q231 0 389 -157.5t158 -389.5q0 -233 -157 -391q-156 -156 -390 -155q-235 0 -390.5 155.5t-155.5 390.5zM197 532.5q0 -200.5 131 -331.5q133 -133 331 -133q197 0 330 133t133 331.5t-133 331.5t-330 133q-198 0 -331 -133 q-131 -131 -131 -331.5zM356 1294l297 240h11l299 -240l-39 -45l-265 193l-266 -193z" />
<glyph unicode="&#xf5;" horiz-adv-x="1318" d="M113 532q0 233 155 390q158 158 391 157q231 0 389 -157.5t158 -389.5q0 -233 -157 -391q-156 -156 -390 -155q-235 0 -390.5 155.5t-155.5 390.5zM197 532.5q0 -200.5 131 -331.5q133 -133 331 -133q197 0 330 133t133 331.5t-133 331.5t-330 133q-198 0 -331 -133 q-131 -131 -131 -331.5zM367 1257q0 74 52 126.5t126 52.5q59 0 122.5 -59.5t106.5 -59.5t74 31.5t31 81.5h71q0 -80 -50 -130.5t-124 -50.5q-63 0 -127 60q-59 59 -102 59q-45 0 -77 -33t-32 -78h-71z" />
<glyph unicode="&#xf6;" horiz-adv-x="1318" d="M113 532q0 233 155 390q158 158 391 157q231 0 389 -157.5t158 -389.5q0 -233 -157 -391q-156 -156 -390 -155q-235 0 -390.5 155.5t-155.5 390.5zM197 532.5q0 -200.5 131 -331.5q133 -133 331 -133q197 0 330 133t133 331.5t-133 331.5t-330 133q-198 0 -331 -133 q-131 -131 -131 -331.5zM381 1326q0 26 19.5 48.5t52.5 22.5q43 2 60 -35t0 -74t-60 -33q-33 0 -52.5 22.5t-19.5 48.5zM795 1325q0 31 18 51q20 20 51 20.5t51.5 -20t20.5 -51.5t-21 -51q-20 -18 -51 -18t-51 18q-18 20 -18 51z" />
<glyph unicode="&#xf7;" horiz-adv-x="1228" d="M156 678v78h917v-78h-917zM534.5 356.5q0.5 34.5 23 57t57 22.5t57 -22.5t22.5 -57t-22 -59.5q-23 -23 -57.5 -23t-57.5 23q-23 25 -22.5 59.5zM535 1077q0 51 39.5 71.5t79.5 0t40 -71.5q2 -49 -39 -68.5t-81.5 0t-38.5 68.5z" />
<glyph unicode="&#xf8;" horiz-adv-x="1318" d="M113 532q0 233 155 390q158 157 391 157q154 0 285 -75l53 75l60 -43l-51 -73q201 -164 200 -431q0 -233 -157 -391q-156 -156 -390 -155q-154 0 -284 75l-53 -75l-62 41l55 77q-94 74 -148 186.5t-54 241.5zM197 532q-1 -225 165 -360l533 762q-102 63 -236 63 q-199 0 -331 -133q-131 -131 -131 -332zM424 131q102 -63 235 -63q197 0 330 133t133 331q0 228 -166 359z" />
<glyph unicode="&#xf9;" horiz-adv-x="1325" d="M178 422v643h82v-629q0 -158 105 -264q106 -106 264 -106q184 0 305 106q123 106 123 270v623h82v-1065h-82v236q-41 -80 -131 -156q-111 -94 -312 -94q-188 0 -313 123q-123 125 -123 313zM377 1452l45 68l323 -224l-34 -47z" />
<glyph unicode="&#xfa;" horiz-adv-x="1325" d="M178 422v643h82v-629q0 -158 105 -264q106 -106 264 -106q184 0 305 106q123 106 123 270v623h82v-1065h-82v236q-41 -80 -131 -156q-111 -94 -312 -94q-188 0 -313 123q-123 125 -123 313zM584 1296l321 224l47 -68l-336 -203z" />
<glyph unicode="&#xfb;" horiz-adv-x="1325" d="M178 422v643h82v-629q0 -158 105 -264q106 -106 264 -106q184 0 305 106q123 106 123 270v623h82v-1065h-82v236q-41 -80 -131 -156q-111 -94 -312 -94q-188 0 -313 123q-123 125 -123 313zM356 1294l297 240h11l299 -240l-39 -45l-265 193l-266 -193z" />
<glyph unicode="&#xfc;" horiz-adv-x="1325" d="M178 422v643h82v-629q0 -158 105 -264q106 -106 264 -106q184 0 305 106q123 106 123 270v623h82v-1065h-82v236q-41 -80 -131 -156q-111 -94 -312 -94q-188 0 -313 123q-123 125 -123 313zM381 1326q0 26 19.5 48.5t52.5 22.5q43 2 60 -35t0 -74t-60 -33 q-33 0 -52.5 22.5t-19.5 48.5zM795 1325q0 31 18 51q20 20 51 20.5t51.5 -20t20.5 -51.5t-21 -51q-20 -18 -51 -18t-51 18q-18 20 -18 51z" />
<glyph unicode="&#xfd;" horiz-adv-x="1060" d="M37 1065h86l403 -936l412 936h86l-571 -1296q-53 -121 -126 -175.5t-182 -54.5h-57v80h57q82 0 138.5 42t97.5 136l102 234zM455 1296l323 224l45 -68l-336 -203z" />
<glyph unicode="&#xfe;" d="M186 -461v1997h82v-727q68 125 191 197.5t270 72.5q225 0 376.5 -157.5t151.5 -389.5q0 -233 -151 -391q-150 -156 -377 -155q-147 0 -270 72.5t-191 197.5v-717h-82zM272 532.5q0 -200.5 129 -331.5q129 -133 321.5 -133t321.5 133q129 131 129 331.5t-129 331.5 q-129 133 -321.5 133t-321.5 -133q-129 -131 -129 -331.5z" />
<glyph unicode="&#xff;" horiz-adv-x="1060" d="M37 1065h86l403 -936l412 936h86l-571 -1296q-53 -121 -126 -175.5t-182 -54.5h-57v80h57q82 0 138.5 42t97.5 136l102 234zM262.5 1288q-18.5 37 0 74t61.5 35q43 2 61 -35t1 -74t-62 -33q-43 -4 -61.5 33zM666 1326q0 26 19 48.5t52 22.5q43 2 60.5 -35t0 -74 t-60.5 -33q-33 0 -52 22.5t-19 48.5z" />
<glyph unicode="&#x152;" horiz-adv-x="2568" d="M131 717q0 313 209 522t522 209q213 0 386 -103.5t265 -283.5v373h957v-82h-871v-584h775v-82h-775v-604h881v-82h-967v375q-92 -180 -265 -284.5t-386 -104.5q-313 0 -522 209q-209 211 -209 522zM219 717q0 -274 184 -463q184 -184 459 -184t459 184q184 188 184 463 q0 276 -184 461q-184 186 -459 186t-459 -186q-184 -184 -184 -461z" />
<glyph unicode="&#x153;" horiz-adv-x="2297" d="M113 532q0 233 155 390q158 157 391 157q172 0 308.5 -90t197.5 -244q61 154 195.5 244t304.5 90q229 0 381 -157.5t152 -389.5q0 -14 -3 -18h-989q6 -195 140 -324q133 -127 333 -127q258 0 389 203l80 -28q-74 -119 -195.5 -185.5t-269.5 -66.5q-178 0 -316 90 t-200 243q-61 -154 -198.5 -243.5t-309.5 -89.5q-236 0 -391 155.5t-155 390.5zM197 532.5q0 -200.5 131 -331.5q133 -133 331 -133q197 0 330 133t133 331.5t-133 331.5t-330 133q-199 0 -331 -133q-131 -131 -131 -331.5zM1208 586h903q-14 178 -145 297 q-125 119 -307 118.5t-307 -118.5q-130 -119 -144 -297z" />
<glyph unicode="&#x178;" horiz-adv-x="1337" d="M53 1434h101l516 -770l514 770h100l-571 -846v-588h-86v582zM391 1657.5q0 25.5 19.5 48.5t52.5 23q43 2 60.5 -35t0 -74t-60.5 -33q-33 0 -52.5 22.5t-19.5 48zM805 1657q0 31 18 51q20 20 51 20.5t51.5 -20t20.5 -51.5t-20 -51q-20 -18 -51 -18.5t-52 18.5 q-18 20 -18 51z" />
<glyph unicode="&#x2c6;" horiz-adv-x="901" d="M147 1491l299 240h9l299 -240l-37 -45l-266 192l-267 -192z" />
<glyph unicode="&#x2dc;" horiz-adv-x="876" d="M147 1454q0 74 51.5 126t125.5 52q61 0 124.5 -59.5t104.5 -59.5q43 0 73.5 32t30.5 81h72q0 -80 -49 -130t-123 -50q-66 0 -129 59q-59 59 -100 60q-45 0 -77 -33t-32 -78h-72z" />
<glyph unicode="&#x2000;" horiz-adv-x="971" />
<glyph unicode="&#x2001;" horiz-adv-x="1942" />
<glyph unicode="&#x2002;" horiz-adv-x="971" />
<glyph unicode="&#x2003;" horiz-adv-x="1942" />
<glyph unicode="&#x2004;" horiz-adv-x="647" />
<glyph unicode="&#x2005;" horiz-adv-x="485" />
<glyph unicode="&#x2006;" horiz-adv-x="323" />
<glyph unicode="&#x2007;" horiz-adv-x="323" />
<glyph unicode="&#x2008;" horiz-adv-x="242" />
<glyph unicode="&#x2009;" horiz-adv-x="388" />
<glyph unicode="&#x200a;" horiz-adv-x="107" />
<glyph unicode="&#x2010;" horiz-adv-x="819" d="M156 494v77h508v-77h-508z" />
<glyph unicode="&#x2011;" horiz-adv-x="819" d="M156 494v77h508v-77h-508z" />
<glyph unicode="&#x2012;" horiz-adv-x="819" d="M156 494v77h508v-77h-508z" />
<glyph unicode="&#x2013;" horiz-adv-x="1228" d="M156 494v77h917v-77h-917z" />
<glyph unicode="&#x2014;" horiz-adv-x="2048" d="M156 494v77h1736v-77h-1736z" />
<glyph unicode="&#x2018;" horiz-adv-x="417" d="M121 1323q0 70 33.5 132.5t74.5 88.5l37 27l29 -29l-27 -24q-18 -18 -39.5 -67.5t-17.5 -92.5q47 0 67.5 -41t0 -81t-69.5 -36q-39 0 -63.5 32t-24.5 91z" />
<glyph unicode="&#x2019;" horiz-adv-x="417" d="M123 1208l24 25q23 23 43.5 70t16.5 90q-47 0 -67.5 41t0 80.5t69.5 35.5q39 0 63.5 -32t24.5 -91q0 -145 -129 -239l-16 -8z" />
<glyph unicode="&#x201a;" horiz-adv-x="417" d="M123 -197l24 25q20 16 42 64.5t18 93.5q-47 0 -67.5 41t0 80.5t69.5 35.5q39 0 63.5 -32t24.5 -91q0 -90 -48 -155.5t-89 -85.5l-8 -6z" />
<glyph unicode="&#x201c;" horiz-adv-x="675" d="M121 1323q0 70 33.5 132.5t74.5 88.5l37 27l29 -29l-27 -24q-18 -18 -39.5 -67.5t-17.5 -92.5q47 0 67.5 -41t0 -81t-69.5 -36q-39 0 -63.5 32t-24.5 91zM379 1323q0 70 33.5 132.5t74.5 88.5l37 27l29 -29l-27 -24q-18 -18 -39.5 -67.5t-17.5 -92.5q47 0 67.5 -41t0 -81 t-69.5 -36q-39 0 -63.5 32t-24.5 91z" />
<glyph unicode="&#x201d;" horiz-adv-x="675" d="M123 1208l24 25q23 23 43.5 70t16.5 90q-47 0 -67.5 41t0 80.5t69.5 35.5q39 0 63.5 -32t24.5 -91q0 -145 -129 -239l-16 -8zM381 1208l25 25q23 23 43 70t16 90q-47 0 -67.5 41t0 80.5t69.5 35.5q39 0 63.5 -32t24.5 -91q0 -145 -129 -239l-16 -8z" />
<glyph unicode="&#x201e;" horiz-adv-x="675" d="M123 -197l24 25q20 16 42 64.5t18 93.5q-47 0 -67.5 41t0 80.5t69.5 35.5q39 0 63.5 -32t24.5 -91q0 -90 -48 -155.5t-89 -85.5l-8 -6zM381 -197l25 25q20 16 41.5 64.5t17.5 93.5q-47 0 -67.5 41t0 80.5t69.5 35.5q39 0 63.5 -32t24.5 -91q0 -90 -48 -155.5t-89 -85.5 l-8 -6z" />
<glyph unicode="&#x2022;" horiz-adv-x="581" d="M129 532.5q0 69.5 45 114.5q47 47 116.5 47t115.5 -47q47 -45 47 -114.5t-47 -116.5q-45 -45 -115 -45t-117 45q-45 47 -45 116.5z" />
<glyph unicode="&#x2026;" horiz-adv-x="1257" d="M129 66q-4 49 38 70.5t84 0t40 -70.5q0 -35 -23.5 -57.5t-58.5 -22.5q-33 0 -56.5 23.5t-23.5 56.5zM549 66q-4 49 38 70.5t84 0t40 -70.5q0 -35 -23.5 -57.5t-58.5 -22.5t-57.5 23.5t-22.5 56.5zM969 66q0 51 40 71.5t79.5 0t39.5 -71.5q2 -49 -38.5 -69t-81.5 0t-39 69 z" />
<glyph unicode="&#x202f;" horiz-adv-x="388" />
<glyph unicode="&#x2039;" horiz-adv-x="638" d="M94 532l361 361l53 -51l-311 -310l311 -309l-53 -51z" />
<glyph unicode="&#x203a;" horiz-adv-x="638" d="M131 223l309 309l-309 310l51 51l363 -361l-363 -360z" />
<glyph unicode="&#x205f;" horiz-adv-x="485" />
<glyph unicode="&#x20ac;" horiz-adv-x="1785" d="M74 516v70h239q-20 131 0 262h-239v70h254q66 242 256 382q195 147 450 148q201 0 365 -90t258 -250l-80 -33q-86 135 -228.5 212t-314.5 77q-221 0 -387 -123t-227 -323h678v-70h-695q-25 -131 0 -262h695v-70h-678q61 -201 227 -323.5t387 -122.5q172 0 314.5 76.5 t228.5 211.5l80 -32q-94 -160 -258 -250t-365 -90q-256 0 -450 145q-193 145 -254 385h-256z" />
<glyph unicode="&#x2122;" horiz-adv-x="1636" d="M29 1374v60h639v-60h-289v-657h-62v657h-288zM801 717v717h59l309 -539l314 539h59v-717h-59v606l-293 -512h-39l-291 508v-602h-59z" />
<glyph unicode="&#x25fc;" horiz-adv-x="1064" d="M0 0v1065h1065v-1065h-1065z" />
</font>
</defs>
</svg>
