<?xml version="1.0" standalone="no"?>
<!DOCTYPE svg PUBLIC "-//W3C//DTD SVG 1.1//EN" "http://www.w3.org/Graphics/SVG/1.1/DTD/svg11.dtd" >
<svg xmlns="http://www.w3.org/2000/svg" xmlns:xlink="http://www.w3.org/1999/xlink" version="1.1">
<metadata></metadata>
<defs>
<font id="mazzardh_black_italic" horiz-adv-x="1181" >
<font-face units-per-em="2048" ascent="1546" descent="-502" />
<missing-glyph horiz-adv-x="450" />
<glyph unicode="&#xfb01;" horiz-adv-x="1247" d="M20 729l60 336h135l16 92q27 162 179 270q152 109 342 109h147l-65 -371h-105q-37 0 -64.5 -18.5t-31.5 -44.5l-8 -37h188l-59 -336h-189l-127 -729h-409l127 729h-136zM680 0l186 1065h410l-186 -1065h-410zM877 1341q18 104 100 174t186.5 70t161.5 -69.5t39 -174.5 q-18 -102 -100.5 -171.5t-186.5 -69.5q-102 0 -160.5 69.5t-39.5 171.5z" />
<glyph unicode="&#xfb02;" horiz-adv-x="1247" d="M20 729l60 336h135l16 92q27 162 179 270q152 109 342 109h147l-65 -371h-105q-37 0 -64.5 -18.5t-31.5 -44.5l-8 -37h188l-59 -336h-189l-127 -729h-409l127 729h-136zM680 0l270 1536h410l-270 -1536h-410z" />
<glyph unicode="&#xfb03;" horiz-adv-x="1900" d="M20 729l60 336h135l16 92q27 162 179 270q152 109 342 109h147l-65 -371h-105q-37 0 -64.5 -18.5t-31.5 -44.5l-8 -37h243l17 92q29 162 178 270q152 109 342 109h147l-65 -371h-105q-37 0 -64.5 -18.5t-31.5 -44.5l-8 -37h651l-186 -1065h-410l127 729h-241l-127 -729 h-410l127 729h-244l-127 -729h-409l127 729h-136zM1530 1341q18 104 100 174t186.5 70t162 -69.5t38.5 -174.5q-18 -102 -100 -171.5t-186 -69.5q-102 0 -161 69.5t-40 171.5z" />
<glyph unicode="&#xfb04;" horiz-adv-x="1900" d="M20 729l60 336h135l16 92q27 162 179 270q152 109 342 109h147l-65 -371h-105q-37 0 -64.5 -18.5t-31.5 -44.5l-8 -37h243l17 92q29 162 178 270q152 109 342 109h147l-65 -371h-105q-37 0 -64.5 -18.5t-31.5 -44.5l-8 -37h188l-59 -336h-188l-127 -729h-410l127 729 h-244l-127 -729h-409l127 729h-136zM1333 0l271 1536h409l-270 -1536h-410z" />
<glyph horiz-adv-x="0" />
<glyph horiz-adv-x="0" />
<glyph unicode="&#xd;" horiz-adv-x="512" />
<glyph unicode=" "  horiz-adv-x="450" />
<glyph unicode="&#x09;" horiz-adv-x="450" />
<glyph unicode="&#xa0;" horiz-adv-x="450" />
<glyph unicode="!" horiz-adv-x="526" d="M-25 182q16 86 84 144.5t154 58.5q88 0 135 -58.5t31 -144.5q-16 -88 -83 -145t-155 -57q-86 0 -133 57t-33 145zM72 494l114 940h424l-217 -940h-321z" />
<glyph unicode="&#x22;" horiz-adv-x="878" d="M145 850l72 584h328l-133 -584h-267zM532 850l72 584h328l-133 -584h-267z" />
<glyph unicode="#" horiz-adv-x="1435" d="M20 307v287h287l43 246h-235v286h286l54 308h290l-53 -308h197l53 308h291l-53 -308h235v-286h-287l-43 -246h236v-287h-287l-53 -307h-291l53 307h-196l-53 -307h-291l53 307h-236zM598 594h197l43 246h-197z" />
<glyph unicode="$" horiz-adv-x="1202" d="M-29 383l445 74q4 -45 48 -75t109 -30q49 0 87 16.5t42 41.5q4 29 -45 51l-49 20q-16 8 -72.5 26.5t-70.5 24.5q-45 16 -79 31t-77 39.5t-70.5 49t-59.5 60.5t-42 76.5t-19 94t7 114.5q31 176 161 298t316 151l37 213h246l-39 -219q145 -33 235 -127t95 -223l-431 -70 q-4 29 -31.5 46t-66.5 17q-37 0 -63.5 -14t-28.5 -37q-8 -33 43 -57q8 -4 53 -21q10 -2 42 -12t61.5 -19.5t48.5 -15.5q156 -51 248 -141q119 -106 82 -315q-33 -184 -169.5 -308.5t-334.5 -152.5l-37 -215h-246l37 215q-178 29 -289 134t-123 259z" />
<glyph unicode="%" horiz-adv-x="1912" d="M109 1047q31 172 163 290q135 117 306 117q172 0 264 -117q94 -115 63 -291t-166 -292q-133 -117 -305 -117q-168 0 -264 117q-92 117 -61 293zM240 182l1286 1252l188 -183l-1284 -1251zM403 1046.5q-8 -42.5 17 -73.5q25 -29 67.5 -29t77.5 29q35 31 43 74t-16 71 q-25 31 -68 31t-78 -31q-35 -29 -43 -71.5zM1028 387q31 176 164 293q135 117 305 117t262 -117q94 -117 64 -293q-31 -174 -166 -291q-133 -117 -303 -116q-170 0 -264 116q-93 117 -62 291zM1323 387q-8 -43 16 -74q25 -29 68 -28.5t78 28.5q35 31 43 74t-17 72 q-25 31 -67.5 31t-77.5 -31q-35 -29 -43 -72z" />
<glyph unicode="&#x26;" horiz-adv-x="1462" d="M0 436q37 215 301 369q-57 141 -35 270q27 162 162 271q137 109 307 108q176 0 275 -115q98 -113 69 -284q-37 -209 -278 -353l127 -163q72 102 96 231h371q-53 -295 -256 -504l207 -266h-467l-41 53q-171 -73 -349 -73q-248 0 -385 129q-137 131 -104 327zM397.5 394 q32.5 -64 159.5 -64q33 0 64 6l-150 194q-106 -72 -73.5 -136zM612 1049q-5 -35 15 -86q92 45 100 90q4 20 -10.5 35.5t-38.5 15.5q-55 0 -66 -55z" />
<glyph unicode="'" horiz-adv-x="491" d="M145 850l72 584h328l-133 -584h-267z" />
<glyph unicode="(" horiz-adv-x="696" d="M4 291q4 352 121 698q55 162 117 281q128 239 202 327l35 41h369q-12 -12 -37 -47q-20 -27 -86 -129q-57 -88 -119 -207q-61 -127 -112 -274q-57 -164 -88 -340q-80 -557 43 -877l47 -122h-369l-23 43q-16 35 -41 125q-61 205 -59 481z" />
<glyph unicode=")" horiz-adv-x="696" d="M-160 -358q12 12 37 47q20 29 86 129q63 96 117 207q51 102 113 276q61 176 90 340q80 558 -43 875l-47 122h368q6 -8 21 -43q16 -27 43 -122q61 -205 59 -482q-4 -348 -121 -700q-55 -162 -117 -281q-129 -240 -202 -327l-35 -41h-369z" />
<glyph unicode="*" horiz-adv-x="909" d="M143 1014l211 65l-188 64l172 227l129 -141l-8 205h262l-80 -205l180 141l90 -227l-209 -64l187 -65l-172 -228l-127 142l6 -205h-262l82 205l-183 -142z" />
<glyph unicode="+" horiz-adv-x="1228" d="M94 500v354h344v342h355v-342h342v-354h-342v-344h-355v344h-344z" />
<glyph unicode="," horiz-adv-x="479" d="M-84 -150q135 88 145 136q-61 12 -95 67.5t-21 126.5q14 80 78.5 134.5t146.5 54.5q92 0 141 -70t33 -170q-25 -125 -135 -231q-35 -35 -96 -82q-68 -51 -113 -74z" />
<glyph unicode="-" horiz-adv-x="819" d="M39 356l63 355h631l-63 -355h-631z" />
<glyph unicode="." horiz-adv-x="464" d="M-55 182q16 86 83.5 144.5t153.5 58.5q88 0 135.5 -58.5t30.5 -144.5q-16 -88 -82.5 -145t-154.5 -57q-86 0 -133 57t-33 145z" />
<glyph unicode="/" horiz-adv-x="1249" d="M-180 -358l1284 1996h317l-1284 -1996h-317z" />
<glyph unicode="0" horiz-adv-x="1224" d="M6 506l76 422q41 225 229 375q195 152 440.5 151.5t385 -152t100.5 -374.5l-76 -422q-41 -229 -231 -377q-188 -150 -438 -149.5t-388 149.5q-139 152 -98 377zM414 500q-10 -55 31.5 -93t113.5 -38t128 37.5t67 93.5l75 434q10 55 -32.5 93t-114.5 38t-127.5 -38 t-65.5 -93z" />
<glyph unicode="1" horiz-adv-x="940" d="M141 1231l496 203h295l-252 -1434h-406l172 979l-219 -88z" />
<glyph unicode="2" horiz-adv-x="1185" d="M-49 0l53 301l574 453q147 123 176 221l2 10q4 33 -26 56.5t-77 23.5q-125 0 -219 -156l-346 181q113 170 281 267t354 97q227 0 358 -135q133 -133 101 -320q-47 -240 -414 -514l-127 -96h438l-67 -389h-1061z" />
<glyph unicode="3" horiz-adv-x="1208" d="M-33 367l404 131q-8 -57 36 -93t119 -36q72 0 123 29.5t62 76.5q8 47 -33 77t-109 30h-110l49 286l4 15h68q70 0 120 25.5t58 66.5q6 39 -30 64.5t-101 25.5q-129 0 -178 -84l-338 125q92 152 256 250q166 98 360 98q227 0 360 -135q131 -131 95 -338q-25 -150 -160 -231 q145 -102 111 -285q-37 -209 -226 -348q-186 -137 -432 -137q-213 0 -350 106q-135 106 -158 281z" />
<glyph unicode="4" horiz-adv-x="1280" d="M-39 240l70 389l819 805h391l-141 -807h141l-70 -387h-139l-43 -240h-407l43 240h-664zM514 627h178l37 211z" />
<glyph unicode="5" horiz-adv-x="1224" d="M-23 420l429 106q8 -74 47 -115.5t106 -41.5q61 0 110.5 34.5t59.5 83.5q10 57 -40 94t-136 37h-424l225 816h828l-66 -371h-495l-23 -74h129q219 0 340 -145q123 -144 86 -355q-41 -221 -227 -364q-188 -145 -430 -145q-219 0 -359 120q-137 121 -160 320z" />
<glyph unicode="6" horiz-adv-x="1204" d="M4 457l86 487q41 221 229 365q193 145 437 145q184 0 314 -86t171 -229l-395 -172q-35 98 -156 98q-74 0 -128 -33t-62 -82l-13 -69q82 57 211 57q213 0 342 -139q131 -137 97 -342q-37 -203 -222 -342q-184 -135 -428 -135q-242 0 -381 135q-135 137 -102 342zM428 459 q-6 -39 30 -64.5t97 -25.5t106.5 25.5t51.5 64.5q8 39 -28 64.5t-97.5 25.5t-106.5 -25.5t-53 -64.5z" />
<glyph unicode="7" horiz-adv-x="1130" d="M25 0l708 1063h-637l66 371h1083l-69 -394l-697 -1040h-454z" />
<glyph unicode="8" horiz-adv-x="1218" d="M-4 426q35 188 215 317q-113 119 -82 285q33 180 209 303q178 123 411.5 123t366.5 -123q133 -125 101 -305q-31 -166 -183 -285q137 -131 103 -319q-35 -190 -219 -318q-180 -125 -429 -124q-244 0 -387 126q-139 132 -106 320zM428 463q-8 -39 28 -66.5t101 -27.5 q63 0 109.5 25.5t52.5 64.5q8 41 -29 66.5t-100 25.5q-66 0 -111 -25.5t-51 -62.5zM547 995q-4 -31 25.5 -51t82.5 -20q51 0 89 20.5t42 50.5q6 29 -24.5 49.5t-81.5 20.5q-53 0 -90 -19.5t-43 -50.5z" />
<glyph unicode="9" horiz-adv-x="1214" d="M-37 283l387 166q39 -80 162 -80q88 0 149.5 32.5t69.5 81.5l12 62q-72 -55 -204 -56q-211 0 -340 140q-129 141 -93 346q33 203 220 342q182 137 423.5 137t377 -137t102.5 -342l-86 -486q-39 -217 -236 -364q-195 -145 -448 -145q-190 0 -324 81q-131 83 -172 222z M528 973q-6 -41 28 -67.5t93.5 -26.5t103.5 26.5t50 67.5q8 41 -27 66.5t-96 25.5q-59 0 -101 -25.5t-51 -66.5z" />
<glyph unicode=":" horiz-adv-x="464" d="M-55 182q16 86 83.5 144.5t153.5 58.5q88 0 135.5 -58.5t30.5 -144.5q-16 -88 -82.5 -145t-154.5 -57q-86 0 -133 57t-33 145zM70 883q16 86 82.5 144t152.5 58q88 0 136 -58t32 -144q-14 -88 -82.5 -145.5t-157.5 -57.5q-86 0 -131.5 57.5t-31.5 145.5z" />
<glyph unicode=";" horiz-adv-x="464" d="M-74 -150q135 88 146 136q-61 12 -95 67.5t-22 126.5q14 80 78.5 134.5t146.5 54.5q92 0 141 -70t33 -170q-25 -125 -135 -231q-35 -35 -96 -82q-68 -51 -113 -74zM70 883q16 86 82.5 144t152.5 58q88 0 136 -58t32 -144q-14 -88 -82.5 -145.5t-157.5 -57.5 q-86 0 -131.5 57.5t-31.5 145.5z" />
<glyph unicode="&#x3c;" horiz-adv-x="1228" d="M74 555v324l1040 489v-391l-553 -260l553 -258v-387z" />
<glyph unicode="=" horiz-adv-x="1228" d="M94 305v354h1041v-354h-1041zM94 776v354h1041v-354h-1041z" />
<glyph unicode="&#x3e;" horiz-adv-x="1228" d="M115 72v387l553 258l-553 260v391l1040 -489v-324z" />
<glyph unicode="?" horiz-adv-x="1290" d="M109 1069q82 170 258 279q174 106 391 106q250 0 395 -141q145 -139 104 -355q-18 -96 -70 -177t-118 -126q-129 -84 -225 -102l-41 -8l-29 -51h-336l4 272q27 2 136 25q57 12 118 34q142 53 154 131q8 47 -36 78t-120 31q-141 0 -196 -107zM322 178q16 98 92 162 q78 66 174 66q94 0 147 -66t37 -162q-14 -96 -92 -160q-76 -63 -172 -63q-99 0 -150 63t-36 160z" />
<glyph unicode="@" horiz-adv-x="1927" d="M8 532q70 397 381 658q313 264 711 264q254 4 452.5 -115.5t288.5 -320.5t43 -426q-41 -215 -176 -356q-135 -143 -342 -144q-201 4 -299 141q-137 -143 -311 -143q-162 0 -248 127q-86 125 -51 315q35 193 164 316q133 127 292 127q102 0 181 -55l6 36h327l-81 -469 q-8 -45 12 -75.5t59 -30.5q51 0 95 55.5t63 149.5q41 227 -113 393q-150 168 -415 168q-264 0 -478 -176q-209 -176 -256 -441q-45 -260 101 -436q147 -176 409 -176q117 0 209 35l10 -285q-135 -57 -297 -57q-383 0 -593 266q-214 266 -144 655zM799 532.5 q-8 -51.5 17.5 -87t72.5 -35.5q43 0 79 28.5t52 71.5q0 4 6 22q2 6 2 23q0 43 -26.5 71.5t-69.5 28.5q-47 0 -86 -35.5t-47 -87z" />
<glyph unicode="A" horiz-adv-x="1523" d="M-117 0l838 1434h352l334 -1434h-442l-39 184h-496l-104 -184h-443zM639 553h209l-57 270z" />
<glyph unicode="B" horiz-adv-x="1355" d="M-66 0l252 1434h719q213 0 334 -121q97 -95 97 -225q0 -35 -7 -72q-27 -156 -162 -275q112 -99 111 -243q0 -35 -6 -74q-35 -184 -199 -303q-164 -121 -379 -121h-760zM426 389h326h6q50 0 73 62q7 23 7 41q0 30 -21 47q-14 12 -37 10h-325zM516 897h285q29 0 51 20.5 t27 53.5q6 33 -8.5 53t-43.5 20h-284z" />
<glyph unicode="C" horiz-adv-x="1529" d="M49 717q55 311 311 524q260 213 582 213q240 0 408 -119q168 -115 223 -311l-440 -152q-25 80 -94.5 128.5t-168.5 48.5q-137 0 -245 -97q-111 -98 -131 -233q-7 -38 -7 -72q0 -95 54 -166q76 -94 213 -94q98 0 183 46t140 128l387 -151q-123 -195 -334 -314 q-207 -116 -444 -116h-4q-326 0 -506 210q-140 164 -140 387q0 67 13 140z" />
<glyph unicode="D" horiz-adv-x="1460" d="M-66 0l252 1434h607q324 0 505 -207q140 -161 140 -381q0 -62 -11 -129q-51 -303 -307 -510q-255 -207 -579 -207h-607zM426 389h182q139 0 246 94q111 98 131 234q6 34 6 65q0 95 -57 166q-74 96 -209 96h-182z" />
<glyph unicode="E" horiz-adv-x="1189" d="M-66 0l252 1434h1098l-67 -390h-674l-23 -129h547l-70 -389h-546l-25 -137h684l-68 -389h-1108z" />
<glyph unicode="F" horiz-adv-x="1179" d="M-66 0l252 1434h1098l-67 -390h-674l-27 -141h547l-68 -389h-546l-91 -514h-424z" />
<glyph unicode="G" horiz-adv-x="1597" d="M49 717q55 319 316 526q259 211 587 211q227 0 402 -115q172 -113 229 -315l-440 -152q-27 84 -97.5 130.5t-164.5 46.5q-141 0 -254 -96.5t-133 -233.5q-6 -35 -6 -68q0 -95 54 -167q74 -97 212 -97q172 0 284 125h-329l57 328h813q0 -55 -8 -90q-57 -334 -311 -553 q-250 -217 -582 -217q-315 0 -500 208q-142 164 -142 389q0 67 13 140z" />
<glyph unicode="H" horiz-adv-x="1409" d="M-66 0l252 1434h424l-90 -516h459l90 516h424l-252 -1434h-424l92 528h-458l-93 -528h-424z" />
<glyph unicode="I" horiz-adv-x="526" d="M-66 0l252 1434h424l-252 -1434h-424z" />
<glyph unicode="J" horiz-adv-x="1187" d="M-76 240l391 229q37 -100 160 -100q86 0 152.5 54t83.5 134l153 877h408l-156 -881q-43 -248 -248 -410q-204 -163 -466 -163h-3q-166 0 -289.5 68.5t-185.5 191.5z" />
<glyph unicode="K" horiz-adv-x="1392" d="M-66 0l252 1434h424l-80 -455l422 455h535l-649 -699l438 -735h-535l-295 496l-88 -496h-424z" />
<glyph unicode="L" horiz-adv-x="1140" d="M-66 0l252 1434h424l-184 -1045h635l-68 -389h-1059z" />
<glyph unicode="M" horiz-adv-x="1763" d="M-66 0l252 1434h414l287 -742l547 742h413l-252 -1434h-413l114 655l-368 -520h-281l-184 516l-115 -651h-414z" />
<glyph unicode="N" horiz-adv-x="1427" d="M-66 0l252 1434h379l414 -709l125 709h407l-251 -1434h-379l-414 707l-125 -707h-408z" />
<glyph unicode="O" horiz-adv-x="1605" d="M49 717q55 311 311 524q260 213 582 213q324 0 506 -213q138 -162 138 -383q0 -68 -13 -142q-55 -314 -311 -526q-253 -211 -578 -211q-1 1 -2 1q-326 0 -506 210q-140 164 -140 387q0 67 13 140zM494 719q-7 -38 -7 -72q0 -95 54 -166q76 -94 213 -94q139 0 245.5 94 t135.5 238q5 32 5 62q0 100 -59 171q-78 96 -211 97q-137 0 -245 -97q-111 -98 -131 -233z" />
<glyph unicode="P" horiz-adv-x="1300" d="M-66 0l252 1434h668q240 0 375 -148q105 -114 105 -273q0 -46 -9 -95q-39 -219 -227 -371q-188 -147 -426 -148h-244l-70 -399h-424zM498 788h243q51 0 92 37t52 93q3 14 3 26q0 36 -22 64q-29 36 -80 36h-243z" />
<glyph unicode="Q" horiz-adv-x="1605" d="M49 717q55 311 311 524q260 213 582 213q324 0 506 -213q138 -162 138 -383q0 -68 -13 -141q-41 -229 -197 -412l107 -129l-314 -266l-122 147q-181 -77 -365 -77q-326 0 -506 210q-140 164 -140 387q0 67 13 140zM494 719q-7 -38 -7 -72q0 -95 54 -166q76 -94 213 -94 h22l-114 139l313 267l133 -162q20 51 27 88q5 32 5 62q0 100 -59 171q-78 96 -211 97q-137 0 -245 -97q-111 -98 -131 -233z" />
<glyph unicode="R" horiz-adv-x="1366" d="M-66 0l252 1434h688q240 0 375 -148q105 -115 106 -274q0 -45 -9 -94q-25 -133 -106 -244t-202 -180l191 -494h-471l-154 399h-176l-70 -399h-424zM498 788h264q51 0 92 37t51 93q3 14 3 26q0 36 -22 64q-28 36 -79 36h-264z" />
<glyph unicode="S" horiz-adv-x="1202" d="M-29 383l445 74q4 -45 48 -75t109 -30q49 0 87 16q42 18 42 46q0 26 -45 47l-49 20q-16 8 -72.5 26.5t-70.5 24.5q-45 16 -79 31t-77 39.5t-70.5 49t-59.5 60.5t-42 76t-19 94q-3 19 -3 40q0 36 10 75q33 203 194 330q164 127 386 127q199 0 332 -102t139 -262l-431 -70 q-4 29 -31.5 46t-66.5 17q-37 0 -63.5 -14t-28.5 -37q-1 -4 -1 -9q0 -27 44 -48q8 -4 53 -21q10 -2 42 -12t61.5 -19.5t48.5 -15.5q156 -51 248 -141q91 -81 90 -222q0 -44 -8 -93q-41 -217 -213 -345q-173 -126 -410 -126h-4q-227 0 -375 110q-143 111 -160 293z" />
<glyph unicode="T" horiz-adv-x="1232" d="M98 1044l68 390h1171l-67 -390h-375l-184 -1044h-424l184 1044h-373z" />
<glyph unicode="U" horiz-adv-x="1409" d="M37 590l149 844h424l-147 -840q-4 -22 -4 -43q0 -67 41 -117q53 -64 151 -65q100 0 176 63q79 66 95 162l147 840h424l-150 -844q-47 -260 -264 -434q-219 -176 -495 -176q-278 0 -436 176q-121 136 -122 320q0 55 11 114z" />
<glyph unicode="V" horiz-adv-x="1503" d="M135 1434h443l167 -818l451 818h442l-827 -1434h-352z" />
<glyph unicode="W" horiz-adv-x="2039" d="M135 1434h432l82 -732l330 732h352l76 -732l334 732h434l-723 -1434h-352l-78 678l-315 -678h-353z" />
<glyph unicode="X" horiz-adv-x="1511" d="M-117 0l633 731l-360 703h503l172 -336l291 336h504l-606 -703l375 -731h-504l-189 367l-315 -367h-504z" />
<glyph unicode="Y" horiz-adv-x="1476" d="M135 1434h486l170 -435l337 435h484l-678 -826l-107 -608h-424l105 598z" />
<glyph unicode="Z" horiz-adv-x="1263" d="M-66 0l58 328l692 716h-559l68 390h1148l-57 -326l-694 -719h573l-67 -389h-1162z" />
<glyph unicode="[" horiz-adv-x="778" d="M-98 -358l352 1996h676l-62 -348h-307l-229 -1300h307l-61 -348h-676z" />
<glyph unicode="\" horiz-adv-x="1249" d="M172 1638h317l580 -1996h-317z" />
<glyph unicode="]" horiz-adv-x="778" d="M-160 -358l62 348h307l229 1300h-307l62 348h675l-352 -1996h-676z" />
<glyph unicode="^" horiz-adv-x="1228" d="M94 647l359 787h325l357 -781h-396l-123 301l-131 -307h-391z" />
<glyph unicode="_" horiz-adv-x="450" d="M0 -102h451v-334h-451v334z" />
<glyph unicode="`" horiz-adv-x="747" d="M236 1649l210 270l408 -297l-152 -188z" />
<glyph unicode="a" d="M-2 532q39 233 205 394q161 159 363 159h3q129 0 224 -69l8 49h409l-186 -1065h-410l9 49q-115 -69 -248 -69q-203 0 -312 157q-76 114 -76 269q0 60 11 126zM426 537q-3 -18 -3 -35q-1 -45 23 -78q32 -45 90 -45t107 45t62 113q2 14 2 27q0 44 -25 78q-33 44 -90 44 t-106.5 -44t-59.5 -105z" />
<glyph unicode="b" d="M-76 0l271 1536h409l-92 -520q117 69 244 69h4q203 0 311 -159q79 -113 79 -270q0 -59 -11 -124q-39 -233 -207 -395q-163 -157 -364 -157h-3q-129 0 -223 69l-8 -49h-410zM432 537q-3 -18 -3 -35q-1 -45 23 -78q32 -45 90 -45t107 45t62 113q2 14 2 27q0 44 -25 78 q-33 44 -90 44t-106.5 -44t-59.5 -105z" />
<glyph unicode="c" horiz-adv-x="1163" d="M-2 532q39 238 233 394q194 159 440 159h3q203 0 334 -110q130 -107 159 -287l-434 -121q-4 53 -40 86t-89 33q-63 0 -115.5 -44t-62.5 -103q-3 -17 -3 -33q1 -47 27 -81q36 -46 99 -46q53 0 101 32.5t71 86.5l391 -121q-90 -178 -260 -289q-172 -108 -369 -108h-4 q-246 0 -385 157q-105 122 -105 290q0 50 9 105z" />
<glyph unicode="d" d="M-2 532q39 233 205 394q161 159 363 159h3q129 0 224 -69l92 520h409l-270 -1536h-410l9 49q-115 -69 -248 -69q-203 0 -312 157q-76 114 -76 269q0 60 11 126zM426 537q-3 -18 -3 -35q-1 -45 23 -78q32 -45 90 -45t107 45t62 113q2 14 2 27q0 44 -25 78q-33 44 -90 44 t-106.5 -44t-59.5 -105z" />
<glyph unicode="e" horiz-adv-x="1189" d="M-2 532q39 234 233 394q194 159 436 159h3q244 0 381 -159q105 -122 105 -289q0 -50 -9 -105q-14 -73 -45 -143h-686q27 -92 139 -92q78 0 143 59l383 -59q-92 -147 -249.5 -232t-339.5 -85q-258 0 -396 159q-107 125 -107 294q0 47 9 99zM467 676h291q-12 41 -47 66.5 t-82 25.5q-101 0 -162 -92z" />
<glyph unicode="f" horiz-adv-x="755" d="M20 729l60 336h135l16 92q27 162 179 270q152 109 342 109h147l-65 -371h-105q-37 0 -64.5 -18t-31.5 -45l-8 -37h188l-59 -336h-189l-127 -729h-409l127 729h-136z" />
<glyph unicode="g" d="M-92 -123l409 70q31 -61 125 -62q66 0 115 33t57 82l9 49q-113 -69 -244 -69h-4q-203 0 -312 157q-76 114 -76 269q0 60 11 126q39 233 205 394q161 159 363 159h3q129 0 224 -69l8 49h409l-184 -1055q-41 -213 -223 -350q-180 -141 -422 -141q-197 0 -328 100 q-131 102 -145 258zM424 528q-2 -14 -2 -28q0 -43 24 -77q33 -44 90.5 -44t106.5 44t59 105q3 18 3 35q0 45 -23 78q-33 45 -90 45t-106.5 -45t-61.5 -113z" />
<glyph unicode="h" horiz-adv-x="1107" d="M-76 0l271 1536h409l-94 -541q113 90 250 90q156 0 248 -114q71 -85 71 -201q0 -38 -8 -80l-121 -690h-409l104 592q2 13 2 25q1 35 -17 62q-24 36 -67 36q-45 0 -80 -35t-45 -88l-104 -592h-410z" />
<glyph unicode="i" horiz-adv-x="491" d="M-76 0l187 1065h409l-186 -1065h-410zM121 1341q18 104 100 174t187 70q104 1 162 -69q43 -52 43 -125q0 -24 -5 -50q-18 -102 -100 -171.5t-186 -69.5q-102 0 -160 70q-45 53 -45 125q0 22 4 46z" />
<glyph unicode="j" horiz-adv-x="499" d="M-309 -461l69 391h72q39 0 67.5 15.5t30.5 38.5l191 1081h409l-200 -1141q-29 -164 -182.5 -274.5t-350.5 -110.5h-106zM131 1341q18 104 100 174t186.5 70t160.5 -69q43 -53 43 -124q0 -25 -5 -51q-18 -102 -100 -172q-77 -69 -181 -69h-3q-102 0 -160 70 q-45 53 -45 125q0 22 4 46z" />
<glyph unicode="k" horiz-adv-x="1138" d="M-76 0l271 1536h409l-137 -782l244 311h473l-402 -514l240 -551h-479l-148 346l-61 -346h-410z" />
<glyph unicode="l" horiz-adv-x="491" d="M-76 0l271 1536h409l-270 -1536h-410z" />
<glyph unicode="m" horiz-adv-x="1683" d="M-76 0l187 1065h409l-12 -70q109 88 244 88q188 0 274 -145q20 25 51 51q37 35 111 64.5t147 29.5q156 0 248 -114q71 -87 70 -206q0 -36 -6 -75l-121 -688h-410l105 592q2 14 2 27q-1 34 -15 60q-20 36 -59 36t-72 -35t-43 -88l-104 -592h-410l105 592q2 14 2 27 q-1 34 -15 60q-20 36 -59 36t-71.5 -35t-43.5 -88l-104 -592h-410z" />
<glyph unicode="n" horiz-adv-x="1107" d="M-76 0l187 1065h409l-12 -70q113 90 252 90q156 0 248 -114q71 -85 71 -201q0 -38 -8 -80l-121 -690h-409l104 592q2 13 2 25q1 35 -17 62q-24 36 -67 36q-45 0 -80 -35t-45 -88l-104 -592h-410z" />
<glyph unicode="o" horiz-adv-x="1200" d="M-2 532q39 233 233.5 393t442.5 160t385 -159q107 -125 107 -294q0 -48 -9 -100q-39 -231 -235 -393q-192 -159 -440 -159h-3.5h-2.5q-244 0 -382 159q-105 122 -105 289q0 50 9 104zM426 532q-3 -15 -3 -30q1 -43 27 -77q36 -46 99 -46q61 0 114.5 46t65.5 107 q2 13 2 26q1 46 -27 82q-36 46 -100 46q-61 0 -114.5 -46.5t-63.5 -107.5z" />
<glyph unicode="p" d="M-158 -461l269 1526h409l-8 -49q113 69 244 69h4q203 0 311 -159q79 -113 79 -270q0 -59 -11 -124q-39 -233 -207 -395q-163 -157 -364 -157h-3h-4q-126 0 -219 69l-90 -510h-410zM430 528q-2 -14 -2 -28q0 -43 24 -77q33 -44 90.5 -44t106.5 44t60 105q3 18 3 35 q0 45 -24 78q-33 45 -90 45t-106.5 -45t-61.5 -113z" />
<glyph unicode="q" d="M-2 532q39 233 205 394q161 159 363 159h3q129 0 224 -69l8 49h409l-268 -1526h-410l91 510q-119 -69 -248 -69q-203 0 -312 157q-76 114 -76 269q0 60 11 126zM424 528q-2 -14 -2 -28q0 -43 24 -77q33 -44 90.5 -44t106.5 44t59 105q3 18 3 35q0 45 -23 78 q-33 45 -90 45t-106.5 -45t-61.5 -113z" />
<glyph unicode="r" horiz-adv-x="735" d="M-76 0l187 1065h409l-12 -70q113 90 252 90q29 0 39 -2l-72 -411q-39 43 -113 43q-66 0 -119 -47t-65 -117l-96 -551h-410z" />
<glyph unicode="s" horiz-adv-x="1001" d="M-43 311l377 49q4 -37 29.5 -52t82.5 -15q80 0 82 26q4 12 -13 22.5t-62 20.5l-140 31q-171 37 -233 115q-46 57 -45 146q0 33 6 69q66 362 530 362q213 0 317 -77q97 -72 98 -203q0 -10 -1 -21l-377 -57q-6 57 -92 57q-63 0 -70 -22q-2 -12 12.5 -21.5t43.5 -17.5 l129 -37q183 -53 249 -133q49 -60 50 -148q0 -30 -6 -63q-31 -174 -169.5 -268t-369.5 -94q-428 0 -428 314v17z" />
<glyph unicode="t" horiz-adv-x="780" d="M18 711l62 354h133l37 201h409l-36 -201h194l-61 -354h-195l-47 -262q-6 -33 15.5 -55.5t60.5 -22.5h108l-65 -371h-213q-166 0 -264 98q-76 79 -76 186q0 29 6 60l66 367h-134z" />
<glyph unicode="u" horiz-adv-x="1107" d="M-10 375l121 690h409l-104 -592q-2 -13 -2 -25q0 -35 18 -62q24 -36 66 -36q45 0 79.5 35t45.5 88l104 592h410l-187 -1065h-409l12 70q-113 -90 -252 -90q-156 0 -248 114q-70 86 -70 204q0 37 7 77z" />
<glyph unicode="v" horiz-adv-x="1200" d="M70 1065h422l81 -547l275 547h422l-586 -1065h-401z" />
<glyph unicode="w" horiz-adv-x="1583" d="M70 1065h411l21 -401l168 401h383l26 -399l162 399h412l-502 -1065h-379l-31 377l-163 -377h-379z" />
<glyph unicode="x" horiz-adv-x="1226" d="M-117 0l461 551l-250 514h477l76 -203l146 203h477l-428 -514l268 -551h-477l-94 242l-179 -242h-477z" />
<glyph unicode="y" horiz-adv-x="1159" d="M-74 -461l70 391h31q162 0 237 68l-194 1067h422l65 -512l250 512h422l-596 -1120q-121 -215 -281.5 -310.5t-396.5 -95.5h-29z" />
<glyph unicode="z" horiz-adv-x="976" d="M-76 0l45 258l396 434h-310l66 373h874l-45 -258l-389 -434h324l-66 -373h-895z" />
<glyph unicode="{" horiz-adv-x="800" d="M-12 477l57 324q20 4 68 28q129 70 145 148l41 231q33 184 178 308q148 122 334 122h141l-61 -340h-100q-45 0 -81 -29.5t-46 -76.5l-39 -225q-47 -266 -312 -328q117 -27 168 -111t29 -215l-41 -225q-8 -45 17.5 -75.5t72.5 -30.5h100l-59 -340h-141q-186 0 -291 122 q-102 125 -70 308l41 231q8 45 -27.5 90t-82.5 66z" />
<glyph unicode="|" horiz-adv-x="450" d="M82 -358v1996h287v-1996h-287z" />
<glyph unicode="}" horiz-adv-x="800" d="M-160 -358l60 340h100q47 0 83 30.5t44 75.5l41 225q23 131 103.5 215t207.5 111q-117 29 -168 114t-28 214l39 225q8 45 -17.5 75.5t-73.5 30.5h-100l62 340h141q186 0 289 -122q104 -123 71 -308l-41 -231q-6 -45 28 -90t81 -68l43 -18l-57 -324q-16 -4 -70 -28 q-125 -61 -143 -146l-41 -231q-35 -184 -181 -308q-145 -123 -331 -122h-142z" />
<glyph unicode="~" horiz-adv-x="1228" d="M94 502q0 195 99 323q102 129 249 129q80 0 182.5 -60t116.5 -60q33 0 56.5 29.5t23.5 72.5h314q0 -195 -98.5 -324t-250.5 -129q-61 0 -124.5 31t-109.5 60.5t-65 29.5q-33 0 -56 -29.5t-23 -72.5h-314z" />
<glyph unicode="&#xa1;" horiz-adv-x="526" d="M-131 -369l221 961h322l-119 -961h-424zM100 883q14 88 82 145t154 57q88 0 135 -57t33 -145q-16 -86 -85 -144.5t-155 -58.5t-133 58.5t-31 144.5z" />
<glyph unicode="&#xa2;" horiz-adv-x="1163" d="M29 717.5q37 202.5 190 353.5q152 150 363 186l39 218h245l-39 -218q152 -31 251.5 -133t121.5 -252l-436 -120q-4 53 -39 85.5t-88 32.5q-63 0 -115.5 -44t-62.5 -103q-12 -68 23.5 -114t99.5 -46q53 0 100 33t70 86l393 -121q-74 -147 -209 -250.5t-299 -134.5 l-39 -217h-246l39 217q-199 41 -299 189q-100 150 -63 352.5z" />
<glyph unicode="&#xa3;" horiz-adv-x="1353" d="M-66 0l68 389h143l33 182h-102l41 236h102l25 141q37 205 204.5 348.5t385.5 155.5q8 2 38 2q197 0 336 -113q143 -115 164 -282l-430 -111q-6 49 -45 83t-90 34q-55 0 -101.5 -36t-54.5 -83l-24 -139h364l-41 -236h-364l-33 -182h627l-68 -389h-1178z" />
<glyph unicode="&#xa4;" horiz-adv-x="1126" d="M82 440l129 129q-61 147 0 295l-129 129l203 203l129 -129q74 29 147 29q76 0 150 -29l131 129l202 -203l-131 -131q27 -72 27 -145.5t-29 -147.5l131 -131l-202 -202l-131 131q-147 -61 -295 0l-129 -129zM469 717q-4 -55 44 -79t96 0t44 79q6 57 -43 80.5t-98 0 t-43 -80.5z" />
<glyph unicode="&#xa5;" horiz-adv-x="1476" d="M135 1434h486l170 -437l337 437h484l-623 -758h182l-41 -236h-225l-10 -57h225l-43 -236h-223l-27 -147h-424l27 147h-227l43 236h225l10 57h-225l41 236h176z" />
<glyph unicode="&#xa6;" horiz-adv-x="450" d="M82 -358v831h287v-831h-287zM82 807v831h287v-831h-287z" />
<glyph unicode="&#xa7;" horiz-adv-x="983" d="M-106 -49l380 76q-4 -33 22 -55.5t69 -22.5t73.5 19.5t34.5 51.5q8 39 -31 60l-233 110q-111 51 -162 150q-47 98 -24 225q23 129 110 230q-53 102 -29 231q35 184 183 305q152 123 346 123q162 0 268 -90q102 -88 113 -234l-379 -88q6 27 -12.5 45.5t-51.5 18.5 q-35 0 -60.5 -20.5t-29.5 -47.5q-6 -45 31 -59l223 -96q117 -51 169 -153.5t30 -231.5q-25 -129 -113 -230q51 -100 31 -233q-33 -184 -193 -309q-155 -125 -360 -125q-178 0 -289.5 97t-115.5 253zM385 582q-10 -57 14 -66l146 -70q8 10 10 31q10 64 -27 78l-129 66 q-8 -8 -14 -39z" />
<glyph unicode="&#xa8;" horiz-adv-x="921" d="M227.5 1612q14.5 78 75.5 130t137 52q80 0 122 -52t28 -130q-14 -80 -73.5 -131t-139.5 -51q-78 0 -121 52t-28.5 130zM663.5 1612q14.5 78 76 130t137.5 52q78 0 120.5 -52t28.5 -130t-74.5 -130t-138.5 -52t-121 52t-28.5 130z" />
<glyph unicode="&#xa9;" horiz-adv-x="1556" d="M41 717q0 305 215 520q217 217 522 217q303 0 520.5 -217t217.5 -520q0 -305 -218 -522q-215 -215 -520 -215q-303 0 -522 215q-215 219 -215 522zM184 717q0 -246 174 -420t420 -174q244 0 418 174q176 176 176 420t-176 420q-174 174 -418 174q-246 0 -420 -174 t-174 -420zM352 717q0 182 125 301q126 123 314 123q139 0 247.5 -67.5t159.5 -180.5l-237 -86q-51 100 -170 100q-78 0 -131.5 -54t-53.5 -134q0 -82 53.5 -136.5t131.5 -54.5q117 0 170 99l237 -86q-51 -113 -159.5 -180.5t-247.5 -67.5q-186 0 -314 121 q-125 123 -125 303z" />
<glyph unicode="&#xaa;" horiz-adv-x="817" d="M78 1061q27 162 143 274q113 111 254 111q84 0 148 -45l6 33h303l-131 -746h-303l6 33q-78 -45 -164 -45q-139 0 -215 110q-76 111 -47 275zM395 1063q-6 -39 13.5 -66.5t52.5 -27.5t62.5 27.5t35.5 66.5q6 37 -13.5 63.5t-52 26.5t-62.5 -26.5t-36 -63.5z" />
<glyph unicode="&#xab;" horiz-adv-x="1236" d="M10 532l502 429l186 -224l-241 -205l170 -204l-265 -224zM522 532l504 429l184 -224l-239 -205l168 -204l-262 -224z" />
<glyph unicode="&#xac;" horiz-adv-x="1228" d="M94 541v354h1041v-612h-336v258h-705z" />
<glyph unicode="&#xad;" horiz-adv-x="819" d="M39 356l63 355h631l-63 -355h-631z" />
<glyph unicode="&#xae;" horiz-adv-x="1556" d="M41 717q0 305 215 520q217 217 522 217q303 0 520.5 -217t217.5 -520q0 -305 -218 -522q-215 -215 -520 -215q-303 0 -522 215q-215 219 -215 522zM184 717q0 -246 174 -420t420 -174q244 0 418 174q176 176 176 420t-176 420q-174 174 -418 174q-246 0 -420 -174 t-174 -420zM428 305v823h395q139 0 232 -86q92 -82 92 -211q0 -156 -133 -241l160 -285h-273l-127 230h-100v-230h-246zM674 760h149q31 0 51.5 20.5t20.5 50.5q0 33 -20.5 53.5t-51.5 20.5h-149v-145z" />
<glyph unicode="&#xaf;" horiz-adv-x="772" d="M207 1487l47 266h649l-47 -266h-649z" />
<glyph unicode="&#xb0;" horiz-adv-x="878" d="M127 1149q31 172 164 291q135 117 305 116q172 0 264 -116q94 -115 64 -291q-35 -178 -168 -293q-133 -117 -305 -117q-168 0 -265 117q-92 119 -59 293zM422 1148q-8 -42 16 -73q25 -29 68 -28.5t78 28.5q35 31 43 74t-19 72q-25 31 -67.5 31t-77.5 -31q-33 -31 -41 -73 z" />
<glyph unicode="&#xb1;" horiz-adv-x="1228" d="M94 31v354h1041v-354h-1041zM94 672v354h344v342h355v-342h342v-354h-342v-238h-355v238h-344z" />
<glyph unicode="&#xb2;" horiz-adv-x="651" d="M49 748l31 174l313 245q39 31 63.5 61t26.5 46v12q2 14 -11 24.5t-36 10.5q-63 0 -114 -82l-197 107q59 92 153.5 146t198.5 54q125 0 199 -73.5t55 -178.5q-23 -127 -227 -282l-55 -39h227l-39 -225h-588z" />
<glyph unicode="&#xb3;" horiz-adv-x="665" d="M59 956l234 76q-6 -31 16.5 -50t63.5 -19q66 -4 84 41q14 39 -27 55q-16 8 -39 6h-61l30 170h37q80 0 88 45q4 18 -13 29.5t-50 11.5q-66 0 -90 -41l-197 68q51 88 145.5 143t200.5 55q127 0 199 -74.5t51 -189.5q-12 -76 -84 -123q76 -51 58 -151q-23 -119 -125 -195 q-100 -76 -238 -76q-117 0 -194.5 60.5t-88.5 158.5z" />
<glyph unicode="&#xb4;" horiz-adv-x="747" d="M229 1622l514 297l117 -270l-545 -215z" />
<glyph unicode="&#xb5;" horiz-adv-x="1107" d="M41 -461v1526h410v-592q0 -51 29.5 -87t72.5 -36q45 0 74.5 35t29.5 88v592h410v-1065h-410v70q-96 -90 -235 -90q-27 0 -33 2v-443h-348z" />
<glyph unicode="&#xb6;" horiz-adv-x="1499" d="M104.5 968.5q34.5 198.5 190.5 331.5q158 133 356 134h942l-51 -287h-184l-264 -1505h-287l264 1505h-184l-264 -1505h-287l151 864q-199 0 -309 131q-108 133 -73.5 331.5z" />
<glyph unicode="&#xb7;" horiz-adv-x="464" d="M39 717q16 86 83.5 144.5t153.5 58.5q88 0 135.5 -58.5t30.5 -144.5q-16 -88 -82.5 -145.5t-154.5 -57.5q-86 0 -133 57.5t-33 145.5z" />
<glyph unicode="&#xb8;" horiz-adv-x="655" d="M-125 -391l55 151q43 -49 133 -49q47 0 85 16.5t42.5 41t-31.5 41t-83 22.5l-41 2l74 166h247l-28 -63l6 -3q6 -2 19.5 -7t25.5 -14t25.5 -22.5t21.5 -32t11 -43t-3 -57.5q-18 -104 -112 -172q-94 -70 -213 -69q-61 0 -121 21.5t-86 47.5z" />
<glyph unicode="&#xb9;" horiz-adv-x="516" d="M152 1425l276 111h170l-139 -788h-234l94 528l-118 -47z" />
<glyph unicode="&#xba;" horiz-adv-x="833" d="M77.5 1061q26.5 162 166.5 272q137 113 311 113q176 0 270 -113q98 -109 70 -272q-27 -160 -166 -275q-135 -111 -309.5 -111t-272.5 111q-96 113 -69.5 275zM395 1061q-6 -37 16.5 -64.5t59.5 -27.5q35 0 67.5 28.5t39 63.5t-16 63.5t-57.5 28.5q-37 0 -70 -27.5 t-39 -64.5z" />
<glyph unicode="&#xbb;" horiz-adv-x="1236" d="M-20 328l241 204l-170 205l262 224l357 -429l-506 -428zM492 328l241 204l-170 205l262 224l357 -429l-506 -428z" />
<glyph unicode="&#xbc;" horiz-adv-x="1728" d="M31 0l1257 1434h326l-1258 -1434h-325zM135 1323l275 111h170l-140 -789h-233l94 529l-117 -48zM952 129l39 225l445 434h225l-78 -436h74l-39 -223h-74l-22 -129h-236l23 129h-357zM1270 352h78l16 90z" />
<glyph unicode="&#xbd;" horiz-adv-x="1781" d="M31 0l1257 1434h326l-1258 -1434h-325zM135 1323l275 111h170l-140 -789h-233l94 529l-117 -48zM1049 0l30 174l314 246q84 65 88 104l2 15q2 14 -11.5 24t-35.5 10q-66 0 -115 -81l-199 106q61 92 154.5 146.5t198.5 54.5q125 0 198 -74q76 -74 58 -178 q-25 -133 -230 -283l-53 -39h227l-39 -225h-587z" />
<glyph unicode="&#xbe;" horiz-adv-x="1837" d="M41 854l233 76q-6 -31 16.5 -50.5t63.5 -19.5q70 0 84 45q14 39 -32 53q-12 4 -31 5h-62v8l29 162h37q82 0 88 45q4 18 -12.5 29.5t-48.5 11.5q-68 0 -93 -41l-196 67q51 88 145 143.5t201 55.5q127 0 198.5 -75t51.5 -189q-12 -78 -82 -123q14 -10 28 -25q14 -18 17 -24 q23 -41 12 -103q-23 -119 -125 -194.5t-239 -75.5q-117 0 -195 60.5t-88 158.5zM139 0l1258 1434h325l-1257 -1434h-326zM1061 129l39 225l444 434h225l-77 -436h73l-39 -223h-73l-23 -129h-235l22 129h-356zM1378 352h78l17 90z" />
<glyph unicode="&#xbf;" horiz-adv-x="1290" d="M-18 82q18 96 70 177t118 124q127 86 225 104l41 9l33 71h336l-8 -293q-45 -4 -135 -26q-82 -18 -121 -35q-140 -51 -152 -129q-8 -47 36 -78t120 -31q141 0 196 107l389 -111q-82 -170 -258 -278q-174 -106 -391 -107q-252 0 -395 142q-145 139 -104 354zM467 862 q16 96 92 160q76 63 172 63q99 0 150 -63q53 -63 37 -160q-16 -96 -94.5 -161.5t-172.5 -65.5q-96 0 -149 65q-51 63 -35 162z" />
<glyph unicode="&#xc0;" horiz-adv-x="1523" d="M-117 0l838 1434h352l334 -1434h-442l-39 184h-496l-104 -184h-443zM553 1731l211 270l407 -297l-151 -188zM639 553h209l-57 270z" />
<glyph unicode="&#xc1;" horiz-adv-x="1523" d="M-117 0l838 1434h352l334 -1434h-442l-39 184h-496l-104 -184h-443zM639 553h209l-57 270zM715 1704l514 297l117 -270l-545 -215z" />
<glyph unicode="&#xc2;" horiz-adv-x="1523" d="M-117 0l838 1434h352l334 -1434h-442l-39 184h-496l-104 -184h-443zM526 1683l461 297h14l359 -297l-154 -188l-268 168l-328 -168zM639 553h209l-57 270z" />
<glyph unicode="&#xc3;" horiz-adv-x="1523" d="M-117 0l838 1434h352l334 -1434h-442l-39 184h-496l-104 -184h-443zM524 1554q20 119 119 211q96 94 211 95q68 0 127 -48q57 -45 80 -45q27 0 51.5 24t30.5 56h223q-23 -127 -119 -217q-94 -88 -209 -88q-74 0 -131 45q-59 47 -80 47q-29 0 -52 -23.5t-27 -56.5h-224z M639 553h209l-57 270z" />
<glyph unicode="&#xc4;" horiz-adv-x="1523" d="M-117 0l838 1434h352l334 -1434h-442l-39 184h-496l-104 -184h-443zM545 1694q12 78 73.5 130t137.5 52q80 0 122 -51t29 -131q-14 -78 -74.5 -130.5t-140.5 -52.5q-78 0 -119.5 52.5t-27.5 130.5zM639 553h209l-57 270zM981 1694q12 78 73.5 130t137.5 52q78 0 121 -52 t30 -130q-14 -78 -75.5 -130.5t-139 -52.5t-119.5 52.5t-28 130.5z" />
<glyph unicode="&#xc5;" horiz-adv-x="1523" d="M-117 0l838 1434h352l334 -1434h-442l-39 184h-496l-104 -184h-443zM639 553h209l-57 270zM692 1782q23 113 111 188q94 78 202.5 78t174 -80t45.5 -186q-23 -113 -113 -189q-94 -78 -201 -77q-111 0 -176 77.5t-43 188.5zM906.5 1798.5q-13.5 -28.5 2.5 -57.5 q35 -39 82 2t15 80q-18 25 -52 14.5t-47.5 -39z" />
<glyph unicode="&#xc6;" horiz-adv-x="2088" d="M-117 0l1049 1434h1241l-68 -390h-612l-23 -129h486l-70 -389h-485l-25 -137h623l-68 -389h-1046l33 184h-435l-131 -184h-469zM743 553h238l80 448z" />
<glyph unicode="&#xc7;" horiz-adv-x="1529" d="M49 717q55 311 311 524q260 213 582 213q240 0 408 -119q168 -115 223 -311l-440 -152q-25 80 -94.5 128.5t-168.5 48.5q-137 0 -245 -97q-111 -98 -131 -233q-27 -141 47 -238q76 -94 213 -94q98 0 183 46t140 128l387 -151q-104 -166 -271 -275.5t-362 -142.5l-24 -55 l6 -3q6 -2 19.5 -7t25.5 -14t25.5 -22.5t21.5 -32t11.5 -43t-3.5 -57.5q-18 -104 -112 -172q-94 -70 -213 -69q-61 0 -120.5 21.5t-86.5 47.5l-27 23l56 151q43 -49 133 -49q49 0 86 16.5t41 41t-32 41t-83 22.5l-41 2l68 152q-283 35 -432 239q-152 209 -101 492z" />
<glyph unicode="&#xc8;" horiz-adv-x="1189" d="M-66 0l252 1434h1098l-67 -390h-674l-23 -129h547l-70 -389h-546l-25 -137h684l-68 -389h-1108zM383 1731l211 270l407 -297l-151 -188z" />
<glyph unicode="&#xc9;" horiz-adv-x="1189" d="M-66 0l252 1434h1098l-67 -390h-674l-23 -129h547l-70 -389h-546l-25 -137h684l-68 -389h-1108zM545 1704l514 297l117 -270l-545 -215z" />
<glyph unicode="&#xca;" horiz-adv-x="1189" d="M-66 0l252 1434h1098l-67 -390h-674l-23 -129h547l-70 -389h-546l-25 -137h684l-68 -389h-1108zM356 1683l461 297h14l359 -297l-154 -188l-268 168l-328 -168z" />
<glyph unicode="&#xcb;" horiz-adv-x="1189" d="M-66 0l252 1434h1098l-67 -390h-674l-23 -129h547l-70 -389h-546l-25 -137h684l-68 -389h-1108zM373 1636v31q0 20 2 27q12 78 73.5 130t137.5 52q80 0 122 -51t29 -131q-14 -78 -74.5 -130.5t-140.5 -52.5q-61 0 -101 35t-48 90zM811 1694q12 78 73.5 130t137.5 52 q78 0 121 -52t31 -130q-14 -78 -76 -130.5t-139.5 -52.5t-119.5 52.5t-28 130.5z" />
<glyph unicode="&#xcc;" horiz-adv-x="526" d="M-66 0l252 1434h424l-252 -1434h-424zM55 1731l211 270l408 -297l-152 -188z" />
<glyph unicode="&#xcd;" horiz-adv-x="526" d="M-66 0l252 1434h424l-252 -1434h-424zM217 1704l514 297l117 -270l-545 -215z" />
<glyph unicode="&#xce;" horiz-adv-x="526" d="M-66 0l252 1434h424l-252 -1434h-424zM29 1683l460 297h15l358 -297l-153 -188l-269 168l-327 -168z" />
<glyph unicode="&#xcf;" horiz-adv-x="526" d="M-66 0l252 1434h424l-252 -1434h-424zM47 1694q12 78 73.5 130t137.5 52q80 0 122 -51t30 -131q-14 -78 -75 -130.5t-140 -52.5q-78 0 -120 52.5t-28 130.5zM483 1694q12 78 73.5 130t137.5 52q78 0 121 -52t31 -130q-14 -78 -75.5 -130.5t-139.5 -52.5t-120 52.5 t-28 130.5z" />
<glyph unicode="&#xd0;" horiz-adv-x="1542" d="M-10 553l59 328h123l96 553h606q324 0 506 -207q180 -207 129 -510t-307 -510t-579 -207h-607l97 553h-123zM508 389h182q137 0 244 94q113 96 133 234q25 137 -51 231q-74 96 -209 96h-182l-29 -163h262l-59 -328h-262z" />
<glyph unicode="&#xd1;" horiz-adv-x="1427" d="M-66 0l252 1434h379l414 -709l125 709h407l-251 -1434h-379l-414 707l-125 -707h-408zM477 1554q20 119 119 211q96 94 211 95q61 0 129 -46.5t78 -46.5q27 0 51.5 24t30.5 56h223q-23 -127 -119 -217q-94 -88 -209 -88q-74 0 -131 45q-59 47 -80 47q-29 0 -52.5 -23.5 t-27.5 -56.5h-223z" />
<glyph unicode="&#xd2;" horiz-adv-x="1605" d="M49 717q55 311 311 524q260 213 582 213q324 0 506 -213q180 -211 125 -524.5t-311 -526.5q-254 -211 -580 -210.5t-506 210.5q-182 213 -127 527zM494 719q-27 -141 47 -238q76 -94 213 -94q139 0 245.5 94t135.5 238q23 141 -54 233q-78 96 -211 97q-137 0 -245 -97 q-111 -98 -131 -233zM594 1731l211 270l407 -297l-151 -188z" />
<glyph unicode="&#xd3;" horiz-adv-x="1605" d="M49 717q55 311 311 524q260 213 582 213q324 0 506 -213q180 -211 125 -524.5t-311 -526.5q-254 -211 -580 -210.5t-506 210.5q-182 213 -127 527zM494 719q-27 -141 47 -238q76 -94 213 -94q139 0 245.5 94t135.5 238q23 141 -54 233q-78 96 -211 97q-137 0 -245 -97 q-111 -98 -131 -233zM756 1704l514 297l116 -270l-544 -215z" />
<glyph unicode="&#xd4;" horiz-adv-x="1605" d="M49 717q55 311 311 524q260 213 582 213q324 0 506 -213q180 -211 125 -524.5t-311 -526.5q-254 -211 -580 -210.5t-506 210.5q-182 213 -127 527zM494 719q-27 -141 47 -238q76 -94 213 -94q139 0 245.5 94t135.5 238q23 141 -54 233q-78 96 -211 97q-137 0 -245 -97 q-111 -98 -131 -233zM567 1683l461 297h14l359 -297l-154 -188l-268 168l-328 -168z" />
<glyph unicode="&#xd5;" horiz-adv-x="1605" d="M49 717q55 311 311 524q260 213 582 213q324 0 506 -213q180 -211 125 -524.5t-311 -526.5q-254 -211 -580 -210.5t-506 210.5q-182 213 -127 527zM494 719q-27 -141 47 -238q76 -94 213 -94q139 0 245.5 94t135.5 238q23 141 -54 233q-78 96 -211 97q-137 0 -245 -97 q-111 -98 -131 -233zM565 1554q20 119 119 211q96 94 211 95q68 0 127 -48q57 -45 80 -45q27 0 51.5 24t30.5 56h223q-23 -127 -119 -217q-94 -88 -209 -88q-74 0 -131 45q-59 47 -80 47q-29 0 -52.5 -23.5t-27.5 -56.5h-223z" />
<glyph unicode="&#xd6;" horiz-adv-x="1605" d="M49 717q55 311 311 524q260 213 582 213q324 0 506 -213q180 -211 125 -524.5t-311 -526.5q-254 -211 -580 -210.5t-506 210.5q-182 213 -127 527zM494 719q-27 -141 47 -238q76 -94 213 -94q139 0 245.5 94t135.5 238q23 141 -54 233q-78 96 -211 97q-137 0 -245 -97 q-111 -98 -131 -233zM586 1694q12 78 73.5 130t137.5 52q80 0 122 -51t29 -131q-14 -78 -74.5 -130.5t-140.5 -52.5q-78 0 -119.5 52.5t-27.5 130.5zM1022 1694q12 78 73.5 130t137.5 52q78 0 121 -52t30 -130q-14 -78 -75.5 -130.5t-139 -52.5t-119.5 52.5t-28 130.5z" />
<glyph unicode="&#xd7;" horiz-adv-x="1228" d="M70 428l290 289l-290 289l252 251l290 -288l295 293l252 -252l-293 -291l293 -291l-252 -252l-293 291l-292 -291z" />
<glyph unicode="&#xd8;" horiz-adv-x="1605" d="M49 717q55 311 311 524q260 213 582 213q199 0 352 -86l76 86l103 -82l-72 -82q113 -104 158 -252.5t14 -320.5q-55 -313 -311 -527q-254 -211 -580 -210q-199 0 -352 86l-76 -86l-102 79l71 84q-113 100 -159 251t-15 323zM494 719q-25 -133 38 -223l461 526 q-51 27 -123 27q-137 0 -245 -97q-111 -98 -131 -233zM633 412q51 -25 121 -25q139 0 245.5 94t135.5 238q23 133 -43 219z" />
<glyph unicode="&#xd9;" horiz-adv-x="1409" d="M37 590l149 844h424l-147 -840q-16 -96 37 -160.5t151 -64.5q100 0 176 63q79 66 95 162l147 840h424l-150 -844q-47 -260 -264 -434q-219 -176 -495 -176q-279 0 -436.5 176t-110.5 434zM496 1731l211 270l407 -297l-151 -188z" />
<glyph unicode="&#xda;" horiz-adv-x="1409" d="M37 590l149 844h424l-147 -840q-16 -96 37 -160.5t151 -64.5q100 0 176 63q79 66 95 162l147 840h424l-150 -844q-47 -260 -264 -434q-219 -176 -495 -176q-279 0 -436.5 176t-110.5 434zM657 1704l514 297l117 -270l-545 -215z" />
<glyph unicode="&#xdb;" horiz-adv-x="1409" d="M37 590l149 844h424l-147 -840q-16 -96 37 -160.5t151 -64.5q100 0 176 63q79 66 95 162l147 840h424l-150 -844q-47 -260 -264 -434q-219 -176 -495 -176q-279 0 -436.5 176t-110.5 434zM469 1683l461 297h14l359 -297l-154 -188l-268 168l-328 -168z" />
<glyph unicode="&#xdc;" horiz-adv-x="1409" d="M37 590l149 844h424l-147 -840q-16 -96 37 -160.5t151 -64.5q100 0 176 63q79 66 95 162l147 840h424l-150 -844q-47 -260 -264 -434q-219 -176 -495 -176q-279 0 -436.5 176t-110.5 434zM487 1694q12 78 74 130t137 52q80 0 122 -51t30 -131q-14 -78 -74.5 -130.5 t-140.5 -52.5q-78 0 -120 52.5t-28 130.5zM924 1694q12 78 73.5 130t137.5 52q78 0 120.5 -52t30.5 -130q-14 -78 -75.5 -130.5t-139.5 -52.5t-119.5 52.5t-27.5 130.5z" />
<glyph unicode="&#xdd;" horiz-adv-x="1476" d="M135 1434h486l170 -435l337 435h484l-678 -826l-107 -608h-424l105 598zM692 1704l514 297l117 -270l-545 -215z" />
<glyph unicode="&#xde;" horiz-adv-x="1300" d="M-66 0l252 1434h424l-35 -201h244q242 0 373 -148q135 -147 96 -368q-41 -221 -225 -371q-186 -147 -426 -147h-244l-35 -199h-424zM461 588h244q53 0 94 37t49 92q10 53 -17.5 90t-80.5 37h-244z" />
<glyph unicode="&#xdf;" horiz-adv-x="1208" d="M-76 0l199 1135q35 182 201 301q170 121 389 120q205 0 325 -108q119 -106 90 -274q-14 -82 -92 -188.5t-82 -131.5q-12 -66 101 -178q47 -45 71.5 -131t6.5 -189q-33 -205 -201 -290q-166 -86 -510 -86l70 391q98 0 152 5t71.5 13t19.5 23q4 18 -19.5 37.5t-58 45 t-67.5 60.5t-49.5 98.5t-1.5 145.5q12 76 53 144.5t78 110.5t39 54q4 27 -15.5 43t-52.5 16q-43 0 -78 -29.5t-43 -72.5l-186 -1065h-410z" />
<glyph unicode="&#xe0;" d="M-2 532q39 233 205 394q162 160 366 159q129 0 224 -69l8 49h409l-186 -1065h-410l9 49q-115 -69 -248 -69q-203 0 -312 157q-106 158 -65 395zM342 1382l211 271l408 -297l-152 -189zM426 537q-12 -68 20.5 -113t90 -45t106.5 45t62 113q10 61 -23 105t-90 44 t-106.5 -44t-59.5 -105z" />
<glyph unicode="&#xe1;" d="M-2 532q39 233 205 394q162 160 366 159q129 0 224 -69l8 49h409l-186 -1065h-410l9 49q-115 -69 -248 -69q-203 0 -312 157q-106 158 -65 395zM426 537q-12 -68 20.5 -113t90 -45t106.5 45t62 113q10 61 -23 105t-90 44t-106.5 -44t-59.5 -105zM504 1356l514 297 l117 -271l-545 -215z" />
<glyph unicode="&#xe2;" d="M-2 532q39 233 205 394q162 160 366 159q129 0 224 -69l8 49h409l-186 -1065h-410l9 49q-115 -69 -248 -69q-203 0 -312 157q-106 158 -65 395zM315 1335l461 297h15l358 -297l-154 -188l-268 168l-328 -168zM426 537q-12 -68 20.5 -113t90 -45t106.5 45t62 113 q10 61 -23 105t-90 44t-106.5 -44t-59.5 -105z" />
<glyph unicode="&#xe3;" d="M-2 532q39 233 205 394q162 160 366 159q129 0 224 -69l8 49h409l-186 -1065h-410l9 49q-115 -69 -248 -69q-203 0 -312 157q-106 158 -65 395zM313 1206q20 119 119 211q96 94 211 94q61 0 129 -46t78 -46q27 0 51.5 23.5t30.5 56.5h223q-23 -127 -119 -217 q-94 -88 -209 -88q-74 0 -131 45q-59 47 -80 47q-29 0 -52 -23.5t-27 -56.5h-224zM426 537q-12 -68 20.5 -113t90 -45t106.5 45t62 113q10 61 -23 105t-90 44t-106.5 -44t-59.5 -105z" />
<glyph unicode="&#xe4;" d="M-2 532q39 233 205 394q162 160 366 159q129 0 224 -69l8 49h409l-186 -1065h-410l9 49q-115 -69 -248 -69q-203 0 -312 157q-106 158 -65 395zM334 1346q12 78 73.5 130t137.5 52q80 0 122 -51.5t29 -130.5q-14 -78 -74.5 -130.5t-140.5 -52.5q-78 0 -120 52.5 t-27 130.5zM426 537q-12 -68 20.5 -113t90 -45t106.5 45t62 113q10 61 -23 105t-90 44t-106.5 -44t-59.5 -105zM770 1346q12 78 73.5 130t137.5 52q78 0 121 -52.5t31 -129.5q-14 -78 -76 -130.5t-139.5 -52.5t-119.5 52.5t-28 130.5z" />
<glyph unicode="&#xe5;" d="M-2 532q39 233 205 394q162 160 366 159q129 0 224 -69l8 49h409l-186 -1065h-410l9 49q-115 -69 -248 -69q-203 0 -312 157q-106 158 -65 395zM426 537q-12 -68 20.5 -113t90 -45t106.5 45t62 113q10 61 -23 105t-90 44t-106.5 -44t-59.5 -105zM481 1434q23 113 111 188 q94 78 202.5 78t174 -80t45.5 -186q-23 -113 -113 -189q-95 -78 -201 -78q-111 0 -176 78t-43 189zM690.5 1434q-4.5 -25 7.5 -41q14 -16 39 -16.5t43 16.5q20 16 24.5 40.5t-9.5 41.5q-12 16 -37 16t-45 -16q-18 -16 -22.5 -41z" />
<glyph unicode="&#xe6;" horiz-adv-x="1900" d="M-2 532q39 236 201 394q162 160 360 159q137 0 232 -79l10 59h409l-8 -41q123 61 250 61q213 0 330 -159q117 -158 76 -394q-14 -74 -46 -143h-686q29 -92 140 -92q78 0 143 59l383 -59q-86 -147 -224 -232t-298 -85q-137 0 -238 63l-8 -43h-410l11 59q-127 -79 -260 -79 q-199 0 -303.5 157.5t-63.5 394.5zM426 537q-12 -68 20.5 -113t90 -45t106.5 45t62 113q10 61 -23 105t-90 44t-106.5 -44t-59.5 -105zM1178 676h290q-12 41 -47 66.5t-82 25.5q-100 0 -161 -92z" />
<glyph unicode="&#xe7;" horiz-adv-x="1163" d="M-2 532q39 238 233 394q195 160 443 159q203 0 334 -110q131 -106 159 -287l-434 -121q-4 53 -40 86t-89 33q-63 0 -115.5 -44t-62.5 -103q-12 -68 23.5 -114t99.5 -46q53 0 101 32.5t71 86.5l391 -121q-72 -143 -201 -244.5t-284 -136.5l-27 -59l6 -3q6 -2 19.5 -7 t26 -14t25.5 -22.5t21.5 -32t11.5 -43t-3 -57.5q-18 -104 -113 -172q-94 -70 -213 -69q-61 0 -120.5 21.5t-88.5 47.5l-25 23l56 151q43 -49 133 -49q49 0 86 16.5t41 41t-32 41t-83 22.5l-41 2l68 154q-201 33 -309 184q-104 152 -68 360z" />
<glyph unicode="&#xe8;" horiz-adv-x="1189" d="M-2 532.5q39 233.5 233 393.5q195 160 439 159q244 0 381 -159q137 -158 96 -394q-14 -73 -45 -143h-686q27 -92 139 -92q78 0 143 59l383 -59q-92 -147 -249.5 -232t-339.5 -85q-258 0 -396 159q-137 160 -98 393.5zM334 1382l211 271l407 -297l-151 -189zM467 676h291 q-12 41 -47 66.5t-82 25.5q-101 0 -162 -92z" />
<glyph unicode="&#xe9;" horiz-adv-x="1189" d="M-2 532.5q39 233.5 233 393.5q195 160 439 159q244 0 381 -159q137 -158 96 -394q-14 -73 -45 -143h-686q27 -92 139 -92q78 0 143 59l383 -59q-92 -147 -249.5 -232t-339.5 -85q-258 0 -396 159q-137 160 -98 393.5zM467 676h291q-12 41 -47 66.5t-82 25.5 q-101 0 -162 -92zM496 1356l514 297l116 -271l-544 -215z" />
<glyph unicode="&#xea;" horiz-adv-x="1189" d="M-2 532.5q39 233.5 233 393.5q195 160 439 159q244 0 381 -159q137 -158 96 -394q-14 -73 -45 -143h-686q27 -92 139 -92q78 0 143 59l383 -59q-92 -147 -249.5 -232t-339.5 -85q-258 0 -396 159q-137 160 -98 393.5zM307 1335l461 297h14l359 -297l-154 -188l-268 168 l-328 -168zM467 676h291q-12 41 -47 66.5t-82 25.5q-101 0 -162 -92z" />
<glyph unicode="&#xeb;" horiz-adv-x="1189" d="M-2 532.5q39 233.5 233 393.5q195 160 439 159q244 0 381 -159q137 -158 96 -394q-14 -73 -45 -143h-686q27 -92 139 -92q78 0 143 59l383 -59q-92 -147 -249.5 -232t-339.5 -85q-258 0 -396 159q-137 160 -98 393.5zM326 1346q12 78 73.5 130t137.5 52q80 0 121.5 -51.5 t29.5 -130.5q-14 -78 -74.5 -130.5t-140.5 -52.5q-78 0 -119.5 52.5t-27.5 130.5zM467 676h291q-12 41 -47 66.5t-82 25.5q-101 0 -162 -92zM762 1346q12 78 73.5 130t137.5 52q78 0 121 -52.5t30 -129.5q-14 -78 -75.5 -130.5t-139.5 -52.5t-119.5 52.5t-27.5 130.5z" />
<glyph unicode="&#xec;" horiz-adv-x="491" d="M-76 0l187 1065h409l-186 -1065h-410zM37 1382l211 271l407 -297l-151 -189z" />
<glyph unicode="&#xed;" horiz-adv-x="491" d="M-76 0l187 1065h409l-186 -1065h-410zM76 1356l514 297l117 -271l-545 -215z" />
<glyph unicode="&#xee;" horiz-adv-x="514" d="M-66 0l187 1065h409l-186 -1065h-410zM20 1335l400 297h14l297 -297l-180 -166l-180 146l-232 -146z" />
<glyph unicode="&#xef;" horiz-adv-x="532" d="M-55 0l186 1065h410l-187 -1065h-409zM53 1346q12 72 66.5 122t122.5 50q70 0 107.5 -49.5t25.5 -122.5q-14 -74 -68.5 -123t-124.5 -49q-68 0 -105.5 49t-23.5 123zM399 1346q12 72 66.5 122t122.5 50q70 0 107.5 -50.5t25.5 -121.5q-14 -74 -68.5 -123t-124.5 -49 q-68 0 -105.5 49t-23.5 123z" />
<glyph unicode="&#xf0;" horiz-adv-x="1200" d="M-2 532q39 233 233.5 393t442.5 160q47 0 114 -10q-51 92 -172 135l-81 -104l-111 76l45 57q-51 8 -152 8l56 309q168 0 321 -28l82 104l111 -76l-56 -71q238 -92 316 -323.5t10 -629.5q-39 -231 -235 -393q-193 -160 -443 -159q-246 0 -385 159q-137 158 -96 393z M426 532q-12 -61 24 -107t99 -46q61 0 114.5 46t65.5 107q10 61 -25.5 107.5t-99.5 46.5q-61 0 -114.5 -46t-63.5 -108z" />
<glyph unicode="&#xf1;" horiz-adv-x="1107" d="M-76 0l187 1065h409l-12 -70q113 90 252 90q156 0 248 -114q94 -113 63 -281l-121 -690h-409l104 592q8 51 -15.5 87t-66.5 36q-45 0 -79.5 -35t-45.5 -88l-104 -592h-410zM266 1206q20 119 119 211q96 94 211 94q68 0 127 -47q57 -45 80 -45q27 0 51.5 23.5t30.5 56.5 h223q-23 -127 -119 -217q-94 -88 -209 -88q-74 0 -131 45q-59 47 -80 47q-29 0 -52.5 -23.5t-27.5 -56.5h-223z" />
<glyph unicode="&#xf2;" horiz-adv-x="1200" d="M-2 532q39 233 233.5 393t442.5 160t385 -159q137 -160 98 -394q-39 -231 -235 -393q-193 -160 -443 -159q-246 -1 -385 159q-137 158 -96 393zM330 1382l211 271l407 -297l-151 -189zM426 532q-12 -61 23.5 -107t99.5 -46q61 0 114.5 46t65.5 107q10 61 -25.5 107.5 t-99.5 46.5q-61 0 -114.5 -46.5t-63.5 -107.5z" />
<glyph unicode="&#xf3;" horiz-adv-x="1200" d="M-2 532q39 233 233.5 393t442.5 160t385 -159q137 -160 98 -394q-39 -231 -235 -393q-193 -160 -443 -159q-246 -1 -385 159q-137 158 -96 393zM426 532q-12 -61 23.5 -107t99.5 -46q61 0 114.5 46t65.5 107q10 61 -25.5 107.5t-99.5 46.5q-61 0 -114.5 -46.5 t-63.5 -107.5zM492 1356l514 297l116 -271l-544 -215z" />
<glyph unicode="&#xf4;" horiz-adv-x="1200" d="M-2 532q39 233 233.5 393t442.5 160t385 -159q137 -160 98 -394q-39 -231 -235 -393q-193 -160 -443 -159q-246 -1 -385 159q-137 158 -96 393zM303 1335l461 297h14l359 -297l-154 -188l-268 168l-328 -168zM426 532q-12 -61 23.5 -107t99.5 -46q61 0 114.5 46t65.5 107 q10 61 -25.5 107.5t-99.5 46.5q-61 0 -114.5 -46.5t-63.5 -107.5z" />
<glyph unicode="&#xf5;" horiz-adv-x="1200" d="M-2 532q39 233 233.5 393t442.5 160t385 -159q137 -160 98 -394q-39 -231 -235 -393q-193 -160 -443 -159q-246 -1 -385 159q-137 158 -96 393zM301 1206q20 119 119 211q96 94 211 94q61 0 128.5 -46t78.5 -46q27 0 51 23.5t31 56.5h223q-23 -127 -119 -217 q-94 -88 -209 -88q-74 0 -131 45q-59 47 -80 47q-29 0 -52.5 -23.5t-27.5 -56.5h-223zM426 532q-12 -61 23.5 -107t99.5 -46q61 0 114.5 46t65.5 107q10 61 -25.5 107.5t-99.5 46.5q-61 0 -114.5 -46.5t-63.5 -107.5z" />
<glyph unicode="&#xf6;" horiz-adv-x="1200" d="M-2 532q39 233 233.5 393t442.5 160t385 -159q137 -160 98 -394q-39 -231 -235 -393q-193 -160 -443 -159q-246 -1 -385 159q-137 158 -96 393zM322 1346q12 78 73.5 130t136.5 52q80 0 122 -51.5t30 -130.5q-14 -78 -74.5 -130.5t-140.5 -52.5q-78 0 -119.5 52.5 t-27.5 130.5zM426 532q-12 -61 23.5 -107t99.5 -46q61 0 114.5 46t65.5 107q10 61 -25.5 107.5t-99.5 46.5q-61 0 -114.5 -46.5t-63.5 -107.5zM758 1346q12 78 73.5 130t137.5 52q78 0 121 -52.5t30 -129.5q-14 -78 -75.5 -130.5t-139.5 -52.5t-119.5 52.5t-27.5 130.5z" />
<glyph unicode="&#xf7;" horiz-adv-x="1228" d="M94 541v354h1041v-354h-1041zM389 258q0 96 64 160q66 66 161 65q94 0 160 -65.5t66 -159.5q0 -96 -66 -162q-63 -63 -160 -63q-98 0 -161.5 63.5t-63.5 161.5zM389 1175.5q0 96.5 64 159.5q66 66 161 66q94 0 160 -65.5t66 -160t-66 -159.5q-63 -63 -160 -64 q-98 0 -161.5 63.5t-63.5 160z" />
<glyph unicode="&#xf8;" horiz-adv-x="1200" d="M-2 532q39 233 233.5 393t442.5 160q156 0 270 -65l55 65l72 -57l-53 -61q88 -76 125 -190.5t14 -244.5q-39 -231 -235 -393q-193 -160 -443 -159q-154 0 -268 65l-57 -65l-72 57l53 61q-186 162 -137 434zM426 532q-8 -51 12 -88l207 236q-18 6 -41 6q-61 0 -114.5 -46 t-63.5 -108zM508 385q18 -6 41 -6q61 0 114.5 46t65.5 107q6 56 -14 89z" />
<glyph unicode="&#xf9;" horiz-adv-x="1107" d="M-10 375l121 690h409l-104 -592q-8 -51 15.5 -87t66.5 -36q45 0 79.5 35t45.5 88l104 592h410l-187 -1065h-409l12 70q-113 -90 -252 -90q-156 0 -248 114q-92 113 -63 281zM285 1382l211 271l407 -297l-151 -189z" />
<glyph unicode="&#xfa;" horiz-adv-x="1107" d="M-10 375l121 690h409l-104 -592q-8 -51 15.5 -87t66.5 -36q45 0 79.5 35t45.5 88l104 592h410l-187 -1065h-409l12 70q-113 -90 -252 -90q-156 0 -248 114q-92 113 -63 281zM446 1356l515 297l116 -271l-545 -215z" />
<glyph unicode="&#xfb;" horiz-adv-x="1107" d="M-10 375l121 690h409l-104 -592q-8 -51 15.5 -87t66.5 -36q45 0 79.5 35t45.5 88l104 592h410l-187 -1065h-409l12 70q-113 -90 -252 -90q-156 0 -248 114q-92 113 -63 281zM258 1335l461 297h14l359 -297l-154 -188l-268 168l-328 -168z" />
<glyph unicode="&#xfc;" horiz-adv-x="1107" d="M-10 375l121 690h409l-104 -592q-8 -51 15.5 -87t66.5 -36q45 0 79.5 35t45.5 88l104 592h410l-187 -1065h-409l12 70q-113 -90 -252 -90q-156 0 -248 114q-92 113 -63 281zM276 1346q12 78 74 130t137 52q80 0 122 -51.5t30 -130.5q-14 -78 -74.5 -130.5t-140.5 -52.5 q-78 0 -120 52.5t-28 130.5zM713 1346q12 78 73.5 130t137.5 52q78 0 120.5 -52.5t30.5 -129.5q-14 -78 -75.5 -130.5t-139.5 -52.5t-119.5 52.5t-27.5 130.5z" />
<glyph unicode="&#xfd;" horiz-adv-x="1159" d="M-74 -461l70 391h31q162 0 237 68l-194 1067h422l65 -512l250 512h422l-596 -1120q-121 -215 -281.5 -310.5t-396.5 -95.5h-29zM471 1356l514 297l117 -271l-545 -215z" />
<glyph unicode="&#xfe;" d="M-158 -461l353 1997h409l-92 -520q115 70 248 69q203 0 311 -159q109 -156 68 -394q-39 -233 -207 -395q-164 -158 -367 -157q-129 0 -223 69l-90 -510h-410zM430 528q-10 -61 22.5 -105t90 -44t106.5 44t60 105q12 68 -21 113t-90 45t-106.5 -45t-61.5 -113z" />
<glyph unicode="&#xff;" horiz-adv-x="1159" d="M-74 -461l70 391h31q162 0 237 68l-194 1067h422l65 -512l250 512h422l-596 -1120q-121 -215 -281.5 -310.5t-396.5 -95.5h-29zM301 1346q12 78 73.5 130t137.5 52q80 0 122 -51.5t30 -130.5q-14 -78 -74.5 -130.5t-140.5 -52.5q-78 0 -120 52.5t-28 130.5zM737 1346 q12 78 73.5 130t137.5 52q78 0 121 -52.5t31 -129.5q-14 -78 -75.5 -130.5t-139.5 -52.5t-120 52.5t-28 130.5z" />
<glyph unicode="&#x152;" horiz-adv-x="2277" d="M49 717q55 311 311 524q260 213 582 213q188 0 332 -76l10 56h1077l-67 -390h-654l-22 -129h526l-69 -389h-527l-24 -137h663l-67 -389h-1088l10 55q-172 -75 -360 -75q-326 0 -506 210q-182 213 -127 527zM494 719q-27 -141 47 -238q76 -94 213 -94q139 0 245.5 94 t135.5 238q23 141 -54 233q-78 96 -211 97q-137 0 -245 -97q-111 -98 -131 -233z" />
<glyph unicode="&#x153;" horiz-adv-x="1921" d="M-2 532q39 233 233.5 393t442.5 160q207 0 346 -120q176 121 385 120q244 0 379 -159.5t94 -393.5q-14 -74 -45 -143h-686q29 -92 139 -92q78 0 144 59l382 -59q-92 -147 -247.5 -232t-337.5 -85q-217 0 -357 120q-182 -121 -391 -120q-246 0 -385 159q-137 158 -96 393z M426 532q-12 -61 24 -107t99 -46q61 0 114.5 46t65.5 107q10 61 -25.5 107.5t-99.5 46.5q-61 0 -114.5 -46t-63.5 -108zM1198 676h291q-12 41 -47 66.5t-82 25.5q-101 0 -162 -92z" />
<glyph unicode="&#x178;" horiz-adv-x="1476" d="M135 1434h486l170 -435l337 435h484l-678 -826l-107 -608h-424l105 598zM522 1694q12 78 73.5 130t137.5 52q80 0 122 -51t30 -131q-14 -78 -74.5 -130.5t-140.5 -52.5q-78 0 -120 52.5t-28 130.5zM958 1694q12 78 74 130t137 52q78 0 121 -52t31 -130 q-14 -78 -75.5 -130.5t-139.5 -52.5t-120 52.5t-28 130.5z" />
<glyph unicode="&#x2c6;" horiz-adv-x="956" d="M227 1602l461 296h14l359 -296l-154 -189l-268 168l-328 -168z" />
<glyph unicode="&#x2dc;" horiz-adv-x="913" d="M203 1473q20 117 121 210q96 94 211 95q68 0 127 -47q57 -45 79 -45q27 0 51.5 23.5t30.5 55.5h224q-23 -127 -119 -217q-94 -88 -209 -88q-74 0 -131 45q-59 47 -80 47q-29 0 -52.5 -23t-29.5 -56h-223z" />
<glyph unicode="&#x2000;" horiz-adv-x="1024" />
<glyph unicode="&#x2001;" horiz-adv-x="2048" />
<glyph unicode="&#x2002;" horiz-adv-x="1024" />
<glyph unicode="&#x2003;" horiz-adv-x="2048" />
<glyph unicode="&#x2004;" horiz-adv-x="682" />
<glyph unicode="&#x2005;" horiz-adv-x="512" />
<glyph unicode="&#x2006;" horiz-adv-x="341" />
<glyph unicode="&#x2007;" horiz-adv-x="341" />
<glyph unicode="&#x2008;" horiz-adv-x="256" />
<glyph unicode="&#x2009;" horiz-adv-x="409" />
<glyph unicode="&#x200a;" horiz-adv-x="113" />
<glyph unicode="&#x2010;" horiz-adv-x="819" d="M39 356l63 355h631l-63 -355h-631z" />
<glyph unicode="&#x2011;" horiz-adv-x="819" d="M39 356l63 355h631l-63 -355h-631z" />
<glyph unicode="&#x2012;" horiz-adv-x="819" d="M39 356l63 355h631l-63 -355h-631z" />
<glyph unicode="&#x2013;" horiz-adv-x="1228" d="M39 356l63 355h1041l-64 -355h-1040z" />
<glyph unicode="&#x2014;" horiz-adv-x="2048" d="M39 356l63 355h1860l-64 -355h-1859z" />
<glyph unicode="&#x2018;" horiz-adv-x="489" d="M129 1169q25 123 133 232q49 45 96 82q76 55 115 73l84 -108q-137 -90 -145 -135q61 -12 95 -67.5t21 -127.5q-14 -80 -78.5 -134t-146.5 -54q-92 0 -141 69.5t-33 169.5z" />
<glyph unicode="&#x2019;" horiz-adv-x="489" d="M135 1038q139 88 148 136q-63 12 -97 67t-22 127q16 80 80.5 134t146.5 54q92 0 140 -69.5t32 -169.5q-33 -203 -342 -387z" />
<glyph unicode="&#x201a;" horiz-adv-x="489" d="M-74 -150q135 88 146 136q-61 12 -95 67.5t-22 126.5q14 80 78.5 134.5t146.5 54.5q92 0 141 -70t33 -170q-25 -125 -135 -231q-35 -35 -96 -82q-68 -51 -113 -74z" />
<glyph unicode="&#x201c;" horiz-adv-x="929" d="M129 1169q25 123 133 232q49 45 96 82q76 55 115 73l84 -108q-137 -90 -145 -135q61 -12 95 -67.5t21 -127.5q-14 -80 -78.5 -134t-146.5 -54q-92 0 -141 69.5t-33 169.5zM569 1169q25 123 133 232q49 45 97 82q76 55 114 73l84 -108q-137 -90 -145 -135q61 -12 95 -67.5 t22 -127.5q-14 -80 -79 -134t-147 -54q-92 0 -141 69.5t-33 169.5z" />
<glyph unicode="&#x201d;" horiz-adv-x="929" d="M135 1038q139 88 148 136q-63 12 -97 67t-22 127q16 80 80.5 134t146.5 54q92 0 140 -69.5t32 -169.5q-33 -203 -342 -387zM575 1038q137 88 148 136q-63 12 -97 67t-22 127q16 80 81 134t146 54q92 0 140.5 -69.5t32.5 -169.5q-33 -203 -342 -387z" />
<glyph unicode="&#x201e;" horiz-adv-x="929" d="M-74 -150q135 88 146 136q-61 12 -95 67.5t-22 126.5q14 80 78.5 134.5t146.5 54.5q92 0 141 -70t33 -170q-25 -125 -135 -231q-35 -35 -96 -82q-68 -51 -113 -74zM367 -150q135 88 145 136q-61 12 -95 67.5t-22 126.5q14 80 79 134.5t147 54.5q92 0 141 -70t33 -170 q-25 -125 -136 -231q-35 -35 -96 -82q-68 -51 -112 -74z" />
<glyph unicode="&#x2022;" horiz-adv-x="788" d="M31 532q0 154 102 261q104 104 258 104q158 0 262.5 -104.5t104.5 -260.5q0 -158 -105 -262q-106 -102 -262 -102q-152 0 -258 102q-102 106 -102 262z" />
<glyph unicode="&#x2026;" horiz-adv-x="1394" d="M-55 182q16 86 83.5 144.5t153.5 58.5q88 0 135.5 -58.5t30.5 -144.5q-16 -88 -82.5 -145t-154.5 -57q-86 0 -133 57t-33 145zM410 182q16 86 83.5 144.5t153.5 58.5q88 0 135 -58.5t31 -144.5q-16 -88 -82.5 -145t-155.5 -57q-86 0 -132.5 57t-32.5 145zM874 182 q16 86 84 144.5t154 58.5q88 0 135 -58.5t31 -144.5q-16 -88 -83 -145t-155 -57q-86 0 -133 57t-33 145z" />
<glyph unicode="&#x202f;" horiz-adv-x="409" />
<glyph unicode="&#x2039;" horiz-adv-x="724" d="M10 532l502 429l186 -224l-241 -205l170 -204l-265 -224z" />
<glyph unicode="&#x203a;" horiz-adv-x="724" d="M-20 328l241 204l-170 205l262 224l357 -429l-506 -428z" />
<glyph unicode="&#x205f;" horiz-adv-x="512" />
<glyph unicode="&#x20ac;" horiz-adv-x="1622" d="M-16 455l41 235h112q2 2 2 12.5t2 14.5l6 31h-112l41 235h162q121 215 333 342q215 129 463 129q240 0 408 -119q168 -115 223 -311l-440 -152q-25 80 -94.5 128.5t-167.5 48.5q-106 0 -207 -66h276l-41 -235h-399q-6 -18 -6 -29l-4 -29h399l-41 -235h-281 q74 -68 187 -68q98 0 183 46t140 128l387 -151q-123 -195 -333 -314q-209 -117 -449 -116q-250 0 -420 129q-170 133 -213 346h-157z" />
<glyph unicode="&#x2122;" horiz-adv-x="1492" d="M10 1239v195h586v-195h-188v-522h-211v522h-187zM643 717v717h207l209 -371l207 371h207v-717h-207v325l-138 -258h-141l-137 256v-323h-207z" />
<glyph unicode="&#x25fc;" horiz-adv-x="1064" d="M0 0v1065h1065v-1065h-1065z" />
</font>
</defs>
</svg>
