<?xml version="1.0" standalone="no"?>
<!DOCTYPE svg PUBLIC "-//W3C//DTD SVG 1.1//EN" "http://www.w3.org/Graphics/SVG/1.1/DTD/svg11.dtd" >
<svg xmlns="http://www.w3.org/2000/svg" xmlns:xlink="http://www.w3.org/1999/xlink" version="1.1">
<metadata></metadata>
<defs>
<font id="mazzardh_bold_italic" horiz-adv-x="1243" >
<font-face units-per-em="2048" ascent="1546" descent="-502" />
<missing-glyph horiz-adv-x="501" />
<glyph unicode="&#xfb01;" horiz-adv-x="1204" d="M53 0l142 805h-154l45 260h154l22 119q27 150 156 250q133 102 301 102h143l-49 -285h-117q-49 0 -88 -31.5t-47 -76.5l-14 -78h231l-45 -260h-231l-142 -805h-307zM1188 1065l-187 -1065h-305l187 1065h305zM1049 1141q-80 0 -125 53t-31 135t77.5 135.5t145.5 53.5 t126 -53.5t29.5 -135.5t-77.5 -135t-145 -53z" />
<glyph unicode="&#xfb02;" horiz-adv-x="1204" d="M53 0l142 805h-154l45 260h154l22 119q27 150 156 250q133 102 301 102h143l-49 -285h-117q-49 0 -88 -31.5t-47 -76.5l-14 -78h231l-45 -260h-231l-142 -805h-307zM1001 0h-305l271 1536h305z" />
<glyph unicode="&#xfb03;" horiz-adv-x="1853" d="M53 0l142 805h-154l45 260h154l22 119q27 150 156 250q133 102 301 102h143l-49 -285h-117q-49 0 -88 -31.5t-47 -76.5l-14 -78h342l22 119q27 150 158 250q133 102 299 102h145l-51 -285h-116q-49 0 -88 -31.5t-48 -76.5l-14 -78h641l-186 -1065h-305l141 805h-336 l-141 -805h-308l142 805h-342l-142 -805h-307zM1698 1141q-80 0 -125 53t-31 135t77.5 135.5t145.5 53.5t126 -53.5t30 -135.5t-77.5 -135t-145.5 -53z" />
<glyph unicode="&#xfb04;" horiz-adv-x="1853" d="M195 805h-154l45 260h154l22 119q27 150 156 250q133 102 301 102h143l-49 -285h-117q-49 0 -88 -31.5t-47 -76.5l-14 -78h342l22 119q27 150 158 250q133 102 299 102h145l-51 -285h-116q-49 0 -88 -31.5t-48 -76.5l-14 -78h231l-45 -260h-231l-141 -805h-308l142 805 h-342l-142 -805h-307zM1921 1536l-270 -1536h-305l270 1536h305z" />
<glyph horiz-adv-x="0" />
<glyph horiz-adv-x="0" />
<glyph unicode="&#xd;" horiz-adv-x="512" />
<glyph unicode=" "  horiz-adv-x="501" />
<glyph unicode="&#x09;" horiz-adv-x="501" />
<glyph unicode="&#xa0;" horiz-adv-x="501" />
<glyph unicode="!" horiz-adv-x="518" d="M-8 147q12 76 70.5 125.5t134 49.5t115.5 -49.5t28 -125.5q-14 -76 -71.5 -125t-133.5 -49t-116.5 49t-26.5 125zM350 467h-254l135 967h326z" />
<glyph unicode="&#x22;" horiz-adv-x="827" d="M383 901h-221l67 533h271zM752 901h-222l70 533h268z" />
<glyph unicode="#" horiz-adv-x="1435" d="M33 340v235h297l51 283h-258v236h299l59 340h238l-60 -340h250l60 340h237l-59 -340h256v-236h-297l-51 -283h258v-235h-299l-60 -340h-237l59 340h-250l-59 -340h-238l60 340h-256zM618 858l-51 -283h250l51 283h-250z" />
<glyph unicode="$" horiz-adv-x="1234" d="M2 340l340 78q4 -63 66.5 -104.5t156.5 -41.5q90 0 158 37t78 94q6 39 -27 70q-20 20 -44.5 34.5t-40 21t-75.5 26.5l-22 8q-229 74 -311 135q-158 115 -117 322q31 174 161 292t316 142l41 232h209l-43 -236q147 -27 239.5 -115t104.5 -211l-336 -75q-4 49 -51 80.5 t-119 31.5q-74 0 -130 -32.5t-64 -84.5q-10 -53 45 -86.5t211 -80.5q10 -2 23 -7.5t24 -7.5q29 -8 50 -16t52 -20.5t51.5 -23.5t49 -28.5t45 -35t39 -42t29.5 -51.5t19.5 -60.5t7.5 -70.5t-8 -82q-33 -184 -174 -306t-346 -146l-41 -232h-207l41 234q-170 25 -277.5 121 t-123.5 237z" />
<glyph unicode="%" horiz-adv-x="1769" d="M305 0l-137 133l1321 1301l141 -136zM127 1083q27 160 156 269q127 109 286 108q158 0 248 -108q88 -106 60 -269q-27 -162 -156 -270q-127 -109 -284.5 -108.5t-248.5 108.5q-90 108 -61 270zM375 1083q-10 -53 20.5 -90t83.5 -37t97.5 37t52.5 90q10 53 -20.5 90 t-84 37t-97.5 -37t-52 -90zM911 350q27 162 156 271q127 109 284.5 108.5t247.5 -108.5q88 -104 60 -271q-27 -162 -156 -270q-125 -106 -284 -107q-158 0 -248 109q-89 106 -60 268zM1159 350q-10 -53 20.5 -90t84 -37t95.5 37t52 90t-20.5 90t-84 37t-96.5 -37t-51 -90z " />
<glyph unicode="&#x26;" horiz-adv-x="1454" d="M471 -27q-225 0 -354 129q-125 131 -92 324q37 217 301 375q-68 143 -45 289q29 160 155 264q131 106 297 106q170 0 264 -106q96 -104 68 -262q-18 -115 -97 -201t-220 -166l172 -215q72 117 96 252h295q-49 -268 -217 -473l229 -289h-399l-66 84q-182 -111 -387 -111z M690 297l-205 258q-6 16 -16 20q-123 -76 -137 -155q-12 -68 42 -115t150 -47q86 0 166 39zM600 938q166 84 178 152q18 61 -51 79q-72 18 -125 -26q-29 -27 -33 -64q-12 -59 31 -141z" />
<glyph unicode="'" horiz-adv-x="458" d="M383 901h-221l67 533h271z" />
<glyph unicode="(" horiz-adv-x="657" d="M494 1602l36 36h279q-6 -6 -19.5 -21t-19.5 -24q-20 -25 -92 -127q-59 -88 -125 -206q-55 -102 -119 -277q-61 -170 -92 -342q-27 -197 -29 -342t22.5 -277.5t48.5 -207t50 -129.5l23 -43h-279l-2 2q-119 186 -143 501q-16 233 30 496q63 369 216 643q131 230 215 318z " />
<glyph unicode=")" horiz-adv-x="657" d="M215 1593l-22 45h278q27 -31 72 -157q35 -94 55 -199q20 -102 20 -281q4 -172 -30 -360q-76 -436 -266 -727q-94 -143 -125 -180q-47 -61 -74 -88l-4 -4h-279q6 6 19.5 21t19.5 24q20 23 94 129q66 94 125 204q55 102 119 277q61 170 92 344q27 195 29 342t-22.5 277.5 t-49 206t-51.5 126.5z" />
<glyph unicode="*" horiz-adv-x="966" d="M455 926l-219 -166l-86 213l253 84l-225 82l162 213l160 -168l-4 250h245l-92 -250l221 168l86 -213l-256 -82l226 -84l-160 -213l-162 166l4 -250h-243z" />
<glyph unicode="+" horiz-adv-x="1228" d="M479 565h-366v275h366v364h273v-364h364v-275h-364v-366h-273v366z" />
<glyph unicode="," horiz-adv-x="477" d="M315 92q-12 -63 -50 -124.5t-76.5 -101.5t-87 -76t-70 -49t-33.5 -20l-72 93q137 106 148 163q-57 10 -88 59.5t-21 113.5q12 72 69.5 118.5t131.5 46.5q82 0 123.5 -63.5t25.5 -159.5z" />
<glyph unicode="-" horiz-adv-x="819" d="M66 397l47 273h594l-48 -273h-593z" />
<glyph unicode="." horiz-adv-x="460" d="M-35 147q12 76 70.5 125.5t134.5 49.5t116 -49.5t27 -125.5q-14 -76 -71.5 -125t-133 -49t-116.5 49t-27 125z" />
<glyph unicode="/" horiz-adv-x="1189" d="M80 -358h-260l1282 1994h260z" />
<glyph unicode="0" horiz-adv-x="1265" d="M39 492l82 450q41 223 225 369q186 150 428 149q240 0 375 -149q135 -147 96 -369l-82 -450q-41 -221 -225 -371q-188 -147 -428 -147.5t-375 147.5q-135 152 -96 371zM432 946l-80 -459q-16 -90 44.5 -152.5t166.5 -62.5q104 0 189 62q86 66 100 153l80 459 q16 92 -44.5 153.5t-166.5 61.5t-190.5 -61.5t-98.5 -153.5z" />
<glyph unicode="1" horiz-adv-x="935" d="M500 1065l-254 -111l-74 269l481 211h224l-252 -1434h-312z" />
<glyph unicode="2" horiz-adv-x="1187" d="M834 1006q10 63 -38 109t-126 46q-170 0 -283 -190l-266 137q104 166 263 259t337 93q219 0 344 -131q127 -131 94 -313q-39 -223 -401 -508l-260 -209h544l-51 -299h-1026l41 233l600 484q205 168 228 289z" />
<glyph unicode="3" horiz-adv-x="1202" d="M836 1016q10 61 -43.5 103t-145.5 42q-168 0 -244 -112l-260 118q88 133 241 213t329 80q227 0 352 -125q129 -127 96 -313q-31 -170 -190 -277q162 -117 125 -317q-33 -193 -217 -326q-182 -129 -418 -129q-195 0 -327 94.5t-157 249.5l316 103q4 -66 63.5 -107 t151.5 -41q100 0 176 47.5t88 119t-45 117.5t-156 46h-108v12l45 248h72q98 0 171 43t85 111z" />
<glyph unicode="4" horiz-adv-x="1306" d="M657 0l45 262h-714l53 299l883 873h299l-154 -873h168l-53 -299h-168l-45 -262h-314zM827 971l-415 -410h344z" />
<glyph unicode="5" horiz-adv-x="1230" d="M1130 467q-41 -215 -223 -354.5t-420 -139.5q-197 0 -328.5 105.5t-158.5 283.5l328 84q16 -82 72.5 -128t140.5 -46q96 0 171.5 56.5t92.5 138.5q16 90 -49.5 148.5t-182.5 58.5h-407l211 760h794l-49 -285h-538l-54 -188h140q231 0 364 -141.5t96 -352.5z" />
<glyph unicode="6" horiz-adv-x="1226" d="M1235 1171l-309 -137q-43 127 -205 127q-104 0 -189 -59q-80 -59 -96 -150l-16 -88q119 63 264 64q223 0 352 -140q131 -137 97 -339q-37 -203 -218 -340q-182 -135 -415 -136q-238 0 -369 137.5t-96 340.5l88 497q41 223 225 365q188 147 426 147q172 0 295 -78 t166 -211zM360 453q-14 -78 41.5 -129.5t151.5 -51.5t169 50.5t85 123.5q14 78 -40 130.5t-150.5 52.5t-169.5 -51t-87 -125z" />
<glyph unicode="7" horiz-adv-x="1103" d="M432 0h-344l725 1149h-692l49 285h1028l-51 -301z" />
<glyph unicode="8" horiz-adv-x="1230" d="M496 -27q-240 0 -373 125q-135 127 -103 312q37 207 248 335q-137 119 -106 304q33 172 203 292q168 119 393 119q223 0 348 -119q129 -121 98 -294q-33 -182 -215 -304q168 -129 131 -335q-33 -186 -211 -312q-177 -123 -413 -123zM547 272q96 0 168.5 46.5t85 116 t-44 116.5t-152.5 47q-98 0 -170 -46t-84 -115.5t43.5 -117t153.5 -47.5zM655 885q84 0 146.5 40t73 99t-38 98t-131.5 39q-86 0 -148.5 -39t-73 -98t37.5 -99t134 -40z" />
<glyph unicode="9" horiz-adv-x="1236" d="M-8 266l307 133q47 -127 215 -127q115 0 201 59.5t102 147.5l14 74q-106 -63 -258 -64q-221 0 -350 140q-127 143 -90 348q35 207 215 344q182 139 411.5 139t362.5 -139t97 -344l-89 -496q-41 -219 -229 -362q-193 -145 -434 -146q-176 0 -304 79t-171 214zM707 1161 q-92 0 -164 -52t-86 -130q-14 -82 37 -137q53 -53 147 -53.5t166 53.5q70 51 86 133q14 80 -39 133t-147 53z" />
<glyph unicode=":" horiz-adv-x="460" d="M-35 147q12 76 70.5 125.5t134.5 49.5t116 -49.5t27 -125.5q-14 -76 -71.5 -125t-133 -49t-116.5 49t-27 125zM100 918q14 74 72.5 124t132.5 50q76 0 117 -50.5t27 -123.5q-12 -76 -71 -125.5t-134 -49.5q-74 0 -115 49.5t-29 125.5z" />
<glyph unicode=";" horiz-adv-x="460" d="M100 918q14 74 72.5 124t132.5 50q76 0 117 -50.5t27 -123.5q-12 -76 -71 -125.5t-134 -49.5q-74 0 -115 49.5t-29 125.5zM319 92q-25 -125 -126 -227q-49 -49 -89 -76q-59 -47 -102 -68l-72 93q137 106 148 163q-57 10 -89 60.5t-20 112.5q12 70 69.5 117.5t129.5 47.5 q84 0 125.5 -62.5t25.5 -160.5z" />
<glyph unicode="&#x3c;" horiz-adv-x="1228" d="M1096 125l-1004 467v250l1004 471v-301l-627 -295l627 -293v-299z" />
<glyph unicode="=" horiz-adv-x="1228" d="M113 817v275h1003v-275h-1003zM113 344v272h1003v-272h-1003z" />
<glyph unicode="&#x3e;" horiz-adv-x="1228" d="M1137 842v-250l-1004 -467v299l627 293l-627 295v301z" />
<glyph unicode="?" horiz-adv-x="1218" d="M877 993q12 72 -46.5 120t-158.5 48q-86 0 -154.5 -39t-101.5 -102l-299 86q76 156 241 256q166 98 363 98q236 0 369 -133q131 -131 98 -334q-16 -92 -68.5 -172t-120.5 -127q-135 -92 -229 -116l-41 -11l-35 -100h-258l15 270q123 35 139 39q70 23 123 49 q61 29 108.5 75t55.5 93zM690 145q-14 -78 -75.5 -130t-139.5 -52t-122 52.5t-29.5 130t76 131t139 53.5t120.5 -53.5t31 -131.5z" />
<glyph unicode="@" horiz-adv-x="1978" d="M1128 1460q254 4 452 -116.5t287 -321.5t44 -424q-41 -227 -180 -371q-139 -145 -318 -141q-188 0 -268 141q-141 -141 -326 -141q-168 0 -264 127q-92 127 -57.5 319.5t170.5 319.5q139 129 309 129q133 0 221 -80l10 57h246l-92 -530q-8 -51 18.5 -85t73.5 -34 q74 0 135.5 77t81.5 200q45 258 -123 448.5t-461 190.5q-299 0 -530 -199q-236 -201 -287 -494q-51 -295 111 -493.5t457 -198.5q154 0 282 60l25 -217q-178 -78 -365 -78q-385 0 -600 266q-215 268 -145 661q70 395 383 662q311 266 710 266zM907 328q76 0 137.5 49 t83.5 127l11 57q4 78 -40 127t-120 49q-82 0 -147.5 -58t-80 -146.5t29.5 -146.5t126 -58z" />
<glyph unicode="A" horiz-adv-x="1501" d="M236 0h-340l856 1434h268l350 -1434h-338l-55 242h-600zM909 532l-104 443l-258 -443h362z" />
<glyph unicode="B" horiz-adv-x="1382" d="M723 0h-743l251 1434h703q199 0 309 -115q113 -113 82 -285q-27 -168 -180 -284q164 -121 127 -334q-31 -176 -189 -297q-155 -119 -360 -119zM823 590h-413l-52 -291h412q61 0 110.5 42t59.5 103.5t-24 103.5t-93 42zM879 1135h-375l-45 -261h372q55 0 97.5 37t52.5 93 q10 57 -19.5 94t-82.5 37z" />
<glyph unicode="C" horiz-adv-x="1554" d="M961 1460q225 0 387.5 -110.5t220.5 -300.5l-336 -117q-35 100 -121 158.5t-207 58.5q-178 0 -317 -125q-139 -121 -174 -307q-33 -182 63 -309q98 -123 275 -123q121 0 228 58t177 159l295 -117q-121 -184 -326 -299q-199 -113 -428 -113q-322 0 -500 213t-122 531 q55 319 309 530q257 213 576 213z" />
<glyph unicode="D" horiz-adv-x="1505" d="M569 0h-589l251 1434h590q319 0 498 -207q180 -205 127 -510q-51 -303 -305.5 -510t-571.5 -207zM504 1135l-146 -836h263q154 0 280 92q129 92 182 238q18 43 25 88q35 176 -66 297q-96 121 -274 121h-264z" />
<glyph unicode="E" horiz-adv-x="1232" d="M-20 0l251 1434h1072l-54 -299h-745l-45 -263h626l-51 -299h-628l-48 -274h754l-51 -299h-1081z" />
<glyph unicode="F" horiz-adv-x="1216" d="M305 0h-325l251 1434h1072l-54 -299h-745l-45 -267h626l-53 -299h-626z" />
<glyph unicode="G" horiz-adv-x="1630" d="M76 717q57 317 313 530t582 213q227 0 391 -110.5t223 -300.5l-336 -117q-35 102 -123 159.5t-208 57.5q-184 0 -328 -125q-141 -121 -176 -307q-33 -180 61 -307q94 -125 270 -125q123 0 240 67.5t180 177.5h-411l49 277h780q-2 -49 -10 -78q-55 -319 -307 -539 q-248 -217 -572 -217q-313 0 -495 213q-178 214 -123 531z" />
<glyph unicode="H" horiz-adv-x="1462" d="M305 0h-325l251 1434h326l-98 -560h620l99 560h323l-252 -1434h-323l100 575h-620z" />
<glyph unicode="I" horiz-adv-x="518" d="M305 0h-325l251 1434h326z" />
<glyph unicode="J" horiz-adv-x="1189" d="M1243 1434l-160 -899q-39 -240 -237 -402q-197 -160 -451 -160q-158 0 -276.5 68t-175.5 186l299 174q23 -59 79 -94t132 -35q119 0 206 76q92 76 113 187l158 899h313z" />
<glyph unicode="K" horiz-adv-x="1359" d="M305 0h-325l251 1434h326l-102 -580l575 580h410l-692 -701l481 -733h-410l-405 616z" />
<glyph unicode="L" horiz-adv-x="1157" d="M-20 0l251 1434h326l-199 -1135h691l-52 -299h-1017z" />
<glyph unicode="M" horiz-adv-x="1796" d="M301 0h-321l251 1434h322l330 -854l630 854h322l-252 -1434h-321l145 827l-492 -673h-215l-254 673z" />
<glyph unicode="N" horiz-adv-x="1476" d="M444 877l-151 -877h-313l251 1434h289l529 -879l153 879h314l-252 -1434h-289z" />
<glyph unicode="O" horiz-adv-x="1638" d="M198.5 186q-178.5 213 -122.5 531q55 319 309 530q256 213 576 213q322 0 497 -213q178 -213 123 -530q-55 -319 -309 -531q-254 -213 -574 -213q-321 0 -499.5 213zM752 285q178 0 317 123q141 125 174 309q33 182 -65 307q-94 125 -272.5 125t-317.5 -125 q-139 -121 -174 -307q-33 -182 63 -309q99 -123 275 -123z" />
<glyph unicode="P" horiz-adv-x="1323" d="M305 0h-325l251 1434h652q221 0 344 -140q125 -137 88 -342q-33 -207 -209 -344q-170 -137 -393 -137h-326zM829 1135h-325l-64 -365h326q78 0 137.5 52t73.5 130t-28 130.5t-120 52.5z" />
<glyph unicode="Q" horiz-adv-x="1638" d="M698 -27q-322 0 -500 213t-122 531q55 319 309 530q256 213 576 213q322 0 497 -213q178 -213 123 -530q-47 -256 -223 -449l125 -153l-250 -213l-137 168q-189 -97 -398 -97zM752 285q78 0 145 24l-160 195l250 213l172 -209q63 94 84 209q33 182 -65 307 q-94 125 -272.5 125t-317.5 -125q-139 -121 -174 -307q-33 -182 63 -309q99 -123 275 -123z" />
<glyph unicode="R" horiz-adv-x="1378" d="M387 471l-82 -471h-325l251 1434h672q221 0 344 -140q125 -137 88 -342q-25 -135 -112.5 -246.5t-218.5 -173.5l217 -532h-361l-192 471h-281zM850 1135h-346l-64 -365h346q78 0 137.5 52t74 130t-27.5 130.5t-120 52.5z" />
<glyph unicode="S" horiz-adv-x="1234" d="M1192 1124l-336 -75q-4 49 -51 80.5t-119 31.5q-74 0 -130 -32.5t-64 -84.5q-10 -53 45 -86.5t211 -80.5q10 -2 23 -7.5t24 -7.5q29 -8 50 -16t52 -20.5t51.5 -23.5t49 -28.5t45 -35t39 -42t29.5 -51.5t19.5 -60.5t7.5 -70.5t-8 -82q-39 -207 -208 -334 q-168 -125 -410 -125q-217 0 -356 103q-139 100 -154 264l340 78q4 -63 66.5 -104.5t156.5 -41.5q90 0 158 37t78 94q6 39 -27 70q-20 20 -44.5 34.5t-40 21t-75.5 26.5l-22 8q-229 74 -311 135q-158 115 -117 322q35 199 190 317q160 123 379 123q190 0 318 -96 q125 -95 141 -240z" />
<glyph unicode="T" horiz-adv-x="1294" d="M567 1135h-440l51 299h1208l-53 -299h-442l-199 -1135h-323z" />
<glyph unicode="U" horiz-adv-x="1437" d="M1014 582l151 852h324l-150 -854q-47 -258 -258 -432.5t-485 -174.5q-272 0 -422 174q-152 176 -106 433l151 854h324l-150 -852q-20 -131 49 -222q74 -88 207 -88q135 0 238 88q107 91 127 222z" />
<glyph unicode="V" horiz-adv-x="1480" d="M758 0h-269l-342 1434h340l220 -969l557 969h338z" />
<glyph unicode="W" horiz-adv-x="2052" d="M643 0h-266l-230 1434h332l119 -912l430 912h266l113 -912l436 912h332l-731 -1434h-268l-115 866z" />
<glyph unicode="X" horiz-adv-x="1456" d="M547 731l-379 703h387l231 -433l385 433h388l-625 -703l393 -731h-387l-248 461l-409 -461h-387z" />
<glyph unicode="Y" horiz-adv-x="1429" d="M535 590l-388 844h373l230 -539l432 539h370l-692 -836l-104 -598h-324z" />
<glyph unicode="Z" horiz-adv-x="1286" d="M1159 299l-53 -299h-1153l43 250l852 885h-688l51 299h1141l-45 -250l-850 -885h702z" />
<glyph unicode="[" horiz-adv-x="675" d="M238 -100h282l-45 -258h-561l352 1996h561l-47 -258h-280z" />
<glyph unicode="\" horiz-adv-x="1189" d="M432 1636l578 -1994h-260l-578 1994h260z" />
<glyph unicode="]" horiz-adv-x="675" d="M399 -358h-559l45 258h281l262 1480h-281l46 258h559z" />
<glyph unicode="^" horiz-adv-x="1228" d="M113 745l376 689h250l377 -682h-311l-191 338l-192 -345h-309z" />
<glyph unicode="_" horiz-adv-x="501" d="M0 -369v267h502v-267h-502z" />
<glyph unicode="`" horiz-adv-x="710" d="M680 1448l-432 197l172 241l385 -272z" />
<glyph unicode="a" d="M436 -27q-217 0 -334 160q-115 164 -71 399q39 238 213 400q176 160 389 160q162 0 276 -99l13 72h305l-187 -1065h-305l13 74q-144 -101 -312 -101zM350 535q-20 -111 35 -185t155.5 -74t182.5 74t102 185q18 106 -38 179.5t-154 73.5q-100 0 -182.5 -73.5 t-100.5 -179.5z" />
<glyph unicode="b" d="M276 0h-307l271 1536h307l-96 -543q150 98 311 99q215 0 332 -160q117 -158 75 -400q-43 -238 -217 -399q-172 -160 -389 -160q-162 0 -274 99zM375 535q-20 -111 35 -185t155 -74q98 0 180 74q80 72 103 185q18 106 -37 179.5t-156 73.5q-98 0 -180 -73.5t-100 -179.5z " />
<glyph unicode="c" horiz-adv-x="1191" d="M1171 725l-325 -90q-16 70 -69.5 111.5t-131.5 41.5q-106 0 -192 -73q-84 -76 -103 -180q-20 -111 38 -185t165 -74q78 0 147.5 42t108.5 112l295 -90q-88 -162 -254 -266q-162 -100 -350 -101q-244 0 -379 160q-133 164 -90 399q39 240 231 400q190 160 434 160 q188 0 316 -100.5t159 -266.5z" />
<glyph unicode="d" d="M436 -27q-217 0 -334 160q-115 164 -71 399q39 238 213 400q176 160 389 160q166 0 276 -99l97 543h305l-271 -1536h-305l13 74q-144 -101 -312 -101zM350 535q-20 -111 35 -185t155.5 -74t182.5 74t102 185q18 106 -38 179.5t-154 73.5q-100 0 -182.5 -73.5 t-100.5 -179.5z" />
<glyph unicode="e" horiz-adv-x="1220" d="M1128 422h-794q10 -84 71.5 -135t155.5 -51q131 0 227 94l285 -68q-98 -135 -245.5 -212t-315.5 -77q-250 0 -387 160t-94 399q41 240 229 398q193 162 432 162q242 0 373 -162q135 -160 94 -398q-17 -65 -31 -110zM375 649h489q-12 82 -70.5 131t-146.5 49 q-82 0 -156.5 -49t-115.5 -131z" />
<glyph unicode="f" horiz-adv-x="727" d="M561 1143l-14 -78h231l-45 -260h-231l-142 -805h-307l142 805h-154l45 260h154l22 119q27 150 156 250q133 102 301 102h143l-49 -285h-117q-49 0 -88 -31.5t-47 -76.5z" />
<glyph unicode="g" d="M414 -487q-180 0 -312 94q-129 96 -153 237l315 72q16 -49 70.5 -81t126.5 -32q100 0 180 62q82 61 96 153l11 56q-150 -100 -312 -101q-217 0 -334 160q-115 164 -71 399q39 238 213 400q176 160 389 160q162 0 276 -99l13 72h305l-183 -1042q-41 -219 -221 -363 q-180 -147 -409 -147zM350 530q-20 -106 35 -180t156 -74q98 0 180 72q80 72 102 182q20 111 -36 184.5t-154 73.5q-100 0 -182 -73q-83 -72 -101 -185z" />
<glyph unicode="h" horiz-adv-x="1189" d="M381 602l-105 -602h-307l271 1536h307l-103 -582q131 137 322 138q176 0 274.5 -117t67.5 -291l-121 -684h-305l104 602q16 88 -30.5 146.5t-134.5 58.5q-86 0 -156 -59.5t-84 -145.5z" />
<glyph unicode="i" horiz-adv-x="479" d="M276 0h-307l187 1065h307zM389 1518q82 0 126 -53.5t29.5 -135.5t-76.5 -135t-144 -53t-127 53t-31 135q14 80 78.5 134.5t144.5 54.5z" />
<glyph unicode="j" horiz-adv-x="489" d="M168 1065h305l-205 -1171q-27 -152 -159 -252q-133 -102 -304 -103h-96l51 293h74q49 0 88 29.5t47 75.5zM334 1141q-80 0 -125 53t-30.5 135t77.5 135.5t145 53.5t126 -53.5t30 -135.5t-77.5 -135t-145.5 -53z" />
<glyph unicode="k" horiz-adv-x="1107" d="M276 0h-307l271 1536h307l-156 -887l373 416h362l-458 -514l311 -551h-369l-254 455z" />
<glyph unicode="l" horiz-adv-x="479" d="M276 0h-307l271 1536h307z" />
<glyph unicode="m" horiz-adv-x="1810" d="M276 0h-307l187 1065h307l-17 -96q127 123 297 123q102 0 179 -44t116 -120q139 164 351 164q174 0 270 -115q96 -113 70 -281l-121 -696h-308l109 614q14 82 -28 137.5t-117.5 55.5t-137 -55.5t-75.5 -137.5l-109 -614h-307l108 614q14 82 -27.5 137.5t-117.5 55.5 t-137.5 -55.5t-75.5 -135.5v-2z" />
<glyph unicode="n" horiz-adv-x="1177" d="M381 602l-105 -602h-307l187 1065h307l-19 -109q133 135 316 136q174 0 268 -117q98 -117 66 -291l-119 -684h-307l106 602q16 88 -30 146.5t-130 58.5t-150.5 -58.5t-82.5 -146.5z" />
<glyph unicode="o" d="M31 532q41 240 229 398q193 162 436.5 162t378.5 -160t94 -400q-43 -238 -235 -399q-190 -160 -434 -160t-379 160q-133 163 -90 399zM350 532q-23 -109 37 -182q59 -74 166 -74q106 0 188 74q86 74 109 182q18 106 -41 181t-164 75q-106 0 -192 -73q-85 -74 -103 -183z " />
<glyph unicode="p" d="M289 74l-94 -535h-308l269 1526h307l-12 -72q147 98 311 99q215 0 332 -160q117 -158 75 -400q-43 -238 -217 -399q-172 -160 -389 -160q-165 1 -274 101zM373 530q-18 -106 37 -180t155 -74q98 0 180 74q80 72 103 180q18 111 -37 184.5t-156 73.5q-98 0 -180 -73 q-79 -72 -102 -185z" />
<glyph unicode="q" d="M436 -27q-217 0 -334 160q-115 164 -71 399q39 238 213 400q176 160 389 160q162 0 276 -99l13 72h305l-269 -1526h-305l95 535q-150 -101 -312 -101zM350 530q-20 -106 35 -180t156 -74q98 0 180 72q80 72 102 182q20 111 -36 184.5t-154 73.5q-100 0 -182 -73 q-83 -72 -101 -185z" />
<glyph unicode="r" horiz-adv-x="741" d="M463 1065l-19 -111q131 137 351 138l-60 -328q-39 29 -104 29q-92 0 -165 -62.5t-89 -157.5l-101 -573h-307l187 1065h307z" />
<glyph unicode="s" horiz-adv-x="983" d="M944 801l-291 -45q-10 90 -141 90q-121 0 -135 -70q-6 -43 72 -71l180 -62q154 -51 211 -129t34 -199q-31 -166 -162.5 -254t-336.5 -88q-201 0 -303.5 83t-98.5 237l289 39q8 -106 164 -107q137 0 154 78q4 27 -17.5 46.5t-77.5 35.5l-184 57q-141 41 -193.5 115 t-29.5 193q31 170 161 256t328 86q184 0 282.5 -77t94.5 -214z" />
<glyph unicode="t" horiz-adv-x="753" d="M41 799l45 266h145l37 207h307l-36 -207h241l-47 -266h-239l-72 -400q-8 -49 19.5 -80.5t76.5 -31.5h127l-51 -287h-176q-158 0 -250 96q-90 100 -64 244l82 459h-145z" />
<glyph unicode="u" horiz-adv-x="1177" d="M371 -27q-172 0 -271 117q-96 119 -63 291l119 684h307l-107 -602q-16 -88 30 -146.5t130 -58.5t150.5 58.5t83.5 146.5l104 602h307l-186 -1065h-307l18 109q-133 -136 -315 -136z" />
<glyph unicode="v" horiz-adv-x="1171" d="M322 0l-240 1065h317l138 -680l374 680h318l-613 -1065h-294z" />
<glyph unicode="w" horiz-adv-x="1591" d="M512 0h-281l-149 1065h309l62 -590l270 590h283l63 -592l270 592h310l-525 -1065h-278l-68 561z" />
<glyph unicode="x" horiz-adv-x="1169" d="M680 0l-158 309l-266 -309h-360l485 549l-277 516h359l143 -277l238 277h358l-454 -516l290 -549h-358z" />
<glyph unicode="y" horiz-adv-x="1130" d="M-47 -461h-37l51 293h39q203 0 285 160l8 16l-217 1057h317l117 -655l354 655h318l-660 -1176q-106 -184 -242 -267t-333 -83z" />
<glyph unicode="z" horiz-adv-x="1005" d="M827 0h-884l39 211l550 573h-440l47 281h865l-35 -211l-553 -573h461z" />
<glyph unicode="{" horiz-adv-x="733" d="M741 1638h144l-47 -254h-115q-49 0 -88 -33.5t-49 -82.5l-60 -338q-18 -115 -89.5 -190.5t-180.5 -100.5q100 -23 145 -98.5t25 -190.5l-61 -336q-8 -51 19.5 -84.5t76.5 -33.5h114l-43 -254h-143q-158 0 -244 106q-86 104 -59 260l59 338q6 49 -27.5 92t-80.5 62l-43 14 l45 250q14 2 65 24q129 59 146 146l59 338q27 156 150 260q124 106 282 106z" />
<glyph unicode="|" horiz-adv-x="423" d="M330 -358h-236v1996h236v-1996z" />
<glyph unicode="}" horiz-adv-x="733" d="M147 1384l46 254h143q158 0 244 -106q86 -104 59 -260l-59 -338q-10 -49 24.5 -92t83.5 -62l43 -16l-45 -250l-53 -18q-31 -8 -92 -54q-55 -41 -66 -96l-59 -338q-29 -158 -152 -260q-121 -106 -280 -106h-144l43 254h115q51 0 90 33.5t49 84.5l62 336q20 115 91.5 190.5 t178.5 98.5q-100 25 -145 99.5t-25 191.5l59 338q8 49 -19.5 82.5t-76.5 33.5h-115z" />
<glyph unicode="~" horiz-adv-x="1228" d="M780 522q-80 0 -189.5 60.5t-131.5 60.5q-37 0 -63.5 -30.5t-26.5 -75.5h-256q0 160 98 268q98 111 238 110q90 -4 190 -63q102 -59 131 -59q37 0 62.5 30.5t25.5 75.5h258q0 -162 -98 -268q-99 -109 -238 -109z" />
<glyph unicode="&#xa1;" horiz-adv-x="518" d="M127 918q14 76 72.5 125t132.5 49q76 0 116.5 -49.5t26.5 -124.5q-12 -74 -70.5 -124.5t-134.5 -50.5q-74 0 -114.5 50.5t-28.5 124.5zM-86 -369l209 975h252l-135 -975h-326z" />
<glyph unicode="&#xa2;" horiz-adv-x="1191" d="M391 -53l39 219q-197 33 -303 186q-102 154 -66 365q37 215 193 364q160 154 371 187l39 219h206l-39 -219q150 -27 248.5 -122t124.5 -237l-325 -90q-16 70 -69.5 112t-131.5 42q-106 0 -193 -74q-82 -70 -104 -180q-18 -111 40 -184.5t165 -73.5q78 0 145.5 42 t110.5 111l295 -90q-78 -141 -210 -236t-290 -122l-39 -219h-207z" />
<glyph unicode="&#xa3;" horiz-adv-x="1261" d="M1049 0h-1108l53 299h156l51 293h-127l35 203h127l34 194q33 188 185 322q150 131 346 147q10 2 43 2q174 0 301 -102q129 -104 149 -256l-327 -86q-10 63 -58.5 104t-113.5 41q-76 0 -137.5 -50t-73.5 -122l-35 -194h360l-35 -203h-360l-51 -293h637z" />
<glyph unicode="&#xa4;" horiz-adv-x="1163" d="M262 236l-168 165l144 144q-39 80 -39 172t43 176l-148 145l168 166l146 -145q80 39 172 39q96 0 174 -41l147 147l166 -166l-147 -147q39 -76 38 -174q0 -100 -38 -170l145 -146l-164 -165l-145 143q-82 -43 -176.5 -43t-176.5 43zM434 717q0 -61 42 -103.5t103.5 -42.5 t103.5 42t42 103.5t-42 103.5t-103.5 42t-103.5 -41t-42 -104z" />
<glyph unicode="&#xa5;" horiz-adv-x="1429" d="M289 618h233l-375 816h373l232 -539l430 539h370l-675 -816h239l-35 -202h-252l-12 -72h250l-37 -205h-250l-24 -139h-324l25 139h-252l37 205h250l12 72h-250z" />
<glyph unicode="&#xa6;" horiz-adv-x="423" d="M330 1638v-831h-236v831h236zM94 -358v831h236v-831h-236z" />
<glyph unicode="&#xa7;" horiz-adv-x="968" d="M301 -393q-170 0 -276.5 93t-112.5 247l293 82q0 -72 40 -117t107 -45q63 0 112.5 38t59.5 95q12 86 -55 119l-231 112q-219 111 -179 353q25 135 127 237q-68 96 -43 242q31 170 168 283q139 115 318 114q154 0 255 -88t111 -229l-290 -84q0 61 -34 101t-89 40 q-53 0 -96.5 -38t-53.5 -93q-16 -86 37 -108l238 -109q111 -51 162 -146.5t30 -213.5q-25 -135 -131 -238q70 -94 47 -242q-35 -178 -178 -291q-146 -114 -336 -114zM545 612l-154 72q-12 -4 -27.5 -33.5t-21.5 -60.5q-16 -90 45 -117l166 -80q47 35 55 90q17 92 -63 129z " />
<glyph unicode="&#xa8;" horiz-adv-x="909" d="M240 1599q10 70 65 116t125 46t107.5 -46t25.5 -116q-14 -70 -67.5 -115.5t-123 -45.5t-108 45.5t-24.5 115.5zM676 1599q10 70 65.5 116t122.5 46q70 0 109 -46t26 -116q-14 -70 -67 -115.5t-123 -45.5t-108.5 45.5t-24.5 115.5z" />
<glyph unicode="&#xa9;" horiz-adv-x="1603" d="M803 1452q303 0 518 -217q215 -215 215 -518t-215 -520q-215 -215 -518 -215q-305 0 -520 215t-215 520t215 520t520 215zM803 98q252 0 434 182.5t182 436.5t-182 436t-434 182q-256 0 -438 -182q-180 -180 -181 -436q0 -258 180.5 -438.5t438.5 -180.5zM813 1126 q129 0 231.5 -61t151.5 -168l-186 -68q-57 113 -197 113q-94 0 -156.5 -63.5t-62.5 -159.5t62.5 -160.5t156.5 -64.5q135 0 197 110l186 -69q-51 -104 -152.5 -166t-230.5 -62q-178 0 -299 117q-119 119 -119 293t119 291q119 118 299 118z" />
<glyph unicode="&#xaa;" horiz-adv-x="856" d="M371 678q-145 0 -224 110q-76 111 -49 273q29 164 146 274q119 111 262 111q113 0 190 -74l11 62h233l-131 -746h-234l11 64q-102 -74 -215 -74zM344 1063q-12 -66 22.5 -112t96.5 -46q59 0 110.5 46t63.5 112q10 63 -24.5 108.5t-94.5 45.5q-61 0 -112.5 -45.5 t-61.5 -108.5z" />
<glyph unicode="&#xab;" horiz-adv-x="1173" d="M365 123l-336 409l479 410l143 -174l-276 -236l194 -235zM838 123l-336 409l481 410l141 -174l-276 -236l194 -235z" />
<glyph unicode="&#xac;" horiz-adv-x="1228" d="M856 305v277h-743v272h1003v-549h-260z" />
<glyph unicode="&#xad;" horiz-adv-x="819" d="M66 397l47 273h594l-48 -273h-593z" />
<glyph unicode="&#xae;" horiz-adv-x="1603" d="M803 1452q303 0 518 -217q215 -215 215 -518t-215 -520q-215 -215 -518 -215q-305 0 -520 215t-215 520t215 520t520 215zM803 98q252 0 434 182.5t182 436.5t-182 436t-434 182q-256 0 -438 -182q-180 -180 -181 -436q0 -258 180.5 -438.5t438.5 -180.5zM674 319h-195 v795h375q127 0 211 -78q86 -78 86 -196q0 -156 -141 -234l166 -287h-213l-144 248h-145v-248zM854 940h-180v-197h180q43 0 70.5 28t27.5 69q0 43 -27.5 71.5t-70.5 28.5z" />
<glyph unicode="&#xaf;" horiz-adv-x="788" d="M862 1499h-641l41 227h639z" />
<glyph unicode="&#xb0;" horiz-adv-x="856" d="M145 1186q27 160 156 268q127 109 287 109q158 0 248 -109q88 -106 59 -268q-31 -166 -156 -272.5t-286 -106.5q-158 0 -248 108q-89 105 -60 271zM393 1186q-10 -53 20.5 -90t84 -37t97.5 37t52 90q10 53 -20.5 90t-84 37t-97.5 -37t-52 -90z" />
<glyph unicode="&#xb1;" horiz-adv-x="1228" d="M479 719h-366v274h366v365h273v-365h364v-274h-364v-287h-273v287zM113 76v272h1003v-272h-1003z" />
<glyph unicode="&#xb2;" horiz-adv-x="653" d="M524 1292q6 33 -17.5 54.5t-64.5 21.5q-88 0 -145 -100l-156 84q57 90 146.5 142t187.5 52q119 0 191 -73q72 -72 53 -173q-23 -123 -221 -276l-125 -100h284l-30 -176h-570l25 135l326 262q108 84 116 147z" />
<glyph unicode="&#xb3;" horiz-adv-x="665" d="M528 1294q6 31 -19.5 52.5t-72.5 21.5q-86 0 -127 -59l-153 53q51 84 138 134t187 50q119 0 191 -71q70 -70 51 -179q-14 -86 -111 -139q96 -53 78 -164q-23 -113 -121 -184q-100 -72 -229 -72q-109 0 -181.5 54.5t-86.5 142.5l184 61q0 -35 29.5 -57.5t79.5 -22.5 q51 0 89 25t44 59q8 35 -22 58.5t-79 23.5h-61l24 138h39q49 0 86 21t43 54z" />
<glyph unicode="&#xb4;" horiz-adv-x="710" d="M307 1448l-65 166l479 272l90 -241z" />
<glyph unicode="&#xb5;" horiz-adv-x="1177" d="M494 -27q-63 0 -123 19v-453h-285v1526h307v-602q0 -88 55.5 -146.5t139.5 -58.5t140 58.5t56 146.5v602h308v-1065h-308v109q-108 -136 -290 -136z" />
<glyph unicode="&#xb6;" horiz-adv-x="1431" d="M123 1004q33 184 178 307t328 123h891l-39 -224h-197l-276 -1568h-236l277 1568h-224l-276 -1568h-236l166 933q-184 0 -286 123q-103 126 -70 306z" />
<glyph unicode="&#xb7;" horiz-adv-x="460" d="M414 717q-14 -76 -71.5 -125t-133.5 -49t-116 49t-27.5 125t71 125t134 49t115.5 -49t28 -125z" />
<glyph unicode="&#xb8;" horiz-adv-x="643" d="M47 -174l74 174h209l-35 -82q10 0 36.5 -10t56.5 -52t20 -104q-16 -94 -105.5 -156.5t-206.5 -62.5q-115 0 -186 49l-23 19l52 137q45 -43 131 -43q51 0 89 17.5t42 43.5q4 25 -31 42.5t-82 23.5z" />
<glyph unicode="&#xb9;" horiz-adv-x="501" d="M344 1325l-141 -59l-39 155l268 115h131l-139 -788h-182z" />
<glyph unicode="&#xba;" horiz-adv-x="858" d="M432 678q-174 0 -268 110q-94 109 -66 273q27 160 164 272q133 113 305 113t267 -113q94 -111 67 -272q-27 -160 -164 -273q-135 -110 -305 -110zM342 1061q-10 -63 27 -109.5t104 -46.5q63 0 116.5 46t65.5 110q10 63 -27.5 109.5t-101.5 46.5q-66 0 -119 -46.5 t-65 -109.5z" />
<glyph unicode="&#xbb;" horiz-adv-x="1173" d="M762 942l338 -410l-484 -409l-141 174l277 235l-195 236zM287 942l340 -410l-484 -409l-141 174l277 235l-195 236z" />
<glyph unicode="&#xbc;" horiz-adv-x="1677" d="M1350 514l-201 -197h166zM1260 0l24 141h-385l10 49l21 129l479 469h176l-84 -471h88l-30 -176h-89l-24 -141h-186zM223 645l101 578l-138 -60l-41 156l269 115h131l-139 -789h-183zM1554 1434l-1257 -1434h-256l1259 1434h254z" />
<glyph unicode="&#xbd;" horiz-adv-x="1728" d="M223 645l101 578l-138 -60l-41 156l269 115h131l-139 -789h-183zM1554 1434l-1257 -1434h-256l1259 1434h254zM1468 545q6 33 -18.5 54.5t-63.5 21.5q-90 0 -147 -101l-156 84q57 90 146.5 142.5t187.5 52.5q119 0 191 -74q72 -70 55 -172q-25 -127 -223 -277l-125 -100 h287l-31 -176h-570l23 135l328 262q106 82 116 148z" />
<glyph unicode="&#xbe;" horiz-adv-x="1814" d="M430 0h-254l1258 1434h254zM1399 0l24 141h-385l31 178l479 469h176l-84 -471h89l-31 -176h-88l-25 -141h-186zM324 635q-111 0 -183.5 54t-87.5 142l185 62q0 -35 29.5 -57.5t78.5 -22.5q51 0 90 24.5t43 59.5q8 35 -21.5 58.5t-78.5 23.5h-60v8l23 123v6h39 q49 0 87 21.5t42 54.5q6 31 -19.5 52.5t-72.5 21.5q-86 0 -127 -60l-154 54q51 84 138 134t188 50q119 0 190 -72q70 -70 52 -178q-16 -88 -109 -139q29 -16 53 -47q33 -43 23 -117q-23 -113 -121 -184q-100 -72 -227 -72zM1489 516l-199 -199h164z" />
<glyph unicode="&#xbf;" horiz-adv-x="1206" d="M283 61q-12 -70 46 -118.5t156 -48.5q86 0 156 38.5t102 102.5l297 -86q-76 -156 -241 -256q-164 -98 -361 -99q-233 0 -370 134q-133 133 -99 335q16 92 68.5 172t120.5 125q143 96 231 119l41 10l35 109h258l-16 -281q-39 -4 -140 -36q-57 -18 -125 -52 q-59 -29 -105 -75t-54 -93zM834 909q-12 -78 -75 -130t-140.5 -52t-120.5 52t-29 130t75.5 130.5t139.5 52.5t121 -52.5t29 -130.5z" />
<glyph unicode="&#xc0;" horiz-adv-x="1501" d="M236 0h-340l856 1434h268l350 -1434h-338l-55 242h-600zM1004 1542l-433 197l172 241l385 -272zM909 532l-104 443l-258 -443h362z" />
<glyph unicode="&#xc1;" horiz-adv-x="1501" d="M236 0h-340l856 1434h268l350 -1434h-338l-55 242h-600zM1300 1739l-501 -197l-68 166l479 272zM909 532l-104 443l-258 -443h362z" />
<glyph unicode="&#xc2;" horiz-adv-x="1501" d="M236 0h-340l856 1434h268l350 -1434h-338l-55 242h-600zM629 1534l-80 158l424 272h14l326 -272l-135 -156l-246 156zM909 532l-104 443l-258 -443h362z" />
<glyph unicode="&#xc3;" horiz-adv-x="1501" d="M377 242l-141 -242h-340l856 1434h268l350 -1434h-338l-55 242h-600zM756 1579h-203q18 109 104 184q88 80 189 80q63 0 119 -43q57 -41 73 -41q23 0 44.5 21.5t27.5 52.5h205q-23 -113 -105 -188.5t-186 -75.5q-63 0 -120.5 41t-74.5 41q-25 0 -47 -20.5t-26 -51.5z M909 532l-104 443l-258 -443h362z" />
<glyph unicode="&#xc4;" horiz-adv-x="1501" d="M236 0h-340l856 1434h268l350 -1434h-338l-55 242h-600zM553 1694q10 70 64.5 115.5t124 45.5t107.5 -46t28 -115q-12 -70 -66.5 -116t-124.5 -46t-108.5 46t-24.5 116zM989 1694q10 70 64.5 115.5t124 45.5t107.5 -46t28 -115q-12 -70 -67.5 -116t-125.5 -46 q-68 0 -106.5 46t-24.5 116zM909 532l-104 443l-258 -443h362z" />
<glyph unicode="&#xc5;" horiz-adv-x="1501" d="M236 0h-340l856 1434h268l350 -1434h-338l-55 242h-600zM696 1776q18 102 104.5 175.5t190.5 73.5q102 0 162 -73q61 -74 43 -176q-18 -104 -104 -179q-88 -72 -189 -71q-104 0 -164.5 73t-42.5 177zM909 532l-104 443l-258 -443h362zM934 1712q29 0 50.5 18.5t25.5 45.5 q6 27 -9.5 45t-44.5 18q-27 0 -48 -18.5t-25 -44.5q-4 -29 10 -46.5t41 -17.5z" />
<glyph unicode="&#xc6;" horiz-adv-x="2097" d="M260 0h-364l1116 1434h1149l-52 -299h-686l-45 -263h568l-54 -299h-567l-47 -274h694l-53 -299h-1018l43 242h-500zM668 532h327l97 558z" />
<glyph unicode="&#xc7;" horiz-adv-x="1554" d="M545 -174l63 151q-285 35 -434 240q-152 207 -98 500q55 319 309 530q256 213 576 213q225 0 387.5 -110.5t220.5 -300.5l-336 -117q-35 100 -121 158.5t-207 58.5q-178 0 -317 -125q-139 -121 -174 -307q-33 -182 63 -309q98 -123 275 -123q121 0 228 58t177 159 l295 -117q-104 -162 -273 -269.5t-360 -133.5l-24 -64q6 -2 14 -4t30.5 -14.5t38 -28.5t24.5 -48t3 -71q-14 -94 -104 -155q-88 -63 -205 -64q-119 0 -186 49l-25 19l53 137q45 -43 131 -43q51 0 89 17.5t42 43.5q4 25 -31.5 42.5t-82.5 23.5z" />
<glyph unicode="&#xc8;" horiz-adv-x="1232" d="M1061 0h-1081l251 1434h1072l-54 -299h-745l-45 -263h626l-51 -299h-628l-48 -274h754zM1006 1708l-125 -166l-432 197l172 241z" />
<glyph unicode="&#xc9;" horiz-adv-x="1232" d="M1061 0h-1081l251 1434h1072l-54 -299h-745l-45 -263h626l-51 -299h-628l-48 -274h754zM1178 1739l-502 -197l-68 166l482 272z" />
<glyph unicode="&#xca;" horiz-adv-x="1232" d="M-20 0l251 1434h1072l-54 -299h-745l-45 -263h626l-51 -299h-628l-48 -274h754l-51 -299h-1081zM809 1692l-301 -158l-80 158l422 272h14l328 -272l-137 -156z" />
<glyph unicode="&#xcb;" horiz-adv-x="1232" d="M1061 0h-1081l251 1434h1072l-54 -299h-745l-45 -263h626l-51 -299h-628l-48 -274h754zM866 1694q10 70 64.5 115.5t124 45.5t108.5 -46t27 -115.5t-66.5 -115.5t-124 -46t-107.5 46t-26 116zM430 1694q10 70 64.5 115.5t124 45.5t108.5 -46t26.5 -115.5t-66.5 -115.5 t-123.5 -46t-107.5 46t-26 116z" />
<glyph unicode="&#xcc;" horiz-adv-x="518" d="M305 0h-325l251 1434h326zM512 1542l-432 197l172 241l385 -272z" />
<glyph unicode="&#xcd;" horiz-adv-x="518" d="M305 0h-325l251 1434h326zM307 1542l-67 166l479 272l90 -241z" />
<glyph unicode="&#xce;" horiz-adv-x="518" d="M305 0h-325l251 1434h326zM139 1534l-80 158l422 272h15l327 -272l-137 -156l-246 156z" />
<glyph unicode="&#xcf;" horiz-adv-x="518" d="M305 0h-325l251 1434h326zM61 1694q10 70 64.5 115.5t124 45.5t107.5 -46t28 -115q-12 -70 -66.5 -116t-124 -46t-107.5 46t-26 116zM498 1694q10 70 64 115.5t124 45.5t107.5 -46t27.5 -115q-12 -70 -67.5 -116t-124.5 -46q-68 0 -105.5 46t-25.5 116z" />
<glyph unicode="&#xd0;" horiz-adv-x="1560" d="M137 586h-135l47 262h135l103 586h590q322 0 499 -207q180 -205 127 -510q-51 -303 -305 -510t-573 -207h-590zM856 848l-45 -262h-346l-51 -287h264q176 0 315 121q141 119 172 297q31 176 -67 297q-96 121 -273 121h-264l-51 -287h346z" />
<glyph unicode="&#xd1;" horiz-adv-x="1476" d="M293 0h-313l251 1434h289l529 -879l153 879h314l-252 -1434h-289l-531 877zM745 1579h-204q18 109 106 184q90 80 189 80q63 0 118 -43q57 -41 72 -41q25 0 46.5 21.5t27.5 52.5h205q-20 -109 -107 -188q-82 -76 -186 -76q-63 0 -121 41q-53 41 -72 41q-25 0 -47.5 -20.5 t-26.5 -51.5z" />
<glyph unicode="&#xd2;" horiz-adv-x="1638" d="M198.5 186q-178.5 213 -122.5 531q55 319 309 530q256 213 576 213q322 0 497 -213q178 -213 123 -530q-55 -319 -309 -531q-254 -213 -574 -213q-321 0 -499.5 213zM752 285q178 0 317 123q141 125 174 309q33 182 -65 307q-94 125 -272.5 125t-317.5 -125 q-139 -121 -174 -307q-33 -182 63 -309q99 -123 275 -123zM1073 1542l-432 197l172 241l385 -272z" />
<glyph unicode="&#xd3;" horiz-adv-x="1638" d="M198.5 186q-178.5 213 -122.5 531q55 319 309 530q256 213 576 213q322 0 497 -213q178 -213 123 -530q-55 -319 -309 -531q-254 -213 -574 -213q-321 0 -499.5 213zM752 285q178 0 317 123q141 125 174 309q33 182 -65 307q-94 125 -272.5 125t-317.5 -125 q-139 -121 -174 -307q-33 -182 63 -309q99 -123 275 -123zM868 1542l-67 166l479 272l90 -241z" />
<glyph unicode="&#xd4;" horiz-adv-x="1638" d="M198.5 186q-178.5 213 -122.5 531q55 319 309 530q256 213 576 213q322 0 497 -213q178 -213 123 -530q-55 -319 -309 -531q-254 -213 -574 -213q-321 0 -499.5 213zM752 285q178 0 317 123q141 125 174 309q33 182 -65 307q-94 125 -272.5 125t-317.5 -125 q-139 -121 -174 -307q-33 -182 63 -309q99 -123 275 -123zM698 1534l-80 158l422 272h15l327 -272l-137 -156l-244 156z" />
<glyph unicode="&#xd5;" horiz-adv-x="1638" d="M198.5 186q-178.5 213 -122.5 531q55 319 309 530q256 213 576 213q322 0 497 -213q178 -213 123 -530q-55 -319 -309 -531q-254 -213 -574 -213q-321 0 -499.5 213zM752 285q178 0 317 123q141 125 174 309q33 182 -65 307q-94 125 -272.5 125t-317.5 -125 q-139 -121 -174 -307q-33 -182 63 -309q99 -123 275 -123zM825 1579h-202q16 109 104 184q90 80 188 80q63 0 119 -43q57 -41 74 -41q23 0 44.5 21.5t27.5 52.5h204q-23 -113 -106 -188q-82 -76 -186 -76q-63 0 -121 41q-53 41 -72 41q-25 0 -47.5 -20.5t-26.5 -51.5z" />
<glyph unicode="&#xd6;" horiz-adv-x="1638" d="M198.5 186q-178.5 213 -122.5 531q55 319 309 530q256 213 576 213q322 0 497 -213q178 -213 123 -530q-55 -319 -309 -531q-254 -213 -574 -213q-321 0 -499.5 213zM752 285q178 0 317 123q141 125 174 309q33 182 -65 307q-94 125 -272.5 125t-317.5 -125 q-139 -121 -174 -307q-33 -182 63 -309q99 -123 275 -123zM623 1694q10 70 64 115.5t124 45.5t107.5 -46t27.5 -115q-14 -70 -67.5 -116t-123 -46t-108 46t-24.5 116zM1059 1694q10 70 64.5 115.5t121.5 45.5q70 0 109 -46t28 -115q-14 -70 -68 -116t-124 -46 q-68 0 -106.5 46t-24.5 116z" />
<glyph unicode="&#xd7;" horiz-adv-x="1228" d="M420 717l-303 301l192 194l305 -301l306 303l192 -192l-303 -305l303 -301l-192 -195l-306 303l-305 -303l-192 195z" />
<glyph unicode="&#xd8;" horiz-adv-x="1638" d="M160 76l69 80q-215 213 -153 561q55 319 309 530q256 213 576 213q186 0 337 -80l72 80l131 -102l-69 -80q211 -217 149 -561q-55 -319 -309 -531q-254 -213 -574 -213q-190 0 -338 80l-71 -80zM1194 1006l-602 -687q76 -35 160 -34q178 0 317 123q141 125 174 309 q35 166 -49 289zM465 426l602 688q-76 35 -162 35q-178 0 -317 -125q-139 -121 -174 -307q-31 -172 51 -291z" />
<glyph unicode="&#xd9;" horiz-adv-x="1437" d="M1014 582l151 852h324l-150 -854q-47 -258 -258 -432.5t-485 -174.5q-272 0 -422 174q-152 176 -106 433l151 854h324l-150 -852q-20 -131 49 -222q74 -88 207 -88q135 0 238 88q107 91 127 222zM971 1542l-432 197l174 241l383 -272z" />
<glyph unicode="&#xda;" horiz-adv-x="1437" d="M1014 582l151 852h324l-150 -854q-47 -258 -258 -432.5t-485 -174.5q-272 0 -422 174q-152 176 -106 433l151 854h324l-150 -852q-20 -131 49 -222q74 -88 207 -88q135 0 238 88q107 91 127 222zM766 1542l-66 166l480 272l90 -241z" />
<glyph unicode="&#xdb;" horiz-adv-x="1437" d="M1014 582l151 852h324l-150 -854q-47 -258 -258 -432.5t-485 -174.5q-272 0 -422 174q-152 176 -106 433l151 854h324l-150 -852q-20 -131 49 -222q74 -88 207 -88q135 0 238 88q107 91 127 222zM598 1534l-80 158l422 272h14l328 -272l-137 -156l-246 156z" />
<glyph unicode="&#xdc;" horiz-adv-x="1437" d="M1014 582l151 852h324l-150 -854q-47 -258 -258 -432.5t-485 -174.5q-272 0 -422 174q-152 176 -106 433l151 854h324l-150 -852q-20 -131 49 -222q74 -88 207 -88q135 0 238 88q107 91 127 222zM846 1694q-14 -70 -68.5 -116t-124.5 -46q-68 0 -106 45q-39 47 -27 116.5 t66 114.5q61 47 124.5 48.5t107.5 -45.5t28 -117zM1145 1855q70 0 108.5 -46t28.5 -115q-14 -70 -68.5 -116t-123.5 -46q-68 0 -107 46t-26.5 115.5t66.5 115.5t122 46z" />
<glyph unicode="&#xdd;" horiz-adv-x="1429" d="M535 590l-388 844h373l230 -539l432 539h370l-692 -836l-104 -598h-324zM764 1542l-66 166l480 272l88 -241z" />
<glyph unicode="&#xde;" horiz-adv-x="1323" d="M305 0h-325l251 1434h326l-41 -236h326q221 0 344 -139q125 -137 88 -342t-209 -344q-170 -137 -393 -137h-326zM788 899h-325l-64 -364h324q78 0 138.5 52t74.5 130t-28 130t-120 52z" />
<glyph unicode="&#xdf;" horiz-adv-x="1224" d="M662 1264q-70 0 -124.5 -43t-66.5 -109l-195 -1112h-307l205 1165q27 168 182.5 283t354.5 115q188 0 297 -103q113 -102 84 -256q-20 -115 -106.5 -196.5t-96.5 -137.5q-10 -66 88 -153q51 -43 83 -81t54.5 -116t5.5 -172q-33 -193 -189.5 -280.5t-469.5 -87.5l53 299 q164 0 227.5 21.5t71.5 74.5q12 74 -88 145q-45 37 -63.5 55.5t-51 59.5t-41 92t1.5 113q10 68 43 124t66 87.5t61.5 65.5t32.5 59q8 37 -26.5 62.5t-85.5 25.5z" />
<glyph unicode="&#xe0;" d="M436 -27q-217 0 -334 160q-115 164 -71 399q39 238 213 400q176 160 389 160q162 0 276 -99l13 72h305l-187 -1065h-305l13 74q-144 -101 -312 -101zM350 535q-20 -111 35 -185t155.5 -74t182.5 74t102 185q18 106 -38 179.5t-154 73.5q-100 0 -182.5 -73.5 t-100.5 -179.5zM946 1360l-125 -166l-432 197l172 241z" />
<glyph unicode="&#xe1;" d="M436 -27q-217 0 -334 160q-115 164 -71 399q39 238 213 400q176 160 389 160q162 0 276 -99l13 72h305l-187 -1065h-305l13 74q-144 -101 -312 -101zM350 535q-20 -111 35 -185t155.5 -74t182.5 74t102 185q18 106 -38 179.5t-154 73.5q-100 0 -182.5 -73.5 t-100.5 -179.5zM1120 1391l-504 -197l-65 166l479 272z" />
<glyph unicode="&#xe2;" d="M436 -27q-217 0 -334 160q-115 164 -71 399q39 238 213 400q176 160 389 160q162 0 276 -99l13 72h305l-187 -1065h-305l13 74q-144 -101 -312 -101zM350 535q-20 -111 35 -185t155.5 -74t182.5 74t102 185q18 106 -38 179.5t-154 73.5q-100 0 -182.5 -73.5 t-100.5 -179.5zM750 1343l-301 -157l-80 157l422 273h14l328 -273l-138 -155z" />
<glyph unicode="&#xe3;" d="M436 -27q-217 0 -334 160q-115 164 -71 399q39 238 213 400q176 160 389 160q162 0 276 -99l13 72h305l-187 -1065h-305l13 74q-144 -101 -312 -101zM350 535q-20 -111 35 -185t155.5 -74t182.5 74t102 185q18 106 -38 179.5t-154 73.5q-100 0 -182.5 -73.5 t-100.5 -179.5zM575 1231h-204q18 109 106 184q88 80 189 80q63 0 118 -43q57 -41 72 -41q25 0 46.5 21.5t27.5 52.5h203q-23 -113 -105 -188.5t-186 -75.5q-63 0 -121 41q-53 41 -72 41q-25 0 -47.5 -20.5t-26.5 -51.5z" />
<glyph unicode="&#xe4;" d="M436 -27q-217 0 -334 160q-115 164 -71 399q39 238 213 400q176 160 389 160q162 0 276 -99l13 72h305l-187 -1065h-305l13 74q-144 -101 -312 -101zM350 535q-20 -111 35 -185t155.5 -74t182.5 74t102 185q18 106 -38 179.5t-154 73.5q-100 0 -182.5 -73.5 t-100.5 -179.5zM627 1229q-53 -45 -123 -45t-109 45q-37 47 -24.5 116.5t65.5 114.5q55 47 125 47t107 -47q39 -45 26.5 -114.5t-67.5 -116.5zM995 1507q70 0 109 -46t26.5 -115.5t-66.5 -115.5t-124 -46t-107.5 46t-25.5 115.5t66 115.5t122 46z" />
<glyph unicode="&#xe5;" d="M436 -27q-217 0 -334 160q-115 164 -71 399q39 238 213 400q176 160 389 160q162 0 276 -99l13 72h305l-187 -1065h-305l13 74q-144 -101 -312 -101zM514 1427q23 106 104 177q86 74 190.5 73.5t162.5 -73.5q61 -74 43 -177q-18 -104 -105 -178q-88 -72 -188 -71 q-102 0 -164 71q-57 74 -43 178zM350 535q-20 -111 35 -185t155.5 -74t182.5 74t102 185q18 106 -38 179.5t-154 73.5q-100 0 -182.5 -73.5t-100.5 -179.5zM700 1427q-4 -27 10.5 -45t43.5 -18q27 0 48 18.5t25 44.5q6 27 -8 45.5t-43 18.5q-62 -1 -76 -64z" />
<glyph unicode="&#xe6;" horiz-adv-x="2019" d="M432 -27q-213 0 -330 160q-115 164 -71 399q39 238 213 400q172 160 385 160q170 0 278 -105l15 78h305l-13 -72q150 98 320 99q221 0 340 -162q123 -160 82 -398q-10 -61 -31 -110h-792q10 -84 71.5 -135t155.5 -51q131 0 227 94l285 -68q-92 -135 -229.5 -212 t-294.5 -77q-176 0 -295 101l-13 -74h-305l15 80q-146 -107 -318 -107zM350 535q-20 -111 35 -185t155.5 -74t182.5 74t102 185q18 106 -38 179.5t-154 73.5q-100 0 -182.5 -73.5t-100.5 -179.5zM1174 649h489q-12 82 -70.5 131t-146.5 49q-82 0 -156.5 -49t-115.5 -131z " />
<glyph unicode="&#xe7;" horiz-adv-x="1191" d="M346 -174l66 154q-207 31 -313.5 184t-67.5 368q39 240 231 400q190 160 434 160q188 0 316.5 -100.5t158.5 -266.5l-325 -90q-16 70 -69.5 111.5t-131.5 41.5q-106 0 -192 -73q-84 -76 -103 -180q-20 -111 38 -185t165 -74q78 0 147.5 42t108.5 112l295 -90 q-74 -137 -201 -231.5t-280 -122.5l-27 -68q6 -2 14 -4t31 -14.5t38 -28.5t24.5 -48t3.5 -71q-16 -94 -104.5 -156.5t-205 -62.5t-188.5 49l-23 19l54 137q43 -43 129 -43q51 0 89 17.5t42 43.5q4 25 -31 42.5t-82 23.5z" />
<glyph unicode="&#xe8;" horiz-adv-x="1220" d="M1128 422h-794q10 -84 71.5 -135t155.5 -51q131 0 227 94l285 -68q-98 -135 -245.5 -212t-315.5 -77q-250 0 -387 160t-94 399q41 240 229 398q193 162 432 162q242 0 373 -162q135 -160 94 -398q-17 -65 -31 -110zM375 649h489q-12 82 -70.5 131t-146.5 49 q-82 0 -156.5 -49t-115.5 -131zM813 1194l-432 197l172 241l385 -272z" />
<glyph unicode="&#xe9;" horiz-adv-x="1220" d="M1128 422h-794q10 -84 71.5 -135t155.5 -51q131 0 227 94l285 -68q-98 -135 -245.5 -212t-315.5 -77q-250 0 -387 160t-94 399q41 240 229 398q193 162 432 162q242 0 373 -162q135 -160 94 -398q-17 -65 -31 -110zM375 649h489q-12 82 -70.5 131t-146.5 49 q-82 0 -156.5 -49t-115.5 -131zM608 1194l-67 166l479 272l90 -241z" />
<glyph unicode="&#xea;" horiz-adv-x="1220" d="M1128 422h-794q10 -84 71.5 -135t155.5 -51q131 0 227 94l285 -68q-98 -135 -245.5 -212t-315.5 -77q-250 0 -387 160t-94 399q41 240 229 398q193 162 432 162q242 0 373 -162q135 -160 94 -398q-17 -65 -31 -110zM375 649h489q-12 82 -70.5 131t-146.5 49 q-82 0 -156.5 -49t-115.5 -131zM438 1186l-80 157l422 273h15l327 -273l-137 -155l-244 155z" />
<glyph unicode="&#xeb;" horiz-adv-x="1220" d="M1128 422h-794q10 -84 71.5 -135t155.5 -51q131 0 227 94l285 -68q-98 -135 -245.5 -212t-315.5 -77q-250 0 -387 160t-94 399q41 240 229 398q193 162 432 162q242 0 373 -162q135 -160 94 -398q-17 -65 -31 -110zM375 649h489q-12 82 -70.5 131t-146.5 49 q-82 0 -156.5 -49t-115.5 -131zM362 1346q10 70 64.5 115.5t124.5 45.5t107.5 -46t27.5 -115q-14 -70 -67.5 -116t-123 -46t-108.5 46t-25 116zM799 1346q10 70 64.5 115.5t121.5 45.5q70 0 109 -46t28 -115q-14 -70 -68.5 -116t-123.5 -46q-68 0 -106.5 46t-24.5 116z" />
<glyph unicode="&#xec;" horiz-adv-x="479" d="M276 0h-307l187 1065h307zM41 1391l172 241l385 -272l-125 -166z" />
<glyph unicode="&#xed;" horiz-adv-x="479" d="M276 0h-307l187 1065h307zM117 1360l479 272l90 -241l-502 -197z" />
<glyph unicode="&#xee;" horiz-adv-x="487" d="M281 0h-308l187 1065h307zM96 1194l-92 149l399 273h15l305 -273l-148 -147l-213 147z" />
<glyph unicode="&#xef;" horiz-adv-x="493" d="M283 0h-306l187 1065h305zM340 1346q-12 -68 -64.5 -113t-118 -45t-102.5 45t-24.5 112.5t64.5 112.5t118 45t101.5 -44.5t25.5 -112.5zM705 1346q-12 -68 -65.5 -113t-119 -45t-101.5 45t-23.5 112.5t63.5 112.5t116.5 45t102.5 -44.5t27 -112.5z" />
<glyph unicode="&#xf0;" d="M31 532q41 240 229 398q193 162 436 162q94 0 181 -29q-51 135 -193 186l-111 -137l-131 92l68 84q-70 6 -156 6l49 269q182 0 310 -27l108 133l129 -90l-76 -94q217 -94 290 -324.5t5 -628.5q-43 -238 -235 -399q-190 -160 -434 -160t-379 160q-133 163 -90 399z M553 276q106 0 188 74q86 74 109 182q18 106 -41 181t-164 75q-106 0 -192 -73q-84 -74 -103 -183q-23 -109 37 -182q60 -74 166 -74z" />
<glyph unicode="&#xf1;" horiz-adv-x="1177" d="M276 0h-307l187 1065h307l-19 -109q133 135 316 136q174 0 268 -117q98 -117 66 -291l-119 -684h-307l106 602q16 88 -30 146.5t-130 58.5t-150.5 -58.5t-82.5 -146.5zM545 1231h-203q14 109 104 184q90 80 189 80q63 0 119 -43q57 -41 71 -41q25 0 46.5 21.5t27.5 52.5 h205q-20 -109 -107 -189q-82 -76 -186 -75q-63 0 -121 41q-53 41 -72 41q-25 0 -47 -20.5t-26 -51.5z" />
<glyph unicode="&#xf2;" d="M31 532q41 240 229 398q193 162 436.5 162t378.5 -160t94 -400q-43 -238 -235 -399q-190 -160 -434 -160t-379 160q-133 163 -90 399zM350 532q-23 -109 37 -182q59 -74 166 -74q106 0 188 74q86 74 109 182q18 106 -41 181t-164 75q-106 0 -192 -73q-85 -74 -103 -183z M813 1194l-432 197l172 241l385 -272z" />
<glyph unicode="&#xf3;" d="M31 532q41 240 229 398q193 162 436.5 162t378.5 -160t94 -400q-43 -238 -235 -399q-190 -160 -434 -160t-379 160q-133 163 -90 399zM350 532q-23 -109 37 -182q59 -74 166 -74q106 0 188 74q86 74 109 182q18 106 -41 181t-164 75q-106 0 -192 -73q-85 -74 -103 -183z M608 1194l-65 166l479 272l88 -241z" />
<glyph unicode="&#xf4;" d="M31 532q41 240 229 398q193 162 436.5 162t378.5 -160t94 -400q-43 -238 -235 -399q-190 -160 -434 -160t-379 160q-133 163 -90 399zM350 532q-23 -109 37 -182q59 -74 166 -74q106 0 188 74q86 74 109 182q18 106 -41 181t-164 75q-106 0 -192 -73q-85 -74 -103 -183z M741 1343l-301 -157l-80 157l422 273h15l327 -273l-137 -155z" />
<glyph unicode="&#xf5;" d="M31 532q41 240 229 398q193 162 436.5 162t378.5 -160t94 -400q-43 -238 -235 -399q-190 -160 -434 -160t-379 160q-133 163 -90 399zM350 532q-23 -109 37 -182q59 -74 166 -74q106 0 188 74q86 74 109 182q18 106 -41 181t-164 75q-106 0 -192 -73q-85 -74 -103 -183z M567 1231h-205q18 109 105 184q90 80 190 80q63 0 119 -43q57 -41 72 -41q25 0 46 21.5t28 52.5h202q-23 -113 -104.5 -188.5t-185.5 -75.5q-63 0 -121 41q-53 41 -72 41q-25 0 -47.5 -20.5t-26.5 -51.5z" />
<glyph unicode="&#xf6;" d="M31 532q41 240 229 398q193 162 436.5 162t378.5 -160t94 -400q-43 -238 -235 -399q-190 -160 -434 -160t-379 160q-133 163 -90 399zM350 532q-23 -109 37 -182q59 -74 166 -74q106 0 188 74q86 74 109 182q18 106 -41 181t-164 75q-106 0 -192 -73q-85 -74 -103 -183z M551 1507q70 0 108.5 -46t26.5 -115.5t-66.5 -115.5t-124 -46t-107.5 46t-25.5 115.5t66.5 115.5t122 46zM987 1507q70 0 109 -46t26.5 -115.5t-67 -115.5t-124 -46t-107.5 46t-25.5 115.5t66.5 115.5t122 46z" />
<glyph unicode="&#xf7;" horiz-adv-x="1228" d="M113 582v272h1003v-272h-1003zM483.5 155.5q-51.5 51.5 -51.5 131.5q0 78 51 129q53 53 131 53q76 0 129.5 -53.5t53.5 -128.5q0 -78 -54 -131q-51 -51 -129 -52q-79 0 -130.5 51.5zM483.5 1016q-51.5 51 -51.5 131q0 78 51 129q53 53 131 53q76 0 129.5 -53t53.5 -129 q0 -78 -54 -131q-51 -51 -129 -51q-79 0 -130.5 51z" />
<glyph unicode="&#xf8;" d="M696 1092q133 0 244 -54l47 54l117 -95l-43 -51q150 -158 108 -414q-43 -238 -235 -399q-190 -160 -434 -160q-139 0 -244 56l-47 -56l-119 95l47 53q-154 162 -106 411q41 240 229 398q192 162 436 162zM829 682l-348 -395q35 -10 72 -11q106 0 188 74q86 74 109 182 q12 84 -21 150zM367 385l346 393q-27 10 -68 10q-106 0 -192 -73q-84 -74 -103 -183q-16 -86 17 -147z" />
<glyph unicode="&#xf9;" horiz-adv-x="1177" d="M371 -27q-172 0 -271 117q-96 119 -63 291l119 684h307l-107 -602q-16 -88 30 -146.5t130 -58.5t150.5 58.5t83.5 146.5l104 602h307l-186 -1065h-307l18 109q-133 -136 -315 -136zM905 1360l-123 -166l-434 197l174 241z" />
<glyph unicode="&#xfa;" horiz-adv-x="1177" d="M371 -27q-172 0 -271 117q-96 119 -63 291l119 684h307l-107 -602q-16 -88 30 -146.5t130 -58.5t150.5 58.5t83.5 146.5l104 602h307l-186 -1065h-307l18 109q-133 -136 -315 -136zM1079 1391l-504 -197l-65 166l479 272z" />
<glyph unicode="&#xfb;" horiz-adv-x="1177" d="M371 -27q-172 0 -271 117q-96 119 -63 291l119 684h307l-107 -602q-16 -88 30 -146.5t130 -58.5t150.5 58.5t83.5 146.5l104 602h307l-186 -1065h-307l18 109q-133 -136 -315 -136zM408 1186l-80 157l422 273h14l328 -273l-138 -155l-243 155z" />
<glyph unicode="&#xfc;" horiz-adv-x="1177" d="M371 -27q-172 0 -271 117q-96 119 -63 291l119 684h307l-107 -602q-16 -88 30 -146.5t130 -58.5t150.5 58.5t83.5 146.5l104 602h307l-186 -1065h-307l18 109q-133 -136 -315 -136zM655 1346q-14 -70 -67 -116t-123 -46t-109 46t-26.5 115.5t67 115.5t124 46t107 -45.5 t27.5 -115.5zM899 1184q-68 0 -106.5 46t-26.5 115.5t66.5 115.5t121.5 46q70 0 109 -46t29 -115q-14 -70 -68.5 -116t-124.5 -46z" />
<glyph unicode="&#xfd;" horiz-adv-x="1130" d="M-47 -461h-37l51 293h39q203 0 285 160l8 16l-217 1057h317l117 -655l354 655h318l-660 -1176q-106 -184 -242 -267t-333 -83zM1055 1391l-502 -197l-68 166l480 272z" />
<glyph unicode="&#xfe;" d="M195 -461h-308l353 1997h307l-96 -543q147 98 311 99q215 0 332 -160q117 -158 75 -400q-43 -238 -217 -399q-172 -160 -389 -160q-166 0 -274 101zM373 530q-18 -106 37 -180t155 -74q98 0 180 74q80 72 103 180q18 111 -37 184.5t-156 73.5q-98 0 -180 -73 q-79 -72 -102 -185z" />
<glyph unicode="&#xff;" horiz-adv-x="1130" d="M-47 -461h-37l51 293h39q203 0 285 160l8 16l-217 1057h317l117 -655l354 655h318l-660 -1176q-106 -184 -242 -267t-333 -83zM307 1346q10 70 64.5 115.5t124 45.5t107.5 -46t28 -115q-14 -70 -67.5 -116t-123 -46t-108.5 46t-25 116zM874 1184q-68 0 -106.5 46 t-24.5 116q10 70 64.5 115.5t122.5 45.5q70 0 108.5 -46t28.5 -115q-14 -70 -68.5 -116t-124.5 -46z" />
<glyph unicode="&#x152;" horiz-adv-x="2390" d="M698 -27q-322 0 -500 213t-122 531q55 319 309 530q256 213 576 213q250 0 413 -131v2l19 103h1063l-54 -299h-739l-45 -263h623l-54 -299h-622l-47 -274h747l-51 -299h-1073l18 104q-217 -131 -461 -131zM752 285q178 0 317 123q141 125 174 309q33 182 -65 307 q-94 125 -272.5 125t-317.5 -125q-139 -121 -174 -307q-33 -182 63 -309q99 -123 275 -123z" />
<glyph unicode="&#x153;" horiz-adv-x="2039" d="M31 532q41 240 229 398q193 162 436 162q252 0 383 -166q186 166 437 166q240 0 370 -162q131 -158 90 -398q-10 -61 -30 -110h-793q10 -84 71.5 -135t155.5 -51q131 0 228 94l284 -68q-94 -135 -241.5 -212t-315.5 -77q-254 0 -393 166q-197 -166 -442 -166 q-244 0 -379 160q-133 163 -90 399zM553 276q106 0 188 74q86 74 109 182q18 106 -41 181t-164 75q-106 0 -192 -73q-84 -74 -103 -183q-23 -109 37 -182q60 -74 166 -74zM1194 649h489q-12 82 -70.5 131t-146.5 49q-82 0 -156.5 -49t-115.5 -131z" />
<glyph unicode="&#x178;" horiz-adv-x="1429" d="M432 0l103 590l-388 844h373l230 -539l432 539h370l-692 -836l-104 -598h-324zM707 1855q70 0 108.5 -46t26 -115.5t-66.5 -115.5t-123.5 -46t-107.5 46t-26 115.5t66.5 115.5t122.5 46zM1143 1855q70 0 108.5 -46t26.5 -115.5t-66.5 -115.5t-124 -46t-107.5 46 t-25.5 115.5t66.5 115.5t122 46z" />
<glyph unicode="&#x2c6;" horiz-adv-x="913" d="M621 1597l-302 -157l-79 157l422 273h14l328 -273l-138 -157z" />
<glyph unicode="&#x2dc;" horiz-adv-x="866" d="M422 1485h-203q18 109 105 184q90 80 188 80q63 0 119 -43q57 -41 74 -41q23 0 44 20.5t27 51.5h205q-23 -111 -107 -187q-84 -78 -184 -77q-63 0 -121 40q-55 43 -73 43q-25 0 -46.5 -20t-27.5 -51z" />
<glyph unicode="&#x2000;" horiz-adv-x="1012" />
<glyph unicode="&#x2001;" horiz-adv-x="2025" />
<glyph unicode="&#x2002;" horiz-adv-x="1012" />
<glyph unicode="&#x2003;" horiz-adv-x="2025" />
<glyph unicode="&#x2004;" horiz-adv-x="675" />
<glyph unicode="&#x2005;" horiz-adv-x="506" />
<glyph unicode="&#x2006;" horiz-adv-x="337" />
<glyph unicode="&#x2007;" horiz-adv-x="337" />
<glyph unicode="&#x2008;" horiz-adv-x="253" />
<glyph unicode="&#x2009;" horiz-adv-x="405" />
<glyph unicode="&#x200a;" horiz-adv-x="112" />
<glyph unicode="&#x2010;" horiz-adv-x="819" d="M66 397l47 273h594l-48 -273h-593z" />
<glyph unicode="&#x2011;" horiz-adv-x="819" d="M66 397l47 273h594l-48 -273h-593z" />
<glyph unicode="&#x2012;" horiz-adv-x="819" d="M66 397l47 273h594l-48 -273h-593z" />
<glyph unicode="&#x2013;" horiz-adv-x="1228" d="M66 397l47 273h1003l-47 -273h-1003z" />
<glyph unicode="&#x2014;" horiz-adv-x="2048" d="M66 397l47 273h1822l-47 -273h-1822z" />
<glyph unicode="&#x2018;" horiz-adv-x="481" d="M156 1206q25 125 125 226q41 41 88 75q66 49 102 68l74 -90q-137 -111 -148 -164q57 -10 88 -59.5t21 -112.5q-12 -72 -69.5 -120t-131.5 -48q-84 0 -124.5 63.5t-24.5 161.5z" />
<glyph unicode="&#x2019;" horiz-adv-x="481" d="M539 1339q-29 -154 -162 -262q-96 -76 -150 -106l-4 -2l-73 92q137 106 149 164q-57 8 -89 57t-22 115q14 72 71.5 119t129.5 47q84 0 125 -65t25 -159z" />
<glyph unicode="&#x201a;" horiz-adv-x="481" d="M319 92q-25 -125 -126 -227q-49 -49 -89 -76q-59 -47 -102 -68l-72 93q137 106 148 163q-57 10 -89 60.5t-20 112.5q12 70 69.5 117.5t129.5 47.5q84 0 125.5 -62.5t25.5 -160.5z" />
<glyph unicode="&#x201c;" horiz-adv-x="888" d="M563 1206q25 125 125 226q41 41 88 75q61 45 105 68l71 -90q-137 -111 -147 -164q57 -10 88 -59.5t20 -112.5q-12 -72 -69.5 -120t-128.5 -48q-84 0 -126 63.5t-26 161.5zM156 1206q25 125 125 226q41 41 88 75q66 49 102 68l74 -90q-137 -111 -148 -164q57 -10 88 -59.5 t21 -112.5q-12 -72 -69.5 -120t-131.5 -48q-84 0 -124.5 63.5t-24.5 161.5z" />
<glyph unicode="&#x201d;" horiz-adv-x="888" d="M539 1339q-29 -154 -162 -262q-96 -76 -150 -106l-4 -2l-73 92q137 106 149 164q-57 8 -89 57t-22 115q14 72 71.5 119t129.5 47q84 0 125 -65t25 -159zM946 1339q-20 -123 -125 -227q-47 -47 -88 -78q-59 -43 -102 -65l-74 92q137 106 150 164q-57 10 -89 59t-22 113 q14 72 71.5 119t131.5 47q84 0 123.5 -63t23.5 -161z" />
<glyph unicode="&#x201e;" horiz-adv-x="888" d="M319 92q-25 -125 -126 -227q-49 -49 -89 -76q-59 -47 -102 -68l-72 93q137 106 148 163q-57 10 -89 60.5t-20 112.5q12 70 69.5 117.5t129.5 47.5q84 0 125.5 -62.5t25.5 -160.5zM727 92q-25 -125 -127 -227q-49 -49 -88 -76q-63 -49 -100 -68l-74 93q137 106 147 163 q-57 10 -87.5 59.5t-20.5 113.5q12 72 69.5 118.5t131.5 46.5q84 0 124.5 -62.5t24.5 -160.5z" />
<glyph unicode="&#x2022;" horiz-adv-x="780" d="M151.5 293q-94.5 94 -94.5 239q0 143 95 238q96 96 237 96t237.5 -96t96.5 -238q0 -143 -96 -239q-94 -94 -237.5 -94t-238 94z" />
<glyph unicode="&#x2026;" horiz-adv-x="1382" d="M-35 147q12 76 70.5 125.5t134.5 49.5t116 -49.5t27 -125.5q-14 -76 -71.5 -125t-133 -49t-116.5 49t-27 125zM426 147q12 76 70.5 125.5t134.5 49.5t115.5 -49.5t27.5 -125.5q-14 -76 -71.5 -125t-133 -49t-116.5 49t-27 125zM887 147q12 74 71.5 124.5t133.5 50.5 q76 0 115.5 -49.5t27.5 -125t-70.5 -125t-134.5 -49.5q-74 0 -114.5 49t-28.5 125z" />
<glyph unicode="&#x202f;" horiz-adv-x="405" />
<glyph unicode="&#x2039;" horiz-adv-x="698" d="M365 123l-336 409l479 410l143 -174l-276 -236l194 -235z" />
<glyph unicode="&#x203a;" horiz-adv-x="698" d="M287 942l340 -410l-484 -409l-141 174l277 235l-195 236z" />
<glyph unicode="&#x205f;" horiz-adv-x="506" />
<glyph unicode="&#x20ac;" horiz-adv-x="1665" d="M186 453h-190l35 202h147q10 84 23 125h-148l35 203h193q115 213 329 346q213 131 461 131q227 0 390 -110.5t220 -300.5l-335 -117q-37 100 -124 158.5t-206 58.5q-209 0 -359 -166h383l-34 -203h-465q-16 -57 -23 -125h465l-35 -202h-387q92 -168 303 -168 q121 0 227.5 58t176.5 159l297 -117q-127 -188 -328 -301q-201 -111 -428 -111q-248 0 -416 131q-168 134 -207 349z" />
<glyph unicode="&#x2122;" horiz-adv-x="1533" d="M854 717h-164v717h164l238 -420l237 420h164v-717h-164v409l-182 -333h-111l-182 331v-407zM231 1278h-215v156h600v-156h-217v-561h-168v561z" />
<glyph unicode="&#x25fc;" horiz-adv-x="1064" d="M0 1065h1065v-1065h-1065v1065z" />
</font>
</defs>
</svg>
