<?xml version="1.0" standalone="no"?>
<!DOCTYPE svg PUBLIC "-//W3C//DTD SVG 1.1//EN" "http://www.w3.org/Graphics/SVG/1.1/DTD/svg11.dtd" >
<svg xmlns="http://www.w3.org/2000/svg" xmlns:xlink="http://www.w3.org/1999/xlink" version="1.1">
<metadata></metadata>
<defs>
<font id="mazzardh_light_italic" horiz-adv-x="1345" >
<font-face units-per-em="2048" ascent="1546" descent="-502" />
<missing-glyph horiz-adv-x="579" />
<glyph unicode="&#xfb01;" horiz-adv-x="1161" d="M94 950l21 115h186l31 170q20 127 119 215q98 86 219 86h139l-21 -123h-133q-70 0 -126 -54t-72 -136l-29 -158h299l-18 -115h-299l-168 -950h-127l168 950h-189zM752 0l186 1065h127l-186 -1065h-127zM950 1329q10 70 82 88q70 18 103 -26q18 -25 8 -62 q-6 -43 -38 -69.5t-75 -26.5q-41 0 -63.5 26.5t-16.5 69.5z" />
<glyph unicode="&#xfb02;" horiz-adv-x="1161" d="M94 950l21 115h186l31 170q20 127 119 215q98 86 219 86h139l-21 -123h-133q-70 0 -126 -54t-72 -136l-29 -158h299l-18 -115h-299l-168 -950h-127l168 950h-189zM752 0l270 1536h127l-270 -1536h-127z" />
<glyph unicode="&#xfb03;" horiz-adv-x="1800" d="M94 950l21 115h186l31 170q20 127 119 215q98 86 219 86h139l-21 -123h-133q-70 0 -126 -54t-72 -136l-29 -158h514l31 170q20 127 119 215q98 86 219 86h139l-23 -123h-131q-70 0 -127 -54t-73 -136l-27 -158h635l-186 -1065h-127l165 950h-507l-166 -950h-127l166 950 h-512l-168 -950h-127l168 950h-189zM1591 1329q8 41 40 67.5t75 26.5q41 0 63.5 -27.5t14.5 -66.5q-6 -43 -38 -69.5t-75 -26.5q-41 0 -63.5 26.5t-16.5 69.5z" />
<glyph unicode="&#xfb04;" horiz-adv-x="1800" d="M94 950l21 115h186l31 170q20 127 119 215q98 86 219 86h139l-21 -123h-133q-70 0 -126 -54t-72 -136l-29 -158h514l31 170q20 127 119 215q98 86 219 86h139l-23 -123h-131q-70 0 -127 -54t-73 -136l-27 -158h297l-18 -115h-299l-166 -950h-127l166 950h-512l-168 -950 h-127l168 950h-189zM1391 0l270 1536h127l-270 -1536h-127z" />
<glyph horiz-adv-x="0" />
<glyph horiz-adv-x="0" />
<glyph unicode="&#xd;" horiz-adv-x="512" />
<glyph unicode=" "  horiz-adv-x="579" />
<glyph unicode="&#x09;" horiz-adv-x="579" />
<glyph unicode="&#xa0;" horiz-adv-x="579" />
<glyph unicode="!" horiz-adv-x="499" d="M45 84q8 45 41 72q35 29 78 28.5t67 -28.5q25 -27 17 -72t-43 -74q-33 -29 -76 -28.5t-67.5 29t-16.5 73.5zM150 416l167 1018h136l-193 -1018h-110z" />
<glyph unicode="&#x22;" horiz-adv-x="727" d="M217 979l68 455h123l-91 -455h-100zM522 979l68 455h123l-90 -455h-101z" />
<glyph unicode="#" horiz-adv-x="1454" d="M53 412v110h346l68 389h-326v111h346l72 412h111l-72 -412h367l71 412h113l-72 -412h324v-111h-344l-68 -389h326v-110h-346l-72 -412h-113l72 412h-367l-71 -412h-111l72 412h-326zM510 522h367l67 389h-366z" />
<glyph unicode="$" horiz-adv-x="1271" d="M57 324l142 38q0 -111 97 -180t251 -69q160 0 280 77q121 76 144 199q20 121 -82 184q-86 51 -232 86q-244 66 -327 125q-135 98 -105 273q29 166 166 272q139 109 332 121l41 238h100l-41 -238q164 -14 265.5 -101t109.5 -216l-139 -39q-4 100 -90 163.5t-221 63.5 q-145 0 -256 -74q-109 -74 -132 -184q-18 -104 65 -160.5t292 -109.5q152 -39 235 -82q186 -92 156 -312q-31 -176 -180 -288q-152 -115 -359 -127l-41 -238h-102l41 238q-178 14 -290 107.5t-120 232.5z" />
<glyph unicode="%" horiz-adv-x="1665" d="M119 59l1388 1375l62 -60l-1391 -1374zM164 1112q29 147 141 242q115 98 260 98q147 0 228 -98q80 -96 55 -242q-29 -147 -141 -246q-115 -96 -263 -96q-143 0 -227 96q-80 101 -53 246zM279 1112q-16 -98 37 -162.5t149 -64.5q98 0 174 64.5t94 160.5q16 96 -38 161.5 t-150 65.5t-174 -65q-76 -64 -92 -160zM836 324q29 147 141 241q113 98 260 98.5t227 -98.5q80 -96 56 -241q-29 -147 -142 -246q-115 -96 -260 -96q-143 0 -227 96q-84 99 -55 246zM952 324q-16 -98 35 -162q53 -66 149.5 -66t172.5 64q78 66 94 162t-37 161.5t-149 65.5 q-95 0 -173 -66t-92 -159z" />
<glyph unicode="&#x26;" horiz-adv-x="1419" d="M72 406q23 129 113.5 221t256.5 180q-106 182 -82 340q25 137 132 219q106 86 251 86q150 0 232 -88t61 -219q-23 -117 -115 -198t-286 -175l47 -59l276 -340q102 141 138 327h129q-43 -238 -191 -424l226 -276h-185l-139 172q-211 -190 -465 -190q-205 0 -319 120 q-113 123 -80 304zM203 399q-23 -125 59 -206q84 -84 232 -84q199 0 368 153l-284 350l-72 95q-139 -72 -213 -144t-90 -164zM494 1143q-23 -119 75 -275q115 55 162 82q63 35 115.5 88.5t62.5 106.5q14 76 -39 128t-143 52q-92 0 -155.5 -49t-77.5 -133z" />
<glyph unicode="'" horiz-adv-x="421" d="M217 979l68 455h123l-91 -455h-100z" />
<glyph unicode="(" horiz-adv-x="593" d="M88 156q-18 236 25 485q66 373 221 633q143 243 223 323l39 41h125l-43 -45q-27 -29 -96 -127q-70 -94 -133 -204q-55 -102 -123 -279q-63 -166 -95 -342q-53 -330 -7 -574.5t120 -381.5l25 -43h-125l-15 22q-39 63 -73 166q-53 162 -68 326z" />
<glyph unicode=")" horiz-adv-x="593" d="M-135 -358l43 45q27 29 96 127q74 100 131 204q57 102 125 277q61 162 94 346q53 330 7.5 576.5t-119.5 375.5l-25 45h123l14 -22q39 -63 74 -166q53 -158 68 -328q18 -229 -25 -481q-35 -188 -94 -354q-59 -164 -127 -283q-123 -215 -223 -323l-39 -39h-123z" />
<glyph unicode="*" horiz-adv-x="972" d="M201 956l284 125l-239 123l80 107l209 -166l26 289h123l-74 -289l264 166l46 -107l-285 -123l239 -125l-79 -106l-209 166l-27 -289h-123l74 289l-264 -166z" />
<glyph unicode="+" horiz-adv-x="1228" d="M147 690v119h408v410h119v-410h407v-119h-407v-407h-119v407h-408z" />
<glyph unicode="," horiz-adv-x="434" d="M-39 -201l33 29q14 12 51 66q37 49 39 88q-37 4 -58.5 33.5t-15.5 68.5q8 41 42 69.5t77 28.5q49 0 73.5 -39.5t12.5 -107.5q-14 -82 -70 -152q-33 -41 -68.5 -72.5t-55 -43t-25.5 -11.5z" />
<glyph unicode="-" horiz-adv-x="819" d="M113 473l20 119h526l-20 -119h-526z" />
<glyph unicode="." horiz-adv-x="430" d="M10 84q8 45 42 72.5t77 27.5q45 0 68.5 -27.5t17.5 -72.5q-8 -45 -42 -73.5t-79 -28.5q-43 0 -67.5 28.5t-16.5 73.5z" />
<glyph unicode="/" horiz-adv-x="1052" d="M-180 -358l1284 1996h121l-1284 -1996h-121z" />
<glyph unicode="0" d="M106 485l84 463q37 213 216 359q180 145 405 145q227 0 354 -145.5t90 -358.5l-81 -463q-41 -217 -218 -360q-174 -143 -403 -143q-231 0 -356 143q-128 145 -91 360zM238 483q-27 -158 69 -268q94 -106 266 -106t306 106q135 106 163 268l82 467q29 160 -69 267 q-96 109 -267 108q-168 0 -305 -108.5t-164 -266.5z" />
<glyph unicode="1" horiz-adv-x="870" d="M207 1208l450 226h88l-251 -1434h-132l222 1264l-340 -172z" />
<glyph unicode="2" horiz-adv-x="1196" d="M-8 0l16 94l647 539l115 98q37 31 92 86q101 100 117 209q23 123 -64 211q-82 88 -223 88q-117 0 -224.5 -69.5t-174.5 -186.5l-113 57q88 150 231.5 238t303.5 88q199 0 315.5 -125t83.5 -299q-23 -123 -113 -229q-88 -102 -266 -250l-514 -422h758l-21 -127h-966z" />
<glyph unicode="3" horiz-adv-x="1210" d="M31 246l135 49q25 -86 109.5 -136t209.5 -50q162 0 281 79q121 82 143 203q20 117 -69 199q-90 80 -244 80h-107v6l21 119h80q154 0 266 75q114 76 137 193q20 109 -65 186q-82 76 -230 76q-117 0 -215 -50t-155 -136l-109 57q80 119 213 187.5t289 68.5q205 0 319 -113 q119 -109 90 -274q-20 -104 -99 -190.5t-197 -135.5q117 -47 174 -141t36 -211q-33 -174 -198 -291q-168 -115 -383 -114q-166 0 -281.5 71.5t-150.5 192.5z" />
<glyph unicode="4" horiz-adv-x="1349" d="M33 307l8 55l14 72l1004 1000h121l-176 -998h221l-25 -129h-219l-53 -307h-131l53 307h-817zM217 436h655l142 797z" />
<glyph unicode="5" horiz-adv-x="1239" d="M39 274l135 41q33 -94 120 -150t204 -56q162 0 293 96q127 94 155.5 239.5t-72.5 241.5q-98 98 -268 98h-375l181 650h733l-21 -123h-622l-113 -404h244q225 0 354 -133q129 -131 94 -330q-33 -199 -209 -331q-174 -131 -397 -131q-166 0 -282.5 78.5t-153.5 213.5z" />
<glyph unicode="6" horiz-adv-x="1269" d="M100 444l90 504q37 213 216 359q180 145 405 145q145 0 255 -63.5t159 -176.5l-129 -61q-37 82 -119 128t-191 46q-168 0 -305 -108q-135 -111 -162 -267l-38 -227q74 86 184 136t231 50q215 0 342 -133q125 -131 90 -332q-35 -199 -204 -329q-174 -133 -389 -133 q-217 0 -345 133q-125 131 -90 329zM236 446q-25 -145 65 -241q92 -96 254 -96q160 0 287 96t151 237q25 145 -67 242q-90 98 -250 98q-164 0 -289 -98q-123 -94 -151 -238z" />
<glyph unicode="7" horiz-adv-x="1079" d="M168 1311l20 123h922l-23 -127l-743 -1307h-141l747 1311h-782z" />
<glyph unicode="8" horiz-adv-x="1257" d="M68 387q20 117 111 215t227 148q-98 49 -145.5 136t-29.5 191q27 158 183 266q158 109 354 109q199 0 313 -109q115 -106 88 -266q-20 -106 -97 -193t-191 -134q117 -49 173 -145.5t36 -217.5q-31 -174 -197 -291q-168 -115 -385 -114q-221 0 -346 116.5t-94 288.5z M205 397q-23 -125 69 -207q95 -81 256.5 -81t282.5 81q123 82 143 207q23 123 -71 205q-94 84 -254 84q-158 0 -283 -84q-123 -84 -143 -205zM367 1067q-23 -111 61 -184q84 -74 225.5 -74t249.5 74q109 74 129 184q20 109 -63 184q-85 74 -224 74q-143 0 -251 -74 q-104 -72 -127 -184z" />
<glyph unicode="9" horiz-adv-x="1249" d="M55 227l129 60q37 -82 121 -130t195 -48q174 0 307 106q135 104 164 266l39 221q-76 -98 -187.5 -154t-232.5 -56q-217 0 -340 137q-119 137 -86 344q37 203 207 342q170 137 389 137q217 0 340 -135q125 -131 90 -332l-90 -504q-37 -213 -217 -356q-176 -143 -408 -143 q-150 0 -260.5 65t-159.5 180zM299 975q-27 -150 63 -254q92 -103 250 -103q160 0 285 101q129 102 155.5 251.5t-65.5 252.5q-90 102 -249.5 102t-284.5 -100q-127 -102 -154 -250z" />
<glyph unicode=":" horiz-adv-x="430" d="M10 84q8 45 42 72.5t77 27.5q45 0 68.5 -27.5t17.5 -72.5q-8 -45 -42 -73.5t-79 -28.5q-43 0 -67.5 28.5t-16.5 73.5zM168 983q10 43 44 71.5t77 28.5t67.5 -28.5t16.5 -71.5q-8 -45 -42 -73.5t-77 -28.5q-45 0 -68.5 28.5t-17.5 73.5z" />
<glyph unicode=";" horiz-adv-x="430" d="M-39 -201l33 29q14 12 51 66q37 49 39 88q-37 4 -58.5 33.5t-15.5 68.5q8 41 42 69.5t77 28.5q49 0 73.5 -39.5t12.5 -107.5q-14 -82 -70 -152q-33 -41 -68.5 -72.5t-55 -43t-25.5 -11.5zM168 983q10 43 44 71.5t77 28.5t67.5 -28.5t16.5 -71.5q-8 -45 -42 -73.5 t-77 -28.5q-45 0 -68.5 28.5t-17.5 73.5z" />
<glyph unicode="&#x3c;" horiz-adv-x="1228" d="M127 664v106l934 438v-131l-770 -360l770 -361v-127z" />
<glyph unicode="=" horiz-adv-x="1228" d="M147 422v119h934v-119h-934zM147 895v117h934v-117h-934z" />
<glyph unicode="&#x3e;" horiz-adv-x="1228" d="M168 229v127l770 361l-770 360v131l934 -438v-106z" />
<glyph unicode="?" horiz-adv-x="1093" d="M139 1159q70 131 209 211q139 82 307 82q201 0 320 -117q119 -113 88 -282q-12 -82 -65.5 -160t-123.5 -129q-143 -106 -237 -137l-43 -17l-41 -194h-111l35 268l23 6q63 23 143 62q260 129 289 299q23 115 -68 194q-86 80 -231 80q-119 0 -220.5 -57.5t-148.5 -149.5z M336 84q8 45 42 72.5t77 27.5q45 0 68.5 -27.5t17.5 -72.5q-8 -45 -42 -73.5t-79 -28.5q-43 0 -67.5 28.5t-16.5 73.5z" />
<glyph unicode="@" horiz-adv-x="2043" d="M80 532q68 395 377 656q311 264 704 264q252 4 446.5 -117t279.5 -326.5t38 -443.5q-37 -215 -153.5 -352t-266.5 -137q-92 0 -153.5 52t-71.5 138q-160 -190 -391 -190q-188 0 -289 131q-100 133 -68 325q35 195 181 326q150 131 336 131q221 0 317 -176l29 160h106 l-112 -633q-12 -68 27.5 -115t107.5 -47q102 0 184 107q84 109 111 274q59 330 -138 559q-193 229 -540 230q-350 0 -623 -234q-272 -231 -334 -582q-61 -346 129 -579q193 -236 535 -236q207 0 401 103l23 -94q-211 -113 -449 -113q-385 0 -600 264q-213 266 -143 655z M643 532q-27 -147 51 -249q77 -101 224 -101q137 0 249 94q111 92 146 234l4 22q2 4 2 21q18 141 -62 235q-76 94 -217 95q-145 0 -257.5 -100.5t-139.5 -250.5z" />
<glyph unicode="A" horiz-adv-x="1470" d="M-72 0l889 1434h107l385 -1434h-144l-94 350h-782l-217 -350h-144zM367 477h671l-202 760z" />
<glyph unicode="B" horiz-adv-x="1425" d="M66 0l251 1434h672q166 0 262 -105q72 -79 73 -190q0 -33 -7 -70q-39 -205 -232 -309q107 -44 157 -142q36 -70 36 -153q0 -33 -6 -68q-29 -172 -172 -284q-140 -113 -322 -113h-712zM223 127h576q123 0 217 80q98 82 119 199q5 27 5 52q0 85 -53 148q-68 80 -190 80 h-575zM344 813h537q109 0 190 70q87 70 105 176q4 25 4 49q0 74 -45 128q-59 71 -168 71h-537z" />
<glyph unicode="C" horiz-adv-x="1601" d="M125 717q57 315 303 524q248 211 563 211q205 0 355.5 -94t218.5 -262l-138 -52q-57 129 -178 203t-280 74q-256 0 -455 -174q-203 -174 -248 -430q-11 -63 -11 -120q0 -179 105 -312q141 -172 396 -172q160 0 305 72.5t250 203.5l121 -51q-127 -168 -310 -260 q-186 -96 -389 -96q-315 0 -489 211q-131 161 -131 382q0 68 12 142z" />
<glyph unicode="D" horiz-adv-x="1593" d="M66 0l251 1434h560q311 0 487 -207q133 -157 133 -373q0 -66 -12 -137q-51 -303 -301 -510q-248 -207 -559 -207h-559zM223 127h422q240 0 434 154q199 158 256 389q4 14 7.5 29.5t3.5 17.5q10 58 10 112q0 178 -109 308q-139 170 -393 170h-424z" />
<glyph unicode="E" horiz-adv-x="1294" d="M66 0l251 1434h1020l-22 -127h-885l-90 -516h782l-20 -127h-785l-94 -537h893l-20 -127h-1030z" />
<glyph unicode="F" horiz-adv-x="1280" d="M66 0l251 1434h1020l-22 -127h-885l-88 -506h782l-22 -127h-783l-118 -674h-135z" />
<glyph unicode="G" horiz-adv-x="1695" d="M125 717q57 315 307 524q250 211 572 211q209 0 362.5 -94t218.5 -262l-137 -52q-57 129 -180 203t-287 74q-260 0 -465 -174q-205 -172 -250 -430q-11 -64 -11 -122q0 -179 103 -310q137 -172 387 -172q225 0 416 141q193 145 256 364h-637l23 127h788q-2 -14 -5 -32.5 t-3 -20.5q-63 -301 -307 -508q-241 -202 -546 -202h-3q-311 0 -483 211q-131 161 -131 382q0 68 12 142z" />
<glyph unicode="H" horiz-adv-x="1566" d="M66 0l251 1434h136l-113 -643h932l112 643h136l-252 -1434h-135l116 664h-932l-116 -664h-135z" />
<glyph unicode="I" horiz-adv-x="499" d="M66 0l251 1434h136l-252 -1434h-135z" />
<glyph unicode="J" horiz-adv-x="1232" d="M-12 223l127 72q37 -88 118.5 -137t192.5 -49q170 0 309 114q137 117 166 287l162 924h133l-164 -924q-41 -229 -219 -377q-181 -151 -409 -151h-3q-145 0 -253.5 64.5t-159.5 176.5z" />
<glyph unicode="K" horiz-adv-x="1302" d="M66 0l251 1434h136l-252 -1434h-135zM399 731l779 703h174l-779 -703l568 -731h-174z" />
<glyph unicode="L" horiz-adv-x="1191" d="M66 0l251 1434h136l-230 -1307h805l-22 -127h-940z" />
<glyph unicode="M" horiz-adv-x="1857" d="M66 0l251 1434h136l424 -1065l798 1065h135l-251 -1434h-136l207 1178l-741 -990h-88l-393 990l-207 -1178h-135z" />
<glyph unicode="N" horiz-adv-x="1570" d="M66 0l251 1434h117l748 -1196l211 1196h131l-252 -1434h-117l-747 1200l-211 -1200h-131z" />
<glyph unicode="O" horiz-adv-x="1705" d="M125 717q57 315 303 524q248 211 563.5 211t487.5 -211q132 -157 132 -376q0 -71 -14 -148q-55 -313 -302.5 -524t-561.5 -211q-315 0 -489 211q-131 161 -131 382q0 68 12 142zM266 717q-11 -63 -11 -120q0 -179 105 -312q141 -172 396 -172q256 0 454 172 q203 178 248 432q11 63 11 120q0 178 -105 310q-137 174 -395 174q-256 0 -455 -174q-203 -174 -248 -430z" />
<glyph unicode="P" horiz-adv-x="1351" d="M66 0l251 1434h621q193 0 299 -125q83 -93 82 -220q0 -41 -8 -85q-35 -184 -183 -310q-150 -123 -342 -123h-485l-100 -571h-135zM324 698h483q133 0 237 86q106 90 127 220q5 31 5 59q0 91 -56 156q-74 88 -205 88h-485z" />
<glyph unicode="Q" horiz-adv-x="1705" d="M125 717q57 315 303 524q248 211 563.5 211t487.5 -211q132 -157 132 -376q0 -71 -14 -148q-54 -313 -294 -518l174 -211l-109 -92l-180 219q-213 -133 -455 -133q-315 0 -489 211q-131 161 -131 382q0 68 12 142zM266 717q-11 -63 -11 -120q0 -179 105 -312 q141 -172 396 -172q190 0 352 98l-213 260l109 92l219 -268q190 174 235 422q11 63 11 120q0 179 -105 310q-137 174 -395 174q-256 0 -455 -174q-203 -174 -248 -430z" />
<glyph unicode="R" horiz-adv-x="1392" d="M66 0l251 1434h641q193 0 299 -125q83 -93 82 -220q0 -41 -8 -85q-29 -152 -133 -263q-106 -113 -252 -151l260 -590h-151l-256 571h-498l-100 -571h-135zM324 698h503q133 0 238 86q106 90 127 220q5 31 5 59q0 91 -56 156q-74 88 -205 88h-506z" />
<glyph unicode="S" horiz-adv-x="1271" d="M57 324l142 38q0 -111 97 -180t251 -69q160 0 280 77q121 76 144 199q3 20 3 38q0 93 -85 146q-86 51 -232 86q-244 66 -327 125q-110 80 -110 211q0 29 6 61q30 174 182 285q154 111 360 111q184 0 303 -90q117 -88 127 -229l-139 -39q-4 100 -90 163.5t-221 63.5 q-145 0 -256 -74q-109 -74 -132 -184q-3 -19 -3 -36q0 -79 68 -125q83 -56 292 -109q152 -39 235 -82q160 -79 160 -253q0 -28 -4 -59q-33 -186 -199 -303q-163 -114 -383 -114h-4q-203 0 -329 96q-127 94 -136 246z" />
<glyph unicode="T" horiz-adv-x="1390" d="M170 1307l23 127h1275l-20 -127h-571l-230 -1307h-137l229 1307h-569z" />
<glyph unicode="U" horiz-adv-x="1525" d="M145 573l152 861h135l-151 -861q-9 -49 -9 -94q0 -139 82 -237q111 -133 309.5 -133t354.5 131q157 132 194 333l152 861h135l-151 -861q-47 -254 -248 -421q-201 -170 -457 -170q-254 0 -399 170q-109 131 -109 310q0 53 10 111z" />
<glyph unicode="V" horiz-adv-x="1449" d="M180 1434h144l319 -1235l754 1235h143l-878 -1434h-107z" />
<glyph unicode="W" horiz-adv-x="2091" d="M180 1434h139l195 -1213l614 1213h105l188 -1213l621 1213h141l-749 -1434h-107l-188 1196l-609 -1196h-106z" />
<glyph unicode="X" horiz-adv-x="1363" d="M-72 0l684 731l-411 703h161l351 -596l559 596h162l-660 -703l428 -731h-162l-366 623l-584 -623h-162z" />
<glyph unicode="Y" horiz-adv-x="1355" d="M180 1434h156l348 -721l606 721h156l-717 -848l-100 -586h-135l100 584z" />
<glyph unicode="Z" horiz-adv-x="1316" d="M-16 0l16 104l1153 1203h-934l21 127h1124l-18 -105l-1151 -1202h944l-23 -127h-1132z" />
<glyph unicode="[" horiz-adv-x="602" d="M-31 -358l353 1996h409l-20 -110h-291l-311 -1776h288l-18 -110h-410z" />
<glyph unicode="\" horiz-adv-x="1052" d="M172 1638h121l579 -1996h-120z" />
<glyph unicode="]" horiz-adv-x="602" d="M-135 -358l16 110h293l311 1776h-288l20 110h408l-353 -1996h-407z" />
<glyph unicode="^" horiz-adv-x="1228" d="M147 870l414 564h105l415 -562h-139l-330 424l-325 -426h-140z" />
<glyph unicode="_" horiz-adv-x="579" d="M0 -102h580v-119h-580v119z" />
<glyph unicode="`" horiz-adv-x="671" d="M303 1647l82 110l309 -233l-61 -74z" />
<glyph unicode="a" d="M80 532q41 238 217 394q181 157 402 157h3q129 0 229.5 -57t155.5 -158l35 197h127l-186 -1065h-127l35 199q-193 -217 -463 -217q-225 0 -348 157q-91 116 -91 276q0 56 11 117zM211 532q-9 -47 -8 -90q0 -122 69 -213q95 -120 266 -120h3q174 0 313 120 q139 123 172 303q8 44 8 85q0 127 -74 218q-96 121 -268 121q-176 0 -313 -122q-137 -120 -168 -302z" />
<glyph unicode="b" d="M49 0l270 1536h127l-116 -668q88 100 210 157.5t251 57.5q225 0 348 -157q92 -117 92 -280q0 -54 -10 -114q-41 -238 -222 -393q-179 -157 -400 -157h-3q-129 0 -229.5 57t-155.5 158l-35 -197h-127zM274 532q-9 -46 -9 -89q0 -123 71 -214q95 -120 267 -120h3 q172 0 312 120q139 123 172 303q8 45 8 87q0 123 -72 215q-93 122 -265 122h-3q-176 0 -314 -122q-139 -122 -170 -302z" />
<glyph unicode="c" horiz-adv-x="1234" d="M80 532q41 238 223 394q187 157 421 157h3q164 0 281.5 -82t160.5 -223l-135 -39q-35 100 -122 158.5t-207 58.5q-180 0 -322 -122q-141 -121 -172 -302q-8 -45 -9 -87q0 -124 74 -216q97 -120 274 -120h3q123 0 231.5 58t178.5 159l118 -39q-92 -141 -238.5 -223 t-310.5 -82q-233 0 -366 157q-97 117 -97 280q0 54 11 113z" />
<glyph unicode="d" d="M80 532q41 238 217 394q181 157 402 157h3q129 0 230.5 -57t157.5 -160l116 670h127l-270 -1536h-127l35 199q-193 -217 -463 -217q-225 0 -348 157q-91 116 -91 276q0 56 11 117zM211 532q-9 -47 -8 -90q0 -122 69 -213q95 -120 266 -120h3q174 0 313 120 q139 123 172 303q8 44 8 85q0 127 -74 218q-96 121 -268 121q-176 0 -313 -122q-137 -120 -168 -302z" />
<glyph unicode="e" horiz-adv-x="1273" d="M80 532q39 238 221 394q185 158 416 158h1q232 0 359 -158q97 -122 98 -288q0 -51 -10 -106q-6 -28 -10 -38h-952q-3 -26 -3 -51q0 -137 85 -232q100 -111 278 -111q231 0 385 181l117 -41q-94 -121 -231.5 -189.5t-290.5 -68.5q-242 0 -375 157q-99 117 -99 281 q0 53 11 112zM221 600h823q1 12 1 24q0 144 -91 238q-98 102 -260 103q-158 0 -291 -105q-133 -102 -182 -260z" />
<glyph unicode="f" horiz-adv-x="702" d="M94 950l21 115h186l31 170q20 127 119 215q98 86 219 86h139l-21 -123h-133q-70 0 -126 -54t-72 -136l-29 -158h299l-18 -115h-299l-168 -950h-127l168 950h-189z" />
<glyph unicode="g" d="M12 -229l131 43q37 -76 121 -121t189 -45q182 0 323 116q143 119 170 291l25 144q-88 -102 -210 -159.5t-253 -57.5q-225 0 -348 157q-91 116 -91 276q0 56 11 117q41 238 217 394q181 157 402 157h3q129 0 229.5 -57t155.5 -158l35 197h127l-178 -1010 q-41 -227 -223 -381q-181 -153 -414 -153q-147 0 -263 68.5t-159 181.5zM211 532q-9 -47 -9 -90q0 -122 70 -213q95 -120 266 -120h3q174 0 313 120q139 123 172 303q8 44 8 85q0 126 -74 218q-96 121 -268 121q-176 0 -313 -122q-137 -120 -168 -302z" />
<glyph unicode="h" horiz-adv-x="1292" d="M49 0l270 1536h127l-118 -680q162 227 446 227q184 0 287 -122q77 -94 77 -222q0 -41 -8 -86l-114 -653h-127l108 625q7 36 7 69q0 98 -60 170q-78 96 -221 97q-162 0 -287 -99q-122 -97 -151 -244l-109 -618h-127z" />
<glyph unicode="i" horiz-adv-x="458" d="M49 0l187 1065h126l-186 -1065h-127zM250 1329q8 41 40 67.5t75 26.5q41 1 63 -27q16 -20 17 -46q0 -10 -3 -21q-8 -70 -80 -90q-19 -4 -35 -4q-42 0 -67 29q-12 18 -12 42q0 11 2 23z" />
<glyph unicode="j" horiz-adv-x="477" d="M-256 -461l23 123h73q70 0 127.5 54.5t73.5 136.5l211 1212h127l-213 -1225q-20 -127 -121 -215q-94 -86 -219 -86h-82zM266 1329q8 41 41 67.5t74 26.5t63 -27q17 -21 17 -47q0 -10 -2 -20q-6 -43 -38 -69.5t-75 -26.5q-41 0 -64 27q-17 20 -17 52q0 8 1 17z" />
<glyph unicode="k" horiz-adv-x="1034" d="M49 0l270 1536h127l-270 -1536h-127zM309 551l547 514h160l-547 -514l405 -551h-161z" />
<glyph unicode="l" horiz-adv-x="458" d="M49 0l270 1536h127l-270 -1536h-127z" />
<glyph unicode="m" horiz-adv-x="2009" d="M49 0l187 1065h126l-30 -182q151 200 408 200h3q123 0 210 -61t116 -166q43 66 133 135q123 92 309 92q176 0 273 -114q76 -87 76 -208q0 -36 -7 -75l-120 -686h-127l114 655q6 32 6 62q0 91 -54 157q-70 88 -202 87q-152 0 -264 -89q-117 -92 -137 -219v-2l-115 -651 h-127l115 655q6 32 6 62q0 91 -54 157q-71 88 -202 87q-145 0 -264 -91q-117 -92 -137 -219l-115 -651h-127z" />
<glyph unicode="n" horiz-adv-x="1296" d="M49 0l187 1065h126l-36 -209q164 227 450 227q186 0 287 -122q78 -95 78 -224q0 -40 -8 -84l-113 -653h-127l108 625q6 35 6 66q0 101 -61 173q-78 96 -221 97q-160 0 -287 -99q-124 -99 -153 -244l-109 -618h-127z" />
<glyph unicode="o" horiz-adv-x="1304" d="M80 532q41 238 223 394q187 158 423 158h1q236 0 365 -158q99 -121 99 -289q0 -51 -9 -105q-39 -238 -228 -393q-187 -158 -420 -158l-2 1q-234 0 -366 157q-97 116 -97 279q0 54 11 114zM211 532q-8 -45 -9 -87q0 -124 74 -216q98 -121 275 -121h1q178 0 322 121 q141 121 177 303q7 44 7 84q0 127 -74 219q-98 121 -279 121t-322 -122t-172 -302z" />
<glyph unicode="p" d="M-33 -461l269 1526h126l-34 -197q193 215 463 215q225 0 348 -157q92 -117 92 -280q0 -54 -10 -114q-41 -238 -222 -393q-179 -157 -400 -157h-3q-127 0 -228.5 57.5t-156.5 157.5l-117 -658h-127zM274 532q-9 -46 -9 -89q0 -123 71 -214q95 -120 267 -120h3 q172 0 312 120q139 123 172 303q8 45 8 87q0 122 -72 215q-93 122 -265 122h-3q-176 0 -314 -122q-139 -122 -170 -302z" />
<glyph unicode="q" d="M80 532q41 238 217 394q181 157 402 157h3q129 0 229.5 -57t155.5 -158l35 197h127l-268 -1526h-127l117 660q-193 -217 -463 -217q-225 0 -348 157q-91 116 -91 276q0 56 11 117zM211 532q-9 -47 -9 -90q0 -122 70 -213q95 -120 266 -120h3q174 0 313 120 q139 123 172 303q8 44 8 85q0 126 -74 218q-96 121 -268 121q-176 0 -313 -122q-137 -120 -168 -302z" />
<glyph unicode="r" horiz-adv-x="780" d="M49 0l187 1065h126l-34 -209q156 227 479 227l-25 -139q-23 8 -59 8q-162 0 -287 -98t-153 -244l-107 -610h-127z" />
<glyph unicode="s" horiz-adv-x="980" d="M18 242l123 22q4 -76 71 -122t177 -46q115 0 199 51.5t98 131.5q3 15 3 29q0 89 -126 136l-256 99q-166 65 -166 207q0 23 4 47q25 133 139.5 209.5t278.5 76.5q145 0 231.5 -64.5t90.5 -170.5l-125 -25q-4 68 -64.5 108t-158.5 40q-104 0 -179 -46t-88 -120 q-2 -14 -2 -27q0 -83 101 -123l264 -100q182 -71 182 -225q0 -23 -4 -47q-25 -139 -149 -222q-123 -79 -291 -79h-4q-160 0 -253.5 70.5t-95.5 189.5z" />
<glyph unicode="t" horiz-adv-x="743" d="M88 950l21 115h182l39 215h127l-39 -215h315l-18 -115h-316l-112 -637q-4 -22 -4 -43q-1 -54 27 -93q38 -54 108 -54h147l-20 -123h-156q-121 0 -188 86q-49 67 -49 153q0 30 6 62l114 649h-184z" />
<glyph unicode="u" horiz-adv-x="1296" d="M117 412l112 653h127l-108 -623q-8 -38 -8 -72q0 -98 61 -169q80 -96 223 -97q160 0 287 98.5t152 243.5l110 619h127l-186 -1065h-127l35 207q-164 -225 -449 -225q-187 0 -289 122q-76 91 -76 218q0 43 9 90z" />
<glyph unicode="v" horiz-adv-x="1116" d="M102 1065h134l235 -899l551 899h133l-657 -1065h-113z" />
<glyph unicode="w" horiz-adv-x="1599" d="M102 1065h129l144 -866l440 866h109l137 -866l446 866h129l-559 -1065h-106l-137 852l-439 -852h-108z" />
<glyph unicode="x" horiz-adv-x="1097" d="M-68 0l519 543l-314 522h152l258 -420l401 420h152l-496 -522l328 -543h-154l-268 442l-424 -442h-154z" />
<glyph unicode="y" horiz-adv-x="1075" d="M-104 -461l22 123h51q164 0 271 174l116 193l-254 1036h134l213 -883l532 883h133l-772 -1272q-80 -133 -173 -193.5t-220 -60.5h-53z" />
<glyph unicode="z" horiz-adv-x="1052" d="M-27 0l17 100l839 846h-679l20 119h852l-16 -100l-842 -846h702l-20 -119h-873z" />
<glyph unicode="{" horiz-adv-x="643" d="M18 586l21 110q16 0 65 17q125 47 140 137l96 545q18 104 98.5 173.5t182.5 69.5h151l-20 -110h-142q-55 0 -98 -38t-53 -95l-97 -545q-16 -84 -71 -137.5t-133 -71.5q70 -18 107.5 -72.5t23.5 -138.5l-96 -545q-10 -57 19.5 -95t82.5 -38h143l-18 -110h-152 q-102 0 -157.5 69.5t-36.5 173.5l96 545q10 53 -24.5 93t-84.5 52z" />
<glyph unicode="|" horiz-adv-x="409" d="M150 -358v1996h110v-1996h-110z" />
<glyph unicode="}" horiz-adv-x="643" d="M-135 -358l16 110h142q55 0 100 39t53 94l96 545q16 84 72.5 138.5t134.5 72.5q-74 18 -111.5 72.5t-21.5 136.5l96 545q10 57 -20.5 95t-85.5 38h-139l20 110h150q102 0 157.5 -69.5t36.5 -173.5l-96 -545q-10 -53 24.5 -92t83.5 -51l43 -11l-18 -110q-37 -8 -66 -19 q-125 -41 -141 -137l-96 -545q-18 -104 -98 -173.5t-183 -69.5h-149z" />
<glyph unicode="~" horiz-adv-x="1228" d="M147 584q0 119 80 198.5t197 79.5q61 0 116.5 -27.5t90.5 -59.5t82 -58.5t94 -26.5q68 0 113 46t45 114h116q0 -119 -82 -199q-81 -78 -198 -78q-68 -2 -139.5 42t-134 88.5t-109.5 39.5q-68 0 -111 -46t-43 -113h-117z" />
<glyph unicode="&#xa1;" horiz-adv-x="499" d="M0 -369l193 1018h110l-168 -1018h-135zM203 983q8 43 42 71.5t79 28.5q43 0 67.5 -28.5t16.5 -71.5q-8 -45 -42 -73.5t-79 -28.5q-43 0 -67.5 28.5t-16.5 73.5z" />
<glyph unicode="&#xa2;" horiz-adv-x="1234" d="M111 717q41 223 206 375q168 156 390 174l41 229h100l-39 -229q147 -12 250.5 -93t142.5 -210l-135 -39q-35 100 -122 158.5t-208 58.5q-178 0 -321 -121q-139 -119 -174 -303q-33 -180 65 -303q102 -121 279 -121q121 0 228.5 58.5t180.5 158.5l119 -39 q-86 -131 -216 -211t-282 -92l-43 -229h-100l41 229q-215 18 -328 172q-115 160 -75 377z" />
<glyph unicode="&#xa3;" horiz-adv-x="1189" d="M-43 0l20 127h189l88 491h-143l16 101h143l58 321q31 172 172 293q143 119 317 119q150 0 258 -86q109 -86 133 -219l-135 -41q-18 94 -95 156.5t-179 62.5q-119 0 -221 -84q-98 -82 -119 -201l-58 -321h447l-17 -101h-446l-86 -491h705l-23 -127h-1024z" />
<glyph unicode="&#xa4;" horiz-adv-x="1241" d="M150 328l157 155q-78 102 -78 234q0 129 78 237l-155 158l77 76l156 -158q106 78 236 78q133 0 235 -78l158 158l78 -76l-160 -160q80 -98 80 -235q0 -133 -78 -236l156 -157l-76 -76l-158 158q-102 -80 -235 -80q-137 0 -238 80l-156 -156zM340 717q0 -121 80 -201 t200.5 -80t200.5 80t80 201t-80 200.5t-200.5 79.5t-200.5 -79.5t-80 -200.5z" />
<glyph unicode="&#xa5;" horiz-adv-x="1355" d="M180 1434h156l348 -721l606 721h156l-715 -846l-12 -66h338l-19 -102h-336l-26 -152h336l-19 -102h-336l-28 -166h-135l28 166h-338l17 102h340l26 152h-340l19 102h340l10 62z" />
<glyph unicode="&#xa6;" horiz-adv-x="409" d="M150 -358v831h110v-831h-110zM150 807v831h110v-831h-110z" />
<glyph unicode="&#xa7;" horiz-adv-x="970" d="M-43 -109l123 46q4 -92 69.5 -147.5t174.5 -55.5q117 0 200 63q90 63 105 160q20 143 -107 205l-260 129q-182 90 -147 305q31 170 182 266q-119 84 -90 254q29 145 145 240q121 96 277 96q135 0 223 -68.5t98 -179.5l-125 -43q-4 80 -63.5 130t-155.5 50 q-100 0 -179 -63.5t-95 -157.5q-12 -63 9 -115.5t69 -74.5l276 -129q94 -45 136 -128t24 -186q-27 -168 -187 -268q125 -92 95 -254q-29 -150 -154 -246q-127 -96 -297 -96q-152 0 -247 75t-99 193zM239.5 598q-12.5 -68 11 -123t73.5 -80l233 -114q141 66 164 204 q26 154 -111 217l-213 99q-55 -20 -100 -77.5t-57.5 -125.5z" />
<glyph unicode="&#xa8;" horiz-adv-x="864" d="M285 1542q6 39 37.5 65.5t72.5 26.5q39 0 60.5 -26.5t13.5 -65.5q-4 -68 -76 -86q-66 -18 -98 23q-22 24 -10 63zM702 1542q8 39 40 65.5t71 26.5t61.5 -26.5t14.5 -65.5q-4 -68 -76 -86q-70 -18 -102 25q-19 24 -9 61z" />
<glyph unicode="&#xa9;" horiz-adv-x="1695" d="M119 717q0 303 213 516t516 213q301 0 514 -213q215 -213 215 -516t-215 -516q-213 -213 -514 -213q-303 0 -516 213t-213 516zM184 716.5q0 -274.5 194.5 -469t469 -194.5t469 194.5t194.5 469t-194.5 469t-469 194.5t-469 -194.5t-194.5 -469zM475 717q0 162 109 270 q113 109 274 109q109 0 198 -50.5t138 -138.5l-88 -33q-82 135 -248 136q-123 0 -207 -84q-82 -82 -82 -209t82 -209t207 -82q164 0 248 133l88 -33q-51 -88 -139 -139t-197 -51q-162 0 -274 108q-109 109 -109 273z" />
<glyph unicode="&#xaa;" horiz-adv-x="931" d="M135 1061q29 164 152 272q123 111 276 111q184 0 264 -152l25 142h106l-131 -746h-106l24 143q-129 -151 -317 -151q-154 0 -238 108q-82 111 -55 273zM244 1061q-20 -119 43 -199t178 -80q113 0 203 80q94 82 114 199q20 119 -42 198.5t-176.5 79.5t-207.5 -79 q-92 -82 -112 -199z" />
<glyph unicode="&#xab;" horiz-adv-x="1050" d="M63 532l437 371l61 -76l-344 -295l242 -294l-92 -76zM463 532l436 371l62 -76l-345 -295l242 -294l-92 -76z" />
<glyph unicode="&#xac;" horiz-adv-x="1228" d="M147 657v119h934v-428h-112v309h-822z" />
<glyph unicode="&#xad;" horiz-adv-x="819" d="M113 473l20 119h526l-20 -119h-526z" />
<glyph unicode="&#xae;" horiz-adv-x="1695" d="M119 717q0 303 213 516t516 213q301 0 514 -213q215 -213 215 -516t-215 -516q-213 -213 -514 -213q-303 0 -516 213t-213 516zM184 716.5q0 -274.5 194.5 -469t469 -194.5t469 194.5t194.5 469t-194.5 469t-469 194.5t-469 -194.5t-194.5 -469zM580 346v741h333 q104 0 174 -65.5t70 -163.5q0 -74 -43 -133t-113 -84l181 -295h-103l-172 281h-235v-281h-92zM672 713h241q66 0 108 41t42 104.5t-42 104.5t-108 41h-241v-291z" />
<glyph unicode="&#xaf;" horiz-adv-x="823" d="M276 1499l21 111h563l-20 -111h-564z" />
<glyph unicode="&#xb0;" horiz-adv-x="780" d="M188 1249q20 129 125 217q102 88 236 88q131 0 201 -88q70 -86 49 -217q-20 -127 -125 -219q-100 -86 -233 -86t-203 86q-70 88 -50 219zM303 1249q-14 -82 31 -136t127 -54t145.5 54t77.5 136t-31 136.5t-125 54.5q-82 0 -146.5 -54.5t-78.5 -136.5z" />
<glyph unicode="&#xb1;" horiz-adv-x="1228" d="M147 162v119h934v-119h-934zM147 811v119h408v407h119v-407h407v-119h-407v-360h-119v360h-408z" />
<glyph unicode="&#xb2;" horiz-adv-x="657" d="M72 748l12 63l350 291q82 68 121 112t49 93q10 63 -33 107t-114 44q-133 0 -209 -135l-76 39q51 84 131 133t170 49q111 0 175.5 -68.5t47.5 -164.5q-23 -115 -211 -264l-260 -213h398l-15 -86h-536z" />
<glyph unicode="&#xb3;" horiz-adv-x="667" d="M96 893l88 31q12 -45 56.5 -72t111.5 -27q82 0 143.5 42t73.5 104q10 61 -37 102t-124 41h-60v4l12 66v2h43q78 0 138.5 39t70.5 98q10 57 -33.5 96t-117.5 39q-129 0 -195 -98l-71 31q45 70 120.5 111.5t165.5 41.5q111 0 175.5 -62.5t48.5 -156.5q-23 -121 -160 -170 q137 -51 114 -188q-16 -96 -108 -162q-94 -66 -213 -66q-96 0 -159.5 42t-82.5 112z" />
<glyph unicode="&#xb4;" horiz-adv-x="671" d="M281 1524l389 233l45 -110l-402 -197z" />
<glyph unicode="&#xb5;" horiz-adv-x="1296" d="M160 -461v1526h127v-623q0 -141 96 -241q96 -96 242 -97q162 0 268 99q111 98 111 243v619h126v-1065h-126v207q-127 -225 -412 -225q-184 0 -305 118v-561h-127z" />
<glyph unicode="&#xb6;" horiz-adv-x="1388" d="M176 1028q31 176 168 289q139 117 311 117h789l-19 -101h-227l-299 -1691h-108l296 1691h-339l-299 -1691h-109l172 979q-176 0 -270 116q-96 117 -66 291z" />
<glyph unicode="&#xb7;" horiz-adv-x="430" d="M121 717q8 45 43 73.5t78 28.5q45 0 68.5 -28.5t15.5 -73.5q-8 -43 -42 -73t-77 -30t-67.5 30t-18.5 73z" />
<glyph unicode="&#xb8;" horiz-adv-x="534" d="M-109 -360l43 71q43 -66 136 -65q53 0 95 25.5t50 60.5q6 35 -28.5 58.5t-82.5 29.5l-41 6l74 174h103l-50 -119q6 0 16.5 -3t34 -14t41 -25.5t29 -43t4.5 -63.5q-12 -72 -81.5 -121t-161.5 -49q-100 0 -162 57z" />
<glyph unicode="&#xb9;" horiz-adv-x="475" d="M186 1413l252 123h60l-140 -788h-88l121 679l-184 -90z" />
<glyph unicode="&#xba;" horiz-adv-x="905" d="M135.5 1061q28.5 164 157.5 272q133 111 297 111q166 0 258 -111q92 -106 63 -272q-27 -162 -159 -273q-133 -109 -297 -108q-166 0 -258 108q-90 109 -61.5 273zM244 1061q-23 -117 45 -199q68 -80 186 -80q117 0 209 80q96 84 117 199q20 119 -46.5 198.5t-183 79.5 t-213.5 -79q-91 -78 -114 -199z" />
<glyph unicode="&#xbb;" horiz-adv-x="1050" d="M43 238l346 294l-244 295l93 76l305 -371l-439 -370zM442 238l346 294l-243 295l92 76l305 -371l-438 -370z" />
<glyph unicode="&#xbc;" horiz-adv-x="1576" d="M63 0l1260 1434h119l-1260 -1434h-119zM168 1311l252 123h59l-139 -789h-88l119 678l-183 -88zM801 164l12 88l545 536h82l-97 -538h117l-14 -86h-117l-29 -164h-90l29 164h-438zM922 250h333l70 403z" />
<glyph unicode="&#xbd;" horiz-adv-x="1626" d="M63 0l1260 1434h119l-1260 -1434h-119zM168 1311l252 123h59l-139 -789h-88l119 678l-183 -88zM909 0l11 63l352 291l80 68q76 67 88 137q10 63 -32 107.5t-114 44.5q-131 0 -209 -136l-77 39q51 84 131 133.5t170 49.5q111 0 176 -69t49 -165q-20 -117 -213 -264 l-258 -213h397l-14 -86h-537z" />
<glyph unicode="&#xbe;" horiz-adv-x="1773" d="M78 791l88 30q12 -45 56 -71.5t112 -26.5q82 0 144.5 42t72.5 103.5t-36 102.5t-126 41h-59v4l14 65v2h43q78 0 137.5 39t69.5 99q10 57 -34 96t-118 39q-131 0 -194 -99l-72 31q45 70 121 112t166 42q111 0 175 -62.5t48 -156.5q-16 -57 -27 -68q-39 -68 -131 -102 q133 -51 113 -189q-16 -96 -109 -162q-93 -65 -210 -65q-96 0 -161 42t-83 112zM244 0l1261 1434h119l-1262 -1434h-118zM995 164l15 88l544 536h82l-94 -538h115l-15 -86h-116l-29 -164h-90l29 164h-441zM1116 250h336l70 405z" />
<glyph unicode="&#xbf;" horiz-adv-x="1085" d="M-27 12q35 174 191 291q125 92 237 137l43 17l41 192h111l-35 -268l-24 -8q-51 -16 -144 -62q-106 -51 -180 -118q-93 -89 -107 -179q-23 -115 66 -194q86 -80 231 -80q121 0 222.5 57.5t150.5 149.5l123 -41q-70 -131 -211 -211q-137 -82 -305 -82q-199 0 -320 117 q-119 113 -90 282zM498 981q8 45 41.5 73.5t76.5 28.5q45 0 68.5 -28.5t15.5 -73.5q-6 -43 -39.5 -71.5t-78.5 -28.5q-43 0 -68 28.5t-16 71.5z" />
<glyph unicode="&#xc0;" horiz-adv-x="1470" d="M-72 0l889 1434h107l385 -1434h-144l-94 350h-782l-217 -350h-144zM367 477h671l-202 760zM629 1774l82 110l307 -233l-60 -76z" />
<glyph unicode="&#xc1;" horiz-adv-x="1470" d="M-72 0l889 1434h107l385 -1434h-144l-94 350h-782l-217 -350h-144zM367 477h671l-202 760zM803 1651l389 233l43 -110l-399 -199z" />
<glyph unicode="&#xc2;" horiz-adv-x="1470" d="M-72 0l889 1434h107l385 -1434h-144l-94 350h-782l-217 -350h-144zM367 477h671l-202 760zM588 1645l356 245h12l271 -245l-70 -70l-229 182l-297 -182z" />
<glyph unicode="&#xc3;" horiz-adv-x="1470" d="M-72 0l889 1434h107l385 -1434h-144l-94 350h-782l-217 -350h-144zM367 477h671l-202 760zM594 1589q14 82 79.5 139.5t145.5 57.5q63 0 113 -55q53 -53 88 -54q39 0 70.5 29t39.5 72h105q-16 -86 -79.5 -141.5t-143.5 -55.5q-57 0 -114.5 54.5t-86.5 54.5q-39 0 -73 -30 t-40 -71h-104z" />
<glyph unicode="&#xc4;" horiz-adv-x="1470" d="M-72 0l889 1434h107l385 -1434h-144l-94 350h-782l-217 -350h-144zM367 477h671l-202 760zM610 1667q6 41 37 66.5t72 25.5q39 0 60.5 -26.5t15.5 -65.5q-8 -39 -39 -65.5t-70 -26.5q-41 0 -62.5 26.5t-13.5 65.5zM1028 1667q8 68 78 86q66 18 98 -24q16 -27 10 -62 q-8 -39 -38.5 -65.5t-71.5 -26.5t-62.5 26.5t-13.5 65.5z" />
<glyph unicode="&#xc5;" horiz-adv-x="1470" d="M-72 0l889 1434h107l385 -1434h-144l-94 350h-782l-217 -350h-144zM367 477h671l-202 760zM719 1753q14 86 86 148q72 61 158 61t136 -61.5t36 -147.5q-14 -82 -88 -145q-72 -61 -156 -62q-86 0 -136 61.5t-36 145.5zM815 1753q-8 -47 18.5 -79t73.5 -32t85 33t46 78 q8 47 -18.5 80t-73.5 33t-85 -33t-46 -80z" />
<glyph unicode="&#xc6;" horiz-adv-x="2045" d="M-72 0l1188 1434h971l-23 -127h-774l-90 -516h674l-23 -127h-673l-95 -537h785l-23 -127h-919l61 350h-614l-289 -350h-156zM477 477h533l143 817z" />
<glyph unicode="&#xc7;" horiz-adv-x="1601" d="M125 717q57 315 303 524q248 211 563 211q205 0 355.5 -94t218.5 -262l-138 -52q-57 129 -178 203t-280 74q-256 0 -455 -174q-203 -174 -248 -430t94 -432q141 -172 396 -172q160 0 305 72.5t250 203.5l121 -51q-113 -152 -280 -246t-353 -108l-43 -103q10 0 39.5 -9 t62.5 -47t23 -93q-12 -72 -81 -121t-161 -49q-104 0 -162 57l-18 21l41 71q47 -66 137 -65q53 0 95 25.5t48 60.5t-28.5 59.5t-79.5 28.5l-41 6l63 156q-299 16 -461 223q-160 209 -108 512z" />
<glyph unicode="&#xc8;" horiz-adv-x="1294" d="M66 0l251 1434h1020l-22 -127h-885l-90 -516h782l-20 -127h-785l-94 -537h893l-20 -127h-1030zM569 1774l84 110l308 -233l-62 -76z" />
<glyph unicode="&#xc9;" horiz-adv-x="1294" d="M66 0l251 1434h1020l-22 -127h-885l-90 -516h782l-20 -127h-785l-94 -537h893l-20 -127h-1030zM743 1651l390 233l45 -110l-402 -199z" />
<glyph unicode="&#xca;" horiz-adv-x="1294" d="M66 0l251 1434h1020l-22 -127h-885l-90 -516h782l-20 -127h-785l-94 -537h893l-20 -127h-1030zM530 1645l357 245h10l270 -245l-67 -70l-232 182l-297 -182z" />
<glyph unicode="&#xcb;" horiz-adv-x="1294" d="M66 0l251 1434h1020l-22 -127h-885l-90 -516h782l-20 -127h-785l-94 -537h893l-20 -127h-1030zM551 1667q6 39 36.5 65.5t71.5 26.5q39 0 61.5 -26.5t16.5 -65.5q-8 -39 -38.5 -65.5t-71.5 -26.5t-62.5 26.5t-13.5 65.5zM971 1667q6 39 35.5 65.5t70.5 26.5t63.5 -26.5 t16.5 -65.5q-8 -39 -39.5 -65.5t-70.5 -26.5q-41 0 -62.5 26.5t-13.5 65.5z" />
<glyph unicode="&#xcc;" horiz-adv-x="499" d="M66 0l251 1434h136l-252 -1434h-135zM143 1774l82 110l310 -233l-62 -76z" />
<glyph unicode="&#xcd;" horiz-adv-x="499" d="M66 0l251 1434h136l-252 -1434h-135zM317 1651l390 233l45 -110l-402 -199z" />
<glyph unicode="&#xce;" horiz-adv-x="499" d="M66 0l251 1434h136l-252 -1434h-135zM102 1645l359 245h10l270 -245l-67 -70l-232 182l-297 -182z" />
<glyph unicode="&#xcf;" horiz-adv-x="499" d="M66 0l251 1434h136l-252 -1434h-135zM125 1667q6 41 37 66.5t71 25.5q39 0 61.5 -26.5t14.5 -65.5t-38.5 -65.5t-69.5 -26.5q-41 0 -62.5 26.5t-13.5 65.5zM545 1667q6 39 35.5 65.5t70.5 26.5q39 0 61.5 -25.5t16.5 -66.5q-8 -39 -39 -65.5t-72 -26.5q-39 0 -60 25.5 t-13 66.5z" />
<glyph unicode="&#xd0;" horiz-adv-x="1611" d="M20 657l19 119h180l115 658h559q311 0 487 -207q174 -205 121 -510q-51 -303 -301 -510q-248 -207 -559 -207h-559l115 657h-177zM240 127h424q254 0 454.5 170t243.5 420q47 250 -96 420q-141 170 -396 170h-421l-95 -531h451l-21 -119h-450z" />
<glyph unicode="&#xd1;" horiz-adv-x="1570" d="M66 0l251 1434h117l748 -1196l211 1196h131l-252 -1434h-117l-747 1200l-211 -1200h-131zM643 1589q16 82 82 139.5t145 57.5q59 0 113 -55q53 -53 88 -54q37 0 68.5 29t40.5 72h104q-14 -86 -77.5 -141.5t-143.5 -55.5q-59 0 -116.5 54.5t-86.5 54.5q-39 0 -71.5 -30 t-40.5 -71h-105z" />
<glyph unicode="&#xd2;" horiz-adv-x="1705" d="M125 717q57 315 303 524q248 211 563.5 211t487.5 -211q174 -207 118 -524q-55 -313 -302.5 -524t-561.5 -211q-315 0 -489 211q-172 211 -119 524zM266 717q-45 -256 94 -432q141 -172 396 -172q256 0 454 172q203 178 248 432q45 256 -94 430q-137 174 -395 174 q-256 0 -455 -174q-203 -174 -248 -430zM745 1774l84 110l308 -233l-62 -76z" />
<glyph unicode="&#xd3;" horiz-adv-x="1705" d="M125 717q57 315 303 524q248 211 563.5 211t487.5 -211q174 -207 118 -524q-55 -313 -302.5 -524t-561.5 -211q-315 0 -489 211q-172 211 -119 524zM266 717q-45 -256 94 -432q141 -172 396 -172q256 0 454 172q203 178 248 432q45 256 -94 430q-137 174 -395 174 q-256 0 -455 -174q-203 -174 -248 -430zM920 1651l391 233l43 -110l-402 -199z" />
<glyph unicode="&#xd4;" horiz-adv-x="1705" d="M125 717q57 315 303 524q248 211 563.5 211t487.5 -211q174 -207 118 -524q-55 -313 -302.5 -524t-561.5 -211q-315 0 -489 211q-172 211 -119 524zM266 717q-45 -256 94 -432q141 -172 396 -172q256 0 454 172q203 178 248 432q45 256 -94 430q-137 174 -395 174 q-256 0 -455 -174q-203 -174 -248 -430zM707 1645l356 245h10l273 -245l-70 -70l-229 182l-299 -182z" />
<glyph unicode="&#xd5;" horiz-adv-x="1705" d="M125 717q57 315 303 524q248 211 563.5 211t487.5 -211q174 -207 118 -524q-55 -313 -302.5 -524t-561.5 -211q-315 0 -489 211q-172 211 -119 524zM266 717q-45 -256 94 -432q141 -172 396 -172q256 0 454 172q203 178 248 432q45 256 -94 430q-137 174 -395 174 q-256 0 -455 -174q-203 -174 -248 -430zM711 1589q16 82 81.5 139.5t145.5 57.5q59 0 113 -55q53 -53 88 -54q37 0 68.5 29t39.5 72h105q-14 -86 -78 -141.5t-144 -55.5q-45 0 -81.5 26.5t-65.5 54.5t-55 28q-39 0 -72 -30t-41 -71h-104z" />
<glyph unicode="&#xd6;" horiz-adv-x="1705" d="M125 717q57 315 303 524q248 211 563.5 211t487.5 -211q174 -207 118 -524q-55 -313 -302.5 -524t-561.5 -211q-315 0 -489 211q-172 211 -119 524zM266 717q-45 -256 94 -432q141 -172 396 -172q256 0 454 172q203 178 248 432q45 256 -94 430q-137 174 -395 174 q-256 0 -455 -174q-203 -174 -248 -430zM727 1667q6 39 37 65.5t72 26.5q39 0 61.5 -25.5t15.5 -66.5q-8 -39 -38.5 -65.5t-71.5 -26.5t-62.5 26.5t-13.5 65.5zM1147 1667q6 39 36.5 65.5t71.5 26.5q39 0 61.5 -26.5t16.5 -65.5q-8 -39 -38.5 -65.5t-71.5 -26.5t-62.5 26.5 t-13.5 65.5z" />
<glyph unicode="&#xd7;" horiz-adv-x="1228" d="M205 391l325 326l-325 325l84 84l325 -325l328 325l82 -82l-326 -327l326 -326l-82 -84l-328 326l-325 -326z" />
<glyph unicode="&#xd8;" horiz-adv-x="1705" d="M125 717q57 315 303 524q248 211 563 211q213 0 363 -98l88 98l80 -63l-88 -99q227 -213 163 -573q-55 -313 -302.5 -524t-561.5 -211q-213 0 -358 98l-88 -98l-78 61l86 98q-111 100 -156 251t-14 325zM266 717q-49 -287 127 -463l862 987q-121 80 -286 80 q-256 0 -455 -174q-203 -174 -248 -430zM471 190q125 -78 285 -77q256 0 454 172q203 178 248 432q49 285 -125 459z" />
<glyph unicode="&#xd9;" horiz-adv-x="1525" d="M145 573l152 861h135l-151 -861q-35 -201 73 -331q111 -133 309.5 -133t354.5 131q157 132 194 333l152 861h135l-151 -861q-47 -254 -248 -421q-201 -170 -457 -170q-254 0 -399 170q-141 170 -99 421zM655 1774l84 110l308 -233l-62 -76z" />
<glyph unicode="&#xda;" horiz-adv-x="1525" d="M145 573l152 861h135l-151 -861q-35 -201 73 -331q111 -133 309.5 -133t354.5 131q157 132 194 333l152 861h135l-151 -861q-47 -254 -248 -421q-201 -170 -457 -170q-254 0 -399 170q-141 170 -99 421zM829 1651l390 233l45 -110l-402 -199z" />
<glyph unicode="&#xdb;" horiz-adv-x="1525" d="M145 573l152 861h135l-151 -861q-35 -201 73 -331q111 -133 309.5 -133t354.5 131q157 132 194 333l152 861h135l-151 -861q-47 -254 -248 -421q-201 -170 -457 -170q-254 0 -399 170q-141 170 -99 421zM616 1645l357 245h10l272 -245l-69 -70l-230 182l-299 -182z" />
<glyph unicode="&#xdc;" horiz-adv-x="1525" d="M145 573l152 861h135l-151 -861q-35 -201 73 -331q111 -133 309.5 -133t354.5 131q157 132 194 333l152 861h135l-151 -861q-47 -254 -248 -421q-201 -170 -457 -170q-254 0 -399 170q-141 170 -99 421zM637 1667q6 39 37 65.5t71 26.5q39 0 61.5 -26.5t16.5 -65.5 q-8 -39 -38.5 -65.5t-71.5 -26.5t-62.5 26.5t-13.5 65.5zM1057 1667q6 39 36.5 65.5t69.5 26.5q41 0 63.5 -26.5t16.5 -65.5q-8 -39 -40 -65.5t-70 -26.5q-41 0 -62.5 26.5t-13.5 65.5z" />
<glyph unicode="&#xdd;" horiz-adv-x="1355" d="M180 1434h156l348 -721l606 721h156l-717 -848l-100 -586h-135l100 584zM745 1651l390 233l45 -110l-402 -199z" />
<glyph unicode="&#xde;" horiz-adv-x="1351" d="M66 0l251 1434h136l-50 -285h484q193 0 299 -125q109 -123 74 -307q-35 -186 -183 -307q-152 -123 -342 -123h-483l-51 -287h-135zM272 414h486q135 0 235 86q106 88 127 217q25 131 -49 217q-74 88 -207 88h-483z" />
<glyph unicode="&#xdf;" horiz-adv-x="1185" d="M49 0l211 1204q27 150 150 250q119 100 278 100q154 0 240 -96q86 -94 61 -225q-6 -55 -46 -108.5t-83 -88.5t-80 -76.5t-39 -74.5q-8 -49 26 -90t84 -77t99 -80t76 -120t10 -176q-57 -356 -553 -356l23 127q358 0 401 233q14 78 -14.5 138.5t-79.5 98.5t-101 75.5 t-82 93t-20 127.5q6 51 44 103t81 88t81 81t42 84q12 78 -42 135t-146 57q-104 0 -185.5 -68.5t-99.5 -170.5l-209 -1188h-127z" />
<glyph unicode="&#xe0;" d="M80 532q41 238 217 394q182 158 405 157q129 0 229.5 -57t155.5 -158l35 197h127l-186 -1065h-127l35 199q-193 -217 -463 -217q-225 0 -348 157q-123 156 -80 393zM211 532q-33 -180 61 -303q96 -121 269 -120q174 0 313 120q139 123 172 303q31 182 -65.5 303 t-268.5 121q-176 0 -313 -122q-137 -120 -168 -302zM508 1438l80 110l309 -233l-59 -76z" />
<glyph unicode="&#xe1;" d="M80 532q41 238 217 394q182 158 405 157q129 0 229.5 -57t155.5 -158l35 197h127l-186 -1065h-127l35 199q-193 -217 -463 -217q-225 0 -348 157q-123 156 -80 393zM211 532q-33 -180 61 -303q96 -121 269 -120q174 0 313 120q139 123 172 303q31 182 -65.5 303 t-268.5 121q-176 0 -313 -122q-137 -120 -168 -302zM682 1315l387 233l45 -110l-401 -199z" />
<glyph unicode="&#xe2;" d="M80 532q41 238 217 394q182 158 405 157q129 0 229.5 -57t155.5 -158l35 197h127l-186 -1065h-127l35 199q-193 -217 -463 -217q-225 0 -348 157q-123 156 -80 393zM211 532q-33 -180 61 -303q96 -121 269 -120q174 0 313 120q139 123 172 303q31 182 -65.5 303 t-268.5 121q-176 0 -313 -122q-137 -120 -168 -302zM467 1309l356 245h11l272 -245l-70 -70l-229 182l-297 -182z" />
<glyph unicode="&#xe3;" d="M80 532q41 238 217 394q182 158 405 157q129 0 229.5 -57t155.5 -158l35 197h127l-186 -1065h-127l35 199q-193 -217 -463 -217q-225 0 -348 157q-123 156 -80 393zM211 532q-33 -180 61 -303q96 -121 269 -120q174 0 313 120q139 123 172 303q31 182 -65.5 303 t-268.5 121q-176 0 -313 -122q-137 -120 -168 -302zM473 1253q14 82 79.5 139.5t145.5 57.5q63 0 113 -55q53 -53 88 -54q37 0 68.5 29t40.5 72h106q-16 -86 -79.5 -141.5t-143.5 -55.5q-61 0 -115 53q-53 55 -88 56q-37 0 -70.5 -30t-39.5 -71h-105z" />
<glyph unicode="&#xe4;" d="M80 532q41 238 217 394q182 158 405 157q129 0 229.5 -57t155.5 -158l35 197h127l-186 -1065h-127l35 199q-193 -217 -463 -217q-225 0 -348 157q-123 156 -80 393zM211 532q-33 -180 61 -303q96 -121 269 -120q174 0 313 120q139 123 172 303q31 182 -65.5 303 t-268.5 121q-176 0 -313 -122q-137 -120 -168 -302zM488.5 1295.5q-13.5 62.5 37.5 101.5q49 43 102.5 20.5t45.5 -86.5q-8 -39 -39 -65.5t-70 -26.5q-63 -6 -76.5 56.5zM907 1331q6 39 37 65.5t72 26.5t62.5 -26.5t13.5 -65.5q-6 -39 -37 -65.5t-72 -26.5t-62.5 26.5 t-13.5 65.5z" />
<glyph unicode="&#xe5;" d="M80 532q41 238 217 394q182 158 405 157q129 0 229.5 -57t155.5 -158l35 197h127l-186 -1065h-127l35 199q-193 -217 -463 -217q-225 0 -348 157q-123 156 -80 393zM211 532q-33 -180 61 -303q96 -121 269 -120q174 0 313 120q139 123 172 303q31 182 -65.5 303 t-268.5 121q-176 0 -313 -122q-137 -120 -168 -302zM598 1417q16 86 87 146.5t157 60.5t136 -60.5t34 -146.5t-86 -147q-72 -59 -158 -59.5t-135 60t-35 146.5zM694 1417q-10 -45 17.5 -77.5t74.5 -32.5q45 0 83 31.5t49 78.5q8 47 -19 80t-74 33t-85 -33t-46 -80z" />
<glyph unicode="&#xe6;" horiz-adv-x="2226" d="M80 532q41 238 217 394q182 158 405 157q129 0 229.5 -57t155.5 -158l35 197h127l-35 -199q193 217 467 217q223 0 351 -157q125 -154 84 -394q0 -6 -9 -38h-954q-18 -170 82 -283q100 -111 281 -111q229 0 385 181l114 -41q-92 -121 -227 -189.5t-285 -68.5 q-135 0 -242.5 58t-162.5 163l-35 -203h-127l35 199q-193 -217 -463 -217q-225 0 -348 157q-123 156 -80 393zM211 532q-33 -180 61 -303q96 -121 269 -120q174 0 313 120q139 123 172 303q31 182 -65.5 303t-268.5 121q-176 0 -313 -122q-137 -120 -168 -302zM1174 600h821 q8 160 -90.5 262.5t-258 102.5t-292.5 -103q-131 -100 -180 -262z" />
<glyph unicode="&#xe7;" horiz-adv-x="1234" d="M80 532q41 238 223 394q188 158 424 157q164 0 281.5 -81.5t160.5 -223.5l-135 -39q-35 100 -122 158.5t-207 58.5q-180 0 -322 -122q-141 -121 -172 -302q-33 -180 65 -303q98 -121 277 -120q123 0 231.5 58t178.5 159l118 -39q-80 -125 -209 -206t-274 -95l-43 -105 q10 0 40 -9t62.5 -47t22.5 -93q-12 -72 -81 -121t-161 -49q-104 0 -162 57l-18 21l41 71q47 -66 137 -65q53 0 95 25.5t48.5 60.5t-28.5 59.5t-80 28.5l-41 6l66 158q-221 12 -340 168q-117 156 -76 380z" />
<glyph unicode="&#xe8;" horiz-adv-x="1273" d="M80 532q39 238 221 394q186 158 417.5 157.5t358.5 -157.5q127 -160 88 -394q-6 -28 -10 -38h-952q-18 -170 82 -283q100 -111 278 -111q231 0 385 181l117 -41q-94 -121 -231.5 -189.5t-290.5 -68.5q-242 0 -375 157q-131 156 -88 393zM221 600h823q8 160 -90 262.5 t-260 102.5q-158 0 -291 -105q-133 -102 -182 -260zM485 1438l82 110l310 -233l-62 -76z" />
<glyph unicode="&#xe9;" horiz-adv-x="1273" d="M80 532q39 238 221 394q186 158 417.5 157.5t358.5 -157.5q127 -160 88 -394q-6 -28 -10 -38h-952q-18 -170 82 -283q100 -111 278 -111q231 0 385 181l117 -41q-94 -121 -231.5 -189.5t-290.5 -68.5q-242 0 -375 157q-131 156 -88 393zM221 600h823q8 160 -90 262.5 t-260 102.5q-158 0 -291 -105q-133 -102 -182 -260zM659 1315l388 233l47 -110l-402 -199z" />
<glyph unicode="&#xea;" horiz-adv-x="1273" d="M80 532q39 238 221 394q186 158 417.5 157.5t358.5 -157.5q127 -160 88 -394q-6 -28 -10 -38h-952q-18 -170 82 -283q100 -111 278 -111q231 0 385 181l117 -41q-94 -121 -231.5 -189.5t-290.5 -68.5q-242 0 -375 157q-131 156 -88 393zM221 600h823q8 160 -90 262.5 t-260 102.5q-158 0 -291 -105q-133 -102 -182 -260zM444 1309l357 245h12l270 -245l-67 -70l-232 182l-297 -182z" />
<glyph unicode="&#xeb;" horiz-adv-x="1273" d="M80 532q39 238 221 394q186 158 417.5 157.5t358.5 -157.5q127 -160 88 -394q-6 -28 -10 -38h-952q-18 -170 82 -283q100 -111 278 -111q231 0 385 181l117 -41q-94 -121 -231.5 -189.5t-290.5 -68.5q-242 0 -375 157q-131 156 -88 393zM221 600h823q8 160 -90 262.5 t-260 102.5q-158 0 -291 -105q-133 -102 -182 -260zM465 1331q8 41 39 66.5t71 25.5q39 0 60.5 -26.5t15.5 -65.5q-8 -39 -38.5 -65.5t-69.5 -26.5t-61.5 25.5t-16.5 66.5zM885 1331q8 68 78 86q66 18 98 -24q16 -27 10 -62q-8 -39 -39 -65.5t-71.5 -26.5t-62 26.5 t-13.5 65.5z" />
<glyph unicode="&#xec;" horiz-adv-x="458" d="M49 0l187 1065h126l-186 -1065h-127zM76 1438l82 110l309 -233l-61 -76z" />
<glyph unicode="&#xed;" horiz-adv-x="458" d="M49 0l187 1065h126l-186 -1065h-127zM225 1315l387 233l47 -110l-401 -199z" />
<glyph unicode="&#xee;" horiz-adv-x="458" d="M25 1309l356 245h10l271 -245l-68 -70l-232 182l-296 -182zM49 0l187 1065h126l-186 -1065h-127z" />
<glyph unicode="&#xef;" horiz-adv-x="458" d="M49 0l187 1065h126l-186 -1065h-127zM57 1331q6 39 37 65.5t72 26.5q39 0 61.5 -26.5t14.5 -65.5q-6 -39 -37 -65.5t-72 -26.5t-62.5 26.5t-13.5 65.5zM451 1331q8 68 77 86q66 18 99 -24q16 -27 10 -62q-8 -39 -39 -65.5t-72 -26.5t-62 26.5t-13 65.5z" />
<glyph unicode="&#xf0;" horiz-adv-x="1304" d="M80 532q41 238 223 394q188 158 424 157q221 0 350 -139q-37 344 -332 438l-147 -186l-78 55l125 156q-100 20 -248 20l23 127q184 0 317 -32l135 168l76 -54l-112 -143q487 -176 346 -961q-39 -238 -228 -393q-188 -158 -421.5 -157.5t-366.5 157.5q-129 155 -86 393z M211 532q-33 -180 65 -303q99 -120 277 -120t321 120q141 121 177 303q31 182 -67.5 303t-279 121t-321.5 -122q-141 -121 -172 -302z" />
<glyph unicode="&#xf1;" horiz-adv-x="1296" d="M49 0l187 1065h126l-36 -209q164 227 450 227q186 0 287 -122q102 -125 70 -308l-113 -653h-127l108 625q25 145 -55 239q-78 96 -221 97q-160 0 -287 -99q-124 -99 -153 -244l-109 -618h-127zM455 1253q16 82 81.5 139.5t145.5 57.5q59 0 113 -55q53 -53 88 -54 q37 0 68.5 29t39.5 72h105q-14 -84 -78 -140.5t-144 -56.5q-59 0 -116.5 54.5t-85.5 54.5q-39 0 -72 -30t-41 -71h-104z" />
<glyph unicode="&#xf2;" horiz-adv-x="1304" d="M80 532q41 238 223 394q188 158 424 157.5t365 -158t90 -393.5q-39 -238 -228 -393q-188 -158 -421.5 -157.5t-366.5 157.5q-129 155 -86 393zM211 532q-33 -180 65 -303q98 -121 276.5 -120.5t321.5 120.5q141 121 177 303q31 182 -67.5 303t-279 121t-321.5 -122 t-172 -302zM487 1438l82 110l308 -233l-60 -76z" />
<glyph unicode="&#xf3;" horiz-adv-x="1304" d="M80 532q41 238 223 394q188 158 424 157.5t365 -158t90 -393.5q-39 -238 -228 -393q-188 -158 -421.5 -157.5t-366.5 157.5q-129 155 -86 393zM211 532q-33 -180 65 -303q98 -121 276.5 -120.5t321.5 120.5q141 121 177 303q31 182 -67.5 303t-279 121t-321.5 -122 t-172 -302zM662 1315l387 233l45 -110l-400 -199z" />
<glyph unicode="&#xf4;" horiz-adv-x="1304" d="M80 532q41 238 223 394q188 158 424 157.5t365 -158t90 -393.5q-39 -238 -228 -393q-188 -158 -421.5 -157.5t-366.5 157.5q-129 155 -86 393zM211 532q-33 -180 65 -303q98 -121 276.5 -120.5t321.5 120.5q141 121 177 303q31 182 -67.5 303t-279 121t-321.5 -122 t-172 -302zM446 1309l357 245h12l270 -245l-69 -70l-230 182l-297 -182z" />
<glyph unicode="&#xf5;" horiz-adv-x="1304" d="M80 532q41 238 223 394q188 158 424 157.5t365 -158t90 -393.5q-39 -238 -228 -393q-188 -158 -421.5 -157.5t-366.5 157.5q-129 155 -86 393zM211 532q-33 -180 65 -303q98 -121 276.5 -120.5t321.5 120.5q141 121 177 303q31 182 -67.5 303t-279 121t-321.5 -122 t-172 -302zM453 1253q14 82 79.5 139.5t145.5 57.5q63 0 113 -55q53 -53 88 -54q39 0 70.5 29t39.5 72h105q-16 -86 -80 -141.5t-144 -55.5q-57 0 -114.5 54.5t-85.5 54.5q-39 0 -73 -30t-40 -71h-104z" />
<glyph unicode="&#xf6;" horiz-adv-x="1304" d="M80 532q41 238 223 394q188 158 424 157.5t365 -158t90 -393.5q-39 -238 -228 -393q-188 -158 -421.5 -157.5t-366.5 157.5q-129 155 -86 393zM211 532q-33 -180 65 -303q98 -121 276.5 -120.5t321.5 120.5q141 121 177 303q31 182 -67.5 303t-279 121t-321.5 -122 t-172 -302zM468.5 1295.5q-13.5 62.5 37.5 101.5q49 43 102 20t45 -86q-8 -39 -38.5 -65.5t-69.5 -26.5q-63 -6 -76.5 56.5zM887 1331q6 39 36.5 65.5t71.5 26.5q39 0 61.5 -25.5t16.5 -66.5q-8 -39 -38.5 -65.5t-71.5 -26.5t-62.5 26.5t-13.5 65.5z" />
<glyph unicode="&#xf7;" horiz-adv-x="1228" d="M147 657v119h934v-119h-934zM512 342q0 43 29.5 71.5t72.5 28.5t73 -28.5t30 -71.5q4 -63 -49.5 -89t-106.5 0t-49 89zM512 1092q-4 63 49 88.5t106.5 0t49.5 -88.5q0 -43 -30 -72t-73 -29t-72.5 29t-29.5 72z" />
<glyph unicode="&#xf8;" horiz-adv-x="1304" d="M80 532q41 238 223 394q188 157 424 157q150 0 258 -67l59 67l78 -63l-57 -66q160 -160 117 -422q-39 -238 -228 -393q-188 -158 -422 -157q-152 0 -260 67l-59 -67l-78 61l60 70q-164 158 -115 419zM211 532q-37 -190 80 -311l600 686q-76 49 -186 49q-180 0 -322 -122 q-141 -121 -172 -302zM367 158q80 -49 186 -49q178 0 321 120q141 121 177 303q31 195 -82 312z" />
<glyph unicode="&#xf9;" horiz-adv-x="1296" d="M117 412l112 653h127l-108 -623q-29 -145 53 -241q80 -96 223 -97q160 0 287 98.5t152 243.5l110 619h127l-186 -1065h-127l35 207q-164 -225 -449 -225q-186 0 -288.5 122.5t-67.5 307.5zM479 1438l82 110l309 -233l-61 -76z" />
<glyph unicode="&#xfa;" horiz-adv-x="1296" d="M117 412l112 653h127l-108 -623q-29 -145 53 -241q80 -96 223 -97q160 0 287 98.5t152 243.5l110 619h127l-186 -1065h-127l35 207q-164 -225 -449 -225q-186 0 -288.5 122.5t-67.5 307.5zM653 1315l389 233l45 -110l-401 -199z" />
<glyph unicode="&#xfb;" horiz-adv-x="1296" d="M117 412l112 653h127l-108 -623q-29 -145 53 -241q80 -96 223 -97q160 0 287 98.5t152 243.5l110 619h127l-186 -1065h-127l35 207q-164 -225 -449 -225q-186 0 -288.5 122.5t-67.5 307.5zM440 1309l357 245h10l272 -245l-69 -70l-230 182l-299 -182z" />
<glyph unicode="&#xfc;" horiz-adv-x="1296" d="M117 412l112 653h127l-108 -623q-29 -145 53 -241q80 -96 223 -97q160 0 287 98.5t152 243.5l110 619h127l-186 -1065h-127l35 207q-164 -225 -449 -225q-186 0 -288.5 122.5t-67.5 307.5zM461 1331q6 39 36.5 65.5t71.5 26.5q39 0 61.5 -26.5t14.5 -65.5 q-6 -39 -36.5 -65.5t-71.5 -26.5t-62.5 26.5t-13.5 65.5zM879 1331q8 39 38.5 65.5t71.5 26.5q39 0 61.5 -26.5t14.5 -65.5q-6 -39 -37 -65.5t-72 -26.5q-39 0 -61.5 25.5t-15.5 66.5z" />
<glyph unicode="&#xfd;" horiz-adv-x="1075" d="M-104 -461l22 123h51q164 0 271 174l116 193l-254 1036h134l213 -883l532 883h133l-772 -1272q-80 -133 -173 -193.5t-220 -60.5h-53zM547 1315l387 233l45 -110l-399 -199z" />
<glyph unicode="&#xfe;" d="M-33 -461l352 1997h127l-116 -668q88 100 210 157.5t251 57.5q225 0 348 -157q123 -156 82 -394t-222 -393q-180 -158 -403 -157q-127 0 -228.5 57t-156.5 158l-117 -658h-127zM274 532q-33 -180 62 -303q96 -121 270 -120q172 0 312 120q139 123 172 303q33 178 -64 302 q-94 123 -268 122q-176 0 -314 -122q-139 -122 -170 -302z" />
<glyph unicode="&#xff;" horiz-adv-x="1075" d="M-104 -461l22 123h51q164 0 271 174l116 193l-254 1036h134l213 -883l532 883h133l-772 -1272q-80 -133 -173 -193.5t-220 -60.5h-53zM353.5 1295.5q-13.5 62.5 37.5 101.5q49 43 102.5 20.5t45.5 -86.5q-8 -39 -39 -65.5t-70 -26.5q-63 -6 -76.5 56.5zM772 1331 q6 39 37 65.5t72 26.5q39 0 61.5 -25.5t15.5 -66.5q-8 -39 -38.5 -65.5t-71.5 -26.5t-62.5 26.5t-13.5 65.5z" />
<glyph unicode="&#x152;" horiz-adv-x="2537" d="M125 717q57 315 303 524q248 211 563 211q190 0 334.5 -81t218.5 -228l51 291h983l-20 -127h-850l-90 -516h747l-22 -127h-748l-94 -537h858l-22 -127h-994l52 293q-125 -147 -299.5 -229t-362.5 -82q-315 0 -489 211q-172 211 -119 524zM266 717q-45 -256 94 -432 q141 -172 396 -172q256 0 454 172q203 178 248 432q45 256 -94 430q-137 174 -395 174q-256 0 -455 -174q-203 -174 -248 -430z" />
<glyph unicode="&#x153;" horiz-adv-x="2246" d="M80 532q41 238 223 394q188 158 424 157q158 0 272.5 -76.5t163.5 -207.5q92 131 232.5 207.5t298.5 76.5q229 0 356 -157q125 -156 86 -394q-8 -33 -8 -38h-954q-18 -170 81 -283q100 -111 281 -111q229 0 385 181l115 -41q-94 -121 -230.5 -189.5t-285.5 -68.5 q-164 0 -283 75.5t-166 210.5q-92 -133 -235.5 -209.5t-303.5 -76.5q-233 0 -366 157q-129 155 -86 393zM211 532q-33 -180 65 -303q99 -120 277 -120t321 120q141 121 177 303q31 182 -67.5 303t-279 121t-321.5 -122q-141 -121 -172 -302zM1194 600h821q8 160 -90 262.5 t-258 102.5t-293 -103q-131 -100 -180 -262z" />
<glyph unicode="&#x178;" horiz-adv-x="1355" d="M180 1434h156l348 -721l606 721h156l-717 -848l-100 -586h-135l100 584zM553 1667q6 39 37 65.5t72 26.5q39 0 61 -26.5t16 -65.5q-8 -39 -38.5 -65.5t-71.5 -26.5t-62.5 26.5t-13.5 65.5zM973 1667q6 39 36.5 65.5t69.5 26.5q41 0 63.5 -26.5t16.5 -65.5 q-8 -39 -40 -65.5t-70 -26.5q-41 0 -62.5 26.5t-13.5 65.5z" />
<glyph unicode="&#x2c6;" horiz-adv-x="897" d="M281 1520l356 243h10l273 -243l-70 -70l-229 180l-299 -182z" />
<glyph unicode="&#x2dc;" horiz-adv-x="866" d="M270 1464q14 82 80 138q66 57 146 57q61 0 114.5 -53.5t87.5 -53.5q39 0 70 28t39 71h104q-14 -84 -78.5 -139.5t-144.5 -55.5q-57 0 -115.5 53.5t-85.5 53.5q-39 0 -71.5 -29t-40.5 -70h-105z" />
<glyph unicode="&#x2000;" horiz-adv-x="981" />
<glyph unicode="&#x2001;" horiz-adv-x="1962" />
<glyph unicode="&#x2002;" horiz-adv-x="981" />
<glyph unicode="&#x2003;" horiz-adv-x="1962" />
<glyph unicode="&#x2004;" horiz-adv-x="654" />
<glyph unicode="&#x2005;" horiz-adv-x="490" />
<glyph unicode="&#x2006;" horiz-adv-x="327" />
<glyph unicode="&#x2007;" horiz-adv-x="327" />
<glyph unicode="&#x2008;" horiz-adv-x="245" />
<glyph unicode="&#x2009;" horiz-adv-x="392" />
<glyph unicode="&#x200a;" horiz-adv-x="109" />
<glyph unicode="&#x2010;" horiz-adv-x="819" d="M113 473l20 119h526l-20 -119h-526z" />
<glyph unicode="&#x2011;" horiz-adv-x="819" d="M113 473l20 119h526l-20 -119h-526z" />
<glyph unicode="&#x2012;" horiz-adv-x="819" d="M113 473l20 119h526l-20 -119h-526z" />
<glyph unicode="&#x2013;" horiz-adv-x="1228" d="M113 473l20 119h936l-20 -119h-936z" />
<glyph unicode="&#x2014;" horiz-adv-x="2048" d="M113 473l20 119h1755l-20 -119h-1755z" />
<glyph unicode="&#x2018;" horiz-adv-x="434" d="M219 1296q35 160 211 275l8 4l35 -43l-33 -29q-18 -16 -53 -65q-37 -49 -39 -88q39 -4 60.5 -34t13.5 -71q-6 -41 -40 -68.5t-79 -27.5q-49 0 -72.5 39.5t-11.5 107.5z" />
<glyph unicode="&#x2019;" horiz-adv-x="434" d="M203 1171l30 27q20 16 56 66q37 53 39 90q-39 4 -60.5 33.5t-15.5 70.5q10 41 44 68.5t77 27.5q49 0 73.5 -39.5t10.5 -107.5q-14 -96 -90 -176q-78 -84 -131 -103z" />
<glyph unicode="&#x201a;" horiz-adv-x="434" d="M-39 -201l33 29q14 12 51 66q37 49 39 88q-37 4 -58.5 33.5t-15.5 68.5q8 41 42 69.5t77 28.5q49 0 73.5 -39.5t12.5 -107.5q-14 -82 -70 -152q-33 -41 -68.5 -72.5t-55 -43t-25.5 -11.5z" />
<glyph unicode="&#x201c;" horiz-adv-x="727" d="M219 1296q35 160 211 275l8 4l35 -43l-33 -29q-18 -16 -53 -65q-37 -49 -39 -88q39 -4 60.5 -34t13.5 -71q-6 -41 -40 -68.5t-79 -27.5q-49 0 -72.5 39.5t-11.5 107.5zM512 1296q6 27 15.5 51.5t21.5 46t25.5 41t30 36l28.5 28.5t29.5 25.5t25.5 19.5t23 17l14 10l8 4 l33 -43l-33 -29q-18 -16 -53 -65q-33 -45 -37 -88q37 -4 59.5 -34t14.5 -71t-42 -68.5t-77 -27.5q-49 0 -73.5 39.5t-12.5 107.5z" />
<glyph unicode="&#x201d;" horiz-adv-x="727" d="M203 1171l30 27q20 16 56 66q37 53 39 90q-39 4 -60.5 33.5t-15.5 70.5q10 41 44 68.5t77 27.5q49 0 73.5 -39.5t10.5 -107.5q-14 -96 -90 -176q-78 -84 -131 -103zM498 1171l30 27q20 16 56 66q37 53 39 90q-39 4 -61.5 33.5t-14.5 70.5t42 68.5t79 27.5 q49 0 72.5 -39.5t11.5 -107.5q-23 -104 -91.5 -176t-123.5 -98l-7 -5z" />
<glyph unicode="&#x201e;" horiz-adv-x="727" d="M-39 -201l33 29q14 12 51 66q37 49 39 88q-37 4 -58.5 33.5t-15.5 68.5q8 41 42 69.5t77 28.5q49 0 73.5 -39.5t12.5 -107.5q-14 -82 -70 -152q-33 -41 -68.5 -72.5t-55 -43t-25.5 -11.5zM256 -201q8 6 31 29q16 12 53 66q37 49 39 88q-39 4 -60.5 33.5t-13.5 68.5 q8 41 42 69.5t77 28.5q49 0 73.5 -39.5t10.5 -107.5q-14 -82 -70 -152q-33 -41 -68.5 -72.5t-55 -43t-25.5 -11.5z" />
<glyph unicode="&#x2022;" horiz-adv-x="634" d="M113 532.5q0 88.5 57 145.5q59 59 147 59q86 0 146 -59q57 -57 57 -145.5t-57 -145.5t-146 -57q-90 0 -147 57t-57 145.5z" />
<glyph unicode="&#x2026;" horiz-adv-x="1290" d="M10 84q8 45 42 72.5t77 27.5q45 0 68.5 -27.5t17.5 -72.5q-8 -45 -42 -73.5t-79 -28.5q-43 0 -67.5 28.5t-16.5 73.5zM440.5 84q8.5 45 42 72.5t76.5 27.5q45 0 69.5 -27.5t16.5 -72.5t-42 -73.5t-79 -28.5q-43 0 -67.5 28.5t-16 73.5zM870.5 84q8.5 45 42 72.5 t78.5 27.5q43 0 67.5 -27.5t16.5 -72.5t-42 -73.5t-79 -28.5q-43 0 -67.5 28.5t-16 73.5z" />
<glyph unicode="&#x202f;" horiz-adv-x="392" />
<glyph unicode="&#x2039;" horiz-adv-x="651" d="M63 532l437 371l61 -76l-344 -295l242 -294l-92 -76z" />
<glyph unicode="&#x203a;" horiz-adv-x="651" d="M43 238l346 294l-244 295l93 76l305 -371l-439 -370z" />
<glyph unicode="&#x205f;" horiz-adv-x="490" />
<glyph unicode="&#x20ac;" horiz-adv-x="1761" d="M35 498l18 102h219q6 123 41 234h-219l19 102h241q109 231 326 373q217 143 471 143q205 0 354.5 -94t216.5 -262l-137 -52q-55 129 -177 203t-282 74q-197 0 -364 -107q-166 -102 -262 -278h616l-18 -102h-643q-41 -129 -41 -234h643l-19 -102h-614q33 -174 164 -281 q133 -104 325 -104q160 0 307.5 73.5t247.5 202.5l121 -51q-127 -168 -309 -260q-186 -96 -389 -96q-252 0 -422 141q-164 144 -193 375h-241z" />
<glyph unicode="&#x2122;" horiz-adv-x="1613" d="M27 1356v78h630v-78h-274v-639h-84v639h-272zM778 717v717h82l295 -514l295 514h82v-717h-82v565l-268 -475h-54l-268 473v-563h-82z" />
<glyph unicode="&#x25fc;" horiz-adv-x="1064" d="M0 0v1065h1065v-1065h-1065z" />
</font>
</defs>
</svg>
