<svg width="142" height="141" viewBox="0 0 142 141" fill="none" xmlns="http://www.w3.org/2000/svg">
<path d="M61.3225 4.78919C66.4887 -0.970458 75.5113 -0.970458 80.6775 4.78919L86.5583 11.3456C89.4557 14.5758 93.7737 16.1475 98.0695 15.5354L106.789 14.293C114.449 13.2016 121.36 19.0012 121.616 26.7341L121.906 35.5367C122.049 39.8736 124.347 43.8531 128.031 46.1455L135.509 50.7985C142.079 54.8861 143.645 63.7716 138.87 69.8594L133.435 76.7894C130.757 80.2037 129.959 84.729 131.307 88.8533L134.045 97.2245C136.45 104.578 131.939 112.392 124.368 113.986L115.749 115.801C111.503 116.695 107.983 119.649 106.365 123.675L103.081 131.848C100.197 139.027 91.7181 142.113 84.8936 138.467L77.125 134.318C73.2976 132.273 68.7024 132.273 64.875 134.318L57.1064 138.467C50.2819 142.113 41.8034 139.027 38.9187 131.848L35.635 123.675C34.0171 119.649 30.497 116.695 26.2509 115.801L17.6325 113.986C10.0614 112.392 5.55009 104.578 7.95501 97.2245L10.6926 88.8533C12.0414 84.729 11.2435 80.2037 8.56543 76.7894L3.1298 69.8594C-1.64525 63.7716 -0.078495 54.8861 6.49074 50.7985L13.9688 46.1455C17.653 43.8531 19.9506 39.8736 20.0938 35.5367L20.3844 26.7341C20.6396 19.0012 27.5513 13.2016 35.2111 14.293L43.9305 15.5354C48.2263 16.1475 52.5443 14.5758 55.4417 11.3456L61.3225 4.78919Z" fill="#FCD456"/>
</svg>
