<svg width="511" height="391" viewBox="0 0 511 391" fill="none" xmlns="http://www.w3.org/2000/svg">
<g opacity="0.1" clip-path="url(#clip0)">
<path d="M0.130005 29.4501L36.65 8.37012L73.17 29.4501" stroke="white" stroke-width="0.58" stroke-miterlimit="10"/>
<path d="M73.17 -13V29.17L36.65 50.25L0.130005 29.17V-13" stroke="white" stroke-width="0.58" stroke-miterlimit="10"/>
<path d="M72.93 29.4501L109.44 8.37012L145.96 29.4501" stroke="white" stroke-width="0.58" stroke-miterlimit="10"/>
<path d="M145.96 -13V29.17L109.44 50.25L72.93 29.17V-13" stroke="white" stroke-width="0.58" stroke-miterlimit="10"/>
<path d="M145.72 29.4501L182.24 8.37012L218.75 29.4501" stroke="white" stroke-width="0.58" stroke-miterlimit="10"/>
<path d="M218.75 -13V29.17L182.24 50.25L145.72 29.17V-13" stroke="white" stroke-width="0.58" stroke-miterlimit="10"/>
<path d="M218.51 29.4501L255.03 8.37012L291.55 29.4501" stroke="white" stroke-width="0.58" stroke-miterlimit="10"/>
<path d="M291.55 -13V29.17L255.03 50.25L218.51 29.17V-13" stroke="white" stroke-width="0.58" stroke-miterlimit="10"/>
<path d="M291.31 29.4501L327.83 8.37012L364.34 29.4501" stroke="white" stroke-width="0.58" stroke-miterlimit="10"/>
<path d="M364.34 -13V29.17L327.83 50.25L291.31 29.17V-13" stroke="white" stroke-width="0.58" stroke-miterlimit="10"/>
<path d="M364.1 29.4501L400.62 8.37012L437.14 29.4501" stroke="white" stroke-width="0.58" stroke-miterlimit="10"/>
<path d="M437.14 -13V29.17L400.62 50.25L364.1 29.17V-13" stroke="white" stroke-width="0.58" stroke-miterlimit="10"/>
<path d="M436.9 29.4501L473.41 8.37012L509.93 29.4501" stroke="white" stroke-width="0.58" stroke-miterlimit="10"/>
<path d="M509.93 -13V29.17L473.41 50.25L436.9 29.17V-13" stroke="white" stroke-width="0.58" stroke-miterlimit="10"/>
<path d="M36.71 92.78L73.22 71.7L109.74 92.78" stroke="white" stroke-width="0.58" stroke-miterlimit="10"/>
<path d="M109.74 50.3301V92.5001L73.22 113.58L36.71 92.5001V50.3301" stroke="white" stroke-width="0.58" stroke-miterlimit="10"/>
<path d="M109.5 92.78L146.02 71.7L182.54 92.78" stroke="white" stroke-width="0.58" stroke-miterlimit="10"/>
<path d="M182.54 50.3301V92.5001L146.02 113.58L109.5 92.5001V50.3301" stroke="white" stroke-width="0.58" stroke-miterlimit="10"/>
<path d="M182.29 92.78L218.81 71.7L255.33 92.78" stroke="white" stroke-width="0.58" stroke-miterlimit="10"/>
<path d="M255.33 50.3301V92.5001L218.81 113.58L182.29 92.5001V50.3301" stroke="white" stroke-width="0.58" stroke-miterlimit="10"/>
<path d="M255.09 92.78L291.61 71.7L328.12 92.78" stroke="white" stroke-width="0.58" stroke-miterlimit="10"/>
<path d="M328.12 50.3301V92.5001L291.61 113.58L255.09 92.5001V50.3301" stroke="white" stroke-width="0.58" stroke-miterlimit="10"/>
<path d="M327.88 92.78L364.4 71.7L400.92 92.78" stroke="white" stroke-width="0.58" stroke-miterlimit="10"/>
<path d="M400.92 50.3301V92.5001L364.4 113.58L327.88 92.5001V50.3301" stroke="white" stroke-width="0.58" stroke-miterlimit="10"/>
<path d="M400.68 92.78L437.19 71.7L473.71 92.78" stroke="white" stroke-width="0.58" stroke-miterlimit="10"/>
<path d="M473.71 50.3301V92.5001L437.19 113.58L400.68 92.5001V50.3301" stroke="white" stroke-width="0.58" stroke-miterlimit="10"/>
<path d="M473.47 92.78L509.99 71.7" stroke="white" stroke-width="0.58" stroke-miterlimit="10"/>
<path d="M509.99 113.58L473.47 92.5001V50.3301" stroke="white" stroke-width="0.58" stroke-miterlimit="10"/>
<path d="M0.640015 71.7L37.16 92.78" stroke="white" stroke-width="0.58" stroke-miterlimit="10"/>
<path d="M37.16 92.5L0.640015 113.58" stroke="white" stroke-width="0.58" stroke-miterlimit="10"/>
<path d="M0.130005 156.02L36.65 134.94L73.17 156.02" stroke="white" stroke-width="0.58" stroke-miterlimit="10"/>
<path d="M73.17 113.57V155.74L36.65 176.82L0.130005 155.74V113.57" stroke="white" stroke-width="0.58" stroke-miterlimit="10"/>
<path d="M72.93 156.02L109.44 134.94L145.96 156.02" stroke="white" stroke-width="0.58" stroke-miterlimit="10"/>
<path d="M145.96 113.57V155.74L109.44 176.82L72.93 155.74V113.57" stroke="white" stroke-width="0.58" stroke-miterlimit="10"/>
<path d="M145.72 156.02L182.24 134.94L218.75 156.02" stroke="white" stroke-width="0.58" stroke-miterlimit="10"/>
<path d="M218.75 113.57V155.74L182.24 176.82L145.72 155.74V113.57" stroke="white" stroke-width="0.58" stroke-miterlimit="10"/>
<path d="M218.51 156.02L255.03 134.94L291.55 156.02" stroke="white" stroke-width="0.58" stroke-miterlimit="10"/>
<path d="M291.55 113.57V155.74L255.03 176.82L218.51 155.74V113.57" stroke="white" stroke-width="0.58" stroke-miterlimit="10"/>
<path d="M291.31 156.02L327.83 134.94L364.34 156.02" stroke="white" stroke-width="0.58" stroke-miterlimit="10"/>
<path d="M364.34 113.57V155.74L327.83 176.82L291.31 155.74V113.57" stroke="white" stroke-width="0.58" stroke-miterlimit="10"/>
<path d="M364.1 156.02L400.62 134.94L437.14 156.02" stroke="white" stroke-width="0.58" stroke-miterlimit="10"/>
<path d="M437.14 113.57V155.74L400.62 176.82L364.1 155.74V113.57" stroke="white" stroke-width="0.58" stroke-miterlimit="10"/>
<path d="M436.9 156.02L473.41 134.94L509.93 156.02" stroke="white" stroke-width="0.58" stroke-miterlimit="10"/>
<path d="M509.93 113.57V155.74L473.41 176.82L436.9 155.74V113.57" stroke="white" stroke-width="0.58" stroke-miterlimit="10"/>
<path d="M36.71 219.35L73.22 198.27L109.74 219.35" stroke="white" stroke-width="0.58" stroke-miterlimit="10"/>
<path d="M109.74 176.9V219.06L73.22 240.15L36.71 219.06V176.9" stroke="white" stroke-width="0.58" stroke-miterlimit="10"/>
<path d="M109.5 219.35L146.02 198.27L182.54 219.35" stroke="white" stroke-width="0.58" stroke-miterlimit="10"/>
<path d="M182.54 176.9V219.06L146.02 240.15L109.5 219.06V176.9" stroke="white" stroke-width="0.58" stroke-miterlimit="10"/>
<path d="M182.29 219.35L218.81 198.27L255.33 219.35" stroke="white" stroke-width="0.58" stroke-miterlimit="10"/>
<path d="M255.33 176.9V219.06L218.81 240.15L182.29 219.06V176.9" stroke="white" stroke-width="0.58" stroke-miterlimit="10"/>
<path d="M255.09 219.35L291.61 198.27L328.12 219.35" stroke="white" stroke-width="0.58" stroke-miterlimit="10"/>
<path d="M328.12 176.9V219.06L291.61 240.15L255.09 219.06V176.9" stroke="white" stroke-width="0.58" stroke-miterlimit="10"/>
<path d="M327.88 219.35L364.4 198.27L400.92 219.35" stroke="white" stroke-width="0.58" stroke-miterlimit="10"/>
<path d="M400.92 176.9V219.06L364.4 240.15L327.88 219.06V176.9" stroke="white" stroke-width="0.58" stroke-miterlimit="10"/>
<path d="M400.68 219.35L437.19 198.27L473.71 219.35" stroke="white" stroke-width="0.58" stroke-miterlimit="10"/>
<path d="M473.71 176.9V219.06L437.19 240.15L400.68 219.06V176.9" stroke="white" stroke-width="0.58" stroke-miterlimit="10"/>
<path d="M473.47 219.35L509.99 198.27" stroke="white" stroke-width="0.58" stroke-miterlimit="10"/>
<path d="M509.99 240.15L473.47 219.07V176.9" stroke="white" stroke-width="0.58" stroke-miterlimit="10"/>
<path d="M0.640015 198.27L37.16 219.35" stroke="white" stroke-width="0.58" stroke-miterlimit="10"/>
<path d="M37.16 219.07L0.640015 240.15" stroke="white" stroke-width="0.58" stroke-miterlimit="10"/>
<path d="M0.51001 282.3L37.03 261.22L73.55 282.3" stroke="white" stroke-width="0.58" stroke-miterlimit="10"/>
<path d="M73.55 239.85V282.01L37.03 303.1L0.51001 282.01V239.85" stroke="white" stroke-width="0.58" stroke-miterlimit="10"/>
<path d="M73.31 282.3L109.82 261.22L146.34 282.3" stroke="white" stroke-width="0.58" stroke-miterlimit="10"/>
<path d="M146.34 239.85V282.01L109.82 303.1L73.31 282.01V239.85" stroke="white" stroke-width="0.58" stroke-miterlimit="10"/>
<path d="M146.1 282.3L182.62 261.22L219.13 282.3" stroke="white" stroke-width="0.58" stroke-miterlimit="10"/>
<path d="M219.13 239.85V282.01L182.62 303.1L146.1 282.01V239.85" stroke="white" stroke-width="0.58" stroke-miterlimit="10"/>
<path d="M218.89 282.3L255.41 261.22L291.93 282.3" stroke="white" stroke-width="0.58" stroke-miterlimit="10"/>
<path d="M291.93 239.85V282.01L255.41 303.1L218.89 282.01V239.85" stroke="white" stroke-width="0.58" stroke-miterlimit="10"/>
<path d="M291.69 282.3L328.2 261.22L364.72 282.3" stroke="white" stroke-width="0.58" stroke-miterlimit="10"/>
<path d="M364.72 239.85V282.01L328.2 303.1L291.69 282.01V239.85" stroke="white" stroke-width="0.58" stroke-miterlimit="10"/>
<path d="M364.48 282.3L401 261.22L437.52 282.3" stroke="white" stroke-width="0.58" stroke-miterlimit="10"/>
<path d="M437.52 239.85V282.01L401 303.1L364.48 282.01V239.85" stroke="white" stroke-width="0.58" stroke-miterlimit="10"/>
<path d="M437.28 282.3L473.79 261.22L510.31 282.3" stroke="white" stroke-width="0.58" stroke-miterlimit="10"/>
<path d="M510.31 239.85V282.01L473.79 303.1L437.28 282.01V239.85" stroke="white" stroke-width="0.58" stroke-miterlimit="10"/>
<path d="M37.09 345.63L73.6 324.55L110.12 345.63" stroke="white" stroke-width="0.58" stroke-miterlimit="10"/>
<path d="M110.12 303.18V345.34L73.6 366.43L37.09 345.34V303.18" stroke="white" stroke-width="0.58" stroke-miterlimit="10"/>
<path d="M109.88 345.63L146.4 324.55L182.91 345.63" stroke="white" stroke-width="0.58" stroke-miterlimit="10"/>
<path d="M182.92 303.18V345.34L146.4 366.43L109.88 345.34V303.18" stroke="white" stroke-width="0.58" stroke-miterlimit="10"/>
<path d="M182.68 345.63L219.19 324.55L255.71 345.63" stroke="white" stroke-width="0.58" stroke-miterlimit="10"/>
<path d="M255.71 303.18V345.34L219.19 366.43L182.68 345.34V303.18" stroke="white" stroke-width="0.58" stroke-miterlimit="10"/>
<path d="M255.47 345.63L291.99 324.55L328.5 345.63" stroke="white" stroke-width="0.58" stroke-miterlimit="10"/>
<path d="M328.5 303.18V345.34L291.99 366.43L255.47 345.34V303.18" stroke="white" stroke-width="0.58" stroke-miterlimit="10"/>
<path d="M328.26 345.63L364.78 324.55L401.3 345.63" stroke="white" stroke-width="0.58" stroke-miterlimit="10"/>
<path d="M401.3 303.18V345.34L364.78 366.43L328.26 345.34V303.18" stroke="white" stroke-width="0.58" stroke-miterlimit="10"/>
<path d="M401.06 345.63L437.57 324.55L474.09 345.63" stroke="white" stroke-width="0.58" stroke-miterlimit="10"/>
<path d="M474.09 303.18V345.34L437.57 366.43L401.06 345.34V303.18" stroke="white" stroke-width="0.58" stroke-miterlimit="10"/>
<path d="M473.85 345.63L510.37 324.55" stroke="white" stroke-width="0.58" stroke-miterlimit="10"/>
<path d="M510.37 366.43L473.85 345.34V303.18" stroke="white" stroke-width="0.58" stroke-miterlimit="10"/>
<path d="M1.01999 324.55L37.54 345.63" stroke="white" stroke-width="0.58" stroke-miterlimit="10"/>
<path d="M37.54 345.34L1.01999 366.43" stroke="white" stroke-width="0.58" stroke-miterlimit="10"/>
<path d="M0.51001 408.87L37.03 387.79L73.55 408.87" stroke="white" stroke-width="0.58" stroke-miterlimit="10"/>
<path d="M73.55 366.41V408.58L37.03 429.67L0.51001 408.58V366.41" stroke="white" stroke-width="0.58" stroke-miterlimit="10"/>
<path d="M73.31 408.87L109.82 387.79L146.34 408.87" stroke="white" stroke-width="0.58" stroke-miterlimit="10"/>
<path d="M146.34 366.41V408.58L109.82 429.67L73.31 408.58V366.41" stroke="white" stroke-width="0.58" stroke-miterlimit="10"/>
<path d="M146.1 408.87L182.62 387.79L219.13 408.87" stroke="white" stroke-width="0.58" stroke-miterlimit="10"/>
<path d="M219.13 366.41V408.58L182.62 429.67L146.1 408.58V366.41" stroke="white" stroke-width="0.58" stroke-miterlimit="10"/>
<path d="M218.89 408.87L255.41 387.79L291.93 408.87" stroke="white" stroke-width="0.58" stroke-miterlimit="10"/>
<path d="M291.93 366.41V408.58L255.41 429.67L218.89 408.58V366.41" stroke="white" stroke-width="0.58" stroke-miterlimit="10"/>
<path d="M291.69 408.87L328.2 387.79L364.72 408.87" stroke="white" stroke-width="0.58" stroke-miterlimit="10"/>
<path d="M364.72 366.41V408.58L328.2 429.67L291.69 408.58V366.41" stroke="white" stroke-width="0.58" stroke-miterlimit="10"/>
<path d="M364.48 408.87L401 387.79L437.52 408.87" stroke="white" stroke-width="0.58" stroke-miterlimit="10"/>
<path d="M437.52 366.41V408.58L401 429.67L364.48 408.58V366.41" stroke="white" stroke-width="0.58" stroke-miterlimit="10"/>
<path d="M437.28 408.87L473.79 387.79L510.31 408.87" stroke="white" stroke-width="0.58" stroke-miterlimit="10"/>
<path d="M510.31 366.41V408.58L473.79 429.67L437.28 408.58V366.41" stroke="white" stroke-width="0.58" stroke-miterlimit="10"/>
</g>
<defs>
<clipPath id="clip0">
<rect width="510.37" height="506" fill="white" transform="translate(0 -13)"/>
</clipPath>
</defs>
</svg>
