<svg width="141" height="142" viewBox="0 0 141 142" fill="none" xmlns="http://www.w3.org/2000/svg">
<path d="M5.43802 43.2082C4.34672 45.8162 3.40337 48.4982 2.64501 51.1987L89.8013 138.355C92.5018 137.597 95.1653 136.653 97.7918 135.562L5.43802 43.2082Z" fill="#B2C8F3"/>
<path d="M11.4309 31.9252C9.96969 34.1448 8.67491 36.4384 7.49112 38.769L102.231 133.509C104.562 132.325 106.855 131.03 109.075 129.569L11.4309 31.9252Z" fill="#B2C8F3"/>
<path d="M19.0331 22.2885C17.2759 24.1752 15.6297 26.1173 14.0944 28.1335L112.867 126.906C114.883 125.389 116.843 123.743 118.712 121.967L19.0331 22.2885Z" fill="#B2C8F3"/>
<path d="M137.282 47.7214C133.916 37.8257 128.293 28.5033 120.395 20.6238C112.497 12.7257 103.193 7.10271 93.2971 3.73632L137.282 47.7214Z" fill="#B2C8F3"/>
<path d="M56.5813 139.668C60.5766 140.464 64.6458 140.907 68.7151 141.018L0 72.3033C0.11098 76.3726 0.536423 80.4234 1.35028 84.4371L56.5813 139.668Z" fill="#B2C8F3"/>
<path d="M1.38725 56.4149C0.739867 59.5593 0.332954 62.7407 0.129491 65.9406L75.0779 140.889C78.2779 140.686 81.4593 140.26 84.6037 139.631L1.38725 56.4149Z" fill="#B2C8F3"/>
<path d="M38.769 7.49125C36.4384 8.67504 34.1449 9.96978 31.9253 11.431L129.588 109.093C131.049 106.874 132.344 104.58 133.527 102.25L38.769 7.49125Z" fill="#B2C8F3"/>
<path d="M84.4188 1.35025C80.4235 0.554892 76.3542 0.11098 72.285 0L141 68.7151C140.889 64.6458 140.464 60.5951 139.65 56.5813L84.4188 1.35025Z" fill="#B2C8F3"/>
<path d="M3.71785 93.2786C7.08424 103.174 12.7072 112.497 20.6053 120.376C28.5034 128.274 37.8072 133.897 47.7029 137.264L3.71785 93.2786Z" fill="#B2C8F3"/>
<path d="M51.1987 2.64487C48.4982 3.40323 45.8348 4.34658 43.2082 5.43788L135.562 97.7917C136.653 95.1837 137.597 92.5017 138.355 89.8011L51.1987 2.64487Z" fill="#B2C8F3"/>
<path d="M65.9221 0.129403C62.7222 0.332866 59.5407 0.758304 56.3963 1.38719L139.613 84.6037C140.26 81.4592 140.667 78.2778 140.871 75.0779L65.9221 0.129403Z" fill="#B2C8F3"/>
<path d="M28.1334 14.113C26.1173 15.6297 24.1566 17.2759 22.2885 19.0516L121.985 118.749C123.743 116.862 125.389 114.92 126.924 112.904L28.1334 14.113Z" fill="#B2C8F3"/>
</svg>
