<svg width="611" height="368" viewBox="0 0 611 368" fill="none" xmlns="http://www.w3.org/2000/svg">
<path d="M260.5 141C211.619 141 172 180.619 172 229.5C172 278.381 211.619 318 260.5 318C309.381 318 349 278.381 349 229.5C349 180.619 309.381 141 260.5 141ZM260.5 283.249C230.813 283.249 206.751 259.187 206.751 229.5C206.751 199.813 230.813 175.751 260.5 175.751C290.187 175.751 314.249 199.813 314.249 229.5C314.249 259.187 290.187 283.249 260.5 283.249Z" fill="#1C0EC2"/>
<circle cx="384.5" cy="175.5" r="156.5" fill="white"/>
<path d="M475.438 43.2082C474.347 45.8162 473.403 48.4982 472.645 51.1987L559.801 138.355C562.502 137.597 565.165 136.653 567.792 135.562L475.438 43.2082Z" fill="#FFC200"/>
<path d="M481.431 31.9252C479.97 34.1448 478.675 36.4384 477.491 38.769L572.231 133.509C574.562 132.325 576.855 131.03 579.075 129.569L481.431 31.9252Z" fill="#FFC200"/>
<path d="M489.033 22.2885C487.276 24.1752 485.63 26.1173 484.094 28.1335L582.867 126.906C584.883 125.389 586.843 123.743 588.712 121.967L489.033 22.2885Z" fill="#FFC200"/>
<path d="M607.282 47.7214C603.916 37.8257 598.293 28.5033 590.395 20.6238C582.497 12.7257 573.193 7.10271 563.297 3.73632L607.282 47.7214Z" fill="#FFC200"/>
<path d="M526.581 139.668C530.577 140.464 534.646 140.907 538.715 141.018L470 72.3033C470.111 76.3726 470.536 80.4234 471.35 84.4371L526.581 139.668Z" fill="#FFC200"/>
<path d="M471.387 56.4149C470.74 59.5593 470.333 62.7407 470.129 65.9406L545.078 140.889C548.278 140.686 551.459 140.26 554.604 139.631L471.387 56.4149Z" fill="#FFC200"/>
<path d="M508.769 7.49125C506.438 8.67504 504.145 9.96978 501.925 11.431L599.588 109.093C601.049 106.874 602.344 104.58 603.527 102.25L508.769 7.49125Z" fill="#FFC200"/>
<path d="M554.419 1.35025C550.424 0.554892 546.354 0.11098 542.285 0L611 68.7151C610.889 64.6458 610.464 60.5951 609.65 56.5813L554.419 1.35025Z" fill="#FFC200"/>
<path d="M473.718 93.2786C477.084 103.174 482.707 112.497 490.605 120.376C498.503 128.274 507.807 133.897 517.703 137.264L473.718 93.2786Z" fill="#FFC200"/>
<path d="M521.199 2.64487C518.498 3.40323 515.835 4.34658 513.208 5.43788L605.562 97.7917C606.653 95.1837 607.597 92.5017 608.355 89.8011L521.199 2.64487Z" fill="#FFC200"/>
<path d="M535.922 0.129403C532.722 0.332866 529.541 0.758304 526.396 1.38719L609.613 84.6037C610.26 81.4592 610.667 78.2778 610.871 75.0779L535.922 0.129403Z" fill="#FFC200"/>
<path d="M498.133 14.113C496.117 15.6297 494.157 17.2759 492.288 19.0516L591.985 118.749C593.743 116.862 595.389 114.92 596.924 112.904L498.133 14.113Z" fill="#FFC200"/>
<path d="M109.121 349.59L95.5308 363.2L99.5303 367.2L117.14 349.59L99.5303 332L95.5308 336L109.121 349.59Z" fill="#B2C8F3"/>
<path d="M61.3657 349.59L47.7753 363.2L51.7749 367.2L69.3847 349.59L51.7749 332L47.7753 336L61.3657 349.59Z" fill="#B2C8F3"/>
<path d="M37.6273 349.59L24.0369 363.2L28.0364 367.2L45.6462 349.59L28.0364 332L24.0369 336L37.6273 349.59Z" fill="#B2C8F3"/>
<path d="M1.52588e-05 363.2L13.6103 349.59L1.64478e-05 336L4.01946 332L21.6094 349.59L4.01946 367.2L1.52588e-05 363.2Z" fill="#B2C8F3"/>
<path d="M71.7923 363.2L85.3827 349.59L71.7923 336L75.7918 332L93.4016 349.59L75.7918 367.2L71.7923 363.2Z" fill="#B2C8F3"/>
</svg>
