<svg width="118" height="36" viewBox="0 0 118 36" fill="none" xmlns="http://www.w3.org/2000/svg">
<path d="M109.121 17.5898L95.5308 31.2002L99.5303 35.1997L117.14 17.5898L99.5303 1.03764e-06L95.5308 3.99954L109.121 17.5898Z" fill="#B2C8F3"/>
<path d="M61.3657 17.5898L47.7753 31.2002L51.7749 35.1997L69.3847 17.5898L51.7749 1.03764e-06L47.7753 3.99954L61.3657 17.5898Z" fill="#B2C8F3"/>
<path d="M37.6273 17.5898L24.0369 31.2002L28.0364 35.1997L45.6462 17.5898L28.0364 1.03764e-06L24.0369 3.99954L37.6273 17.5898Z" fill="#B2C8F3"/>
<path d="M1.52588e-05 31.2002L13.6103 17.5898L1.64478e-05 3.99954L4.01946 1.03851e-06L21.6094 17.5898L4.01946 35.1997L1.52588e-05 31.2002Z" fill="#B2C8F3"/>
<path d="M71.7923 31.2002L85.3827 17.5898L71.7923 3.99954L75.7918 0L93.4016 17.5898L75.7918 35.1997L71.7923 31.2002Z" fill="#B2C8F3"/>
</svg>
