<svg width="26" height="20" viewBox="0 0 26 20" fill="none" xmlns="http://www.w3.org/2000/svg">
<path d="M11.6311 7.44684C11.6311 12.1277 8.86511 16.3121 3.33321 20L0.567257 17.0922C3.26229 14.3026 4.6098 12.2695 4.6098 10.9929C3.28593 10.7565 2.19846 10.0946 1.3474 9.00712C0.449055 7.96693 -0.000116348 6.76126 -0.000116348 5.39011C-0.000116348 3.87711 0.543617 2.60052 1.63108 1.56033C2.67127 0.520144 3.9715 4.95911e-05 5.53178 4.95911e-05C7.32847 4.95911e-05 8.79419 0.685627 9.92894 2.05678C11.0637 3.47522 11.6311 5.2719 11.6311 7.44684ZM25.248 7.44684C25.248 12.1277 22.4821 16.3121 16.9502 20L14.1133 17.0922C16.8084 14.3026 18.1559 12.2695 18.1559 10.9929C16.8793 10.7565 15.8154 10.0946 14.9644 9.00712C14.066 7.96693 13.6169 6.76126 13.6169 5.39011C13.6169 3.87711 14.137 2.60052 15.1771 1.56033C16.2173 0.520144 17.5412 4.95911e-05 19.1488 4.95911e-05C20.8982 4.95911e-05 22.3639 0.685627 23.5459 2.05678C24.6807 3.47522 25.248 5.2719 25.248 7.44684Z" fill="#0B64CC"/>
</svg>
