<svg width="36" height="47" viewBox="0 0 36 47" fill="none" xmlns="http://www.w3.org/2000/svg">
<path d="M35.25 46.5H4.34375C4.15313 46.5 3.97031 46.4243 3.83552 46.2895C3.70073 46.1547 3.625 45.9719 3.625 45.7812V1.21875C3.625 1.02813 3.70073 0.845309 3.83552 0.710517C3.97031 0.575725 4.15313 0.5 4.34375 0.5H27.8196C28.0102 0.500041 28.193 0.575793 28.3277 0.710594L35.7582 8.14103C35.893 8.27579 35.9687 8.45858 35.9688 8.64919V45.7812C35.9688 45.9719 35.893 46.1547 35.7582 46.2895C35.6234 46.4243 35.4406 46.5 35.25 46.5Z" fill="url(#paint0_linear)"/>
<path d="M0.03125 24.1799L2.90625 22.9099L4.913 25.9898H0.03125V24.1799Z" fill="url(#paint1_linear)"/>
<path d="M34.5312 46.5H3.625C3.43438 46.5 3.25156 46.4243 3.11677 46.2895C2.98198 46.1547 2.90625 45.9719 2.90625 45.7812V1.21875C2.90625 1.02813 2.98198 0.845309 3.11677 0.710517C3.25156 0.575725 3.43438 0.5 3.625 0.5H27.3984L35.25 8.35162V45.7812C35.25 45.9719 35.1743 46.1547 35.0395 46.2895C34.9047 46.4243 34.7219 46.5 34.5312 46.5Z" fill="url(#paint2_linear)"/>
<path d="M27.3984 0.5V7.63287C27.3984 7.8235 27.4742 8.00632 27.609 8.14111C27.7437 8.2759 27.9266 8.35162 28.1172 8.35162H35.2501L31.7282 4.111L27.3984 0.5Z" fill="url(#paint3_linear)"/>
<path d="M28.0783 38.2344H1.30344C1.13635 38.2345 0.970872 38.2016 0.816481 38.1377C0.662089 38.0738 0.521807 37.9801 0.403655 37.862C0.285502 37.7438 0.191797 37.6035 0.127897 37.4491C0.0639975 37.2947 0.0311557 37.1293 0.0312502 36.9622V25.4507H28.0783C28.4157 25.4509 28.7391 25.585 28.9777 25.8235C29.2162 26.062 29.3503 26.3855 29.3505 26.7229V36.9622C29.3505 37.2996 29.2165 37.6232 28.9779 37.8618C28.7393 38.1003 28.4157 38.2344 28.0783 38.2344Z" fill="url(#paint4_linear)"/>
<path d="M2.90625 22.9099H1.302C1.13516 22.9098 0.96993 22.9426 0.81576 23.0064C0.66159 23.0702 0.521497 23.1637 0.403488 23.2816C0.285478 23.3996 0.191864 23.5396 0.127994 23.6938C0.0641244 23.8479 0.0312502 24.0131 0.0312502 24.1799C0.0311557 24.3468 0.0639601 24.5121 0.127788 24.6664C0.191615 24.8206 0.285215 24.9607 0.403233 25.0787C0.521252 25.1967 0.661376 25.2903 0.815593 25.3542C0.96981 25.418 1.1351 25.4508 1.302 25.4507H2.90625V22.9099Z" fill="url(#paint5_linear)"/>
<path d="M5.35596 29.3794C5.35596 29.2139 5.42169 29.0552 5.53869 28.9382C5.65569 28.8212 5.81437 28.7555 5.97983 28.7555C6.92463 28.6991 7.87272 28.7386 8.80955 28.8734C9.17193 28.9906 9.50001 29.195 9.76504 29.4686C10.0301 29.7421 10.224 30.0765 10.3297 30.4424C10.4759 30.9145 10.5441 31.4074 10.5317 31.9015C10.541 32.3468 10.4771 32.7907 10.3426 33.2153C10.2436 33.5887 10.0501 33.9302 9.78085 34.2071C9.5116 34.4841 9.17563 34.6871 8.80524 34.7966C7.86965 34.929 6.92365 34.9728 5.97983 34.9274C5.8979 34.9274 5.81678 34.9113 5.74109 34.8799C5.66539 34.8486 5.59662 34.8026 5.53869 34.7447C5.48075 34.6867 5.4348 34.618 5.40345 34.5423C5.37209 34.4666 5.35596 34.3855 5.35596 34.3035V29.3794ZM6.60299 30.1901V33.4964C6.60299 34.0527 7.33827 33.8493 7.53377 33.8859C7.78626 33.8941 8.03888 33.8744 8.28702 33.827C8.49456 33.7835 8.68441 33.6791 8.83229 33.5271C8.98017 33.3751 9.07936 33.1825 9.11718 32.9738C9.21228 32.6048 9.25463 32.2242 9.24296 31.8432C9.25644 31.4727 9.21404 31.1022 9.11718 30.7443C9.06286 30.5228 8.9464 30.3214 8.7815 30.1639C8.6166 30.0064 8.41013 29.8993 8.1864 29.8552C7.79038 29.8069 7.3914 29.7872 6.99255 29.7962C6.94103 29.7962 6.89002 29.8065 6.84247 29.8263C6.79492 29.8462 6.75178 29.8752 6.71555 29.9119C6.67932 29.9485 6.65072 29.992 6.63139 30.0397C6.61207 30.0875 6.60242 30.1386 6.60299 30.1901Z" fill="white"/>
<path d="M11.3364 31.8806C11.3057 31.4386 11.3659 30.9948 11.5132 30.5769C11.6606 30.159 11.892 29.7756 12.1932 29.4506C12.4709 29.1737 12.8044 28.9592 13.1715 28.8213C13.5386 28.6834 13.9308 28.6252 14.3221 28.6506C14.7249 28.632 15.1271 28.6977 15.5031 28.8433C15.8791 28.989 16.2205 29.2115 16.5057 29.4966C16.7907 29.8156 17.0099 30.1879 17.1505 30.592C17.2911 30.9961 17.3504 31.4241 17.325 31.8512C17.3499 32.2754 17.2909 32.7004 17.1514 33.1018C17.0119 33.5033 16.7947 33.8733 16.5121 34.1907C16.2289 34.4755 15.8892 34.6978 15.5149 34.8432C15.1405 34.9887 14.7398 35.0541 14.3386 35.0352C13.9353 35.055 13.5322 34.9905 13.1551 34.8458C12.7781 34.7011 12.4353 34.4795 12.1486 34.195C11.8672 33.882 11.6505 33.5163 11.5111 33.119C11.3717 32.7218 11.3123 32.3009 11.3364 31.8806ZM12.6208 31.8382C12.5796 32.4098 12.752 32.9764 13.1045 33.4281C13.2603 33.5983 13.4497 33.7342 13.6607 33.8273C13.8718 33.9205 14.0998 33.9688 14.3305 33.9692C14.5612 33.9696 14.7894 33.9221 15.0008 33.8297C15.2121 33.7373 15.402 33.602 15.5584 33.4324C15.9098 32.9723 16.08 32.3991 16.0363 31.8217C16.08 31.2554 15.9143 30.6927 15.5706 30.2405C15.4093 30.0748 15.2164 29.9433 15.0033 29.8537C14.7902 29.764 14.5613 29.7182 14.3301 29.7188C14.0989 29.7194 13.8702 29.7664 13.6576 29.8572C13.4449 29.9479 13.2527 30.0804 13.0923 30.2469C12.7453 30.7013 12.5775 31.2674 12.6208 31.8375V31.8382Z" fill="white"/>
<path d="M22.8284 32.8438C22.9145 32.871 22.9937 32.9165 23.0606 32.9773C23.1275 33.038 23.1804 33.1124 23.2158 33.1955C23.2511 33.2786 23.2681 33.3684 23.2655 33.4587C23.2629 33.5489 23.2408 33.6376 23.2007 33.7185C23.0442 34.0414 22.8155 34.324 22.5323 34.5443C21.9752 34.9171 21.3064 35.086 20.639 35.0223C19.9717 34.9587 19.3469 34.6664 18.8703 34.195C18.316 33.5613 18.0322 32.7356 18.0797 31.895C18.0259 31.0241 18.3113 30.1661 18.876 29.5009C19.1439 29.2177 19.4692 28.9951 19.8302 28.848C20.1912 28.701 20.5795 28.6329 20.969 28.6484C21.6467 28.6196 22.3082 28.8602 22.809 29.3176C22.9256 29.4282 23.0275 29.5534 23.1123 29.6899C23.1641 29.7739 23.1953 29.869 23.2032 29.9674C23.2111 30.0658 23.1955 30.1647 23.1578 30.2559C23.12 30.3471 23.0612 30.4281 22.986 30.4921C22.9109 30.5561 22.8217 30.6014 22.7257 30.6243C22.597 30.6555 22.4617 30.6444 22.3398 30.5926C22.218 30.5408 22.1161 30.4511 22.0493 30.3368C21.9724 30.2031 21.8709 30.0851 21.7503 29.9889C21.5099 29.8005 21.2111 29.7021 20.9058 29.7108C20.695 29.7041 20.4854 29.745 20.2926 29.8303C20.0997 29.9157 19.9285 30.0433 19.7917 30.2038C19.4661 30.6689 19.3147 31.2338 19.3641 31.7994C19.3106 32.3872 19.4592 32.9757 19.7853 33.4677C19.9178 33.6286 20.0854 33.757 20.2753 33.8431C20.4652 33.9292 20.6722 33.9706 20.8806 33.9643C21.1951 33.9707 21.5003 33.858 21.7352 33.6488C21.8796 33.5167 21.9951 33.3562 22.0745 33.1773C22.1387 33.04 22.2504 32.9306 22.389 32.8693C22.5276 32.808 22.6837 32.799 22.8284 32.8438Z" fill="white"/>
<defs>
<linearGradient id="paint0_linear" x1="19.7969" y1="-22.4907" x2="19.7969" y2="-20.6463" gradientUnits="userSpaceOnUse">
<stop stop-color="#F3F7FF"/>
<stop offset="0.99" stop-color="#B5D1FF"/>
</linearGradient>
<linearGradient id="paint1_linear" x1="2.47212" y1="22.3852" x2="2.47212" y2="86.5337" gradientUnits="userSpaceOnUse">
<stop stop-color="#048AC4"/>
<stop offset="1" stop-color="#35489B"/>
</linearGradient>
<linearGradient id="paint2_linear" x1="1086.42" y1="-249.234" x2="1086.42" y2="7083.44" gradientUnits="userSpaceOnUse">
<stop stop-color="#F3F7FF"/>
<stop offset="0.99" stop-color="#B5D1FF"/>
</linearGradient>
<linearGradient id="paint3_linear" x1="424.204" y1="-183.456" x2="424.204" y2="-30.8987" gradientUnits="userSpaceOnUse">
<stop stop-color="#F3F7FF"/>
<stop offset="0.99" stop-color="#B5D1FF"/>
</linearGradient>
<linearGradient id="paint4_linear" x1="803.261" y1="441.151" x2="803.261" y2="1111.45" gradientUnits="userSpaceOnUse">
<stop stop-color="#048AC4"/>
<stop offset="1" stop-color="#35489B"/>
</linearGradient>
<linearGradient id="paint5_linear" x1="25.9063" y1="64.378" x2="25.9063" y2="133.84" gradientUnits="userSpaceOnUse">
<stop stop-color="#048AC4"/>
<stop offset="1" stop-color="#35489B"/>
</linearGradient>
</defs>
</svg>
