<svg width="36" height="47" viewBox="0 0 36 47" fill="none" xmlns="http://www.w3.org/2000/svg">
<path d="M35.25 46.5H4.34375C4.15313 46.5 3.97031 46.4243 3.83552 46.2895C3.70073 46.1547 3.625 45.9719 3.625 45.7812V1.21875C3.625 1.02813 3.70073 0.845309 3.83552 0.710517C3.97031 0.575725 4.15313 0.5 4.34375 0.5H27.8196C28.0102 0.500041 28.193 0.575793 28.3277 0.710594L35.7582 8.14103C35.893 8.27579 35.9687 8.45858 35.9688 8.64919V45.7812C35.9688 45.9719 35.893 46.1547 35.7582 46.2895C35.6234 46.4243 35.4406 46.5 35.25 46.5Z" fill="url(#paint0_linear)"/>
<path d="M0.03125 24.1799L2.90625 22.9099L4.913 25.9898H0.03125V24.1799Z" fill="url(#paint1_linear)"/>
<path d="M34.5312 46.5H3.625C3.43438 46.5 3.25156 46.4243 3.11677 46.2895C2.98198 46.1547 2.90625 45.9719 2.90625 45.7812V1.21875C2.90625 1.02813 2.98198 0.845309 3.11677 0.710517C3.25156 0.575725 3.43438 0.5 3.625 0.5H27.3984L35.25 8.35162V45.7812C35.25 45.9719 35.1743 46.1547 35.0395 46.2895C34.9047 46.4243 34.7219 46.5 34.5312 46.5Z" fill="url(#paint2_linear)"/>
<path d="M27.3984 0.5V7.63287C27.3984 7.8235 27.4742 8.00632 27.609 8.14111C27.7437 8.2759 27.9266 8.35162 28.1172 8.35162H35.2501L31.7282 4.111L27.3984 0.5Z" fill="url(#paint3_linear)"/>
<path d="M28.0783 38.2344H1.30344C1.13635 38.2345 0.970872 38.2016 0.816481 38.1377C0.662089 38.0738 0.521807 37.9801 0.403655 37.862C0.285502 37.7438 0.191797 37.6035 0.127897 37.4491C0.0639975 37.2947 0.0311557 37.1293 0.0312502 36.9622V25.4507H28.0783C28.4157 25.4509 28.7391 25.585 28.9777 25.8235C29.2162 26.062 29.3503 26.3855 29.3505 26.7229V36.9622C29.3505 37.2996 29.2165 37.6232 28.9779 37.8618C28.7393 38.1003 28.4157 38.2344 28.0783 38.2344Z" fill="url(#paint4_linear)"/>
<path d="M2.90625 22.9099H1.302C1.13516 22.9098 0.96993 22.9426 0.81576 23.0064C0.66159 23.0702 0.521497 23.1637 0.403488 23.2816C0.285478 23.3996 0.191864 23.5396 0.127994 23.6938C0.0641244 23.8479 0.0312502 24.0131 0.0312502 24.1799C0.0311557 24.3468 0.0639601 24.5121 0.127788 24.6664C0.191615 24.8206 0.285215 24.9607 0.403233 25.0787C0.521252 25.1967 0.661376 25.2903 0.815593 25.3542C0.96981 25.418 1.1351 25.4508 1.302 25.4507H2.90625V22.9099Z" fill="url(#paint5_linear)"/>
<path d="M5.78125 34.3087V29.3824C5.78116 29.3004 5.79722 29.2192 5.82853 29.1434C5.85984 29.0677 5.90578 28.9988 5.96372 28.9408C6.02167 28.8828 6.09047 28.8368 6.16621 28.8054C6.24195 28.774 6.32314 28.7578 6.40513 28.7578C7.35894 28.7212 8.31416 28.7522 9.26359 28.8505C9.64777 28.962 9.98169 29.2027 10.2089 29.5319C10.4361 29.8611 10.5427 30.2587 10.5106 30.6575C10.539 31.0801 10.416 31.4991 10.1637 31.8394C9.91136 32.1797 9.54618 32.4191 9.1335 32.5147C8.50135 32.5904 7.86453 32.6199 7.22809 32.6031C7.17491 32.6031 7.1239 32.6242 7.0863 32.6619C7.04869 32.6995 7.02756 32.7505 7.02756 32.8037V34.3087C7.02756 34.3905 7.01144 34.4716 6.98013 34.5472C6.94881 34.6228 6.90291 34.6915 6.84505 34.7494C6.78718 34.8072 6.71848 34.8531 6.64288 34.8844C6.56727 34.9158 6.48624 34.9319 6.40441 34.9319C6.23914 34.9319 6.08063 34.8662 5.96377 34.7494C5.8469 34.6325 5.78125 34.474 5.78125 34.3087ZM7.02756 30.0034V31.3539C7.02756 31.4071 7.04869 31.4581 7.0863 31.4957C7.1239 31.5333 7.17491 31.5545 7.22809 31.5545C7.71922 31.5883 8.21267 31.5557 8.69506 31.4574C8.86565 31.3896 9.00941 31.2679 9.10446 31.1108C9.19951 30.9537 9.24064 30.7699 9.2216 30.5873C9.20256 30.4047 9.12439 30.2333 8.99898 30.0993C8.87357 29.9652 8.70779 29.8757 8.52688 29.8446C8.09501 29.8073 7.66147 29.7932 7.22809 29.8022C7.20176 29.8022 7.1757 29.8075 7.15141 29.8177C7.12712 29.8279 7.10506 29.8427 7.08651 29.8614C7.06795 29.8801 7.05326 29.9022 7.04327 29.9266C7.03328 29.951 7.02819 29.9771 7.02828 30.0034H7.02756Z" fill="white"/>
<path d="M11.5313 29.3801C11.5312 29.2981 11.5472 29.2169 11.5785 29.1411C11.6098 29.0653 11.6558 28.9965 11.7137 28.9385C11.7717 28.8805 11.8405 28.8344 11.9162 28.803C11.992 28.7716 12.0731 28.7555 12.1551 28.7555C13.0997 28.6991 14.0475 28.7386 14.9841 28.8734C15.3466 28.9906 15.6748 29.1949 15.94 29.4685C16.2051 29.742 16.3991 30.0764 16.505 30.4424C16.6509 30.9146 16.7191 31.4074 16.707 31.9015C16.7164 32.3469 16.6523 32.7908 16.5172 33.2153C16.4181 33.5886 16.2247 33.9302 15.9554 34.2071C15.6862 34.4841 15.3502 34.687 14.9798 34.7966C14.0445 34.929 13.0987 34.9728 12.1551 34.9274C11.99 34.9274 11.8317 34.862 11.7147 34.7454C11.5978 34.6289 11.5318 34.4708 11.5313 34.3057V29.3801ZM12.7776 30.0011V33.689C12.7776 33.7422 12.7987 33.7932 12.8363 33.8308C12.8739 33.8684 12.9249 33.8895 12.9781 33.8895C13.4736 33.9168 13.9705 33.8971 14.4623 33.8306C14.6697 33.787 14.8594 33.6825 15.0072 33.5305C15.1549 33.3785 15.254 33.186 15.2918 32.9774C15.3871 32.6084 15.4297 32.2278 15.4183 31.8468C15.4316 31.4762 15.3889 31.1057 15.2918 30.7479C15.2373 30.5259 15.1203 30.3241 14.9547 30.1666C14.7891 30.009 14.5818 29.9022 14.3574 29.8588C13.8983 29.8082 13.4363 29.7885 12.9745 29.7998C12.9217 29.8006 12.8713 29.8221 12.8343 29.8598C12.7973 29.8975 12.7766 29.9483 12.7768 30.0011H12.7776Z" fill="white"/>
<path d="M17.7715 34.3064V29.3801C17.7715 29.2144 17.8373 29.0556 17.9544 28.9384C18.0716 28.8213 18.2304 28.7555 18.3961 28.7555H21.4817C21.6203 28.7555 21.7532 28.8105 21.8512 28.9085C21.9492 29.0065 22.0042 29.1394 22.0042 29.278C22.0042 29.3466 21.9907 29.4145 21.9644 29.4779C21.9381 29.5412 21.8996 29.5988 21.8511 29.6473C21.8026 29.6957 21.745 29.7341 21.6816 29.7603C21.6182 29.7865 21.5503 29.7999 21.4817 29.7998H19.2219C19.1955 29.7998 19.1694 29.805 19.145 29.8152C19.1206 29.8253 19.0985 29.8401 19.0799 29.8588C19.0612 29.8775 19.0465 29.8997 19.0365 29.9241C19.0264 29.9485 19.0213 29.9747 19.0214 30.0011V31.0605C19.0213 31.0869 19.0264 31.1131 19.0365 31.1375C19.0465 31.1619 19.0612 31.1841 19.0799 31.2028C19.0985 31.2215 19.1206 31.2363 19.145 31.2464C19.1694 31.2566 19.1955 31.2618 19.2219 31.2618H21.0763C21.2148 31.2618 21.3476 31.3167 21.4455 31.4146C21.5435 31.5124 21.5986 31.6451 21.5988 31.7836C21.5986 31.9221 21.5435 32.0549 21.4456 32.1529C21.3476 32.2508 21.2148 32.3059 21.0763 32.3061H19.2219C19.1956 32.3061 19.1695 32.3113 19.1452 32.3214C19.1209 32.3315 19.0987 32.3462 19.0801 32.3649C19.0615 32.3835 19.0467 32.4056 19.0367 32.4299C19.0266 32.4542 19.0214 32.4803 19.0214 32.5066V34.3035C19.0212 34.4689 18.9554 34.6274 18.8384 34.7442C18.7214 34.8611 18.5629 34.9267 18.3975 34.9267C18.3157 34.9271 18.2346 34.9113 18.1588 34.8803C18.0831 34.8494 18.0142 34.8038 17.956 34.7462C17.8979 34.6886 17.8517 34.6201 17.82 34.5447C17.7884 34.4692 17.7719 34.3882 17.7715 34.3064Z" fill="white"/>
<defs>
<linearGradient id="paint0_linear" x1="19.7969" y1="-22.4907" x2="19.7969" y2="-20.6463" gradientUnits="userSpaceOnUse">
<stop stop-color="#F3F7FF"/>
<stop offset="0.99" stop-color="#B5D1FF"/>
</linearGradient>
<linearGradient id="paint1_linear" x1="2.47212" y1="22.3852" x2="2.47212" y2="86.5337" gradientUnits="userSpaceOnUse">
<stop stop-color="#FF5252"/>
<stop offset="1" stop-color="#D50000"/>
</linearGradient>
<linearGradient id="paint2_linear" x1="1086.42" y1="-249.234" x2="1086.42" y2="7083.44" gradientUnits="userSpaceOnUse">
<stop stop-color="#F3F7FF"/>
<stop offset="0.99" stop-color="#B5D1FF"/>
</linearGradient>
<linearGradient id="paint3_linear" x1="424.204" y1="-183.456" x2="424.204" y2="-30.8987" gradientUnits="userSpaceOnUse">
<stop stop-color="#F3F7FF"/>
<stop offset="0.99" stop-color="#B5D1FF"/>
</linearGradient>
<linearGradient id="paint4_linear" x1="803.261" y1="441.151" x2="803.261" y2="1111.45" gradientUnits="userSpaceOnUse">
<stop stop-color="#FF5252"/>
<stop offset="1" stop-color="#D50000"/>
</linearGradient>
<linearGradient id="paint5_linear" x1="25.9063" y1="64.378" x2="25.9063" y2="133.84" gradientUnits="userSpaceOnUse">
<stop stop-color="#FF5252"/>
<stop offset="1" stop-color="#D50000"/>
</linearGradient>
</defs>
</svg>
