<svg width="41" height="41" viewBox="0 0 41 41" fill="none" xmlns="http://www.w3.org/2000/svg">
<path d="M18.7341 4.66195C20.055 4.45157 21.7457 4.43882 22.3934 4.62497C23.5498 4.9603 23.9565 5.94077 23.2961 6.79757C22.8881 7.32032 22.3169 7.60465 20.8175 8.02795C18.0342 8.79677 16.0018 9.91495 14.2729 11.6158C13.003 12.8449 12.303 14.0128 12.1003 15.2164C12.0366 15.5517 12.0366 19.749 12.1003 24.5303C12.1768 30.5279 12.1641 33.3341 12.0748 33.5573C11.8581 34.1157 11.4526 34.0035 10.3217 33.1225C7.13163 30.5891 5.05976 27.2613 4.22208 23.2884C3.94158 21.9216 3.94158 18.8922 4.23483 17.6504C5.05976 14.037 7.18263 10.6468 10.0029 8.43722C12.609 6.3883 15.4038 5.18342 18.7341 4.66322V4.66195ZM29.4212 7.67987C29.5487 7.55492 29.7132 7.45675 29.8024 7.45675C30.0689 7.45675 31.1743 8.37475 32.2032 9.48017C35.9007 13.4288 37.2229 17.3278 36.5127 22.146C36.092 25.0148 35.3805 27.1504 34.1604 29.286C33.4489 30.5024 31.5045 32.4276 29.9159 33.482C27.8325 34.8731 25.1895 36.0155 23.0666 36.4375C21.9739 36.6619 20.0423 36.6989 19.6751 36.5127C19.3563 36.338 19.3563 35.8166 19.6878 35.3078C20.004 34.7978 20.106 34.7494 21.9102 34.2891C24.0203 33.7562 24.8337 33.3456 25.7862 32.3154C27.1848 30.8377 28.6842 28.354 29.1534 26.7768C29.3574 26.1189 29.3574 25.3361 29.2682 17.4017C29.2044 12.646 29.1662 8.57365 29.1789 8.33777C29.2044 8.1019 29.3064 7.8163 29.4212 7.67987V7.67987ZM20.106 9.20732C20.3993 9.02117 20.7282 8.94595 21.2752 8.94595C22.2659 8.94595 22.7874 9.2443 23.1558 10.0386C23.4618 10.722 23.4618 10.7348 23.6136 20.6186C23.6646 24.1325 23.7538 27.1121 23.8176 27.2358C23.9438 27.5342 24.5787 27.8325 24.8592 27.7331C25.2405 27.5966 26.4466 26.5167 27.2473 25.5974C27.6681 25.1129 28.0735 24.7164 28.1628 24.7164C28.456 24.7164 28.354 25.6344 27.9333 26.7896C27.3876 28.317 26.5359 29.8687 25.7479 30.8135C24.172 32.675 21.4282 33.6937 20.1953 32.8739C19.2288 32.2529 19.1409 31.7442 18.9114 25.9328C18.7584 21.8604 18.8476 13.4658 19.0516 11.5661C19.1919 10.3497 19.5463 9.55412 20.106 9.20732V9.20732ZM14.1212 20.3202C15.8871 19.4507 17.9589 20.3827 18.4154 22.2327C18.6831 23.3126 18.3134 24.3556 17.3992 25.1142C16.4965 25.883 15.3528 26.0322 14.2857 25.535C13.9427 25.3743 13.4977 25.0887 13.3077 24.8898C11.9728 23.5001 12.3923 21.1643 14.1212 20.3202V20.3202ZM20.5 40.9C9.23283 40.9 0.100006 31.7672 0.100006 20.5C0.100006 9.23282 9.23283 0.0999985 20.5 0.0999985C31.7672 0.0999985 40.9 9.23282 40.9 20.5C40.9 31.7672 31.7672 40.9 20.5 40.9ZM20.5 38.86C30.6401 38.86 38.86 30.6401 38.86 20.5C38.86 10.3599 30.6401 2.14 20.5 2.14C10.3599 2.14 2.14001 10.3599 2.14001 20.5C2.14001 30.6401 10.3599 38.86 20.5 38.86Z" fill="#645BDD"/>
</svg>
