<svg width="439" height="332" viewBox="0 0 439 332" fill="none" xmlns="http://www.w3.org/2000/svg">
<path d="M88.5 141C39.6194 141 0 180.619 0 229.5C0 278.381 39.6194 318 88.5 318C137.381 318 177 278.381 177 229.5C177 180.619 137.381 141 88.5 141ZM88.5 283.249C58.8135 283.249 34.7509 259.187 34.7509 229.5C34.7509 199.813 58.8135 175.751 88.5 175.751C118.187 175.751 142.249 199.813 142.249 229.5C142.249 259.187 118.187 283.249 88.5 283.249Z" fill="#1C0EC2"/>
<circle cx="212.5" cy="175.5" r="156.5" fill="white"/>
<path d="M303.438 43.2082C302.347 45.8162 301.403 48.4982 300.645 51.1987L387.801 138.355C390.502 137.597 393.165 136.653 395.792 135.562L303.438 43.2082Z" fill="#FFC200"/>
<path d="M309.431 31.9252C307.97 34.1448 306.675 36.4384 305.491 38.769L400.231 133.509C402.562 132.325 404.855 131.03 407.075 129.569L309.431 31.9252Z" fill="#FFC200"/>
<path d="M317.033 22.2885C315.276 24.1752 313.63 26.1173 312.094 28.1335L410.867 126.906C412.883 125.389 414.843 123.743 416.712 121.967L317.033 22.2885Z" fill="#FFC200"/>
<path d="M435.282 47.7214C431.916 37.8257 426.293 28.5033 418.395 20.6238C410.497 12.7257 401.193 7.10271 391.297 3.73632L435.282 47.7214Z" fill="#FFC200"/>
<path d="M354.581 139.668C358.577 140.464 362.646 140.907 366.715 141.018L298 72.3033C298.111 76.3726 298.536 80.4234 299.35 84.4371L354.581 139.668Z" fill="#FFC200"/>
<path d="M299.387 56.4149C298.74 59.5593 298.333 62.7407 298.129 65.9406L373.078 140.889C376.278 140.686 379.459 140.26 382.604 139.631L299.387 56.4149Z" fill="#FFC200"/>
<path d="M336.769 7.49125C334.438 8.67504 332.145 9.96978 329.925 11.431L427.588 109.093C429.049 106.874 430.344 104.58 431.527 102.25L336.769 7.49125Z" fill="#FFC200"/>
<path d="M382.419 1.35025C378.424 0.554892 374.354 0.11098 370.285 0L439 68.7151C438.889 64.6458 438.464 60.5951 437.65 56.5813L382.419 1.35025Z" fill="#FFC200"/>
<path d="M301.718 93.2786C305.084 103.174 310.707 112.497 318.605 120.376C326.503 128.274 335.807 133.897 345.703 137.264L301.718 93.2786Z" fill="#FFC200"/>
<path d="M349.199 2.64487C346.498 3.40323 343.835 4.34658 341.208 5.43788L433.562 97.7917C434.653 95.1837 435.597 92.5017 436.355 89.8011L349.199 2.64487Z" fill="#FFC200"/>
<path d="M363.922 0.129403C360.722 0.332866 357.541 0.758304 354.396 1.38719L437.613 84.6037C438.26 81.4592 438.667 78.2778 438.871 75.0779L363.922 0.129403Z" fill="#FFC200"/>
<path d="M326.133 14.113C324.117 15.6297 322.157 17.2759 320.288 19.0516L419.985 118.749C421.743 116.862 423.389 114.92 424.924 112.904L326.133 14.113Z" fill="#FFC200"/>
</svg>
