<svg width="237" height="53" viewBox="0 0 237 53" fill="none" xmlns="http://www.w3.org/2000/svg">
<path d="M26.4574 3.71273C26.3163 3.51871 26.087 3.41288 25.8577 3.43052H22.4888C22.1537 3.43052 21.9773 3.53635 21.8891 3.71273C21.8891 3.71273 21.501 4.41826 21.4834 4.59465C21.4658 4.77103 21.748 4.87686 22.0831 4.87686H26.2457C26.5809 4.87686 26.8278 4.73575 26.8454 4.59465C26.8631 4.45354 26.4574 3.71273 26.4574 3.71273ZM24.5877 4.70047H23.6882C23.6176 4.70047 23.5471 4.68284 23.5647 4.64756C23.5824 4.57701 23.6176 4.52409 23.6529 4.45354C23.6706 4.41826 23.7058 4.40062 23.7764 4.40062H24.4995C24.5525 4.40062 24.6054 4.41826 24.623 4.45354C24.6583 4.50645 24.6936 4.57701 24.7112 4.64756C24.7112 4.6652 24.6583 4.70047 24.5877 4.70047Z" fill="white"/>
<path d="M25.8577 0.114502H22.4888C22.1537 0.114502 21.8891 0.379076 21.8891 0.714203V2.58386C21.8891 2.91899 22.1537 3.18356 22.4888 3.18356H25.8577C26.1928 3.18356 26.4574 2.91899 26.4574 2.58386V0.714203C26.4574 0.379076 26.1928 0.114502 25.8577 0.114502ZM22.5593 0.837671H23.5824V1.94888H22.5593V0.837671ZM25.7695 2.40748H22.577V2.19582H25.7695V2.40748ZM25.7695 1.94888H23.8646V1.73722H25.7695V1.94888ZM25.7695 1.50792H23.8646V1.29627H25.7695V1.50792ZM25.7695 1.04933H23.8646V0.837671H25.7695V1.04933Z" fill="white"/>
<path d="M26.4574 28.6885C26.3163 28.4944 26.087 28.3886 25.8577 28.4062H22.4888C22.1537 28.4062 21.9773 28.5121 21.8891 28.6885C21.8891 28.6885 21.501 29.394 21.4834 29.5704C21.4658 29.7467 21.748 29.8526 22.0831 29.8526H26.2457C26.5809 29.8526 26.8278 29.7115 26.8454 29.5704C26.8631 29.4293 26.4574 28.6885 26.4574 28.6885ZM24.5877 29.6762H23.6882C23.6176 29.6762 23.5471 29.6586 23.5647 29.6056C23.5824 29.5351 23.6176 29.4822 23.6529 29.4116C23.6706 29.3763 23.7058 29.3411 23.7764 29.3411H24.4995C24.5525 29.3411 24.6054 29.3587 24.623 29.4116C24.6583 29.4645 24.6936 29.5351 24.7112 29.6056C24.7112 29.6409 24.6583 29.6762 24.5877 29.6762Z" fill="white"/>
<path d="M25.8577 25.0902H22.4888C22.1537 25.0902 21.8891 25.3548 21.8891 25.6899V27.5772C21.8891 27.9123 22.1537 28.1769 22.4888 28.1769H25.8577C26.1928 28.1769 26.4574 27.9123 26.4574 27.5772V25.6899C26.4574 25.3548 26.1928 25.0902 25.8577 25.0902ZM22.5593 25.8134H23.5824V26.9246H22.5593V25.8134ZM25.7695 27.3832H22.577V27.1715H25.7695V27.3832ZM25.7695 26.9246H23.8646V26.7129H25.7695V26.9246ZM25.7695 26.4836H23.8646V26.272H25.7695V26.4836ZM25.7695 26.025H23.8646V25.8134H25.7695V26.025Z" fill="white"/>
<path d="M26.4574 51.4596C26.3163 51.2655 26.087 51.1597 25.8577 51.1773H22.4888C22.1537 51.1773 21.9773 51.2832 21.8891 51.4596C21.8891 51.4596 21.501 52.1651 21.4834 52.3415C21.4658 52.5179 21.748 52.6237 22.0831 52.6237H26.2457C26.5809 52.6237 26.8278 52.4826 26.8454 52.3415C26.8631 52.2004 26.4574 51.4596 26.4574 51.4596ZM24.5877 52.4297H23.6882C23.6176 52.4297 23.5471 52.412 23.5647 52.3591C23.5824 52.2886 23.6176 52.2356 23.6529 52.1651C23.6706 52.1298 23.7058 52.1122 23.7764 52.1122H24.4995C24.5525 52.1122 24.6054 52.1298 24.623 52.1651C24.6583 52.218 24.6936 52.2886 24.7112 52.3591C24.7112 52.412 24.6583 52.4297 24.5877 52.4297Z" fill="white"/>
<path d="M25.8577 47.8436H22.4888C22.1537 47.8436 21.8891 48.1081 21.8891 48.4432V50.3305C21.8891 50.6657 22.1537 50.9302 22.4888 50.9302H25.8577C26.1928 50.9302 26.4574 50.6657 26.4574 50.3305V48.4432C26.4574 48.1258 26.1928 47.8436 25.8577 47.8436ZM22.5593 48.5844H23.5824V49.6956H22.5593V48.5844ZM25.7695 50.1542H22.577V49.9425H25.7695V50.1542ZM25.7695 49.6956H23.8646V49.4839H25.7695V49.6956ZM25.7695 49.237H23.8646V49.0253H25.7695V49.237ZM25.7695 48.796H23.8646V48.5844H25.7695V48.796Z" fill="white"/>
<path d="M4.97399 15.9889C4.83288 15.7949 4.60359 15.689 4.37429 15.7067H1.00538C0.670253 15.7067 0.49387 15.8125 0.405679 15.9889C0.405679 15.9889 0.017637 16.6944 -1.26887e-06 16.8708C-0.0176395 17.0472 0.264573 17.153 0.5997 17.153H4.76233C5.09746 17.153 5.34439 17.0119 5.36203 16.8708C5.37967 16.7297 4.97399 15.9889 4.97399 15.9889ZM3.10433 16.959H2.20478C2.13423 16.959 2.06368 16.9414 2.08131 16.9061C2.09895 16.8355 2.13423 16.7826 2.16951 16.7121C2.18714 16.6768 2.22242 16.6591 2.29297 16.6591H3.01614C3.06906 16.6591 3.12197 16.6768 3.13961 16.7121C3.17489 16.765 3.21016 16.8355 3.2278 16.9061C3.2278 16.9414 3.17489 16.959 3.10433 16.959Z" fill="white"/>
<path d="M4.37429 12.3731H1.00538C0.670253 12.3731 0.405679 12.6377 0.405679 12.9728V14.8601C0.405679 15.1952 0.670253 15.4598 1.00538 15.4598H4.37429C4.70942 15.4598 4.97399 15.1952 4.97399 14.8601V12.9728C4.97399 12.6553 4.70942 12.3731 4.37429 12.3731ZM1.09357 13.1139H2.11659V14.2251H1.09357V13.1139ZM4.2861 14.6837H1.11121V14.4721H4.30374L4.2861 14.6837ZM4.2861 14.2251H2.38117V14.0135H4.2861V14.2251ZM4.2861 13.7665H2.38117V13.5549H4.2861V13.7665ZM4.2861 13.3256H2.38117V13.1139H4.2861V13.3256Z" fill="white"/>
<path d="M47.588 15.9889C47.4469 15.7949 47.2176 15.689 46.9883 15.7067H43.6194C43.2843 15.7067 43.1079 15.8125 43.0197 15.9889C43.0197 15.9889 42.6317 16.6944 42.6141 16.8708C42.5964 17.0472 42.8786 17.153 43.2138 17.153H47.3764C47.7115 17.153 47.9584 17.0119 47.9761 16.8708C47.9937 16.7297 47.588 15.9889 47.588 15.9889ZM45.7008 16.959H44.8012C44.7306 16.959 44.6601 16.9414 44.6777 16.9061C44.6954 16.8355 44.7306 16.7826 44.7659 16.7121C44.7836 16.6768 44.8188 16.6591 44.8894 16.6591H45.6126C45.6655 16.6591 45.7184 16.6768 45.736 16.7121C45.7713 16.765 45.8066 16.8355 45.8242 16.9061C45.8242 16.9414 45.7713 16.959 45.7008 16.959Z" fill="white"/>
<path d="M46.9883 12.3731H43.6194C43.2843 12.3731 43.0197 12.6377 43.0197 12.9728V14.8601C43.0197 15.1952 43.2843 15.4598 43.6194 15.4598H46.9883C47.3235 15.4598 47.588 15.1952 47.588 14.8601V12.9728C47.588 12.6553 47.3235 12.3731 46.9883 12.3731ZM43.69 13.1139H44.713V14.2251H43.69V13.1139ZM46.9002 14.6837H43.7076V14.4721H46.9002V14.6837ZM46.9002 14.2251H44.9952V14.0135H46.9002V14.2251ZM46.9002 13.7665H44.9952V13.5549H46.9002V13.7665ZM46.9002 13.3256H44.9952V13.1139H46.9002V13.3256Z" fill="white"/>
<path d="M4.97399 38.5128C4.83288 38.3188 4.60359 38.213 4.37429 38.2306H1.00538C0.670253 38.2306 0.49387 38.3365 0.405679 38.5128C0.405679 38.5128 0.017637 39.2184 -1.26887e-06 39.3948C-0.0176395 39.5711 0.264573 39.677 0.5997 39.677H4.76233C5.09746 39.677 5.34439 39.5359 5.36203 39.3948C5.37967 39.2537 4.97399 38.5128 4.97399 38.5128ZM3.10433 39.4829H2.20478C2.13423 39.4829 2.06368 39.4653 2.08131 39.4124C2.09895 39.3418 2.13423 39.2889 2.16951 39.2184C2.18714 39.1831 2.22242 39.1655 2.29297 39.1655H3.01614C3.06906 39.1655 3.12197 39.1831 3.13961 39.2184C3.17489 39.2713 3.21016 39.3418 3.2278 39.4124C3.2278 39.4653 3.17489 39.4829 3.10433 39.4829Z" fill="white"/>
<path d="M4.37429 34.8971H1.00538C0.670253 34.8971 0.405679 35.1616 0.405679 35.4968V37.3841C0.405679 37.7192 0.670253 37.9838 1.00538 37.9838H4.37429C4.70942 37.9838 4.97399 37.7192 4.97399 37.3841V35.4968C4.97399 35.1793 4.70942 34.9147 4.37429 34.8971ZM1.09357 35.6379H2.11659V36.7491H1.09357V35.6379ZM4.2861 37.2077H1.11121V36.996H4.30374L4.2861 37.2077ZM4.2861 36.7491H2.38117V36.5374H4.2861V36.7491ZM4.2861 36.2905H2.38117V36.0965H4.2861V36.2905ZM4.2861 35.8495H2.38117V35.6379H4.2861V35.8495Z" fill="white"/>
<path d="M47.6233 38.5128C47.4822 38.3188 47.2529 38.213 47.0236 38.2306H43.6547C43.3196 38.2306 43.1432 38.3365 43.055 38.5128C43.055 38.5128 42.667 39.2184 42.6493 39.3948C42.6317 39.5711 42.9139 39.677 43.249 39.677H47.4117C47.7468 39.677 47.9937 39.5359 48.0114 39.3948C48.029 39.2537 47.6233 38.5128 47.6233 38.5128ZM45.736 39.4829H44.8365C44.7659 39.4829 44.6954 39.4653 44.713 39.4124C44.7306 39.3418 44.7659 39.2889 44.8012 39.2184C44.8188 39.1831 44.8541 39.1655 44.9247 39.1655H45.6478C45.7007 39.1655 45.7537 39.1831 45.7713 39.2184C45.8066 39.2713 45.8419 39.3418 45.8595 39.4124C45.8771 39.4653 45.8066 39.4829 45.736 39.4829Z" fill="white"/>
<path d="M47.0236 34.8971H43.6547C43.3196 34.8971 43.055 35.1616 43.055 35.4968V37.3841C43.055 37.7192 43.3196 37.9838 43.6547 37.9838H47.0236C47.3588 37.9838 47.6233 37.7192 47.6233 37.3841V35.4968C47.6233 35.1793 47.3588 34.8971 47.0236 34.8971ZM43.7253 35.6379H44.7483V36.7491H43.7253V35.6379ZM46.9354 37.2077H43.7429V36.996H46.9354V37.2077ZM46.9354 36.7491H45.0305V36.5374H46.9354V36.7491ZM46.9354 36.2905H45.0305V36.0965H46.9354V36.2905ZM46.9354 35.8495H45.0305V35.6379H46.9354V35.8495Z" fill="white"/>
<path d="M2.83977 18.4406H2.36353V34.3327H2.83977V18.4406Z" fill="white"/>
<path d="M45.7007 17.6996H45.2422V34.3501H45.7007V17.6996Z" fill="white"/>
<path d="M24.4819 23.6616H24.0233V7.01105H24.4819V23.6616Z" fill="white"/>
<path d="M28.5494 4.04011L28.322 4.4384L40.8528 11.5919L41.0802 11.1936L28.5494 4.04011Z" fill="white"/>
<path d="M5.79057 41.2411L5.5632 41.6394L19.7331 49.7286L19.9605 49.3303L5.79057 41.2411Z" fill="white"/>
<path d="M28.8047 29.5133L28.5773 29.9116L41.0454 37.0315L41.2728 36.6333L28.8047 29.5133Z" fill="white"/>
<path d="M42.0422 41.4769L28.1237 49.5064L28.3529 49.9036L42.2714 41.8742L42.0422 41.4769Z" fill="white"/>
<path d="M20.0962 29.4828L6.17765 37.5122L6.40681 37.9095L20.3253 29.8801L20.0962 29.4828Z" fill="white"/>
<path d="M19.5541 4.0177L6.60889 11.4741L6.83778 11.8714L19.783 4.41507L19.5541 4.0177Z" fill="white"/>
<path d="M21.7303 43.8749C21.748 44.2454 21.3423 44.7569 20.6897 45.1625C19.1904 46.0974 17.1797 46.1679 15.7157 45.3036C14.3752 44.5099 14.1635 43.3282 15.8392 42.3051C16.4389 41.9347 17.1091 41.7231 17.8147 41.6878L18.1321 42.4639C17.6735 42.5168 17.2502 42.6755 16.8445 42.9048C16.1037 43.3634 15.9803 44.0337 16.8975 44.5805C17.797 45.0744 18.9082 45.0567 19.7901 44.5099C20.1253 44.3335 20.3898 44.0161 20.5133 43.6633L21.7303 43.8749Z" fill="white"/>
<path d="M25.064 40.0475C26.4927 40.8941 26.1399 41.829 25.0993 42.464C23.8293 43.2753 22.2066 43.3106 20.919 42.5521L18.2203 40.9647L19.3315 40.2768L21.8185 41.7408C22.5417 42.1641 23.3354 42.3581 24.1115 41.8819C24.7818 41.4586 24.5172 41.0705 23.7587 40.6119L21.2188 39.1127L22.33 38.4248L25.064 40.0475Z" fill="white"/>
<path d="M23.4942 37.7015C23.7587 37.5252 24.3937 37.1018 24.9229 36.7667C26.087 36.0612 27.0747 36.0612 27.7274 36.4492C28.2212 36.7314 28.3447 37.0489 28.2212 37.4017H28.2389C28.8386 37.2253 29.4735 37.2959 30.0027 37.6134C30.9904 38.1954 30.6553 38.9539 29.597 39.6065C29.1384 39.8887 28.4682 40.2767 28.1683 40.4355L23.4942 37.7015ZM25.6108 37.5957L26.4574 38.1072L26.8278 37.8779C27.11 37.7015 27.2335 37.4899 26.8807 37.2959C26.5985 37.1371 26.1928 37.2077 25.9283 37.3841C25.7872 37.4546 25.7166 37.5252 25.6108 37.5957ZM27.3922 38.654L28.2741 39.1832C28.4153 39.1302 28.5564 39.0597 28.6975 38.9715C29.1208 38.7069 29.1561 38.46 28.8562 38.2836C28.5564 38.1072 28.2036 38.1778 27.8508 38.3894L27.3922 38.654Z" fill="white"/>
<path d="M27.7803 35.0559L30.6729 33.2921L31.6783 33.8918L29.9145 34.9854L30.7435 35.4793L32.3133 34.5091L33.3187 35.1088L31.7489 36.079L32.5955 36.5905L34.4299 35.4616L35.4353 36.0613L32.4897 37.8781L27.7803 35.0559Z" fill="white"/>
<path d="M14.3928 15.6187V11.4032L10.6712 13.4845L14.3928 15.6187Z" fill="white"/>
<path d="M10.336 13.9603V31.3869L14.3928 29.1115V16.2709L10.336 13.9603Z" fill="white"/>
<path d="M32.7719 28.3885L36.4407 30.4875V17.9643L32.7719 20.028V28.3885Z" fill="white"/>
<path d="M28.6622 9.25099V12.8492L32.7719 15.2127V19.4106L36.4407 17.3117L38.0634 18.2289L41.2383 16.4474L28.6622 9.25099Z" fill="white"/>
<path d="M38.6102 18.5463L41.2735 20.0632V17.047L38.6102 18.5463Z" fill="white"/>
<path d="M58.612 39.9593H55.0314V24.3494H58.5943V39.9593H58.612Z" fill="white"/>
<path d="M61.046 27.7007V24.3494H73.9749V27.7007H69.3184V39.9593H65.7555V27.7007H61.046Z" fill="white"/>
<path d="M80.2894 35.391H74.3982V32.269H80.2894V35.391Z" fill="white"/>
<path d="M94.6117 35.7436L95.9698 38.4246C95.4936 38.9538 94.788 39.3947 93.8532 39.7475C92.936 40.0826 91.9483 40.2414 90.89 40.2414C88.4735 40.2414 86.4981 39.5006 84.9812 38.0366C83.4643 36.5373 82.7058 34.5795 82.7058 32.163C82.7058 29.8171 83.4114 27.8769 84.8401 26.36C86.2688 24.8432 88.2795 24.0847 90.8547 24.0847C91.8424 24.0847 92.742 24.2258 93.6063 24.5257C94.4529 24.8255 95.1232 25.2136 95.6347 25.7074L94.0472 28.3884C93.0066 27.7535 91.9483 27.436 90.8547 27.436C89.5847 27.436 88.5441 27.8593 87.7151 28.6883C86.9037 29.4997 86.4804 30.6638 86.4804 32.163C86.4804 33.5388 86.9214 34.6677 87.8033 35.5672C88.6852 36.4491 89.814 36.8901 91.2075 36.8901C92.4598 36.8901 93.5886 36.502 94.6117 35.7436Z" fill="white"/>
<path d="M107.805 24.3493H111.368V33.5212C111.368 35.7613 110.751 37.4546 109.534 38.5658C108.334 39.677 106.817 40.2414 104.983 40.2414C102.902 40.2414 101.244 39.6594 100.027 38.4776C98.7919 37.2958 98.1746 35.5849 98.1746 33.3625V24.3493H101.773V32.604C101.773 35.4614 102.849 36.8901 105.001 36.8901C105.988 36.8901 106.712 36.555 107.152 35.8848C107.593 35.2145 107.805 34.1915 107.805 32.7981V24.3493Z" fill="white"/>
<path d="M115.178 39.9239V24.4022C116.924 24.314 118.494 24.2611 119.905 24.2611C121.633 24.2611 122.939 24.6139 123.821 25.3018C124.703 25.9897 125.144 26.9421 125.144 28.1415C125.144 29.676 124.544 30.8402 123.362 31.6163V31.6692C124.032 31.9161 124.561 32.3571 124.985 32.9568C125.39 33.5741 125.602 34.3326 125.602 35.2321C125.602 36.8019 125.055 37.9837 123.944 38.8303C122.851 39.6417 121.439 40.065 119.658 40.065C117.594 40.0473 116.095 40.0121 115.178 39.9239ZM119.852 27.6124C119.587 27.6124 119.217 27.6476 118.741 27.7006V30.5403H119.923C121.016 30.5403 121.581 30.0288 121.581 29.0234C121.581 28.6001 121.422 28.2474 121.087 28.0004C120.752 27.7358 120.346 27.6124 119.852 27.6124ZM120.117 33.6447H118.741V36.5726C119.076 36.6608 119.464 36.7137 119.94 36.7137C121.316 36.7137 122.022 36.1669 122.022 35.0557C122.022 34.1209 121.387 33.6447 120.117 33.6447Z" fill="white"/>
<path d="M128.936 39.9592V24.3493H138.196V27.7006H132.516V30.4522H137.543V33.8035H132.516V36.6432H138.425V39.9592H128.936Z" fill="white"/>
<path d="M140.648 37.825C140.648 37.2783 140.859 36.7844 141.3 36.3611C141.723 35.9378 142.27 35.7261 142.923 35.7261C143.505 35.7261 143.999 35.9378 144.404 36.3611C144.81 36.7844 145.022 37.2783 145.022 37.825C145.022 38.4424 144.828 38.9892 144.422 39.4301C144.034 39.8711 143.523 40.1004 142.923 40.1004C142.253 40.1004 141.706 39.8887 141.283 39.4478C140.859 39.0068 140.648 38.46 140.648 37.825Z" fill="white"/>
<path d="M150.172 39.9603H146.574L153.065 24.3504H156.257L162.748 39.9603H158.938L157.651 36.6796H151.477L150.172 39.9603ZM156.293 33.346L154.547 28.9364L152.783 33.346H156.293Z" fill="white"/>
<path d="M166.311 42.6404H162.96V36.6258H164.636C165.077 36.0261 165.535 34.9325 165.994 33.3451C166.47 31.7223 166.77 29.7645 166.893 27.4715L167.034 24.3496H177.229V36.6081H179.346V42.6228H175.995V39.9418H166.311V42.6404ZM170.491 27.7008L170.245 30.3289C170.139 31.5812 169.909 32.8512 169.539 34.1564C169.186 35.4264 168.869 36.2377 168.587 36.6081H173.666V27.6832H170.491V27.7008Z" fill="white"/>
<path d="M181.798 24.3496H185.361V29.2354C185.784 29.1824 186.26 29.1472 186.736 29.1472C188.588 29.1472 189.982 29.6058 190.97 30.5229C191.94 31.4401 192.434 32.7454 192.434 34.4034C192.434 36.0966 191.869 37.4548 190.74 38.4778C189.594 39.4832 188.006 39.9947 185.996 39.9947C185.078 39.9947 184.285 39.9947 183.632 39.9771C182.997 39.9594 182.38 39.9594 181.798 39.9594V24.3496ZM186.436 32.4808C186.278 32.4808 185.907 32.5161 185.361 32.5866V36.5552C185.837 36.6081 186.19 36.6434 186.401 36.6434C187.883 36.6434 188.624 35.9203 188.624 34.4739C188.624 33.8213 188.43 33.3274 188.042 32.9747C187.671 32.6572 187.124 32.4808 186.436 32.4808ZM197.513 39.9594H193.95V24.3496H197.513V39.9594Z" fill="white"/>
<path d="M201.535 39.9594V24.3496H210.46V27.7008H205.115V39.9594H201.535Z" fill="white"/>
<path d="M212.912 39.9594V24.3496H222.172V27.7008H216.492V30.4524H221.519V33.8037H216.492V36.6434H222.401V39.9594H212.912Z" fill="white"/>
<path d="M236.053 39.9592H232.49V34.9323H230.903L227.939 39.9592H223.953L227.604 34.1562C225.999 33.2038 225.188 31.7927 225.188 29.8878C225.188 28.2651 225.735 26.9245 226.846 25.8486C227.939 24.7727 229.615 24.2435 231.908 24.2435C232.014 24.2435 232.155 24.2435 232.331 24.2612C232.508 24.2612 232.772 24.2788 233.107 24.2788C233.442 24.2788 233.742 24.2964 234.007 24.2964C234.289 24.2964 234.589 24.2964 234.924 24.3141C235.259 24.3141 235.506 24.3317 235.665 24.3317C235.841 24.3317 235.965 24.3494 236.053 24.3494V39.9592ZM230.62 31.5987H232.49V27.7006C232.243 27.6477 231.802 27.6124 231.202 27.6124C230.585 27.6124 230.056 27.8065 229.633 28.1769C229.209 28.5649 228.998 29.0588 228.998 29.6585C228.998 30.1876 229.139 30.6109 229.439 30.9461C229.721 31.2812 230.126 31.4929 230.62 31.5987Z" fill="white"/>
<path d="M54.5728 17.5235V12.5672H56.2308V15.989H57.6595V12.5672H59.3175V15.989H60.1465V18.6347H58.612V17.5235H54.5728Z" fill="white"/>
<path d="M64.7324 15.9361L65.191 17.1003C64.6972 17.4707 64.0446 17.6647 63.2685 17.6647C62.4571 17.6647 61.8045 17.4177 61.3106 16.9415C60.8344 16.4653 60.5874 15.8303 60.5874 15.0542C60.5874 14.3134 60.8344 13.6784 61.3283 13.2022C61.8221 12.7083 62.4747 12.4614 63.2685 12.4614C63.9211 12.4614 64.4855 12.673 64.9617 13.114C65.438 13.5373 65.6673 14.1017 65.6673 14.7896C65.6673 15.1248 65.632 15.3893 65.5614 15.6186H62.2807C62.4218 16.0772 62.8099 16.3065 63.4449 16.3065C63.9211 16.2889 64.3444 16.1654 64.7324 15.9361ZM63.1979 13.8195C62.7217 13.8195 62.3866 14.0488 62.2102 14.5074H63.9916C63.9916 14.3134 63.9211 14.1547 63.78 14.0312C63.6389 13.8901 63.4448 13.8195 63.1979 13.8195Z" fill="white"/>
<path d="M71.3821 17.5235H69.7241V15.8126H68.1366V17.5235H66.4786V12.5672H68.1366V14.2781H69.7241V12.5672H71.3821V17.5235Z" fill="white"/>
<path d="M73.6398 14.2252H72.2111V12.5672H76.7265V14.2252H75.2978V17.5235H73.6398V14.2252Z" fill="white"/>
<path d="M79.1958 19.7283H77.5378V12.5672H79.1958V12.9376C79.5309 12.6024 79.9895 12.426 80.5716 12.426C81.2242 12.426 81.7534 12.673 82.159 13.1492C82.5647 13.6254 82.7764 14.2251 82.7764 14.966C82.7764 15.742 82.5294 16.377 82.0356 16.8885C81.5417 17.4 80.8891 17.647 80.113 17.647C79.7426 17.647 79.4428 17.5941 79.1958 17.4882V19.7283ZM80.0601 13.9782C79.7602 13.9782 79.4604 14.1193 79.1958 14.4192V15.9184C79.4075 16.0419 79.6721 16.1124 79.9719 16.1124C80.307 16.1124 80.5716 16.0066 80.748 15.8126C80.9244 15.6186 81.0302 15.3364 81.0302 15.0012C81.0302 14.7014 80.942 14.4368 80.7656 14.2604C80.5892 14.084 80.3599 13.9782 80.0601 13.9782Z" fill="white"/>
<path d="M85.916 17.5235V12.5672H87.574V15.989H89.0027V12.5672H90.6607V15.989H91.4897V18.6347H89.9552V17.5235H85.916Z" fill="white"/>
<path d="M95.5994 14.9307L93.8356 17.5235H92.1776V12.5672H93.8356V15.16L95.5994 12.5672H97.2574V17.5235H95.5994V14.9307Z" fill="white"/>
<path d="M100.891 19.7281V17.6644H100.873C100.027 17.6644 99.3564 17.4175 98.8978 16.9412C98.4215 16.4474 98.1922 15.83 98.1922 15.0539C98.1922 14.3308 98.4215 13.7134 98.8978 13.2196C99.374 12.708 100.027 12.4435 100.873 12.4435H100.891V9.81536H102.549V12.4258H102.584C103.431 12.4258 104.083 12.6728 104.56 13.1666C105.018 13.6429 105.248 14.2778 105.248 15.0363C105.248 15.83 105.018 16.465 104.56 16.9412C104.101 17.4175 103.448 17.6468 102.584 17.6468H102.549V19.7281H100.891ZM99.9561 15.0539C99.9561 15.7595 100.274 16.1122 100.891 16.1299V13.9956H100.856C100.256 13.978 99.9561 14.3308 99.9561 15.0539ZM102.567 13.978H102.531V16.1122C103.149 16.1122 103.466 15.7595 103.466 15.0363C103.466 14.7188 103.396 14.4542 103.237 14.2602C103.078 14.0838 102.866 13.978 102.567 13.978Z" fill="white"/>
<path d="M107.823 19.7283H106.165V12.5672H107.823V12.9376C108.158 12.6024 108.616 12.426 109.199 12.426C109.851 12.426 110.38 12.673 110.786 13.1492C111.192 13.6254 111.403 14.2251 111.403 14.966C111.403 15.742 111.156 16.377 110.662 16.8885C110.169 17.4 109.516 17.647 108.74 17.647C108.37 17.647 108.07 17.5941 107.823 17.4882V19.7283ZM108.669 13.9782C108.37 13.9782 108.07 14.1193 107.805 14.4192V15.9184C108.017 16.0419 108.281 16.1124 108.581 16.1124C108.916 16.1124 109.181 16.0066 109.357 15.8126C109.534 15.6186 109.639 15.3364 109.639 15.0012C109.639 14.7014 109.551 14.4368 109.375 14.2604C109.216 14.084 108.969 13.9782 108.669 13.9782Z" fill="white"/>
<path d="M112.814 16.924C112.32 16.4301 112.074 15.7951 112.074 15.0543C112.074 14.3135 112.32 13.6785 112.814 13.1846C113.308 12.6908 113.978 12.4438 114.825 12.4438C115.672 12.4438 116.324 12.6908 116.818 13.1846C117.33 13.6785 117.577 14.2958 117.577 15.0543C117.577 15.8127 117.33 16.4301 116.818 16.924C116.324 17.4178 115.654 17.6648 114.825 17.6648C113.996 17.6648 113.308 17.4178 112.814 16.924ZM113.82 15.0543C113.82 15.3541 113.908 15.6187 114.102 15.8127C114.296 16.0068 114.525 16.1126 114.807 16.1126C115.107 16.1126 115.337 16.0068 115.531 15.8127C115.707 15.6187 115.813 15.3541 115.813 15.0367C115.813 14.7368 115.725 14.4722 115.531 14.2782C115.337 14.0842 115.107 13.9784 114.825 13.9784C114.543 13.9784 114.296 14.0842 114.12 14.2782C113.926 14.4722 113.82 14.7192 113.82 15.0543Z" fill="white"/>
<path d="M118.494 17.5234V12.5671C118.547 12.5671 118.847 12.5494 119.393 12.5318C119.94 12.5141 120.346 12.4965 120.61 12.4965C122.18 12.4965 122.956 12.9375 122.956 13.8194C122.956 14.1016 122.868 14.3309 122.692 14.5425C122.515 14.7366 122.321 14.86 122.074 14.8953V14.9129C122.374 15.0011 122.621 15.1422 122.798 15.3363C122.974 15.5303 123.062 15.7596 123.062 16.0242C123.062 17.0648 122.251 17.5763 120.61 17.5763C120.399 17.5763 120.011 17.5587 119.482 17.541C118.97 17.541 118.635 17.5234 118.494 17.5234ZM120.787 13.8194C120.505 13.8194 120.293 13.837 120.152 13.8547V14.5425H120.699C121.051 14.5425 121.21 14.4191 121.21 14.1721C121.21 14.0839 121.175 13.9958 121.087 13.9252C121.016 13.8547 120.91 13.8194 120.787 13.8194ZM120.681 15.5479H120.152V16.2358C120.434 16.2711 120.663 16.2711 120.822 16.2711C120.963 16.2711 121.087 16.2358 121.193 16.1653C121.281 16.0947 121.334 16.0065 121.334 15.9183C121.334 15.6714 121.104 15.5479 120.681 15.5479Z" fill="white"/>
<path d="M124.597 16.924C124.103 16.4301 123.856 15.7951 123.856 15.0543C123.856 14.3135 124.103 13.6785 124.597 13.1846C125.091 12.6908 125.761 12.4438 126.607 12.4438C127.436 12.4438 128.107 12.6908 128.601 13.1846C129.112 13.6785 129.359 14.2958 129.359 15.0543C129.359 15.8127 129.112 16.4301 128.601 16.924C128.107 17.4178 127.436 17.6648 126.607 17.6648C125.761 17.6648 125.091 17.4178 124.597 16.924ZM125.602 15.0543C125.602 15.3541 125.69 15.6187 125.884 15.8127C126.078 16.0068 126.308 16.1126 126.59 16.1126C126.89 16.1126 127.119 16.0068 127.313 15.8127C127.489 15.6187 127.595 15.3541 127.595 15.0367C127.595 14.7368 127.507 14.4722 127.313 14.2782C127.119 14.0842 126.89 13.9784 126.607 13.9784C126.325 13.9784 126.078 14.0842 125.902 14.2782C125.708 14.4722 125.602 14.7192 125.602 15.0543Z" fill="white"/>
<path d="M131.952 17.5235H130.294V12.5671H133.822V14.1017H131.952V17.5235Z" fill="white"/>
<path d="M134.862 16.9239C134.368 16.43 134.121 15.795 134.121 15.0542C134.121 14.3134 134.368 13.6784 134.862 13.1846C135.356 12.6907 136.026 12.4438 136.873 12.4438C137.702 12.4438 138.372 12.6907 138.866 13.1846C139.378 13.6784 139.625 14.2958 139.625 15.0542C139.625 15.8127 139.378 16.43 138.866 16.9239C138.372 17.4178 137.702 17.6647 136.873 17.6647C136.044 17.6647 135.374 17.4178 134.862 16.9239ZM135.885 15.0542C135.885 15.3541 135.973 15.6187 136.167 15.8127C136.361 16.0067 136.591 16.1125 136.873 16.1125C137.173 16.1125 137.402 16.0067 137.596 15.8127C137.772 15.6187 137.878 15.3541 137.878 15.0366C137.878 14.7367 137.79 14.4722 137.596 14.2781C137.402 14.0841 137.173 13.9783 136.891 13.9783C136.608 13.9783 136.361 14.0841 136.185 14.2781C135.973 14.4722 135.885 14.7191 135.885 15.0542Z" fill="white"/>
<path d="M143.24 16.9239C142.747 16.43 142.5 15.795 142.5 15.0542C142.5 14.3134 142.747 13.6784 143.24 13.1846C143.734 12.6907 144.404 12.4438 145.251 12.4438C146.08 12.4438 146.75 12.6907 147.244 13.1846C147.756 13.6784 148.003 14.2958 148.003 15.0542C148.003 15.8127 147.756 16.43 147.244 16.9239C146.75 17.4178 146.08 17.6647 145.251 17.6647C144.404 17.6647 143.734 17.4178 143.24 16.9239ZM144.246 15.0542C144.246 15.3541 144.334 15.6187 144.528 15.8127C144.722 16.0067 144.951 16.1125 145.234 16.1125C145.533 16.1125 145.763 16.0067 145.957 15.8127C146.133 15.6187 146.239 15.3541 146.239 15.0366C146.239 14.7367 146.151 14.4722 145.957 14.2781C145.763 14.0841 145.533 13.9783 145.251 13.9783C144.969 13.9783 144.722 14.0841 144.546 14.2781C144.334 14.4722 144.246 14.7191 144.246 15.0542Z" fill="white"/>
<path d="M152.536 9.69195L153.4 11.0501C153.188 11.2794 152.959 11.4381 152.712 11.5263C152.589 11.5616 152.342 11.6498 151.936 11.7556C151.53 11.8615 151.266 11.9673 151.107 12.0555C150.613 12.32 150.331 12.761 150.243 13.3607H150.26C150.419 13.1667 150.631 12.9903 150.913 12.8668C151.195 12.7434 151.477 12.6728 151.777 12.6728C152.43 12.6728 152.959 12.8845 153.365 13.3254C153.77 13.7487 153.964 14.3308 153.964 15.0716C153.964 15.7948 153.717 16.4121 153.241 16.906C152.765 17.3999 152.112 17.6468 151.319 17.6468C150.454 17.6468 149.784 17.3646 149.308 16.7825C148.832 16.2181 148.585 15.442 148.585 14.4543C148.585 12.3553 149.22 11.0325 150.49 10.468C150.737 10.3622 151.019 10.274 151.319 10.2035C151.654 10.1153 151.901 10.0447 152.077 9.97416C152.236 9.93888 152.395 9.83305 152.536 9.69195ZM150.349 14.8247C150.349 15.1951 150.437 15.4949 150.613 15.7419C150.79 15.9888 151.001 16.1123 151.283 16.1123C151.671 16.1476 151.936 15.9888 152.095 15.6537C152.254 15.3186 152.254 15.0011 152.112 14.6659C151.954 14.3308 151.707 14.1897 151.354 14.2073C150.878 14.225 150.543 14.419 150.349 14.8247Z" fill="white"/>
<path d="M156.557 19.7282H154.899V12.5671H156.557V12.9375C156.892 12.6024 157.351 12.426 157.933 12.426C158.586 12.426 159.115 12.6729 159.521 13.1492C159.926 13.6254 160.138 14.2251 160.138 14.9659C160.138 15.742 159.891 16.377 159.397 16.8885C158.903 17.4 158.251 17.6469 157.474 17.6469C157.104 17.6469 156.804 17.594 156.557 17.4882V19.7282ZM157.422 13.9782C157.122 13.9782 156.822 14.1193 156.557 14.4191V15.9184C156.769 16.0418 157.034 16.1124 157.333 16.1124C157.668 16.1124 157.933 16.0066 158.109 15.8125C158.286 15.6185 158.392 15.3363 158.392 15.0012C158.392 14.7013 158.303 14.4367 158.127 14.2604C157.951 14.084 157.721 13.9782 157.422 13.9782Z" fill="white"/>
<path d="M161.619 14.1194L161.214 12.92C161.743 12.6025 162.36 12.4438 163.048 12.4438C163.771 12.4438 164.283 12.6202 164.618 12.9553C164.953 13.308 165.112 13.8372 165.112 14.5427V17.5236H163.683V17.065C163.436 17.4178 163.013 17.5765 162.378 17.5765C161.902 17.5765 161.531 17.4354 161.249 17.1532C160.967 16.871 160.826 16.5006 160.826 16.0067C160.826 15.4775 160.984 15.0895 161.32 14.7897C161.655 14.5074 162.078 14.3663 162.607 14.3663C163.031 14.3663 163.348 14.4545 163.577 14.6486C163.613 14.0841 163.383 13.8019 162.889 13.8019C162.537 13.8196 162.113 13.9254 161.619 14.1194ZM162.925 16.2184C163.225 16.2184 163.419 16.1302 163.56 15.9714V15.6716C163.401 15.5657 163.189 15.5128 162.925 15.5128C162.784 15.5128 162.678 15.5481 162.59 15.6187C162.501 15.6892 162.466 15.7774 162.466 15.9009C162.466 16.0067 162.501 16.0949 162.59 16.1654C162.678 16.1831 162.784 16.2184 162.925 16.2184Z" fill="white"/>
<path d="M168.075 17.6647C167.616 17.6647 167.158 17.5765 166.717 17.4178C166.294 17.2414 165.994 17.0297 165.8 16.7828L166.629 15.7774C166.752 15.9361 166.964 16.0596 167.211 16.1831C167.475 16.3065 167.705 16.3595 167.934 16.3595C168.41 16.3595 168.657 16.236 168.657 16.0067C168.657 15.7598 168.481 15.6363 168.128 15.6363H167.175V14.5427H168.075C168.234 14.5427 168.34 14.5074 168.428 14.4369C168.516 14.3663 168.551 14.2605 168.551 14.1547C168.551 13.9254 168.34 13.8019 167.916 13.8019C167.528 13.8019 167.105 13.9959 166.646 14.3663L165.976 13.3433C166.47 12.7436 167.228 12.4438 168.251 12.4438C168.922 12.4438 169.433 12.5672 169.786 12.8318C170.139 13.0787 170.333 13.4491 170.333 13.9077C170.333 14.137 170.245 14.3487 170.086 14.5604C169.927 14.7544 169.698 14.8955 169.433 14.9837V15.0013C170.103 15.1601 170.439 15.5481 170.439 16.1654C170.439 16.624 170.227 16.9944 169.804 17.259C169.363 17.5236 168.798 17.6647 168.075 17.6647Z" fill="white"/>
<path d="M171.938 16.9239C171.444 16.43 171.197 15.795 171.197 15.0542C171.197 14.3134 171.444 13.6784 171.938 13.1846C172.432 12.6907 173.102 12.4438 173.949 12.4438C174.778 12.4438 175.448 12.6907 175.942 13.1846C176.453 13.6784 176.7 14.2958 176.7 15.0542C176.7 15.8127 176.453 16.43 175.942 16.9239C175.448 17.4178 174.778 17.6647 173.949 17.6647C173.102 17.6647 172.449 17.4178 171.938 16.9239ZM172.961 15.0542C172.961 15.3541 173.049 15.6187 173.243 15.8127C173.437 16.0067 173.666 16.1125 173.949 16.1125C174.248 16.1125 174.478 16.0067 174.672 15.8127C174.848 15.6187 174.954 15.3541 174.954 15.0366C174.954 14.7367 174.866 14.4722 174.672 14.2781C174.478 14.0841 174.248 13.9783 173.966 13.9783C173.684 13.9783 173.437 14.0841 173.261 14.2781C173.049 14.4722 172.961 14.7191 172.961 15.0542Z" fill="white"/>
<path d="M177.635 17.5233V12.567C177.688 12.567 177.988 12.5494 178.535 12.5317C179.081 12.5141 179.487 12.4964 179.752 12.4964C181.321 12.4964 182.097 12.9374 182.097 13.8193C182.097 14.1015 182.009 14.3308 181.833 14.5425C181.657 14.7365 181.462 14.86 181.216 14.8952V14.9129C181.515 15.0011 181.762 15.1422 181.939 15.3362C182.115 15.5302 182.203 15.7595 182.203 16.0241C182.203 17.0648 181.392 17.5763 179.752 17.5763C179.54 17.5763 179.152 17.5586 178.623 17.541C178.111 17.541 177.776 17.5233 177.635 17.5233ZM179.91 13.8193C179.628 13.8193 179.416 13.837 179.275 13.8546V14.5425H179.822C180.175 14.5425 180.334 14.419 180.334 14.1721C180.334 14.0839 180.298 13.9957 180.21 13.9251C180.157 13.8546 180.051 13.8193 179.91 13.8193ZM179.804 15.5479H179.275V16.2358C179.558 16.271 179.787 16.271 179.946 16.271C180.087 16.271 180.21 16.2358 180.316 16.1652C180.404 16.0946 180.457 16.0065 180.457 15.9183C180.457 15.6713 180.245 15.5479 179.804 15.5479Z" fill="white"/>
<path d="M183.791 14.1194L183.385 12.92C183.914 12.6025 184.532 12.4438 185.219 12.4438C185.943 12.4438 186.454 12.6202 186.789 12.9553C187.124 13.308 187.283 13.8372 187.283 14.5427V17.5236H185.854V17.065C185.607 17.4178 185.184 17.5765 184.549 17.5765C184.073 17.5765 183.703 17.4354 183.42 17.1532C183.138 16.871 182.997 16.5006 182.997 16.0067C182.997 15.4775 183.156 15.0895 183.491 14.7897C183.826 14.5074 184.249 14.3663 184.778 14.3663C185.202 14.3663 185.519 14.4545 185.749 14.6486C185.784 14.0841 185.555 13.8019 185.061 13.8019C184.708 13.8196 184.285 13.9254 183.791 14.1194ZM185.114 16.2184C185.413 16.2184 185.607 16.1302 185.749 15.9714V15.6716C185.59 15.5657 185.378 15.5128 185.114 15.5128C184.972 15.5128 184.867 15.5481 184.778 15.6187C184.69 15.6892 184.655 15.7774 184.655 15.9009C184.655 16.0067 184.69 16.0949 184.778 16.1654C184.849 16.1831 184.972 16.2184 185.114 16.2184Z" fill="white"/>
<path d="M193.262 17.5235H191.604V15.8126H190.017V17.5235H188.359V12.5671H190.017V14.278H191.604V12.5671H193.262V17.5235Z" fill="white"/>
<path d="M197.884 14.9306L196.12 17.5235H194.462V12.5671H196.12V15.1599L197.884 12.5671H199.542V17.5235H197.884V14.9306Z" fill="white"/>
<path d="M203.369 12.5671H205.08V17.5235H203.422V16.2535H203.034L202.258 17.5235H200.371L201.552 15.9008C201.006 15.6009 200.723 15.1247 200.723 14.4368C200.723 13.8724 200.953 13.4138 201.394 13.0786C201.835 12.7435 202.505 12.5671 203.369 12.5671ZM202.487 14.5602C202.487 14.6837 202.558 14.8072 202.681 14.8954C202.805 14.9836 202.964 15.0365 203.14 15.0365H203.44V13.9958H203.122C202.946 13.9958 202.805 14.0487 202.681 14.1722C202.54 14.2957 202.487 14.4191 202.487 14.5602Z" fill="white"/>
<path d="M209.543 18.6169H208.008V15.9712H208.643C208.996 15.4949 209.207 14.7188 209.278 13.6253L209.349 12.5493H213.282V15.9888H214.111V18.6345H212.576V17.541H209.543V18.6169ZM210.883 14.1191L210.865 14.3132C210.777 15.054 210.619 15.6184 210.372 15.9888H211.624V14.1191H210.883Z" fill="white"/>
<path d="M218.697 15.9361L219.155 17.1002C218.662 17.4706 218.009 17.6646 217.233 17.6646C216.422 17.6646 215.769 17.4177 215.275 16.9414C214.799 16.4652 214.552 15.8302 214.552 15.0542C214.552 14.3133 214.799 13.6784 215.293 13.2021C215.787 12.7083 216.439 12.4613 217.233 12.4613C217.886 12.4613 218.45 12.673 218.926 13.1139C219.402 13.5373 219.632 14.1017 219.632 14.7896C219.632 15.1247 219.596 15.3893 219.526 15.6186H216.245C216.386 16.0772 216.774 16.3065 217.409 16.3065C217.868 16.2888 218.309 16.1654 218.697 15.9361ZM217.162 13.8195C216.686 13.8195 216.351 14.0488 216.175 14.5074H217.956C217.956 14.3133 217.886 14.1546 217.744 14.0311C217.603 13.9077 217.409 13.8195 217.162 13.8195Z" fill="white"/>
<path d="M221.484 14.2251H220.055V12.5671H224.57V14.2251H223.142V17.5235H221.484V14.2251Z" fill="white"/>
<path d="M229.156 15.9361L229.615 17.1002C229.121 17.4706 228.468 17.6646 227.692 17.6646C226.881 17.6646 226.228 17.4177 225.735 16.9415C225.258 16.4652 225.011 15.8302 225.011 15.0542C225.011 14.3134 225.258 13.6784 225.752 13.2021C226.246 12.7083 226.899 12.4613 227.692 12.4613C228.345 12.4613 228.909 12.673 229.386 13.1139C229.862 13.5373 230.091 14.1017 230.091 14.7896C230.091 15.1247 230.056 15.3893 229.985 15.6186H226.705C226.846 16.0772 227.234 16.3065 227.869 16.3065C228.345 16.2888 228.768 16.1654 229.156 15.9361ZM227.622 13.8195C227.146 13.8195 226.81 14.0488 226.634 14.5074H228.416C228.416 14.3134 228.345 14.1546 228.204 14.0311C228.063 13.9077 227.869 13.8195 227.622 13.8195Z" fill="white"/>
<path d="M234.307 14.9307L232.543 17.5235H230.885V12.5671H232.543V15.16L234.307 12.5671H235.965V17.5235H234.307V14.9307ZM231.59 10.1507H233.019C233.019 10.574 233.178 10.7857 233.478 10.7857C233.76 10.7857 233.901 10.574 233.901 10.1507H235.33C235.33 10.7151 235.171 11.1561 234.836 11.5089C234.501 11.8616 234.06 12.0204 233.478 12.0204C232.86 12.0204 232.384 11.8616 232.067 11.5265C231.749 11.1914 231.59 10.7328 231.59 10.1507Z" fill="white"/>
</svg>
