<svg width="297" height="66" viewBox="0 0 297 66" fill="none" xmlns="http://www.w3.org/2000/svg">
<path d="M3.54838 23.0423H2.94959V43.0241H3.54838V23.0423Z" fill="url(#paint0_linear)"/>
<path d="M57.3952 22.0887H56.8185V43.002H57.3952V22.0887Z" fill="url(#paint1_linear)"/>
<path d="M30.7379 29.5846H30.1613V8.67133H30.7379V29.5846Z" fill="url(#paint2_linear)"/>
<path d="M35.9052 5.43345L36.1935 4.92337L51.9617 13.9939L51.6734 14.504L35.9052 5.43345Z" fill="url(#paint3_linear)"/>
<path d="M6.96371 52.1834L7.25201 51.6733L25.0605 61.8306L24.75 62.3407L6.96371 52.1834Z" fill="url(#paint4_linear)"/>
<path d="M35.8831 37.4576L36.1935 36.9475L51.8508 45.885L51.5403 46.3951L35.8831 37.4576Z" fill="url(#paint5_linear)"/>
<path d="M35.3286 62.0746L52.8044 51.9838L53.0927 52.4939L35.6169 62.5847L35.3286 62.0746Z" fill="url(#paint6_linear)"/>
<path d="M7.73992 46.9939L25.2379 36.9254L25.5262 37.4133L8.02822 47.504L7.73992 46.9939Z" fill="url(#paint7_linear)"/>
<path d="M8.29435 14.2822L24.5504 4.92337L24.8387 5.43345L8.58266 14.7923L8.29435 14.2822Z" fill="url(#paint8_linear)"/>
<path d="M12.9738 17.387V39.2983L18.0746 36.4374V20.3145L12.9738 17.387Z" fill="#1E75BB"/>
<path d="M41.1613 35.5282L45.7742 38.1673V22.4435L41.1613 25.0383V35.5282Z" fill="#1E75BB"/>
<path d="M48.502 23.1532L51.8508 25.0826V21.2681L48.502 23.1532Z" fill="#1E75BB"/>
<path d="M73.6734 49.9879H69.1935V30.3608H73.6734V49.9879Z" fill="#1E75BB"/>
<path d="M82.6552 34.5746H76.756V30.3608H93.0121V34.5746H87.1129V49.9879H82.633V34.5746H82.6552Z" fill="#1E75BB"/>
<path d="M100.929 44.2439H93.5222V40.3185H100.929V44.2439Z" fill="#1E75BB"/>
<path d="M118.937 44.6875L120.645 48.0584C120.046 48.7237 119.159 49.2782 117.984 49.7217C116.831 50.1431 115.589 50.3427 114.258 50.3427C111.22 50.3427 108.736 49.4112 106.829 47.5705C104.921 45.6854 103.968 43.2237 103.968 40.1854C103.968 37.2358 104.855 34.7963 106.651 32.8891C108.448 30.9818 110.976 30.0282 114.214 30.0282C115.456 30.0282 116.587 30.2056 117.673 30.5826C118.738 30.9596 119.581 31.4475 120.224 32.0685L118.228 35.4395C116.919 34.6411 115.589 34.2419 114.214 34.2419C112.617 34.2419 111.308 34.7741 110.266 35.8165C109.246 36.8366 108.714 38.3004 108.714 40.1854C108.714 41.9153 109.268 43.3346 110.377 44.4657C111.486 45.5746 112.905 46.129 114.657 46.129C116.254 46.129 117.673 45.6411 118.937 44.6875Z" fill="#1E75BB"/>
<path d="M140.028 30.3608V41.8931C140.028 44.7096 139.252 46.8387 137.722 48.2359C136.214 49.633 134.306 50.3427 132 50.3427C129.383 50.3427 127.298 49.6109 125.768 48.125C124.216 46.6391 123.44 44.4879 123.44 41.6935V30.3608H127.919V40.7399C127.919 44.3326 129.272 46.129 131.978 46.129C133.22 46.129 134.129 45.7076 134.683 44.8649C135.238 44.0221 135.504 42.7359 135.504 40.9838V30.3608H140.028Z" fill="#1E75BB"/>
<path d="M144.796 49.9435V30.4274C146.992 30.3165 148.966 30.2499 150.74 30.2499C152.913 30.2499 154.554 30.6935 155.663 31.5584C156.772 32.4233 157.327 33.6209 157.327 35.129C157.327 37.0584 156.573 38.5221 155.087 39.4979V39.5645C155.929 39.875 156.595 40.4294 157.127 41.1834C157.637 41.9596 157.903 42.9133 157.903 44.0443C157.903 46.0181 157.216 47.504 155.819 48.5685C154.444 49.5887 152.669 50.1209 150.429 50.1209C147.835 50.0987 145.95 50.0544 144.796 49.9435ZM150.696 34.4637C150.363 34.4637 149.897 34.508 149.298 34.5745V38.1451H150.784C152.159 38.1451 152.869 37.502 152.869 36.2379C152.869 35.7056 152.669 35.262 152.248 34.9516C151.827 34.6189 151.294 34.4637 150.696 34.4637ZM151.028 42.0705H149.298V45.752C149.72 45.8629 150.208 45.9294 150.806 45.9294C152.536 45.9294 153.423 45.2419 153.423 43.8447C153.401 42.6471 152.603 42.0705 151.028 42.0705Z" fill="#1E75BB"/>
<path d="M162.117 49.9879V30.3608H173.76V34.5746H166.619V38.0342H172.939V42.2479H166.619V45.8185H174.048V49.9879H162.117Z" fill="#1E75BB"/>
<path d="M176.821 47.3044C176.821 46.6169 177.087 45.9959 177.641 45.4637C178.173 44.9314 178.861 44.6653 179.681 44.6653C180.413 44.6653 181.034 44.9314 181.544 45.4637C182.054 45.9959 182.321 46.6169 182.321 47.3044C182.321 48.0806 182.077 48.7681 181.567 49.3225C181.079 49.877 180.435 50.1653 179.681 50.1653C178.839 50.1653 178.151 49.8992 177.619 49.3447C177.087 48.7903 176.821 48.1028 176.821 47.3044Z" fill="#1E75BB"/>
<path d="M188.796 49.9879H184.294L192.456 30.3609H196.47L204.631 49.9879H199.819L198.2 45.8629H190.437L188.796 49.9879ZM196.514 41.6714L194.319 36.127L192.101 41.6714H196.514Z" fill="#1E75BB"/>
<path d="M209.111 53.3588H204.897V45.7963H207.004C207.558 45.0423 208.135 43.6673 208.712 41.6713C209.31 39.631 209.688 37.1693 209.843 34.2862L210.02 30.3608H222.839V45.7741H225.5V53.3366H221.286V49.9657H209.111V53.3588ZM214.345 34.5745L214.034 37.879C213.901 39.4536 213.613 41.0503 213.147 42.6915C212.704 44.2882 212.304 45.3084 211.95 45.7741H218.337V34.5523H214.345V34.5745Z" fill="#1E75BB"/>
<path d="M228.56 30.3608H233.04V36.504C233.573 36.4374 234.171 36.3931 234.77 36.3931C237.099 36.3931 238.851 36.9697 240.093 38.1229C241.312 39.2761 241.933 40.9173 241.933 43.0019C241.933 45.131 241.224 46.8386 239.804 48.1249C238.363 49.389 236.367 50.0322 233.839 50.0322C232.685 50.0322 231.688 50.0322 230.867 50.01C230.069 49.9878 229.292 49.9878 228.56 49.9878V30.3608ZM234.393 40.6068C234.194 40.6068 233.728 40.6511 233.04 40.7398V45.7298C233.639 45.7963 234.083 45.8407 234.349 45.8407C236.212 45.8407 237.143 44.9314 237.143 43.1128C237.143 42.2923 236.899 41.6713 236.411 41.2277C235.968 40.8064 235.28 40.6068 234.393 40.6068ZM248.343 49.9878H243.863V30.3608H248.343V49.9878Z" fill="#1E75BB"/>
<path d="M253.399 49.9878V30.3608H264.621V34.5745H257.901V49.9878H253.399Z" fill="#1E75BB"/>
<path d="M279.613 49.9878H267.681V30.3608H279.325V34.5745H272.183V38.0342H278.504V42.2479H272.183V45.8185H279.613V49.9878Z" fill="#1E75BB"/>
<path d="M296.8 49.9879H292.298V43.6895H290.302L286.577 50.01H281.565L286.155 42.7137C284.137 41.5161 283.117 39.7419 283.117 37.3467C283.117 35.3064 283.804 33.6209 285.202 32.2681C286.577 30.9153 288.683 30.2499 291.567 30.2499C291.7 30.2499 291.877 30.2499 292.099 30.2721C292.321 30.2721 292.653 30.2943 293.075 30.2943C293.496 30.2943 293.873 30.3165 294.206 30.3165C294.56 30.3165 294.938 30.3165 295.359 30.3387C295.78 30.3387 296.091 30.3608 296.29 30.3608C296.512 30.3608 296.667 30.383 296.778 30.383V49.9879H296.8ZM289.948 39.4758H292.298V34.5745C291.988 34.508 291.433 34.4637 290.679 34.4637C289.903 34.4637 289.238 34.7076 288.706 35.1733C288.173 35.6612 287.907 36.2822 287.907 37.0362C287.907 37.7016 288.085 38.2338 288.462 38.6552C288.839 39.0766 289.327 39.3427 289.948 39.4758Z" fill="#1E75BB"/>
<path d="M27.3004 55C27.3226 55.4657 26.8125 56.1088 25.9919 56.6189C24.0847 57.7943 21.5786 57.8609 19.7379 56.7963C18.0524 55.7984 17.7863 54.3125 19.8931 53.0262C20.6472 52.5604 21.4899 52.2943 22.377 52.25L22.7762 53.2258C22.1996 53.2923 21.6673 53.4919 21.1572 53.7802C20.2036 54.3568 20.0706 55.1996 21.2238 55.8871C22.3548 56.508 23.752 56.4859 24.8609 55.7984C25.2822 55.5544 25.5927 55.1774 25.748 54.7338L27.3004 55Z" fill="#6D6E71"/>
<path d="M31.4697 50.1875C33.2661 51.252 32.8226 52.4052 31.5141 53.2258C29.9173 54.2459 27.8992 54.2903 26.2581 53.3367L22.8649 51.3185L24.2621 50.4536L27.3669 52.2943C28.2762 52.8266 29.2742 53.0705 30.25 52.4717C31.0927 51.9395 30.7601 51.4516 29.8064 50.875L26.6129 48.9899L28.0101 48.125L31.4697 50.1875Z" fill="#6D6E71"/>
<path d="M29.5181 47.2379C29.8508 47.0161 30.6492 46.4838 31.3145 46.0625C32.7782 45.1754 34.0202 45.1754 34.8407 45.6633C35.4617 46.0181 35.6169 46.4173 35.4617 46.8609H35.4839C36.2379 46.6391 37.0363 46.7278 37.7016 47.127C38.9435 47.8588 38.5222 48.8125 37.1915 49.633C36.6149 49.9879 35.7722 50.4758 35.3952 50.6754L29.5181 47.2379ZM32.1573 47.1048L33.2218 47.7479L33.6875 47.4596C34.0423 47.2379 34.1976 46.9717 33.754 46.7278C33.3992 46.5282 32.8891 46.6169 32.5564 46.8387C32.4234 46.9052 32.2903 47.0161 32.1573 47.1048ZM34.3972 48.4354L35.506 49.1008C35.6835 49.0342 35.8609 48.9455 36.0383 48.8346C36.5706 48.502 36.6149 48.1915 36.2379 47.9697C35.8609 47.7479 35.4173 47.8367 34.9738 48.1028L34.3972 48.4354Z" fill="#6D6E71"/>
<path d="M34.8851 43.9112L38.5222 41.6935L39.7863 42.4475L37.5685 43.8225L38.6109 44.4435L40.5847 43.2237L41.8488 43.9778L39.875 45.1975L40.9395 45.8407L43.246 44.4213L44.5101 45.1754L40.8065 47.4596L34.8851 43.9112Z" fill="#6D6E71"/>
<path d="M33.2218 4.54634C33.0444 4.30239 32.7782 4.16932 32.4677 4.1915H28.2319C27.8105 4.1915 27.5887 4.32457 27.4778 4.54634C27.4778 4.54634 26.9899 5.43344 26.9677 5.65521C26.9456 5.87698 27.3004 6.01005 27.7218 6.01005H32.9556C33.377 6.01005 33.6875 5.83263 33.7097 5.65521C33.7319 5.47779 33.2218 4.54634 33.2218 4.54634ZM30.871 5.7661H29.7399C29.6512 5.7661 29.5625 5.74392 29.5847 5.69957C29.6069 5.61086 29.6512 5.54432 29.6956 5.45561C29.7177 5.41126 29.7621 5.3669 29.8508 5.3669H30.7601C30.8266 5.3669 30.8931 5.38908 30.9153 5.45561C30.9597 5.52215 31.004 5.61086 31.0262 5.69957C31.0262 5.72174 30.9597 5.7661 30.871 5.7661Z" fill="#6D6E71"/>
<path d="M32.4677 -3.05176e-05H28.2319C27.8105 -3.05176e-05 27.4778 0.332631 27.4778 0.754002V3.12699C27.4778 3.54836 27.8105 3.88102 28.2319 3.88102H32.4677C32.8891 3.88102 33.2218 3.54836 33.2218 3.12699V0.754002C33.2218 0.332631 32.8891 -3.05176e-05 32.4677 -3.05176e-05ZM28.3427 0.909244H29.629V2.30642H28.3427V0.909244ZM32.379 2.88303H28.3871V2.6169H32.379V2.88303ZM32.379 2.3286H29.9839V2.06247H32.379V2.3286ZM32.379 1.75199H29.9839V1.48586H32.379V1.75199ZM32.379 1.17537H29.9839V0.909244H32.379V1.17537Z" fill="#6D6E71"/>
<path d="M33.2218 35.9274C33.0444 35.6835 32.756 35.5504 32.4677 35.5726H28.2319C27.8105 35.5726 27.5887 35.6835 27.4778 35.9274C27.4778 35.9274 26.9899 36.8145 26.9677 37.0363C26.9456 37.258 27.3004 37.3911 27.7218 37.3911H32.9556C33.377 37.3911 33.6875 37.2137 33.7097 37.0363C33.7319 36.8589 33.2218 35.9274 33.2218 35.9274ZM30.871 37.1472H29.7399C29.6512 37.1472 29.5625 37.125 29.5847 37.0585C29.6069 36.9697 29.6512 36.9032 29.6956 36.8145C29.7177 36.7701 29.7621 36.748 29.8508 36.748H30.7601C30.8266 36.748 30.8931 36.7701 30.9153 36.8145C30.9597 36.881 31.004 36.9697 31.0262 37.0585C31.0262 37.1028 30.9597 37.1472 30.871 37.1472Z" fill="#6D6E71"/>
<path d="M32.4677 31.381H28.2319C27.8105 31.381 27.4778 31.7137 27.4778 32.1351V34.508C27.4778 34.9294 27.8105 35.2621 28.2319 35.2621H32.4677C32.8891 35.2621 33.2218 34.9294 33.2218 34.508V32.1351C33.2218 31.7137 32.8891 31.381 32.4677 31.381ZM28.3427 32.2903H29.629V33.6875H28.3427V32.2903ZM32.379 34.2641H28.3871V33.998H32.379V34.2641ZM32.379 33.7097H29.9839V33.4435H32.379V33.7097ZM32.379 33.133H29.9839V32.8669H32.379V33.133ZM32.379 32.5564H29.9839V32.2903H32.379V32.5564Z" fill="#6D6E71"/>
<path d="M33.2218 64.5363C33.0444 64.2923 32.7782 64.1592 32.4677 64.1814H28.2319C27.8105 64.1814 27.5887 64.3145 27.4778 64.5363C27.4778 64.5363 26.9899 65.4234 26.9677 65.6451C26.9456 65.8669 27.3004 66 27.7218 66H32.9556C33.377 66 33.6875 65.8225 33.7097 65.6451C33.7319 65.4677 33.2218 64.5363 33.2218 64.5363ZM30.871 65.756H29.7399C29.6512 65.756 29.5625 65.7338 29.5847 65.6895C29.6069 65.6008 29.6512 65.5342 29.6956 65.4455C29.7177 65.4012 29.7621 65.379 29.8508 65.379H30.7601C30.8266 65.379 30.8931 65.4012 30.9153 65.4455C30.9597 65.5121 31.004 65.6008 31.0262 65.6895C31.0262 65.7117 30.9597 65.756 30.871 65.756Z" fill="#6D6E71"/>
<path d="M32.4677 59.9899H28.2319C27.8105 59.9899 27.4778 60.3225 27.4778 60.7439V63.1169C27.4778 63.5383 27.8105 63.8709 28.2319 63.8709H32.4677C32.8891 63.8709 33.2218 63.5383 33.2218 63.1169V60.7439C33.2218 60.3225 32.8891 59.9899 32.4677 59.9899ZM28.3427 60.8992H29.629V62.2963H28.3427V60.8992ZM32.379 62.8951H28.3871V62.629H32.379V62.8951ZM32.379 62.3185H29.9839V62.0524H32.379V62.3185ZM32.379 61.7419H29.9839V61.4758H32.379V61.7419ZM32.379 61.1653H29.9839V60.8992H32.379V61.1653Z" fill="#6D6E71"/>
<path d="M59.7681 19.9596C59.5907 19.7157 59.3024 19.5826 59.0141 19.6048H54.7782C54.3568 19.6048 54.1351 19.7379 54.0242 19.9596C54.0242 19.9596 53.5363 20.8467 53.5141 21.0685C53.4919 21.2903 53.8468 21.4234 54.2681 21.4234H59.502C59.9234 21.4234 60.2339 21.2459 60.256 21.0685C60.2782 20.8911 59.7681 19.9596 59.7681 19.9596ZM57.4173 21.1794H56.2863C56.1976 21.1794 56.1089 21.1572 56.131 21.0907C56.1532 21.002 56.1976 20.9355 56.2419 20.8467C56.2641 20.8024 56.3085 20.7802 56.3972 20.7802H57.3064C57.373 20.7802 57.4395 20.8024 57.4617 20.8467C57.506 20.9133 57.5504 21.002 57.5726 21.0907C57.5726 21.1572 57.506 21.1794 57.4173 21.1794Z" fill="#6D6E71"/>
<path d="M59.0141 15.4133H54.7782C54.3568 15.4133 54.0242 15.7459 54.0242 16.1673V18.5403C54.0242 18.9617 54.3568 19.2943 54.7782 19.2943H59.0141C59.4355 19.2943 59.7681 18.9617 59.7681 18.5403V16.1673C59.7681 15.7681 59.4355 15.4133 59.0141 15.4133ZM54.8891 16.3226H56.1754V17.7197H54.8891V16.3226ZM58.9254 18.2963H54.9335V18.0302H58.9254V18.2963ZM58.9254 17.7419H56.5302V17.4758H58.9254V17.7419ZM58.9254 17.1653H56.5302V16.8992H58.9254V17.1653ZM58.9254 16.5887H56.5302V16.3226H58.9254V16.5887Z" fill="#6D6E71"/>
<path d="M6.23185 48.258C6.05443 48.0141 5.76613 47.881 5.47782 47.9032H1.24193C0.82056 47.9032 0.598786 48.0141 0.487899 48.258C0.487899 48.258 -4.6771e-06 49.1451 -0.0221821 49.3669C-0.0443595 49.5887 0.310479 49.7217 0.73185 49.7217H5.9879C6.40927 49.7217 6.71975 49.5443 6.74193 49.3669C6.76411 49.1895 6.23185 48.258 6.23185 48.258ZM3.88104 49.4778H2.75C2.66129 49.4778 2.57258 49.4556 2.59475 49.3891C2.61693 49.3004 2.66129 49.2338 2.70564 49.1451C2.72782 49.1008 2.77217 49.0786 2.86088 49.0786H3.77016C3.83669 49.0786 3.90322 49.1008 3.9254 49.1451C3.96975 49.2117 4.01411 49.3004 4.03629 49.3891C4.03629 49.4556 3.96975 49.4778 3.88104 49.4778Z" fill="#6D6E71"/>
<path d="M5.47782 43.7338H1.24193C0.820558 43.7338 0.487897 44.0665 0.487897 44.4879V46.8609C0.487897 47.2822 0.820558 47.6149 1.24193 47.6149H5.47782C5.89919 47.6149 6.23185 47.2822 6.23185 46.8609V44.4879C6.23185 44.0665 5.89919 43.7338 5.47782 43.7338ZM1.35282 44.6431H2.63911V46.0403H1.35282V44.6431ZM5.38911 46.6169H1.39717V46.3508H5.38911V46.6169ZM5.38911 46.0403H2.99395V45.7742H5.38911V46.0403ZM5.38911 45.4637H2.99395V45.1975H5.38911V45.4637ZM5.38911 44.9092H2.99395V44.6431H5.38911V44.9092Z" fill="#6D6E71"/>
<path d="M59.8125 48.258C59.6351 48.0141 59.3689 47.881 59.0585 47.9032H54.8226C54.4012 47.9032 54.1794 48.0141 54.0685 48.258C54.0685 48.258 53.5806 49.1451 53.5585 49.3669C53.5363 49.5887 53.8911 49.7217 54.3125 49.7217H59.5464C59.9677 49.7217 60.2782 49.5443 60.3004 49.3669C60.3226 49.1895 59.8125 48.258 59.8125 48.258ZM57.4617 49.5H56.3306C56.2419 49.5 56.1532 49.4778 56.1754 49.4112C56.1976 49.3225 56.2419 49.256 56.2863 49.1673C56.3085 49.1229 56.3528 49.1008 56.4415 49.1008H57.3508C57.4173 49.1008 57.4839 49.1229 57.506 49.1673C57.5504 49.2338 57.5947 49.3225 57.6169 49.4112C57.6169 49.4556 57.5504 49.4778 57.4617 49.5Z" fill="#6D6E71"/>
<path d="M59.0585 43.7338H54.8226C54.4012 43.7338 54.0685 44.0665 54.0685 44.4879V46.8609C54.0685 47.2822 54.4012 47.6149 54.8226 47.6149H59.0585C59.4798 47.6149 59.8125 47.2822 59.8125 46.8609V44.4879C59.8125 44.0665 59.4798 43.7338 59.0585 43.7338ZM54.9335 44.6431H56.2198V46.0403H54.9335V44.6431ZM58.9476 46.6169H54.9556V46.3508H58.9476V46.6169ZM58.9476 46.0403H56.5524V45.7742H58.9476V46.0403ZM58.9476 45.4637H56.5524V45.1975H58.9476V45.4637ZM58.9476 44.9092H56.5524V44.6431H58.9476V44.9092Z" fill="#6D6E71"/>
<path d="M6.23185 19.9597C6.05443 19.7157 5.76613 19.5826 5.47782 19.6048H1.24193C0.820561 19.6048 0.598786 19.7379 0.487899 19.9597C0.487899 19.9597 -3.94136e-06 20.8468 -0.0221814 21.0685C-0.0443588 21.2903 0.31048 21.4455 0.731851 21.4455H5.9879C6.40927 21.4455 6.71976 21.2681 6.74193 21.0907C6.76411 20.9133 6.23185 19.9597 6.23185 19.9597ZM3.88105 21.1794H2.75C2.66129 21.1794 2.57258 21.1572 2.59475 21.0907C2.61693 21.002 2.66129 20.9355 2.70564 20.8468C2.72782 20.8024 2.77217 20.7802 2.86088 20.7802H3.77016C3.83669 20.7802 3.90322 20.8024 3.9254 20.8468C3.96976 20.9133 4.01411 21.002 4.03629 21.0907C4.03629 21.1572 3.96975 21.1794 3.88105 21.1794Z" fill="#6D6E71"/>
<path d="M5.47782 15.4133H1.24193C0.820559 15.4133 0.487898 15.7459 0.487898 16.1673V18.5403C0.487898 18.9617 0.820559 19.2943 1.24193 19.2943H5.47782C5.89919 19.2943 6.23185 18.9617 6.23185 18.5403V16.1673C6.23185 15.7681 5.89919 15.4133 5.47782 15.4133ZM1.35282 16.3226H2.63911V17.7197H1.35282V16.3226ZM5.38911 18.2964H1.39717V18.0302H5.38911V18.2964ZM5.38911 17.7419H2.99395V17.4758H5.38911V17.7419ZM5.38911 17.1653H2.99395V16.8992H5.38911V17.1653ZM5.38911 16.5887H2.99395V16.3226H5.38911V16.5887Z" fill="#6D6E71"/>
<path d="M18.0746 19.4939V14.1935L13.3952 16.8105L18.0746 19.4939Z" fill="#6D6E71"/>
<path d="M36.0161 11.4879V16.0121L41.1613 18.9617V24.2621L45.7742 21.6229L47.8145 22.7762L51.7843 20.5362L36.0161 11.4879Z" fill="#6D6E71"/>
<path d="M68.5948 21.7782V15.5685H70.6794V19.8488H72.4758V15.5685H74.5605V19.8488H75.6028V23.1754H73.6734V21.7782H68.5948Z" fill="#6D6E71"/>
<path d="M81.3911 19.7822L81.9677 21.246C81.3468 21.7117 80.5262 21.9556 79.5504 21.9556C78.5302 21.9556 77.7097 21.6451 77.0887 21.0464C76.4899 20.4476 76.1794 19.6492 76.1794 18.6734C76.1794 17.7419 76.4899 16.9435 77.1109 16.3447C77.7319 15.7238 78.5524 15.4133 79.5504 15.4133C80.371 15.4133 81.0806 15.6794 81.6794 16.2339C82.2782 16.7661 82.5665 17.4758 82.5665 18.3407C82.5665 18.7621 82.5222 19.0947 82.4335 19.3831H78.2863C78.4637 19.9597 78.9516 20.248 79.75 20.248C80.3488 20.2258 80.9032 20.0706 81.3911 19.7822ZM79.4617 17.121C78.8629 17.121 78.4415 17.4093 78.2198 17.9859H80.4597C80.4597 17.7419 80.371 17.5423 80.1936 17.3871C80.0161 17.2097 79.7722 17.121 79.4617 17.121Z" fill="#6D6E71"/>
<path d="M89.7298 21.7782H87.6452V19.627H85.6492V21.7782H83.5645V15.5685H85.6492V17.7197H87.6452V15.5685H89.7298V21.7782Z" fill="#6D6E71"/>
<path d="M92.5686 17.6311H90.7722V15.5464H96.4496V17.6311H94.6532V21.7782H92.5686V17.6311Z" fill="#6D6E71"/>
<path d="M99.5544 24.5504H97.4698V15.5686H99.5544V16.0343C99.9758 15.6129 100.552 15.3911 101.284 15.3911C102.105 15.3911 102.77 15.7016 103.28 16.3004C103.79 16.8992 104.056 17.6532 104.056 18.5847C104.056 19.5605 103.746 20.3589 103.125 21.002C102.504 21.6452 101.683 21.9557 100.708 21.9557C100.242 21.9557 99.8649 21.8891 99.5544 21.7561V24.5504ZM100.641 17.3428C100.264 17.3428 99.8871 17.5202 99.5544 17.8972V19.7823C99.8206 19.9375 100.153 20.0262 100.53 20.0262C100.952 20.0262 101.284 19.8932 101.506 19.6492C101.728 19.4053 101.861 19.0504 101.861 18.629C101.861 18.252 101.75 17.9194 101.528 17.6976C101.329 17.4536 101.018 17.3428 100.641 17.3428Z" fill="#6D6E71"/>
<path d="M108.004 21.7782V15.5685H110.089V19.8488H111.885V15.5685H113.97V19.8488H115.012V23.1754H113.083V21.7782H108.004Z" fill="#6D6E71"/>
<path d="M120.202 18.5403L117.984 21.8004H115.899V15.5685H117.984V18.8286L120.202 15.5685H122.286V21.8004H120.202V18.5403Z" fill="#6D6E71"/>
<path d="M128.917 24.5504H126.833V21.9556H126.81C125.746 21.9556 124.903 21.6452 124.327 21.0464C123.728 20.4254 123.44 19.6492 123.44 18.6734C123.44 17.7641 123.728 16.9879 124.327 16.3669C124.925 15.7238 125.746 15.3911 126.81 15.3911H126.833V12.1089H128.917V15.3911H128.962C130.026 15.3911 130.847 15.7016 131.446 16.3226C132.022 16.9214 132.31 17.7198 132.31 18.6734C132.31 19.6714 132.022 20.4698 131.446 21.0685C130.869 21.6673 130.048 21.9556 128.962 21.9556H128.917V24.5504ZM125.657 18.6734C125.657 19.5605 126.056 20.004 126.833 20.0262V17.3427H126.788C126.034 17.3427 125.657 17.7863 125.657 18.6734ZM128.962 17.3427H128.917V20.0262C129.694 20.0262 130.093 19.5827 130.093 18.6734C130.093 18.2742 130.004 17.9415 129.804 17.6976C129.605 17.4536 129.317 17.3427 128.962 17.3427Z" fill="#6D6E71"/>
<path d="M135.548 24.5504H133.464V15.5686H135.548V16.0343C135.97 15.6129 136.546 15.3911 137.278 15.3911C138.099 15.3911 138.764 15.7016 139.274 16.3004C139.784 16.8992 140.05 17.6532 140.05 18.5847C140.05 19.5605 139.74 20.3589 139.119 21.002C138.498 21.6452 137.677 21.9557 136.702 21.9557C136.236 21.9557 135.859 21.8891 135.548 21.7561V24.5504ZM136.635 17.3428C136.258 17.3428 135.881 17.5202 135.548 17.8972V19.7823C135.815 19.9375 136.147 20.0262 136.524 20.0262C136.946 20.0262 137.278 19.8932 137.5 19.6492C137.722 19.4053 137.855 19.0504 137.855 18.629C137.855 18.252 137.744 17.9194 137.522 17.6976C137.3 17.4536 137.012 17.3428 136.635 17.3428Z" fill="#6D6E71"/>
<path d="M141.825 21.0242C141.204 20.4032 140.893 19.6048 140.893 18.6734C140.893 17.7419 141.204 16.9436 141.825 16.3226C142.446 15.7016 143.288 15.3911 144.353 15.3911C145.417 15.3911 146.238 15.7016 146.859 16.3226C147.502 16.9436 147.813 17.7198 147.813 18.6734C147.813 19.627 147.502 20.4032 146.859 21.0242C146.238 21.6452 145.395 21.9557 144.353 21.9557C143.31 21.9557 142.468 21.6452 141.825 21.0242ZM143.111 18.6734C143.111 19.0504 143.222 19.3831 143.466 19.627C143.71 19.871 143.998 20.004 144.353 20.004C144.73 20.004 145.018 19.871 145.262 19.627C145.484 19.3831 145.617 19.0504 145.617 18.6512C145.617 18.2742 145.506 17.9415 145.262 17.6976C145.018 17.4536 144.73 17.3206 144.375 17.3206C144.02 17.3206 143.71 17.4536 143.488 17.6976C143.222 17.9415 143.111 18.2742 143.111 18.6734Z" fill="#6D6E71"/>
<path d="M148.988 21.7782V15.5686C149.054 15.5686 149.431 15.5464 150.119 15.5242C150.806 15.502 151.317 15.4799 151.649 15.4799C153.623 15.4799 154.599 16.0343 154.599 17.1432C154.599 17.498 154.488 17.7863 154.266 18.0524C154.044 18.2964 153.8 18.4516 153.49 18.496V18.5182C153.867 18.629 154.177 18.8065 154.399 19.0504C154.621 19.2944 154.732 19.5827 154.732 19.9153C154.732 21.2238 153.712 21.8669 151.649 21.8669C151.383 21.8669 150.895 21.8448 150.23 21.8226C149.587 21.8004 149.165 21.7782 148.988 21.7782ZM151.849 17.1432C151.494 17.1432 151.228 17.1653 151.05 17.1875V18.0524H151.738C152.181 18.0524 152.381 17.8972 152.381 17.5867C152.381 17.4758 152.337 17.3649 152.226 17.2762C152.159 17.1875 152.026 17.1432 151.849 17.1432ZM151.716 19.2944H151.05V20.1593C151.405 20.2036 151.694 20.2036 151.893 20.2036C152.071 20.2036 152.226 20.1593 152.359 20.0706C152.47 19.9819 152.536 19.871 152.536 19.7601C152.536 19.4496 152.27 19.2944 151.716 19.2944Z" fill="#6D6E71"/>
<path d="M156.661 21.0242C156.04 20.4032 155.73 19.6048 155.73 18.6734C155.73 17.7419 156.04 16.9436 156.661 16.3226C157.282 15.7016 158.125 15.3911 159.19 15.3911C160.232 15.3911 161.075 15.7016 161.696 16.3226C162.339 16.9436 162.649 17.7198 162.649 18.6734C162.649 19.627 162.339 20.4032 161.696 21.0242C161.075 21.6452 160.232 21.9557 159.19 21.9557C158.125 21.9557 157.282 21.6452 156.661 21.0242ZM157.925 18.6734C157.925 19.0504 158.036 19.3831 158.28 19.627C158.524 19.871 158.813 20.004 159.167 20.004C159.544 20.004 159.833 19.871 160.077 19.627C160.298 19.3831 160.431 19.0504 160.431 18.6512C160.431 18.2742 160.321 17.9415 160.077 17.6976C159.833 17.4536 159.544 17.3206 159.19 17.3206C158.835 17.3206 158.524 17.4536 158.302 17.6976C158.036 17.9415 157.925 18.2742 157.925 18.6734Z" fill="#6D6E71"/>
<path d="M165.887 21.7782H163.802V15.5685H168.238V17.498H165.887V21.7782Z" fill="#6D6E71"/>
<path d="M169.569 21.0242C168.948 20.4032 168.637 19.6049 168.637 18.6734C168.637 17.7419 168.948 16.9436 169.569 16.3226C170.19 15.7016 171.032 15.3911 172.097 15.3911C173.161 15.3911 173.982 15.7016 174.603 16.3226C175.246 16.9436 175.556 17.7198 175.556 18.6734C175.556 19.627 175.246 20.4032 174.603 21.0242C173.982 21.6452 173.139 21.9557 172.097 21.9557C171.054 21.9557 170.19 21.6452 169.569 21.0242ZM170.833 18.6734C170.833 19.0504 170.944 19.3831 171.188 19.627C171.431 19.871 171.72 20.004 172.075 20.004C172.452 20.004 172.74 19.871 172.984 19.627C173.206 19.3831 173.339 19.0504 173.339 18.6512C173.339 18.2742 173.228 17.9415 172.984 17.6976C172.74 17.4536 172.452 17.3206 172.097 17.3206C171.742 17.3206 171.431 17.4536 171.21 17.6976C170.966 17.9415 170.833 18.2742 170.833 18.6734Z" fill="#6D6E71"/>
<path d="M180.081 21.0242C179.46 20.4032 179.149 19.6049 179.149 18.6734C179.149 17.7419 179.46 16.9436 180.081 16.3226C180.702 15.7016 181.544 15.3911 182.609 15.3911C183.673 15.3911 184.494 15.7016 185.115 16.3226C185.758 16.9436 186.069 17.7198 186.069 18.6734C186.069 19.627 185.758 20.4032 185.115 21.0242C184.494 21.6452 183.651 21.9557 182.609 21.9557C181.567 21.9557 180.702 21.6452 180.081 21.0242ZM181.367 18.6734C181.367 19.0504 181.478 19.3831 181.722 19.627C181.966 19.871 182.254 20.004 182.609 20.004C182.986 20.004 183.274 19.871 183.518 19.627C183.74 19.3831 183.873 19.0504 183.873 18.6512C183.873 18.2742 183.762 17.9415 183.518 17.6976C183.274 17.4536 182.986 17.3206 182.631 17.3206C182.276 17.3206 181.966 17.4536 181.744 17.6976C181.478 17.9415 181.367 18.2742 181.367 18.6734Z" fill="#6D6E71"/>
<path d="M191.768 11.9314L192.855 13.6391C192.589 13.9274 192.3 14.127 191.99 14.2379C191.835 14.2822 191.524 14.3931 191.014 14.5262C190.504 14.6593 190.171 14.7923 189.972 14.9032C189.351 15.2359 188.996 15.7903 188.885 16.5443H188.907C189.107 16.3004 189.373 16.0786 189.728 15.9234C190.083 15.7681 190.438 15.6794 190.815 15.6794C191.635 15.6794 192.3 15.9456 192.81 16.5C193.321 17.0323 193.565 17.7641 193.565 18.6956C193.565 19.6048 193.254 20.381 192.655 21.002C192.056 21.623 191.236 21.9335 190.238 21.9335C189.151 21.9335 188.308 21.5786 187.71 20.8468C187.111 20.1371 186.8 19.1613 186.8 17.9193C186.8 15.2802 187.599 13.6169 189.196 12.9073C189.506 12.7742 189.861 12.6633 190.238 12.5746C190.659 12.4637 190.97 12.375 191.192 12.2863C191.413 12.2419 191.591 12.1089 191.768 11.9314ZM189.04 18.4072C189.04 18.873 189.151 19.25 189.373 19.5605C189.595 19.871 189.861 20.0262 190.216 20.0262C190.704 20.0706 191.036 19.871 191.236 19.4496C191.435 19.0282 191.435 18.629 191.258 18.2077C191.058 17.7863 190.748 17.6089 190.304 17.631C189.683 17.631 189.262 17.8972 189.04 18.4072Z" fill="#6D6E71"/>
<path d="M196.847 24.5504H194.762V15.5686H196.847V16.0343C197.268 15.6129 197.845 15.3911 198.577 15.3911C199.397 15.3911 200.063 15.7016 200.573 16.3004C201.083 16.8992 201.349 17.6532 201.349 18.5847C201.349 19.5605 201.038 20.3589 200.417 21.002C199.796 21.6452 198.976 21.9557 198 21.9557C197.534 21.9557 197.157 21.8891 196.847 21.7561V24.5504ZM197.911 17.3428C197.534 17.3428 197.157 17.5202 196.825 17.8972V19.7823C197.091 19.9375 197.423 20.0262 197.8 20.0262C198.222 20.0262 198.554 19.8932 198.776 19.6492C198.998 19.4053 199.131 19.0504 199.131 18.629C199.131 18.252 199.02 17.9194 198.798 17.6976C198.599 17.4536 198.288 17.3428 197.911 17.3428Z" fill="#6D6E71"/>
<path d="M203.19 17.5202L202.679 16.0121C203.345 15.6129 204.121 15.4133 204.986 15.4133C205.895 15.4133 206.538 15.6351 206.96 16.0564C207.381 16.5 207.581 17.1653 207.581 18.0524V21.8004H205.784V21.2238C205.474 21.6673 204.942 21.8669 204.143 21.8669C203.544 21.8669 203.079 21.6895 202.724 21.3347C202.369 20.9798 202.192 20.5141 202.192 19.8931C202.192 19.2278 202.391 18.7399 202.812 18.3629C203.234 18.0081 203.766 17.8306 204.431 17.8306C204.964 17.8306 205.363 17.9415 205.651 18.1855C205.696 17.4758 205.407 17.121 204.786 17.121C204.365 17.121 203.833 17.254 203.19 17.5202ZM204.853 20.1371C205.23 20.1371 205.474 20.0262 205.651 19.8266V19.4496C205.452 19.3165 205.185 19.25 204.853 19.25C204.675 19.25 204.542 19.2943 204.431 19.3831C204.321 19.4718 204.276 19.5827 204.276 19.7379C204.276 19.871 204.321 19.9818 204.431 20.0706C204.542 20.0927 204.675 20.1371 204.853 20.1371Z" fill="#6D6E71"/>
<path d="M211.329 21.9556C210.752 21.9556 210.175 21.8448 209.621 21.6452C209.089 21.4234 208.712 21.1573 208.468 20.8468L209.51 19.5827C209.665 19.7823 209.931 19.9375 210.242 20.0927C210.575 20.248 210.863 20.3145 211.151 20.3145C211.75 20.3145 212.061 20.1593 212.061 19.871C212.061 19.5605 211.839 19.4052 211.395 19.4052H210.198V18.0302H211.329C211.528 18.0302 211.661 17.9859 211.772 17.8972C211.883 17.8085 211.927 17.6754 211.927 17.5423C211.927 17.254 211.661 17.0988 211.129 17.0988C210.641 17.0988 210.109 17.3427 209.532 17.8085L208.667 16.5665C209.288 15.8125 210.242 15.4355 211.528 15.4355C212.371 15.4355 213.014 15.5907 213.458 15.9234C213.901 16.2339 214.145 16.6996 214.145 17.2762C214.145 17.5645 214.034 17.8306 213.835 18.0968C213.635 18.3407 213.347 18.5181 213.014 18.629V18.6512C213.857 18.8508 214.278 19.3387 214.278 20.1149C214.278 20.6915 214.012 21.1573 213.48 21.4899C212.925 21.7782 212.216 21.9556 211.329 21.9556Z" fill="#6D6E71"/>
<path d="M216.185 21.0242C215.565 20.4032 215.254 19.6049 215.254 18.6734C215.254 17.7419 215.565 16.9436 216.185 16.3226C216.806 15.7016 217.649 15.3911 218.714 15.3911C219.778 15.3911 220.599 15.7016 221.22 16.3226C221.863 16.9436 222.173 17.7198 222.173 18.6734C222.173 19.627 221.863 20.4032 221.22 21.0242C220.599 21.6452 219.756 21.9557 218.714 21.9557C217.671 21.9557 216.806 21.6452 216.185 21.0242ZM217.45 18.6734C217.45 19.0504 217.56 19.3831 217.804 19.627C218.048 19.871 218.337 20.004 218.692 20.004C219.069 20.004 219.357 19.871 219.601 19.627C219.823 19.3831 219.956 19.0504 219.956 18.6512C219.956 18.2742 219.845 17.9415 219.601 17.6976C219.357 17.4536 219.069 17.3206 218.714 17.3206C218.359 17.3206 218.048 17.4536 217.827 17.6976C217.583 17.9415 217.45 18.2742 217.45 18.6734Z" fill="#6D6E71"/>
<path d="M223.327 21.7782V15.5685C223.393 15.5685 223.77 15.5464 224.458 15.5242C225.145 15.502 225.655 15.4798 225.988 15.4798C227.962 15.4798 228.938 16.0343 228.938 17.1431C228.938 17.498 228.827 17.7863 228.605 18.0524C228.383 18.2964 228.139 18.4516 227.829 18.496V18.5181C228.206 18.629 228.516 18.8064 228.738 19.0504C228.96 19.2943 229.071 19.5826 229.071 19.9153C229.071 21.2238 228.05 21.8669 225.988 21.8669C225.722 21.8669 225.234 21.8447 224.569 21.8226C223.925 21.8004 223.504 21.7782 223.327 21.7782ZM226.21 17.1431C225.855 17.1431 225.589 17.1653 225.411 17.1875V18.0524H226.099C226.542 18.0524 226.742 17.8972 226.742 17.5867C226.742 17.4758 226.698 17.3649 226.587 17.2762C226.476 17.1875 226.365 17.1431 226.21 17.1431ZM226.077 19.2943H225.411V20.1593C225.766 20.2036 226.054 20.2036 226.254 20.2036C226.431 20.2036 226.587 20.1593 226.72 20.0706C226.831 19.9818 226.897 19.871 226.897 19.7601C226.897 19.4496 226.609 19.2943 226.077 19.2943Z" fill="#6D6E71"/>
<path d="M231.067 17.5202L230.556 16.0121C231.222 15.6129 231.998 15.4133 232.863 15.4133C233.772 15.4133 234.415 15.6351 234.837 16.0564C235.258 16.4778 235.458 17.1653 235.458 18.0524V21.8004H233.661V21.2238C233.351 21.6673 232.819 21.8669 232.02 21.8669C231.421 21.8669 230.956 21.6895 230.601 21.3347C230.246 20.9798 230.069 20.5141 230.069 19.8931C230.069 19.2278 230.268 18.7399 230.69 18.3629C231.111 17.9859 231.643 17.8306 232.308 17.8306C232.841 17.8306 233.24 17.9415 233.528 18.1855C233.573 17.4758 233.284 17.121 232.663 17.121C232.242 17.121 231.71 17.254 231.067 17.5202ZM232.73 20.1371C233.107 20.1371 233.351 20.0262 233.528 19.8266V19.4496C233.329 19.3165 233.063 19.25 232.73 19.25C232.552 19.25 232.419 19.2943 232.308 19.3831C232.198 19.4718 232.153 19.5827 232.153 19.7379C232.153 19.871 232.198 19.9818 232.308 20.0706C232.419 20.0927 232.552 20.1371 232.73 20.1371Z" fill="#6D6E71"/>
<path d="M242.998 21.7782H240.913V19.627H238.917V21.7782H236.833V15.5685H238.917V17.7197H240.913V15.5685H242.998V21.7782Z" fill="#6D6E71"/>
<path d="M248.808 18.5403L246.591 21.8004H244.506V15.5685H246.591V18.8286L248.808 15.5685H250.893V21.8004H248.808V18.5403Z" fill="#6D6E71"/>
<path d="M255.706 15.5685H257.857V21.8004H255.772V20.2036H255.284L254.308 21.8004H251.935L253.421 19.7601C252.734 19.3831 252.379 18.7843 252.379 17.9193C252.379 17.2097 252.667 16.6331 253.222 16.2117C253.776 15.7903 254.597 15.5685 255.706 15.5685ZM254.575 18.0746C254.575 18.2298 254.663 18.3851 254.819 18.496C254.974 18.6068 255.173 18.6734 255.395 18.6734H255.772V17.3649H255.373C255.151 17.3649 254.974 17.4314 254.819 17.5867C254.663 17.7198 254.575 17.875 254.575 18.0746Z" fill="#6D6E71"/>
<path d="M261.516 23.1754V19.8488H262.315C262.758 19.25 263.024 18.2742 263.113 16.8992L263.202 15.5464H268.147V19.8266H269.19V23.1532H267.26V21.7782H263.468V23.1754H261.516ZM265.131 17.498L265.109 17.7419C264.998 18.6734 264.798 19.383 264.488 19.8488H266.063V17.498H265.131Z" fill="#6D6E71"/>
<path d="M274.956 19.7822L275.532 21.246C274.911 21.7117 274.091 21.9556 273.115 21.9556C272.095 21.9556 271.274 21.6452 270.653 21.0464C270.054 20.4476 269.744 19.6492 269.744 18.6734C269.744 17.7419 270.054 16.9435 270.675 16.3447C271.296 15.7238 272.117 15.4133 273.115 15.4133C273.936 15.4133 274.645 15.6794 275.244 16.2339C275.843 16.7661 276.131 17.4758 276.131 18.3407C276.131 18.7621 276.087 19.0947 275.998 19.3831H271.873C272.05 19.9597 272.538 20.248 273.337 20.248C273.936 20.2258 274.49 20.0706 274.956 19.7822ZM273.026 17.121C272.427 17.121 272.006 17.4093 271.784 17.9859H274.024C274.024 17.7419 273.936 17.5423 273.758 17.3871C273.581 17.2097 273.337 17.121 273.026 17.121Z" fill="#6D6E71"/>
<path d="M278.482 17.631H276.686V15.5463H282.363V17.631H280.567V21.7782H278.482V17.631Z" fill="#6D6E71"/>
<path d="M288.107 19.7822L288.684 21.2459C288.063 21.7117 287.242 21.9556 286.266 21.9556C285.246 21.9556 284.425 21.6451 283.804 21.0463C283.206 20.4476 282.895 19.6492 282.895 18.6734C282.895 17.7419 283.206 16.9435 283.827 16.3447C284.448 15.7238 285.268 15.4133 286.266 15.4133C287.087 15.4133 287.796 15.6794 288.395 16.2338C288.994 16.7661 289.282 17.4758 289.282 18.3407C289.282 18.7621 289.238 19.0947 289.149 19.383H285.024C285.202 19.9597 285.69 20.248 286.488 20.248C287.087 20.2258 287.641 20.0705 288.107 19.7822ZM286.2 17.1209C285.601 17.1209 285.18 17.4093 284.958 17.9859H287.198C287.198 17.7419 287.109 17.5423 286.932 17.3871C286.732 17.2097 286.488 17.1209 286.2 17.1209Z" fill="#6D6E71"/>
<path d="M294.605 18.5403L292.387 21.8004H290.302V15.5685H292.387V18.8286L294.605 15.5685H296.69V21.8004H294.605V18.5403ZM291.167 12.508H292.964C292.964 13.0403 293.163 13.3064 293.54 13.3064C293.895 13.3064 294.073 13.0403 294.073 12.508H295.869C295.869 13.2177 295.669 13.7721 295.248 14.2157C294.827 14.6592 294.272 14.8588 293.54 14.8588C292.764 14.8588 292.165 14.6592 291.766 14.2379C291.367 13.8165 291.167 13.2399 291.167 12.508Z" fill="#6D6E71"/>
<defs>
<linearGradient id="paint0_linear" x1="3.24615" y1="43.0131" x2="3.24615" y2="23.0356" gradientUnits="userSpaceOnUse">
<stop stop-color="white"/>
<stop offset="0.14" stop-color="#1E75BB"/>
<stop offset="0.85" stop-color="#1E75BB"/>
<stop offset="1" stop-color="white"/>
</linearGradient>
<linearGradient id="paint1_linear" x1="57.114" y1="43.0131" x2="57.114" y2="22.0953" gradientUnits="userSpaceOnUse">
<stop stop-color="white"/>
<stop offset="0.14" stop-color="#1E75BB"/>
<stop offset="0.85" stop-color="#1E75BB"/>
<stop offset="1" stop-color="white"/>
</linearGradient>
<linearGradient id="paint2_linear" x1="30.4457" y1="29.5869" x2="30.4457" y2="8.66911" gradientUnits="userSpaceOnUse">
<stop stop-color="white"/>
<stop offset="0.14" stop-color="#1E75BB"/>
<stop offset="0.85" stop-color="#1E75BB"/>
<stop offset="1" stop-color="white"/>
</linearGradient>
<linearGradient id="paint3_linear" x1="43.617" y1="14.7736" x2="42.9191" y2="4.27668" gradientUnits="userSpaceOnUse">
<stop stop-color="white"/>
<stop offset="0.14" stop-color="#1E75BB"/>
<stop offset="0.85" stop-color="#1E75BB"/>
<stop offset="1" stop-color="white"/>
</linearGradient>
<linearGradient id="paint4_linear" x1="15.9747" y1="62.5892" x2="15.8332" y2="51.7146" gradientUnits="userSpaceOnUse">
<stop stop-color="white"/>
<stop offset="0.14" stop-color="#1E75BB"/>
<stop offset="0.85" stop-color="#1E75BB"/>
<stop offset="1" stop-color="white"/>
</linearGradient>
<linearGradient id="paint5_linear" x1="43.5493" y1="46.9755" x2="42.8248" y2="36.5105" gradientUnits="userSpaceOnUse">
<stop stop-color="white"/>
<stop offset="0.14" stop-color="#1E75BB"/>
<stop offset="0.85" stop-color="#1E75BB"/>
<stop offset="1" stop-color="white"/>
</linearGradient>
<linearGradient id="paint6_linear" x1="44.3166" y1="62.762" x2="44.4649" y2="51.9056" gradientUnits="userSpaceOnUse">
<stop stop-color="white"/>
<stop offset="0.14" stop-color="#1E75BB"/>
<stop offset="0.85" stop-color="#1E75BB"/>
<stop offset="1" stop-color="white"/>
</linearGradient>
<linearGradient id="paint7_linear" x1="16.7379" y1="47.7231" x2="16.8862" y2="36.8644" gradientUnits="userSpaceOnUse">
<stop stop-color="white"/>
<stop offset="0.14" stop-color="#1E75BB"/>
<stop offset="0.85" stop-color="#1E75BB"/>
<stop offset="1" stop-color="white"/>
</linearGradient>
<linearGradient id="paint8_linear" x1="16.8187" y1="15.3668" x2="17.325" y2="4.71332" gradientUnits="userSpaceOnUse">
<stop stop-color="white"/>
<stop offset="0.14" stop-color="#1E75BB"/>
<stop offset="0.85" stop-color="#1E75BB"/>
<stop offset="1" stop-color="white"/>
</linearGradient>
</defs>
</svg>
