<svg width="38" height="50" viewBox="0 0 38 50" fill="none" xmlns="http://www.w3.org/2000/svg">
<path fill-rule="evenodd" clip-rule="evenodd" d="M0 18.8611C0 7.05517 9.58959 0 18.8597 0C28.1297 0 37.7193 7.05517 37.7193 18.8611C37.7193 31.3816 20.3829 48.8637 19.644 49.6015C19.4366 49.81 19.1537 49.9265 18.8597 49.9265C18.5657 49.9265 18.2828 49.81 18.0753 49.6015C17.3365 48.8637 0 31.3816 0 18.8611ZM12.204 18.8611C12.204 22.5324 15.1894 25.518 18.8604 25.518C22.5313 25.518 25.5167 22.5324 25.5167 18.8611C25.5167 15.1899 22.5313 12.2043 18.8604 12.2043C15.1894 12.2043 12.204 15.1899 12.204 18.8611Z" fill="#0B64CC"/>
</svg>
