<svg width="130" height="130" viewBox="0 0 130 130" fill="none" xmlns="http://www.w3.org/2000/svg">
<path d="M65 0C100.873 0 130 29.1265 130 65C130 100.873 100.873 130 65 130C29.1265 130 0 100.873 0 65C0 29.1265 29.1265 0 65 0Z" fill="#0B64CC"/>
<path d="M102.647 46.2104L57.6442 95.5409C54.615 99.0027 49.4223 99.0027 46.3934 95.5409L27.3537 74.3376C24.7575 71.3084 24.7575 66.5487 27.7864 63.5195C30.8155 60.9233 35.5753 60.9233 38.6045 63.9521L52.0188 79.0974L91.3958 36.2579C94.4253 33.2287 99.1851 32.7964 102.214 35.8256C105.243 38.4218 105.243 43.6142 102.647 46.2104Z" fill="#FEFEFE"/>
</svg>
