<svg width="18" height="18" viewBox="0 0 18 18" fill="none" xmlns="http://www.w3.org/2000/svg">
<path fill-rule="evenodd" clip-rule="evenodd" d="M7.19068 5.38001C7.93683 4.99507 8.78555 4.85406 9.61636 4.97655C10.4638 5.10149 11.2493 5.49424 11.8564 6.09788C12.4637 6.7016 12.8602 7.4843 12.9865 8.33071C13.1102 9.16053 12.9676 10.0078 12.5793 10.7518C12.1911 11.4956 11.5774 12.0978 10.8265 12.4736C10.0757 12.8493 9.22531 12.9799 8.39607 12.8473C7.56681 12.7146 6.79987 12.3252 6.20466 11.7334C5.60938 11.1416 5.21623 10.3774 5.08219 9.54917C4.94815 8.72095 5.08026 7.87199 5.45928 7.12328C5.83827 6.37466 6.44446 5.76498 7.19068 5.38001ZM9.32464 6.95516C8.90737 6.89364 8.48143 6.96458 8.10764 7.15742C7.73393 7.35021 7.43194 7.65469 7.24366 8.02661C7.05543 8.39844 6.99009 8.81932 7.0565 9.22964C7.12291 9.63999 7.3179 10.0199 7.61479 10.3151C7.91176 10.6104 8.2956 10.8058 8.71203 10.8724C9.1285 10.939 9.5553 10.8733 9.93148 10.685C10.3076 10.4968 10.6134 10.196 10.8063 9.82642C10.9991 9.45689 11.0697 9.03682 11.0083 8.62574C10.9458 8.20639 10.7492 7.81726 10.4463 7.51616C10.1434 7.21498 9.75025 7.01791 9.32464 6.95516Z" fill="#0B64CC"/>
<path d="M13.1211 5.9631C13.7424 5.9631 14.2461 5.46243 14.2461 4.84483C14.2461 4.22723 13.7424 3.72656 13.1211 3.72656C12.4998 3.72656 11.9961 4.22723 11.9961 4.84483C11.9961 5.46243 12.4998 5.9631 13.1211 5.9631Z" fill="#0B64CC"/>
<path fill-rule="evenodd" clip-rule="evenodd" d="M0.5 5.21975C0.5 2.60336 2.6317 0.492188 5.24912 0.492188H12.7474C15.3648 0.492188 17.4965 2.60336 17.4965 5.21975V12.6749C17.4965 15.2913 15.3648 17.4024 12.7474 17.4024H5.24912C2.6317 17.4024 0.5 15.2913 0.5 12.6749V5.21975ZM5.24912 2.49219C3.72538 2.49219 2.5 3.71879 2.5 5.21975V12.6749C2.5 14.1758 3.72538 15.4024 5.24912 15.4024H12.7474C14.2711 15.4024 15.4965 14.1758 15.4965 12.6749V5.21975C15.4965 3.71879 14.2711 2.49219 12.7474 2.49219H5.24912Z" fill="#0B64CC"/>
</svg>
