<svg width="15" height="12" viewBox="0 0 15 12" fill="none" xmlns="http://www.w3.org/2000/svg">
<path d="M14.2824 1.34127C13.7468 1.60952 13.2112 1.69894 12.5863 1.78836C13.2112 1.43069 13.6575 0.89418 13.836 0.178836C13.3005 0.536508 12.6756 0.715344 11.9615 0.89418C11.4259 0.357672 10.6225 0 9.81913 0C8.30163 0 6.96266 1.34127 6.96266 2.95079C6.96266 3.21905 6.96266 3.39788 7.05192 3.57672C4.64177 3.4873 2.41015 2.32487 0.981913 0.536508C0.714118 0.983598 0.624854 1.43069 0.624854 2.05661C0.624854 3.04021 1.16044 3.93439 1.96383 4.4709C1.5175 4.4709 1.07118 4.29207 0.624854 4.11323C0.624854 5.54392 1.60677 6.70635 2.94574 6.97461C2.67794 7.06402 2.41015 7.06402 2.14236 7.06402C1.96383 7.06402 1.7853 7.06402 1.60677 6.97461C1.96383 8.13704 3.035 9.03122 4.37398 9.03122C3.39206 9.83598 2.14236 10.2831 0.714118 10.2831C0.446324 10.2831 0.267794 10.2831 0 10.2831C1.33897 11.0878 2.85647 11.6243 4.46324 11.6243C9.81913 11.6243 12.7649 7.15344 12.7649 3.30847C12.7649 3.21905 12.7649 3.04021 12.7649 2.95079C13.3897 2.5037 13.9253 1.9672 14.2824 1.34127Z" fill="#0B64CC"/>
</svg>
