<svg width="36" height="118" viewBox="0 0 36 118" fill="none" xmlns="http://www.w3.org/2000/svg">
<path d="M17.5898 55.7744L31.2002 69.3647L35.1997 65.3652L17.5898 47.7554L0 65.3652L3.99954 69.3647L17.5898 55.7744Z" fill="#FF9D00"/>
<path d="M17.5898 79.5128L31.2002 93.1032L35.1997 89.1037L17.5898 71.4939L0 89.1037L3.99954 93.1032L17.5898 79.5128Z" fill="#FF9D00"/>
<path d="M17.5898 103.53L31.2002 117.14L35.1997 113.121L17.5898 95.5308L0 113.121L3.99954 117.14L17.5898 103.53Z" fill="#FF9D00"/>
<path d="M17.5898 8.01899L31.2002 21.6094L35.1997 17.6098L17.5898 0L0 17.6098L3.99954 21.6094L17.5898 8.01899Z" fill="#FF9D00"/>
<path d="M17.5898 31.7575L31.2002 45.3478L35.1997 41.3484L17.5898 23.7385L0 41.3484L3.99954 45.3478L17.5898 31.7575Z" fill="#FF9D00"/>
</svg>
