<svg width="1440" height="823" viewBox="0 0 1440 823" fill="none" xmlns="http://www.w3.org/2000/svg">
<path d="M-2.79032e-06 849.356H1440M-2.79032e-06 790.333H1440M-2.79032e-06 731.31H1440M-2.79032e-06 672.288H1440M-2.79032e-06 613.265H1440M-2.79032e-06 554.242H1440M-2.79032e-06 495.22L1440 495.22M-2.79032e-06 436.197L1440 436.197M-2.79032e-06 377.174H1440M-2.79032e-06 318.152H1440M-2.79032e-06 259.129H1440M-2.79032e-06 200.107H1440M-2.79031e-06 141.084H1440M-2.79032e-06 82.061H1440M-3.05176e-05 23.0383H1440M-3.05176e-05 -35.9844H1440M-3.05176e-05 -95.0071H1440M-3.05176e-05 -154.03L1440 -154.03M59.0226 908L59.0226 -151.758M118.045 908L118.045 -151.758M177.068 908L177.068 -151.758M236.09 908L236.09 -151.758M295.113 908L295.113 -151.758M354.136 908L354.136 -151.758M413.158 908L413.158 -151.758M472.181 908L472.181 -151.758M531.203 908V-151.758M590.226 908V-151.758M649.249 908V-151.758M708.271 908V-151.758M767.294 908V-151.758M826.316 908V-151.758M885.339 908V-151.758M944.362 908V-151.758M1003.38 908V-151.758M1062.41 908V-151.758M1121.43 908V-151.758M1180.45 908V-151.758M1239.47 908V-151.758M1298.5 908V-151.758M1357.52 908V-151.758M1416.54 908V-151.758" stroke="#ECF4FE" stroke-width="2"/>
</svg>
